<?xml version="1.0" encoding="UTF-8"?>
<!DOCTYPE svg PUBLIC "-//W3C//DTD SVG 1.1//EN" "http://www.w3.org/Graphics/SVG/1.1/DTD/svg11.dtd">
<!-- Creator: CorelDRAW 2020 (64-Bit) -->
<svg width="100" height="100" xmlns:xodm="http://www.corel.com/coreldraw/odm/2003">
 <defs>
  <style type="text/css">
   <![CDATA[
    .fil0 {fill:#201E1E}
    .fnt0 {font-weight:normal;font-size:888.4px;font-family:'Swis721 Cn BT'}
   ]]>
  </style>
 </defs>
 <g id="Layer_x0020_1">
  <metadata id="CorelCorpID_0Corel-Layer"/>
  <g transform="matrix(1.07295 0 0 1 -1665.54 1651.02)">
   <text x="4049.24" y="1820.56"  class="fil0 fnt0">Line Properties   </text>
  </g>
  <path class="fil0" d="M-0 1018.96l1689.96 -1018.96 1695.06 1010.54 0 1695.04 -801.71 0 0 765.9 -926.58 0 0 -874.7 820.3 0 0 -2001.33 -792.45 -469.37 -840.11 492.95 0 2852.48 -844.47 -5.44 0 -2447.11zm2583.4 -359.46l695.25 412.54 0 1524.94 -695.25 0 0 -1937.48zm-819.91 2046.59l711.3 0 0 656.8 -711.3 0 0 -656.8zm-1025.36 -2020.15l-631.74 393.05 0 2283.87 631.74 0 0 -2676.92z"/>
 </g>
</svg>
