<?xml version="1.0" encoding="utf-8"?>
<!-- Generator: Adobe Illustrator 26.0.3, SVG Export Plug-In . SVG Version: 6.00 Build 0)  -->
<svg version="1.1" id="Layer_1" xmlns="http://www.w3.org/2000/svg" xmlns:xlink="http://www.w3.org/1999/xlink" x="0px" y="0px"
	 viewBox="0 0 960 1080" style="enable-background:new 0 0 960 1080;" xml:space="preserve">
<style type="text/css">
	.st0{fill:#999999;}
	.st1{fill:none;}
	.st2{fill:none;stroke:#000000;stroke-width:2;stroke-miterlimit:10;}
	.st3{fill:#061C49;}
	.st4{fill:#F8FFFF;}
	.st5{fill:#FFBE3D;}
	.st6{fill:#E3E1DC;}
	.st7{fill:#D0A657;}
	.st8{fill:#102132;}
	.st9{fill:#FFBE3D;stroke:#FFFFFF;stroke-width:3;stroke-miterlimit:10;}
	.st10{fill:#D0A657;stroke:#FFFFFF;stroke-width:3;stroke-miterlimit:10;}
	.st11{fill:#102132;stroke:#FFFFFF;stroke-width:3;stroke-miterlimit:10;}
	.st12{fill:#061C49;stroke:#FFFFFF;stroke-width:3;stroke-miterlimit:10;}
	.st13{fill:#0C2648;}
	.st14{fill:#FE7F31;}
	.st15{fill:#FFFFFF;}
	.st16{fill:#FE7F31;stroke:#FFFFFF;stroke-width:3;stroke-miterlimit:10;}
	.st17{fill:#0C2648;stroke:#FFFFFF;stroke-width:3;stroke-miterlimit:10;}
	.st18{font-family:'Metropolis-Medium';}
	.st19{font-size:25.5168px;}
	.st20{font-size:24.0822px;}
	.st21{fill:#7A7A7A;}
	.st22{fill:#5C5C5C;}
	.st23{fill:#3D3D3D;}
	.st24{fill:#1F1F1F;}
	.st25{fill:none;stroke:#000000;stroke-width:4;stroke-miterlimit:10;}
</style>
<rect y="0" class="st13" width="480" height="540"/>
<rect x="479" y="0" class="st4" width="480" height="540"/>
<rect y="540" class="st14" width="960" height="540"/>
<polygon class="st5" points="642.53,324.82 642.53,334.04 601.21,334.04 601.21,214.64 610.42,218.98 610.42,324.82 "/>
<polygon class="st14" points="642.53,324.82 642.53,334.04 601.21,334.04 601.21,214.64 610.42,218.98 610.42,324.82 "/>
<polygon class="st13" points="697,144.07 735.69,171.17 735.69,182.43 697,155.32 655.03,184.71 654.89,334.04 645.8,334.04 
	645.8,292.45 645.71,292.45 645.71,289.18 645.81,191.17 614.01,213.45 610.92,215.61 601.34,211.09 604.42,208.93 "/>
<path class="st14" d="M742.23,175.75l-3.27-2.29v160.58h9.22v-49.72h44.62v-73.15L742.23,175.75z M783.58,275.1h-35.4v-83.93
	l35.4,24.79V275.1z"/>
<g>
	<g>
		<g>
			<polygon class="st13" points="792.79,288.22 792.79,334.04 751.99,334.04 751.99,324.82 783.58,324.82 783.58,288.22 			"/>
		</g>
	</g>
</g>
<g>
	<g>
		<path class="st13" d="M697,250.31c-16.99,0-30.82,13.82-30.82,30.82v53.26h61.61v-53.26C727.79,264.14,713.99,250.31,697,250.31z
			 M718.58,325.17H675.4v-44.04c0-11.92,9.68-21.6,21.6-21.6c11.9,0,21.58,9.68,21.58,21.6V325.17z"/>
	</g>
</g>
<g>
	<path class="st13" d="M681.9,292.1c-2.47,0-4.5,2-4.5,4.48c0,2.48,2.03,4.5,4.5,4.5c2.48,0,4.49-2.02,4.49-4.5
		C686.39,294.1,684.39,292.1,681.9,292.1z M681.68,296.58c0-0.11,0.1-0.2,0.22-0.2c0.11,0,0.21,0.09,0.21,0.2
		C682.11,296.81,681.68,296.81,681.68,296.58z"/>
	<path class="st13" d="M682.11,296.58c0,0.24-0.42,0.24-0.42,0c0-0.11,0.1-0.2,0.22-0.2C682.01,296.38,682.11,296.47,682.11,296.58z
		"/>
</g>
<polygon class="st5" points="180.53,324.82 180.53,334.04 139.21,334.04 139.21,214.64 148.42,218.98 148.42,324.82 "/>
<polygon class="st4" points="180.53,324.82 180.53,334.04 139.21,334.04 139.21,214.64 148.42,218.98 148.42,324.82 "/>
<polygon class="st14" points="235,144.07 273.69,171.17 273.69,182.43 235,155.32 193.03,184.71 192.89,334.04 183.8,334.04 
	183.8,292.45 183.71,292.45 183.71,289.18 183.81,191.17 152.01,213.45 148.92,215.61 139.34,211.09 142.42,208.93 "/>
<path class="st4" d="M280.23,175.75l-3.27-2.29v160.58h9.22v-49.72h44.62v-73.15L280.23,175.75z M321.58,275.1h-35.4v-83.93
	l35.4,24.79V275.1z"/>
<g>
	<g>
		<g>
			<polygon class="st14" points="330.79,288.22 330.79,334.04 289.99,334.04 289.99,324.82 321.58,324.82 321.58,288.22 			"/>
		</g>
	</g>
</g>
<g>
	<g>
		<path class="st14" d="M235,250.31c-16.99,0-30.82,13.82-30.82,30.82v53.26h61.61v-53.26C265.8,264.14,251.99,250.31,235,250.31z
			 M256.58,325.17H213.4v-44.04c0-11.92,9.68-21.6,21.6-21.6c11.9,0,21.58,9.68,21.58,21.6V325.17z"/>
	</g>
</g>
<g>
	<path class="st14" d="M219.9,292.1c-2.47,0-4.5,2-4.5,4.48c0,2.48,2.03,4.5,4.5,4.5c2.48,0,4.49-2.02,4.49-4.5
		C224.39,294.1,222.39,292.1,219.9,292.1z M219.68,296.58c0-0.11,0.1-0.2,0.22-0.2c0.11,0,0.21,0.09,0.21,0.2
		C220.11,296.81,219.68,296.81,219.68,296.58z"/>
	<path class="st14" d="M220.11,296.58c0,0.24-0.42,0.24-0.42,0c0-0.11,0.1-0.2,0.22-0.2C220.01,296.38,220.11,296.47,220.11,296.58z
		"/>
</g>
<polygon class="st3" points="437.53,822.82 437.53,832.04 396.21,832.04 396.21,712.64 405.42,716.98 405.42,822.82 "/>
<polygon class="st15" points="437.53,822.82 437.53,832.04 396.21,832.04 396.21,712.64 405.42,716.98 405.42,822.82 "/>
<polygon class="st13" points="492,642.07 530.69,669.17 530.69,680.43 492,653.32 450.03,682.71 449.89,832.04 440.8,832.04 
	440.8,790.45 440.71,790.45 440.71,787.18 440.81,689.17 409.01,711.45 405.92,713.61 396.34,709.09 399.42,706.93 "/>
<path class="st15" d="M537.23,673.75l-3.27-2.29v160.58h9.22v-49.72h44.62v-73.15L537.23,673.75z M578.58,773.1h-35.4v-83.93
	l35.4,24.79V773.1z"/>
<g>
	<g>
		<g>
			<polygon class="st13" points="587.79,786.22 587.79,832.04 546.99,832.04 546.99,822.82 578.58,822.82 578.58,786.22 			"/>
		</g>
	</g>
</g>
<g>
	<g>
		<path class="st13" d="M492,748.31c-16.99,0-30.82,13.82-30.82,30.82v53.26h61.61v-53.26C522.79,762.14,508.99,748.31,492,748.31z
			 M513.58,823.17H470.4v-44.04c0-11.92,9.68-21.6,21.6-21.6c11.9,0,21.58,9.68,21.58,21.6V823.17z"/>
	</g>
</g>
<g>
	<path class="st13" d="M476.9,790.1c-2.47,0-4.5,2-4.5,4.48c0,2.48,2.03,4.5,4.5,4.5c2.48,0,4.49-2.02,4.49-4.5
		C481.39,792.1,479.39,790.1,476.9,790.1z M476.68,794.58c0-0.11,0.1-0.2,0.22-0.2c0.11,0,0.21,0.09,0.21,0.2
		C477.11,794.81,476.68,794.81,476.68,794.58z"/>
	<path class="st13" d="M477.11,794.58c0,0.24-0.42,0.24-0.42,0c0-0.11,0.1-0.2,0.22-0.2C477.01,794.38,477.11,794.47,477.11,794.58z
		"/>
</g>
<g>
	<g>
		<path class="st13" d="M191.76,910.19c-0.81-0.78-1.21-1.82-1.21-3.13v-54.65c0-1.37,0.42-2.49,1.25-3.36
			c0.84-0.86,1.94-1.3,3.31-1.3c1.43,0,2.57,0.42,3.4,1.25c0.84,0.84,1.25,1.97,1.25,3.4v51.24h27.23c1.37,0,2.43,0.33,3.18,0.99
			c0.75,0.66,1.12,1.61,1.12,2.87c0,1.25-0.37,2.21-1.12,2.87c-0.75,0.66-1.81,0.99-3.18,0.99h-31.98
			C193.65,911.36,192.57,910.97,191.76,910.19z"/>
		<path class="st13" d="M238.93,856.53c-1.02-0.95-1.52-2.21-1.52-3.76c0-1.55,0.51-2.79,1.52-3.72c1.01-0.92,2.39-1.39,4.12-1.39
			c1.67,0,3.03,0.46,4.08,1.39c1.04,0.93,1.57,2.17,1.57,3.72c0,1.55-0.51,2.81-1.52,3.76c-1.02,0.96-2.39,1.43-4.12,1.43
			C241.31,857.96,239.94,857.49,238.93,856.53z M239.78,910.73c-0.87-0.72-1.3-1.79-1.3-3.23v-36.37c0-1.43,0.43-2.52,1.3-3.27
			c0.86-0.75,1.96-1.12,3.27-1.12c1.31,0,2.39,0.37,3.22,1.12c0.84,0.75,1.25,1.84,1.25,3.27v36.37c0,1.43-0.42,2.51-1.25,3.23
			c-0.84,0.72-1.91,1.07-3.22,1.07C241.73,911.8,240.64,911.44,239.78,910.73z"/>
		<path class="st13" d="M299.4,884.21v23.29c0,1.37-0.4,2.43-1.21,3.18c-0.81,0.75-1.93,1.12-3.36,1.12c-1.37,0-2.46-0.39-3.27-1.16
			c-0.81-0.78-1.21-1.82-1.21-3.14v-22.84c0-3.7-0.73-6.42-2.2-8.15c-1.46-1.73-3.75-2.6-6.85-2.6c-3.64,0-6.57,1.14-8.78,3.4
			c-2.21,2.27-3.31,5.32-3.31,9.14v21.05c0,1.31-0.4,2.36-1.21,3.14c-0.81,0.78-1.9,1.16-3.27,1.16c-1.37,0-2.48-0.39-3.31-1.16
			c-0.84-0.78-1.25-1.82-1.25-3.14v-36.46c0-1.25,0.43-2.29,1.3-3.09c0.86-0.81,1.96-1.21,3.27-1.21c1.31,0,2.36,0.39,3.14,1.16
			c0.78,0.78,1.16,1.79,1.16,3.05v3.67c1.43-2.63,3.43-4.63,6-6c2.57-1.37,5.46-2.06,8.69-2.06
			C294.17,866.56,299.4,872.45,299.4,884.21z"/>
		<path class="st13" d="M348.04,901.32c0.54,0.66,0.81,1.49,0.81,2.51c0,1.73-1.07,3.2-3.23,4.39c-2.09,1.19-4.38,2.12-6.85,2.78
			c-2.48,0.66-4.85,0.99-7.12,0.99c-6.93,0-12.39-2.01-16.39-6.05c-4-4.03-6-9.54-6-16.53c0-4.48,0.88-8.45,2.64-11.92
			c1.76-3.46,4.24-6.15,7.44-8.06c3.19-1.91,6.82-2.87,10.88-2.87c5.85,0,10.48,1.88,13.89,5.64s5.11,8.84,5.11,15.23
			c0,2.39-1.07,3.58-3.22,3.58H318.3c0.6,9.26,5.05,13.89,13.35,13.89c2.21,0,4.12-0.3,5.73-0.9c1.61-0.6,3.31-1.37,5.11-2.33
			c0.18-0.12,0.67-0.37,1.48-0.76c0.81-0.39,1.48-0.58,2.02-0.58C346.81,900.34,347.5,900.67,348.04,901.32z M322.06,876.51
			c-2.09,2.21-3.35,5.32-3.76,9.32h23.11c-0.18-4.06-1.21-7.18-3.09-9.36c-1.88-2.18-4.52-3.27-7.93-3.27
			C326.93,873.19,324.15,874.3,322.06,876.51z"/>
		<path class="st13" d="M385.13,910.55c-0.84-0.84-1.25-1.97-1.25-3.4v-54.47c0-1.37,0.4-2.46,1.21-3.27
			c0.81-0.81,1.93-1.21,3.36-1.21h21.59c6.69,0,11.88,1.64,15.59,4.93c3.7,3.28,5.55,7.94,5.55,13.97c0,5.97-1.85,10.63-5.55,13.98
			c-3.7,3.35-8.9,5.02-15.59,5.02H393.1v21.05c0,1.43-0.4,2.57-1.21,3.4c-0.81,0.84-1.96,1.25-3.45,1.25
			C387.07,911.8,385.96,911.39,385.13,910.55z M409.04,878.66c8.84,0,13.26-3.85,13.26-11.56c0-7.64-4.42-11.47-13.26-11.47H393.1
			v23.02H409.04z"/>
		<path class="st13" d="M467.54,870.41c0,1.31-0.33,2.3-0.99,2.96c-0.66,0.66-1.79,1.05-3.4,1.16l-2.69,0.27
			c-3.76,0.36-6.56,1.67-8.38,3.94c-1.82,2.27-2.73,5.02-2.73,8.24v20.52c0,1.43-0.42,2.51-1.25,3.23
			c-0.84,0.72-1.91,1.07-3.22,1.07c-1.31,0-2.41-0.36-3.27-1.07c-0.87-0.72-1.3-1.79-1.3-3.23v-36.46c0-1.37,0.43-2.43,1.3-3.18
			c0.86-0.75,1.96-1.12,3.27-1.12c1.19,0,2.19,0.37,3,1.12c0.81,0.75,1.21,1.78,1.21,3.09v4.3c1.19-2.63,2.93-4.63,5.2-6
			c2.27-1.37,4.84-2.18,7.7-2.42l1.25-0.09C466.11,866.56,467.54,867.79,467.54,870.41z"/>
		<path class="st13" d="M479.86,909.21c-3.26-1.85-5.76-4.49-7.52-7.93c-1.76-3.43-2.64-7.42-2.64-11.96c0-4.6,0.88-8.61,2.64-12.05
			c1.76-3.43,4.27-6.08,7.52-7.93c3.25-1.85,7.03-2.78,11.33-2.78c4.3,0,8.08,0.93,11.33,2.78c3.25,1.85,5.76,4.49,7.53,7.93
			c1.76,3.43,2.64,7.45,2.64,12.05c0,4.54-0.88,8.53-2.64,11.96c-1.76,3.43-4.27,6.08-7.53,7.93c-3.26,1.85-7.03,2.78-11.33,2.78
			C486.89,911.98,483.12,911.06,479.86,909.21z M500.38,900.87c2.12-2.63,3.18-6.48,3.18-11.56c0-5.02-1.07-8.85-3.22-11.51
			c-2.15-2.66-5.2-3.99-9.14-3.99c-3.94,0-6.99,1.33-9.14,3.99c-2.15,2.66-3.22,6.5-3.22,11.51c0,5.08,1.06,8.93,3.18,11.56
			c2.12,2.63,5.18,3.94,9.18,3.94C495.2,904.82,498.26,903.5,500.38,900.87z"/>
		<path class="st13" d="M556.28,869.43c2.96,1.91,5.25,4.6,6.9,8.06c1.64,3.46,2.46,7.47,2.46,12c0,4.48-0.81,8.42-2.42,11.83
			c-1.61,3.4-3.9,6.03-6.85,7.88c-2.96,1.85-6.35,2.78-10.17,2.78c-3.29,0-6.18-0.7-8.69-2.11c-2.51-1.4-4.42-3.42-5.73-6.05v19.98
			c0,1.25-0.4,2.25-1.21,3c-0.81,0.75-1.87,1.12-3.18,1.12c-1.37,0-2.49-0.39-3.36-1.16c-0.87-0.78-1.3-1.82-1.3-3.14v-52.5
			c0-1.31,0.42-2.37,1.25-3.18c0.84-0.81,1.94-1.21,3.31-1.21c1.31,0,2.39,0.4,3.22,1.21c0.84,0.81,1.25,1.87,1.25,3.18v3.67
			c1.31-2.63,3.22-4.66,5.73-6.09c2.51-1.43,5.4-2.15,8.69-2.15C549.96,866.56,553.32,867.52,556.28,869.43z M553.19,900.83
			c2.15-2.66,3.23-6.43,3.23-11.33c0-4.96-1.09-8.81-3.27-11.56c-2.18-2.75-5.21-4.12-9.09-4.12c-3.94,0-6.97,1.34-9.09,4.03
			c-2.12,2.69-3.18,6.51-3.18,11.47c0,4.96,1.06,8.78,3.18,11.47c2.12,2.69,5.15,4.03,9.09,4.03
			C547.99,904.82,551.04,903.49,553.19,900.83z"/>
		<path class="st13" d="M611.95,901.32c0.54,0.66,0.81,1.49,0.81,2.51c0,1.73-1.07,3.2-3.23,4.39c-2.09,1.19-4.38,2.12-6.85,2.78
			c-2.48,0.66-4.85,0.99-7.12,0.99c-6.93,0-12.39-2.01-16.39-6.05c-4-4.03-6-9.54-6-16.53c0-4.48,0.88-8.45,2.64-11.92
			c1.76-3.46,4.24-6.15,7.44-8.06c3.19-1.91,6.82-2.87,10.88-2.87c5.85,0,10.48,1.88,13.89,5.64s5.11,8.84,5.11,15.23
			c0,2.39-1.07,3.58-3.22,3.58h-27.68c0.6,9.26,5.05,13.89,13.35,13.89c2.21,0,4.12-0.3,5.73-0.9c1.61-0.6,3.31-1.37,5.11-2.33
			c0.18-0.12,0.67-0.37,1.48-0.76c0.81-0.39,1.48-0.58,2.02-0.58C610.73,900.34,611.42,900.67,611.95,901.32z M585.97,876.51
			c-2.09,2.21-3.35,5.32-3.76,9.32h23.11c-0.18-4.06-1.21-7.18-3.09-9.36c-1.88-2.18-4.52-3.27-7.93-3.27
			C590.84,873.19,588.06,874.3,585.97,876.51z"/>
		<path class="st13" d="M650.3,870.41c0,1.31-0.33,2.3-0.99,2.96c-0.66,0.66-1.79,1.05-3.4,1.16l-2.69,0.27
			c-3.76,0.36-6.56,1.67-8.38,3.94c-1.82,2.27-2.73,5.02-2.73,8.24v20.52c0,1.43-0.42,2.51-1.25,3.23
			c-0.84,0.72-1.91,1.07-3.22,1.07c-1.31,0-2.41-0.36-3.27-1.07c-0.87-0.72-1.3-1.79-1.3-3.23v-36.46c0-1.37,0.43-2.43,1.3-3.18
			c0.86-0.75,1.96-1.12,3.27-1.12c1.19,0,2.19,0.37,3,1.12c0.81,0.75,1.21,1.78,1.21,3.09v4.3c1.19-2.63,2.93-4.63,5.2-6
			c2.27-1.37,4.84-2.18,7.7-2.42l1.25-0.09C648.86,866.56,650.3,867.79,650.3,870.41z"/>
		<path class="st13" d="M683.84,905.94c0.57,0.57,0.85,1.36,0.85,2.37c0,1.19-0.46,2.11-1.39,2.73c-0.93,0.63-2.28,0.88-4.08,0.76
			l-2.42-0.18c-4.84-0.36-8.45-1.84-10.84-4.43c-2.39-2.6-3.58-6.43-3.58-11.51v-21.05h-5.37c-2.63,0-3.94-1.16-3.94-3.49
			c0-1.07,0.34-1.93,1.03-2.55c0.69-0.63,1.66-0.94,2.91-0.94h5.37v-9.23c0-1.37,0.4-2.45,1.21-3.23c0.81-0.78,1.9-1.16,3.27-1.16
			c1.37,0,2.48,0.39,3.31,1.16c0.84,0.78,1.25,1.85,1.25,3.23v9.23h8.87c1.25,0,2.22,0.31,2.91,0.94c0.69,0.63,1.03,1.48,1.03,2.55
			c0,1.14-0.34,2-1.03,2.6c-0.69,0.6-1.66,0.9-2.91,0.9h-8.87v21.68c0,2.81,0.58,4.87,1.75,6.18c1.16,1.31,2.94,2.06,5.33,2.24
			l2.51,0.18C682.34,905.03,683.28,905.37,683.84,905.94z"/>
		<path class="st13" d="M691.68,856.53c-1.02-0.95-1.52-2.21-1.52-3.76c0-1.55,0.51-2.79,1.52-3.72c1.01-0.92,2.39-1.39,4.12-1.39
			c1.67,0,3.03,0.46,4.08,1.39c1.04,0.93,1.57,2.17,1.57,3.72c0,1.55-0.51,2.81-1.52,3.76c-1.02,0.96-2.39,1.43-4.12,1.43
			C694.07,857.96,692.7,857.49,691.68,856.53z M692.53,910.73c-0.87-0.72-1.3-1.79-1.3-3.23v-36.37c0-1.43,0.43-2.52,1.3-3.27
			c0.86-0.75,1.96-1.12,3.27-1.12c1.31,0,2.39,0.37,3.22,1.12c0.84,0.75,1.25,1.84,1.25,3.27v36.37c0,1.43-0.42,2.51-1.25,3.23
			c-0.84,0.72-1.91,1.07-3.22,1.07C694.49,911.8,693.4,911.44,692.53,910.73z"/>
		<path class="st13" d="M749.2,901.32c0.54,0.66,0.81,1.49,0.81,2.51c0,1.73-1.07,3.2-3.23,4.39c-2.09,1.19-4.38,2.12-6.85,2.78
			c-2.48,0.66-4.85,0.99-7.12,0.99c-6.93,0-12.39-2.01-16.39-6.05c-4-4.03-6-9.54-6-16.53c0-4.48,0.88-8.45,2.64-11.92
			c1.76-3.46,4.24-6.15,7.44-8.06c3.19-1.91,6.82-2.87,10.88-2.87c5.85,0,10.48,1.88,13.89,5.64s5.11,8.84,5.11,15.23
			c0,2.39-1.08,3.58-3.22,3.58h-27.68c0.6,9.26,5.05,13.89,13.35,13.89c2.21,0,4.12-0.3,5.73-0.9c1.61-0.6,3.31-1.37,5.11-2.33
			c0.18-0.12,0.67-0.37,1.48-0.76c0.81-0.39,1.48-0.58,2.02-0.58C747.97,900.34,748.66,900.67,749.2,901.32z M723.22,876.51
			c-2.09,2.21-3.35,5.32-3.76,9.32h23.11c-0.18-4.06-1.21-7.18-3.09-9.36c-1.88-2.18-4.52-3.27-7.93-3.27
			C728.08,873.19,725.31,874.3,723.22,876.51z"/>
		<path class="st13" d="M760.57,908.22c-1.07-0.66-1.84-1.34-2.28-2.06c-0.45-0.72-0.67-1.52-0.67-2.42c0-0.96,0.27-1.76,0.81-2.42
			c0.54-0.66,1.22-0.99,2.06-0.99c0.78,0,2,0.48,3.67,1.43c1.79,0.96,3.54,1.73,5.24,2.33c1.7,0.6,3.84,0.9,6.41,0.9
			c2.87,0,5.11-0.51,6.72-1.52c1.61-1.01,2.42-2.45,2.42-4.3c0-1.19-0.31-2.15-0.94-2.87c-0.63-0.72-1.72-1.36-3.27-1.93
			c-1.55-0.57-3.85-1.18-6.9-1.84c-5.26-1.13-9.03-2.67-11.33-4.61c-2.3-1.94-3.45-4.58-3.45-7.93c0-2.57,0.75-4.88,2.24-6.94
			c1.49-2.06,3.55-3.66,6.18-4.79c2.63-1.13,5.61-1.7,8.96-1.7c2.39,0,4.72,0.31,6.99,0.94c2.27,0.63,4.27,1.54,6,2.73
			c1.97,1.31,2.96,2.84,2.96,4.57c0,0.96-0.28,1.76-0.85,2.42c-0.57,0.66-1.24,0.99-2.02,0.99c-0.54,0-1.07-0.12-1.61-0.36
			c-0.54-0.24-1.25-0.63-2.15-1.16c-1.61-0.95-3.12-1.7-4.52-2.24c-1.4-0.54-3.15-0.81-5.24-0.81c-2.51,0-4.52,0.54-6.05,1.61
			c-1.52,1.07-2.28,2.54-2.28,4.39c0,1.67,0.7,2.97,2.11,3.9c1.4,0.93,4.05,1.81,7.93,2.64c4,0.84,7.14,1.79,9.41,2.87
			c2.27,1.07,3.9,2.4,4.88,3.99c0.99,1.58,1.48,3.6,1.48,6.05c0,3.88-1.63,7-4.88,9.36c-3.26,2.36-7.6,3.54-13.03,3.54
			C769.44,911.98,764.45,910.73,760.57,908.22z"/>
	</g>
</g>
<path class="st16" d="M326.5,566h-166c-14.02,0-25.5-11.47-25.5-25.5l0,0c0-14.03,11.47-25.5,25.5-25.5h166
	c14.02,0,25.5,11.47,25.5,25.5l0,0C352,554.53,340.53,566,326.5,566z"/>
<path class="st17" d="M832,565.5H666c-14.03,0-25.5-11.47-25.5-25.5l0,0c0-14.03,11.47-25.5,25.5-25.5h166
	c14.03,0,25.5,11.47,25.5,25.5l0,0C857.5,554.03,846.03,565.5,832,565.5z"/>
<text transform="matrix(1 0 0 1 187.6104 548.8555)" class="st15 st18 st19">#FE7F31</text>
<text transform="matrix(1 0 0 1 697.3936 547.2559)" class="st15 st18 st20">#0C2648</text>
</svg>
