<?xml version="1.0" encoding="utf-8"?>
<!-- Generator: Adobe Illustrator 26.0.3, SVG Export Plug-In . SVG Version: 6.00 Build 0)  -->
<svg version="1.1" id="Layer_1" xmlns="http://www.w3.org/2000/svg" xmlns:xlink="http://www.w3.org/1999/xlink" x="0px" y="0px"
	 viewBox="0 0 960 1080" style="enable-background:new 0 0 960 1080;" xml:space="preserve">
<style type="text/css">
	.st0{fill:#999999;}
	.st1{fill:none;}
	.st2{fill:none;stroke:#000000;stroke-width:2;stroke-miterlimit:10;}
	.st3{font-family:'Metropolis-Medium';}
	.st4{font-size:22.8538px;}
	.st5{fill:#061C49;}
	.st6{fill:#F8FFFF;}
	.st7{fill:#FFBE3D;}
	.st8{fill:#E3E1DC;}
	.st9{fill:#D0A657;}
	.st10{fill:#102132;}
	.st11{fill:#FFBE3D;stroke:#FFFFFF;stroke-width:3;stroke-miterlimit:10;}
	.st12{fill:#D0A657;stroke:#FFFFFF;stroke-width:3;stroke-miterlimit:10;}
	.st13{fill:#102132;stroke:#FFFFFF;stroke-width:3;stroke-miterlimit:10;}
	.st14{fill:#061C49;stroke:#FFFFFF;stroke-width:3;stroke-miterlimit:10;}
	.st15{fill:#0C2648;}
	.st16{fill:#FE7F31;}
	.st17{fill:#FFFFFF;}
	.st18{fill:#FE7F31;stroke:#FFFFFF;stroke-width:3;stroke-miterlimit:10;}
	.st19{fill:#0C2648;stroke:#FFFFFF;stroke-width:3;stroke-miterlimit:10;}
	.st20{fill:#7A7A7A;}
	.st21{fill:#5C5C5C;}
	.st22{fill:#3D3D3D;}
	.st23{fill:#1F1F1F;}
	.st24{fill:none;stroke:#000000;stroke-width:4;stroke-miterlimit:10;}
</style>
<g>
	<polygon points="421.43,632.05 421.43,641.96 376.98,641.96 376.98,513.55 386.89,518.23 386.89,632.05 	"/>
	<polygon class="st0" points="421.43,632.05 421.43,641.96 376.98,641.96 376.98,513.55 386.89,518.23 386.89,632.05 	"/>
	<polygon points="480,437.67 521.61,466.81 521.61,478.91 480,449.77 434.86,481.37 434.71,641.96 424.94,641.96 424.94,597.23 
		424.85,597.23 424.85,593.72 424.95,488.32 390.75,512.28 387.43,514.6 377.12,509.74 380.44,507.42 	"/>
	<polygon points="521.61,466.81 521.61,478.91 480,449.77 434.86,481.37 434.71,641.96 424.94,641.96 424.94,597.23 424.85,597.23 
		424.85,593.72 424.95,488.32 390.75,512.28 387.43,514.6 377.12,509.74 380.44,507.42 480,437.67 	"/>
	<path class="st0" d="M528.64,471.73l-3.51-2.46v172.69h9.91v-53.47h47.98v-78.66L528.64,471.73z M573.11,578.58h-38.07v-90.26
		l38.07,26.66V578.58z"/>
	<g>
		<g>
			<g>
				<polygon points="583.02,592.69 583.02,641.96 539.14,641.96 539.14,632.05 573.11,632.05 573.11,592.69 				"/>
			</g>
		</g>
	</g>
	<g>
		<g>
			<path d="M480,551.92c-18.28,0-33.14,14.87-33.14,33.14v57.27h66.26v-57.27C513.12,566.79,498.28,551.92,480,551.92z
				 M503.21,632.42h-46.44v-47.36c0-12.82,10.41-23.23,23.23-23.23c12.79,0,23.21,10.41,23.21,23.23V632.42z"/>
		</g>
	</g>
	<g>
		<path d="M463.76,596.86c-2.66,0-4.84,2.16-4.84,4.81c0,2.67,2.18,4.84,4.84,4.84c2.67,0,4.83-2.17,4.83-4.84
			C468.59,599.01,466.43,596.86,463.76,596.86z M463.53,601.67c0-0.12,0.11-0.21,0.23-0.21c0.12,0,0.22,0.09,0.22,0.21
			C463.99,601.93,463.53,601.93,463.53,601.67z"/>
		<path class="st1" d="M463.99,601.67c0,0.26-0.46,0.26-0.46,0c0-0.12,0.11-0.21,0.23-0.21
			C463.88,601.46,463.99,601.55,463.99,601.67z"/>
	</g>
</g>
<g>
	<path d="M239.77,88.92h-26.5l-4.44,10.36h-8.29l21.84-50.86h8.29l21.84,50.86h-8.29L239.77,88.92z M236.88,82.18l-10.36-24.14
		l-10.37,24.14H236.88z"/>
	<path d="M298.63,80.11c0,11.77-7.55,20.06-17.62,20.06c-5.92,0-10.66-2.81-13.62-7.55v6.66h-7.26V47.53h7.26V67.6
		c2.96-4.66,7.7-7.48,13.62-7.48C291.07,60.12,298.63,68.41,298.63,80.11z M291.22,80.11c0-8-4.96-13.62-11.99-13.62
		c-6.88,0-11.85,5.63-11.85,13.62c0,8,4.96,13.7,11.85,13.7C286.26,93.8,291.22,88.1,291.22,80.11z"/>
	<path d="M305.43,80.11c0-10.88,9.25-19.99,20.21-19.99c10.88,0,20.06,9.11,20.06,19.99s-9.18,20.06-20.06,20.06
		C314.69,100.17,305.43,90.99,305.43,80.11z M338.38,80.11c0-7.4-5.85-13.62-12.73-13.62c-7.03,0-12.88,6.22-12.88,13.62
		c0,7.48,5.85,13.7,12.88,13.7C332.53,93.8,338.38,87.58,338.38,80.11z"/>
	<path d="M387.98,61.01v38.28h-7.33v-5.55c-2.29,3.78-6.96,6.44-12.14,6.44c-8.44,0-14.36-6.14-14.36-14.81V61.01h7.18v23.1
		c0,5.7,3.63,9.7,8.81,9.7c5.33,0,9.92-3.48,10.51-8v-24.8H387.98z"/>
	<path d="M419.22,97.43c-2.07,1.7-4.89,2.74-7.63,2.74c-5.92,0-10.07-4.29-10.07-10.44V67.23h-5.77v-6.22h5.77V50.49h7.18v10.51
		h9.03v6.22h-9.03v21.99c0,2.67,1.78,4.59,3.92,4.59c1.63,0,3.11-0.59,3.92-1.41L419.22,97.43z"/>
	<path d="M468.45,97.43c-2.07,1.7-4.89,2.74-7.63,2.74c-5.92,0-10.07-4.29-10.07-10.44V67.23h-5.77v-6.22h5.77V50.49h7.18v10.51
		h9.03v6.22h-9.03v21.99c0,2.67,1.78,4.59,3.92,4.59c1.63,0,3.11-0.59,3.92-1.41L468.45,97.43z"/>
	<path d="M509.76,74.92v24.36h-7.18v-23.1c0-5.7-3.63-9.7-8.81-9.7c-5.78,0-10.59,4.07-10.59,9.03v23.77h-7.25V47.53h7.25v19.18
		c2.3-3.85,6.96-6.59,12.22-6.59C503.84,60.12,509.76,66.26,509.76,74.92z"/>
	<path d="M548.78,89.51l4.59,4.74c-3.4,3.63-10.07,5.92-15.47,5.92c-10.66,0-19.69-8.37-19.69-20.14c0-11.48,8.51-19.92,19.1-19.92
		c11.7,0,18.43,8.88,18.43,22.58H525.6c0.96,6.37,5.63,10.96,12.22,10.96C541.82,93.66,546.48,91.88,548.78,89.51z M525.68,76.85
		h22.95c-0.81-5.92-4.44-10.22-11.03-10.22C531.67,66.63,526.86,70.63,525.68,76.85z"/>
	<path d="M619.48,92.32v6.96h-34.5V48.42h7.55v43.9H619.48z"/>
	<path d="M625.02,80.11c0-10.88,9.25-19.99,20.21-19.99c10.88,0,20.06,9.11,20.06,19.99s-9.18,20.06-20.06,20.06
		C634.28,100.17,625.02,90.99,625.02,80.11z M657.97,80.11c0-7.4-5.85-13.62-12.73-13.62c-7.03,0-12.88,6.22-12.88,13.62
		c0,7.48,5.85,13.7,12.88,13.7C652.12,93.8,657.97,87.58,657.97,80.11z"/>
	<path d="M710.31,61.01v34.2c0,9.85-8.07,16.81-19.4,16.81c-6.44,0-12.36-2.15-15.99-5.11l2.89-5.48c2.81,2.67,7.4,4.22,11.99,4.22
		c8.22,0,13.18-3.92,13.18-10.59v-5.55c-3.04,4.37-7.77,6.96-13.55,6.96c-10.07,0-17.4-7.55-17.4-18.21s7.33-18.14,17.4-18.14
		c5.77,0,10.66,2.74,13.55,7.03v-6.15H710.31z M702.98,78.26c0-6.89-4.89-11.77-11.7-11.77c-6.81,0-11.62,4.89-11.62,11.77
		c0,6.96,4.81,11.85,11.62,11.85C698.1,90.1,702.98,85.22,702.98,78.26z"/>
	<path d="M719.19,80.11c0-10.88,9.25-19.99,20.21-19.99c10.88,0,20.06,9.11,20.06,19.99s-9.18,20.06-20.06,20.06
		C728.45,100.17,719.19,90.99,719.19,80.11z M752.14,80.11c0-7.4-5.85-13.62-12.73-13.62c-7.03,0-12.88,6.22-12.88,13.62
		c0,7.48,5.85,13.7,12.88,13.7C746.29,93.8,752.14,87.58,752.14,80.11z"/>
</g>
<g>
	<g>
		<polyline class="st2" points="330.53,577.76 153.85,577.76 153.85,319.07 		"/>
		<g>
			<path d="M153.85,307c2.11,5.68,5.7,12.73,9.51,17.09l-9.51-3.44l-9.51,3.44C148.15,319.73,151.75,312.68,153.85,307z"/>
		</g>
	</g>
</g>
<g>
	<path d="M109.1,283.98v3.12H93.62v-22.81h3.39v19.69H109.1z"/>
	<path d="M125.3,282.72l2.06,2.12c-1.53,1.63-4.52,2.66-6.94,2.66c-4.78,0-8.83-3.75-8.83-9.03c0-5.15,3.82-8.93,8.57-8.93
		c5.25,0,8.27,3.98,8.27,10.13h-13.51c0.43,2.86,2.52,4.91,5.48,4.91C122.18,284.58,124.27,283.78,125.3,282.72z M114.94,277.04
		h10.29c-0.37-2.66-1.99-4.58-4.95-4.58C117.63,272.46,115.47,274.25,114.94,277.04z"/>
	<path d="M141.48,286.27c-0.93,0.76-2.19,1.23-3.42,1.23c-2.66,0-4.52-1.93-4.52-4.68v-10.09h-2.59v-2.79h2.59v-4.71h3.22v4.71h4.05
		v2.79h-4.05v9.86c0,1.2,0.8,2.06,1.76,2.06c0.73,0,1.39-0.27,1.76-0.63L141.48,286.27z"/>
	<path d="M154.06,286.27c-0.93,0.76-2.19,1.23-3.42,1.23c-2.66,0-4.52-1.93-4.52-4.68v-10.09h-2.59v-2.79h2.59v-4.71h3.22v4.71h4.05
		v2.79h-4.05v9.86c0,1.2,0.8,2.06,1.76,2.06c0.73,0,1.39-0.27,1.76-0.63L154.06,286.27z"/>
	<path d="M170.2,282.72l2.06,2.12c-1.53,1.63-4.52,2.66-6.94,2.66c-4.78,0-8.83-3.75-8.83-9.03c0-5.15,3.82-8.93,8.57-8.93
		c5.25,0,8.27,3.98,8.27,10.13h-13.51c0.43,2.86,2.52,4.91,5.48,4.91C167.08,284.58,169.17,283.78,170.2,282.72z M159.84,277.04
		h10.29c-0.37-2.66-1.99-4.58-4.95-4.58C162.53,272.46,160.37,274.25,159.84,277.04z"/>
	<path d="M186.97,269.54v2.86c-3.55,0-6.08,1.96-6.38,4.95v9.76h-3.29v-17.17h3.29v3.29C181.69,270.97,184.02,269.54,186.97,269.54z
		"/>
	<path d="M214.97,283.98v3.12H199.5v-22.81h3.39v19.69H214.97z"/>
</g>
<g>
	<g>
		<polyline class="st2" points="604,545 810.53,545 810.98,784.93 		"/>
		<g>
			<path d="M811,797c-2.12-5.68-5.73-12.72-9.54-17.08l9.52,3.42l9.5-3.46C816.68,784.26,813.09,791.32,811,797z"/>
		</g>
	</g>
</g>
<g>
	<path d="M758.19,838.33v3.18h-15.79v-23.27h3.46v20.09H758.19z"/>
	<path d="M774.72,837.04l2.1,2.17c-1.56,1.66-4.61,2.71-7.08,2.71c-4.88,0-9.01-3.83-9.01-9.21c0-5.25,3.9-9.11,8.74-9.11
		c5.35,0,8.43,4.07,8.43,10.33h-13.79c0.44,2.91,2.57,5.01,5.59,5.01C771.54,838.94,773.67,838.13,774.72,837.04z M764.15,831.25
		h10.5c-0.37-2.71-2.03-4.67-5.05-4.67C766.9,826.58,764.69,828.41,764.15,831.25z"/>
	<path d="M791.22,840.67c-0.95,0.78-2.24,1.25-3.49,1.25c-2.71,0-4.61-1.96-4.61-4.78v-10.3h-2.64V824h2.64v-4.81h3.29V824h4.13
		v2.84h-4.13v10.06c0,1.22,0.81,2.1,1.79,2.1c0.75,0,1.42-0.27,1.8-0.64L791.22,840.67z"/>
	<path d="M804.05,840.67c-0.95,0.78-2.24,1.25-3.49,1.25c-2.71,0-4.61-1.96-4.61-4.78v-10.3h-2.64V824h2.64v-4.81h3.29V824h4.13
		v2.84h-4.13v10.06c0,1.22,0.81,2.1,1.79,2.1c0.75,0,1.42-0.27,1.8-0.64L804.05,840.67z"/>
	<path d="M820.52,837.04l2.1,2.17c-1.56,1.66-4.61,2.71-7.08,2.71c-4.88,0-9.01-3.83-9.01-9.21c0-5.25,3.9-9.11,8.74-9.11
		c5.35,0,8.43,4.07,8.43,10.33h-13.79c0.44,2.91,2.57,5.01,5.59,5.01C817.33,838.94,819.47,838.13,820.52,837.04z M809.95,831.25
		h10.5c-0.37-2.71-2.03-4.67-5.05-4.67C812.69,826.58,810.49,828.41,809.95,831.25z"/>
	<path d="M837.62,823.6v2.91c-3.62,0-6.2,2-6.5,5.05v9.96h-3.35V824h3.35v3.35C832.24,825.05,834.61,823.6,837.62,823.6z"/>
	<path d="M850.7,818.24h9.79c4.91,0,8.64,3.15,8.64,7.59s-3.73,7.59-8.64,7.59h-6.37v8.1h-3.42V818.24z M860.01,830.24
		c3.35,0,5.62-1.66,5.62-4.4c0-2.74-2.27-4.4-5.62-4.4h-5.89v8.81H860.01z"/>
</g>
<polyline class="st2" points="344,657 344,697 609.34,697 609.34,657 "/>
<g>
	<g>
		<polyline class="st2" points="480,697 480,802.11 204,802 203.11,894.93 		"/>
		<g>
			<path d="M203,907c-2.05-5.7-5.58-12.78-9.35-17.18l9.48,3.53l9.54-3.35C208.82,894.33,205.16,901.34,203,907z"/>
		</g>
	</g>
</g>
<text transform="matrix(1 0 0 1 18.1934 944.0283)" class="st3 st4">House Shape Acoording to Industry</text>
</svg>
