<?xml version="1.0" encoding="utf-8"?>
<!-- Generator: Adobe Illustrator 26.0.3, SVG Export Plug-In . SVG Version: 6.00 Build 0)  -->
<svg version="1.1" id="Layer_1" xmlns="http://www.w3.org/2000/svg" xmlns:xlink="http://www.w3.org/1999/xlink" x="0px" y="0px"
	 viewBox="0 0 960 1080" style="enable-background:new 0 0 960 1080;" xml:space="preserve">
<style type="text/css">
	.st0{fill:#999999;}
	.st1{fill:none;}
	.st2{fill:none;stroke:#000000;stroke-width:2;stroke-miterlimit:10;}
	.st3{fill:#061C49;}
	.st4{fill:#F8FFFF;}
	.st5{fill:#FFBE3D;}
	.st6{fill:#E3E1DC;}
	.st7{fill:#D0A657;}
	.st8{fill:#102132;}
	.st9{fill:#FFBE3D;stroke:#FFFFFF;stroke-width:3;stroke-miterlimit:10;}
	.st10{fill:#D0A657;stroke:#FFFFFF;stroke-width:3;stroke-miterlimit:10;}
	.st11{fill:#102132;stroke:#FFFFFF;stroke-width:3;stroke-miterlimit:10;}
	.st12{fill:#061C49;stroke:#FFFFFF;stroke-width:3;stroke-miterlimit:10;}
	.st13{fill:#0C2648;}
	.st14{fill:#FE7F31;}
	.st15{fill:#FFFFFF;}
	.st16{fill:#FE7F31;stroke:#FFFFFF;stroke-width:3;stroke-miterlimit:10;}
	.st17{fill:#0C2648;stroke:#FFFFFF;stroke-width:3;stroke-miterlimit:10;}
	.st18{fill:#7A7A7A;}
	.st19{fill:#5C5C5C;}
	.st20{fill:#3D3D3D;}
	.st21{fill:#1F1F1F;}
	.st22{fill:none;stroke:#000000;stroke-width:4;stroke-miterlimit:10;}
</style>
<g>
	<g>
		<polygon points="425.53,577.82 425.53,587.04 384.21,587.04 384.21,467.64 393.42,471.98 393.42,577.82 		"/>
		<polygon class="st0" points="425.53,577.82 425.53,587.04 384.21,587.04 384.21,467.64 393.42,471.98 393.42,577.82 		"/>
		<polygon points="480,397.07 518.69,424.17 518.69,435.43 480,408.32 438.03,437.71 437.89,587.04 428.8,587.04 428.8,545.45 
			428.71,545.45 428.71,542.18 428.81,444.17 397.01,466.45 393.92,468.61 384.34,464.09 387.42,461.93 		"/>
		<polygon points="518.69,424.17 518.69,435.43 480,408.32 438.03,437.71 437.89,587.04 428.8,587.04 428.8,545.45 428.71,545.45 
			428.71,542.18 428.81,444.17 397.01,466.45 393.92,468.61 384.34,464.09 387.42,461.93 480,397.07 		"/>
		<path class="st0" d="M525.23,428.75l-3.27-2.29v160.58h9.22v-49.72h44.62v-73.15L525.23,428.75z M566.58,528.1h-35.4v-83.93
			l35.4,24.79V528.1z"/>
		<g>
			<g>
				<g>
					<polygon points="575.79,541.22 575.79,587.04 534.99,587.04 534.99,577.82 566.58,577.82 566.58,541.22 					"/>
				</g>
			</g>
		</g>
		<g>
			<g>
				<path d="M480,503.31c-16.99,0-30.82,13.82-30.82,30.82v53.26h61.61v-53.26C510.8,517.14,496.99,503.31,480,503.31z
					 M501.58,578.17H458.4v-44.04c0-11.92,9.68-21.6,21.6-21.6c11.9,0,21.58,9.68,21.58,21.6V578.17z"/>
			</g>
		</g>
		<g>
			<path d="M464.9,545.1c-2.47,0-4.5,2-4.5,4.48c0,2.48,2.03,4.5,4.5,4.5c2.48,0,4.49-2.02,4.49-4.5
				C469.39,547.1,467.39,545.1,464.9,545.1z M464.68,549.58c0-0.11,0.1-0.2,0.22-0.2c0.11,0,0.21,0.09,0.21,0.2
				C465.11,549.81,464.68,549.81,464.68,549.58z"/>
			<path class="st1" d="M465.11,549.58c0,0.24-0.42,0.24-0.42,0c0-0.11,0.1-0.2,0.22-0.2C465.01,549.38,465.11,549.47,465.11,549.58
				z"/>
		</g>
	</g>
	<g>
		<path d="M179.76,665.19c-0.81-0.78-1.21-1.82-1.21-3.13v-54.65c0-1.37,0.42-2.49,1.25-3.36c0.84-0.86,1.94-1.3,3.31-1.3
			c1.43,0,2.57,0.42,3.4,1.25c0.84,0.84,1.25,1.97,1.25,3.4v51.24h27.23c1.37,0,2.43,0.33,3.18,0.99c0.75,0.66,1.12,1.61,1.12,2.87
			c0,1.25-0.37,2.21-1.12,2.87c-0.75,0.66-1.81,0.99-3.18,0.99h-31.98C181.65,666.36,180.57,665.97,179.76,665.19z"/>
		<path d="M226.93,611.53c-1.02-0.95-1.52-2.21-1.52-3.76c0-1.55,0.51-2.79,1.52-3.72c1.01-0.92,2.39-1.39,4.12-1.39
			c1.67,0,3.03,0.46,4.08,1.39c1.04,0.93,1.57,2.17,1.57,3.72c0,1.55-0.51,2.81-1.52,3.76c-1.02,0.96-2.39,1.43-4.12,1.43
			C229.31,612.96,227.94,612.49,226.93,611.53z M227.78,665.73c-0.87-0.72-1.3-1.79-1.3-3.23v-36.37c0-1.43,0.43-2.52,1.3-3.27
			c0.86-0.75,1.96-1.12,3.27-1.12c1.31,0,2.39,0.37,3.22,1.12c0.84,0.75,1.25,1.84,1.25,3.27v36.37c0,1.43-0.42,2.51-1.25,3.23
			c-0.84,0.72-1.91,1.07-3.22,1.07C229.73,666.8,228.64,666.44,227.78,665.73z"/>
		<path d="M287.4,639.21v23.29c0,1.37-0.4,2.43-1.21,3.18c-0.81,0.75-1.93,1.12-3.36,1.12c-1.37,0-2.46-0.39-3.27-1.16
			c-0.81-0.78-1.21-1.82-1.21-3.14v-22.84c0-3.7-0.73-6.42-2.2-8.15c-1.46-1.73-3.75-2.6-6.85-2.6c-3.64,0-6.57,1.14-8.78,3.4
			c-2.21,2.27-3.31,5.32-3.31,9.14v21.05c0,1.31-0.4,2.36-1.21,3.14c-0.81,0.78-1.9,1.16-3.27,1.16c-1.37,0-2.48-0.39-3.31-1.16
			c-0.84-0.78-1.25-1.82-1.25-3.14v-36.46c0-1.25,0.43-2.29,1.3-3.09c0.86-0.81,1.96-1.21,3.27-1.21c1.31,0,2.36,0.39,3.14,1.16
			c0.78,0.78,1.16,1.79,1.16,3.05v3.67c1.43-2.63,3.43-4.63,6-6c2.57-1.37,5.46-2.06,8.69-2.06
			C282.17,621.56,287.4,627.45,287.4,639.21z"/>
		<path d="M336.04,656.32c0.54,0.66,0.81,1.49,0.81,2.51c0,1.73-1.07,3.2-3.23,4.39c-2.09,1.19-4.38,2.12-6.85,2.78
			c-2.48,0.66-4.85,0.99-7.12,0.99c-6.93,0-12.39-2.01-16.39-6.05c-4-4.03-6-9.54-6-16.53c0-4.48,0.88-8.45,2.64-11.92
			c1.76-3.46,4.24-6.15,7.44-8.06c3.19-1.91,6.82-2.87,10.88-2.87c5.85,0,10.48,1.88,13.89,5.64s5.11,8.84,5.11,15.23
			c0,2.39-1.07,3.58-3.22,3.58H306.3c0.6,9.26,5.05,13.89,13.35,13.89c2.21,0,4.12-0.3,5.73-0.9c1.61-0.6,3.31-1.37,5.11-2.33
			c0.18-0.12,0.67-0.37,1.48-0.76c0.81-0.39,1.48-0.58,2.02-0.58C334.81,655.34,335.5,655.67,336.04,656.32z M310.06,631.51
			c-2.09,2.21-3.35,5.32-3.76,9.32h23.11c-0.18-4.06-1.21-7.18-3.09-9.36c-1.88-2.18-4.52-3.27-7.93-3.27
			C314.93,628.19,312.15,629.3,310.06,631.51z"/>
		<path d="M373.13,665.55c-0.84-0.84-1.25-1.97-1.25-3.4v-54.47c0-1.37,0.4-2.46,1.21-3.27c0.81-0.81,1.93-1.21,3.36-1.21h21.59
			c6.69,0,11.88,1.64,15.59,4.93c3.7,3.28,5.55,7.94,5.55,13.97c0,5.97-1.85,10.63-5.55,13.98c-3.7,3.35-8.9,5.02-15.59,5.02H381.1
			v21.05c0,1.43-0.4,2.57-1.21,3.4c-0.81,0.84-1.96,1.25-3.45,1.25C375.07,666.8,373.96,666.39,373.13,665.55z M397.04,633.66
			c8.84,0,13.26-3.85,13.26-11.56c0-7.64-4.42-11.47-13.26-11.47H381.1v23.02H397.04z"/>
		<path d="M455.54,625.41c0,1.31-0.33,2.3-0.99,2.96c-0.66,0.66-1.79,1.05-3.4,1.16l-2.69,0.27c-3.76,0.36-6.56,1.67-8.38,3.94
			c-1.82,2.27-2.73,5.02-2.73,8.24v20.52c0,1.43-0.42,2.51-1.25,3.23c-0.84,0.72-1.91,1.07-3.22,1.07c-1.31,0-2.41-0.36-3.27-1.07
			c-0.87-0.72-1.3-1.79-1.3-3.23v-36.46c0-1.37,0.43-2.43,1.3-3.18c0.86-0.75,1.96-1.12,3.27-1.12c1.19,0,2.19,0.37,3,1.12
			c0.81,0.75,1.21,1.78,1.21,3.09v4.3c1.19-2.63,2.93-4.63,5.2-6c2.27-1.37,4.84-2.18,7.7-2.42l1.25-0.09
			C454.11,621.56,455.54,622.79,455.54,625.41z"/>
		<path d="M467.86,664.21c-3.26-1.85-5.76-4.49-7.52-7.93c-1.76-3.43-2.64-7.42-2.64-11.96c0-4.6,0.88-8.61,2.64-12.05
			c1.76-3.43,4.27-6.08,7.52-7.93c3.25-1.85,7.03-2.78,11.33-2.78c4.3,0,8.08,0.93,11.33,2.78c3.25,1.85,5.76,4.49,7.53,7.93
			c1.76,3.43,2.64,7.45,2.64,12.05c0,4.54-0.88,8.53-2.64,11.96c-1.76,3.43-4.27,6.08-7.53,7.93c-3.26,1.85-7.03,2.78-11.33,2.78
			C474.89,666.98,471.12,666.06,467.86,664.21z M488.38,655.87c2.12-2.63,3.18-6.48,3.18-11.56c0-5.02-1.07-8.85-3.22-11.51
			c-2.15-2.66-5.2-3.99-9.14-3.99c-3.94,0-6.99,1.33-9.14,3.99c-2.15,2.66-3.22,6.5-3.22,11.51c0,5.08,1.06,8.93,3.18,11.56
			c2.12,2.63,5.18,3.94,9.18,3.94C483.2,659.82,486.26,658.5,488.38,655.87z"/>
		<path d="M544.28,624.43c2.96,1.91,5.25,4.6,6.9,8.06c1.64,3.46,2.46,7.47,2.46,12c0,4.48-0.81,8.42-2.42,11.83
			c-1.61,3.4-3.9,6.03-6.85,7.88c-2.96,1.85-6.35,2.78-10.17,2.78c-3.29,0-6.18-0.7-8.69-2.11c-2.51-1.4-4.42-3.42-5.73-6.05v19.98
			c0,1.25-0.4,2.25-1.21,3c-0.81,0.75-1.87,1.12-3.18,1.12c-1.37,0-2.49-0.39-3.36-1.16c-0.87-0.78-1.3-1.82-1.3-3.14v-52.5
			c0-1.31,0.42-2.37,1.25-3.18c0.84-0.81,1.94-1.21,3.31-1.21c1.31,0,2.39,0.4,3.22,1.21c0.84,0.81,1.25,1.87,1.25,3.18v3.67
			c1.31-2.63,3.22-4.66,5.73-6.09c2.51-1.43,5.4-2.15,8.69-2.15C537.96,621.56,541.32,622.52,544.28,624.43z M541.19,655.83
			c2.15-2.66,3.23-6.43,3.23-11.33c0-4.96-1.09-8.81-3.27-11.56c-2.18-2.75-5.21-4.12-9.09-4.12c-3.94,0-6.97,1.34-9.09,4.03
			c-2.12,2.69-3.18,6.51-3.18,11.47c0,4.96,1.06,8.78,3.18,11.47c2.12,2.69,5.15,4.03,9.09,4.03
			C535.99,659.82,539.04,658.49,541.19,655.83z"/>
		<path d="M599.95,656.32c0.54,0.66,0.81,1.49,0.81,2.51c0,1.73-1.07,3.2-3.23,4.39c-2.09,1.19-4.38,2.12-6.85,2.78
			c-2.48,0.66-4.85,0.99-7.12,0.99c-6.93,0-12.39-2.01-16.39-6.05c-4-4.03-6-9.54-6-16.53c0-4.48,0.88-8.45,2.64-11.92
			c1.76-3.46,4.24-6.15,7.44-8.06c3.19-1.91,6.82-2.87,10.88-2.87c5.85,0,10.48,1.88,13.89,5.64s5.11,8.84,5.11,15.23
			c0,2.39-1.07,3.58-3.22,3.58h-27.68c0.6,9.26,5.05,13.89,13.35,13.89c2.21,0,4.12-0.3,5.73-0.9c1.61-0.6,3.31-1.37,5.11-2.33
			c0.18-0.12,0.67-0.37,1.48-0.76c0.81-0.39,1.48-0.58,2.02-0.58C598.73,655.34,599.42,655.67,599.95,656.32z M573.97,631.51
			c-2.09,2.21-3.35,5.32-3.76,9.32h23.11c-0.18-4.06-1.21-7.18-3.09-9.36c-1.88-2.18-4.52-3.27-7.93-3.27
			C578.84,628.19,576.06,629.3,573.97,631.51z"/>
		<path d="M638.3,625.41c0,1.31-0.33,2.3-0.99,2.96c-0.66,0.66-1.79,1.05-3.4,1.16l-2.69,0.27c-3.76,0.36-6.56,1.67-8.38,3.94
			c-1.82,2.27-2.73,5.02-2.73,8.24v20.52c0,1.43-0.42,2.51-1.25,3.23c-0.84,0.72-1.91,1.07-3.22,1.07c-1.31,0-2.41-0.36-3.27-1.07
			c-0.87-0.72-1.3-1.79-1.3-3.23v-36.46c0-1.37,0.43-2.43,1.3-3.18c0.86-0.75,1.96-1.12,3.27-1.12c1.19,0,2.19,0.37,3,1.12
			c0.81,0.75,1.21,1.78,1.21,3.09v4.3c1.19-2.63,2.93-4.63,5.2-6c2.27-1.37,4.84-2.18,7.7-2.42l1.25-0.09
			C636.86,621.56,638.3,622.79,638.3,625.41z"/>
		<path d="M671.84,660.94c0.57,0.57,0.85,1.36,0.85,2.37c0,1.19-0.46,2.11-1.39,2.73c-0.93,0.63-2.28,0.88-4.08,0.76l-2.42-0.18
			c-4.84-0.36-8.45-1.84-10.84-4.43c-2.39-2.6-3.58-6.43-3.58-11.51v-21.05h-5.37c-2.63,0-3.94-1.16-3.94-3.49
			c0-1.07,0.34-1.93,1.03-2.55c0.69-0.63,1.66-0.94,2.91-0.94h5.37v-9.23c0-1.37,0.4-2.45,1.21-3.23c0.81-0.78,1.9-1.16,3.27-1.16
			c1.37,0,2.48,0.39,3.31,1.16c0.84,0.78,1.25,1.85,1.25,3.23v9.23h8.87c1.25,0,2.22,0.31,2.91,0.94c0.69,0.63,1.03,1.48,1.03,2.55
			c0,1.14-0.34,2-1.03,2.6c-0.69,0.6-1.66,0.9-2.91,0.9h-8.87v21.68c0,2.81,0.58,4.87,1.75,6.18c1.16,1.31,2.94,2.06,5.33,2.24
			l2.51,0.18C670.34,660.03,671.28,660.37,671.84,660.94z"/>
		<path d="M679.68,611.53c-1.02-0.95-1.52-2.21-1.52-3.76c0-1.55,0.51-2.79,1.52-3.72c1.01-0.92,2.39-1.39,4.12-1.39
			c1.67,0,3.03,0.46,4.08,1.39c1.04,0.93,1.57,2.17,1.57,3.72c0,1.55-0.51,2.81-1.52,3.76c-1.02,0.96-2.39,1.43-4.12,1.43
			C682.07,612.96,680.7,612.49,679.68,611.53z M680.53,665.73c-0.87-0.72-1.3-1.79-1.3-3.23v-36.37c0-1.43,0.43-2.52,1.3-3.27
			c0.86-0.75,1.96-1.12,3.27-1.12c1.31,0,2.39,0.37,3.22,1.12c0.84,0.75,1.25,1.84,1.25,3.27v36.37c0,1.43-0.42,2.51-1.25,3.23
			c-0.84,0.72-1.91,1.07-3.22,1.07C682.49,666.8,681.4,666.44,680.53,665.73z"/>
		<path d="M737.2,656.32c0.54,0.66,0.81,1.49,0.81,2.51c0,1.73-1.07,3.2-3.23,4.39c-2.09,1.19-4.38,2.12-6.85,2.78
			c-2.48,0.66-4.85,0.99-7.12,0.99c-6.93,0-12.39-2.01-16.39-6.05c-4-4.03-6-9.54-6-16.53c0-4.48,0.88-8.45,2.64-11.92
			c1.76-3.46,4.24-6.15,7.44-8.06c3.19-1.91,6.82-2.87,10.88-2.87c5.85,0,10.48,1.88,13.89,5.64s5.11,8.84,5.11,15.23
			c0,2.39-1.08,3.58-3.22,3.58h-27.68c0.6,9.26,5.05,13.89,13.35,13.89c2.21,0,4.12-0.3,5.73-0.9c1.61-0.6,3.31-1.37,5.11-2.33
			c0.18-0.12,0.67-0.37,1.48-0.76c0.81-0.39,1.48-0.58,2.02-0.58C735.97,655.34,736.66,655.67,737.2,656.32z M711.22,631.51
			c-2.09,2.21-3.35,5.32-3.76,9.32h23.11c-0.18-4.06-1.21-7.18-3.09-9.36c-1.88-2.18-4.52-3.27-7.93-3.27
			C716.08,628.19,713.31,629.3,711.22,631.51z"/>
		<path d="M748.57,663.22c-1.07-0.66-1.84-1.34-2.28-2.06c-0.45-0.72-0.67-1.52-0.67-2.42c0-0.96,0.27-1.76,0.81-2.42
			c0.54-0.66,1.22-0.99,2.06-0.99c0.78,0,2,0.48,3.67,1.43c1.79,0.96,3.54,1.73,5.24,2.33c1.7,0.6,3.84,0.9,6.41,0.9
			c2.87,0,5.11-0.51,6.72-1.52c1.61-1.01,2.42-2.45,2.42-4.3c0-1.19-0.31-2.15-0.94-2.87c-0.63-0.72-1.72-1.36-3.27-1.93
			c-1.55-0.57-3.85-1.18-6.9-1.84c-5.26-1.13-9.03-2.67-11.33-4.61c-2.3-1.94-3.45-4.58-3.45-7.93c0-2.57,0.75-4.88,2.24-6.94
			c1.49-2.06,3.55-3.66,6.18-4.79c2.63-1.13,5.61-1.7,8.96-1.7c2.39,0,4.72,0.31,6.99,0.94c2.27,0.63,4.27,1.54,6,2.73
			c1.97,1.31,2.96,2.84,2.96,4.57c0,0.96-0.28,1.76-0.85,2.42c-0.57,0.66-1.24,0.99-2.02,0.99c-0.54,0-1.07-0.12-1.61-0.36
			c-0.54-0.24-1.25-0.63-2.15-1.16c-1.61-0.95-3.12-1.7-4.52-2.24c-1.4-0.54-3.15-0.81-5.24-0.81c-2.51,0-4.52,0.54-6.05,1.61
			c-1.52,1.07-2.28,2.54-2.28,4.39c0,1.67,0.7,2.97,2.11,3.9c1.4,0.93,4.05,1.81,7.93,2.64c4,0.84,7.14,1.79,9.41,2.87
			c2.27,1.07,3.9,2.4,4.88,3.99c0.99,1.58,1.48,3.6,1.48,6.05c0,3.88-1.63,7-4.88,9.36c-3.26,2.36-7.6,3.54-13.03,3.54
			C757.44,666.98,752.45,665.73,748.57,663.22z"/>
	</g>
</g>
<g>
	<path d="M243.55,57.42h21.4c10.73,0,18.88,6.89,18.88,16.58s-8.14,16.58-18.88,16.58h-13.92v17.69h-7.48V57.42z M263.91,83.63
		c7.33,0,12.29-3.63,12.29-9.62c0-6-4.96-9.62-12.29-9.62h-12.88v19.25H263.91z"/>
	<path d="M313.28,69.12v6.37c-7.92,0-13.55,4.37-14.21,11.03v21.77h-7.33V70.01h7.33v7.33C301.51,72.3,306.69,69.12,313.28,69.12z"
		/>
	<path d="M319.65,59.2c0-2.3,1.92-4.37,4.44-4.37c2.37,0,4.37,2.07,4.37,4.37c0,2.37-2,4.44-4.37,4.44
		C321.57,63.64,319.65,61.57,319.65,59.2z M320.39,70.01h7.33v38.28h-7.33V70.01z"/>
	<path d="M394.87,83.92v24.36h-7.18V85.04c0-5.63-3.33-9.55-8.14-9.55c-5.48,0-9.33,3.63-9.33,8.88v23.91h-7.18V85.04
		c0-5.63-3.33-9.55-8.14-9.55c-5.48,0-9.33,3.63-9.33,8.88v23.91h-7.33V70.01h7.33v5.33c1.92-3.78,5.92-6.22,10.81-6.22
		c5.55,0,10.07,2.96,12.29,7.7c1.78-4.74,6.66-7.7,12.44-7.7C389.09,69.12,394.87,75.26,394.87,83.92z"/>
	<path d="M437.43,85.11v23.17h-7.18v-5.26c-2.81,4-8.07,6.14-12.73,6.14c-8.14,0-14.14-4.74-14.14-12.22
		c0-7.63,6.89-12.73,15.33-12.73c3.78,0,7.85,0.81,11.55,2.07v-1.18c0-4.81-2.22-9.92-9.85-9.92c-3.78,0-7.48,1.48-10.81,3.18
		l-2.67-5.4c5.48-2.74,10.29-3.85,14.51-3.85C431.73,69.12,437.43,75.63,437.43,85.11z M430.25,96.29v-5.11
		c-3.11-0.96-6.66-1.48-10.44-1.48c-5.11,0-9.4,2.89-9.4,7.03c0,4.15,3.7,6.66,8.51,6.66C423.66,103.4,428.99,101.03,430.25,96.29z"
		/>
	<path d="M469.93,69.12v6.37c-7.92,0-13.55,4.37-14.21,11.03v21.77h-7.33V70.01h7.33v7.33C458.16,72.3,463.34,69.12,469.93,69.12z"
		/>
	<path d="M476.59,119.98l1.63-5.63c1.48,0.81,3.18,1.18,4.66,1.18c2.37,0,4-0.74,5.26-2.96l1.92-4.07l-16.44-38.5h7.85l12.29,30.21
		l11.62-30.21h7.63l-16.88,41.76c-2.74,6.89-6.81,9.77-12.29,9.85C481.26,121.61,478.59,121.02,476.59,119.98z"/>
	<path d="M576.46,101.32v6.96h-34.5V57.42h7.55v43.9H576.46z"/>
	<path d="M582.01,89.11c0-10.88,9.25-19.99,20.21-19.99c10.88,0,20.06,9.11,20.06,19.99s-9.18,20.06-20.06,20.06
		C591.27,109.17,582.01,99.99,582.01,89.11z M614.96,89.11c0-7.4-5.85-13.62-12.73-13.62c-7.03,0-12.88,6.22-12.88,13.62
		c0,7.48,5.85,13.7,12.88,13.7C609.11,102.8,614.96,96.58,614.96,89.11z"/>
	<path d="M667.3,70.01v34.2c0,9.85-8.07,16.81-19.4,16.81c-6.44,0-12.36-2.15-15.99-5.11l2.89-5.48c2.81,2.67,7.4,4.22,11.99,4.22
		c8.22,0,13.18-3.92,13.18-10.59v-5.55c-3.04,4.37-7.77,6.96-13.55,6.96c-10.07,0-17.4-7.55-17.4-18.21s7.33-18.14,17.4-18.14
		c5.78,0,10.66,2.74,13.55,7.03v-6.15H667.3z M659.97,87.26c0-6.89-4.89-11.77-11.7-11.77c-6.81,0-11.62,4.89-11.62,11.77
		c0,6.96,4.81,11.85,11.62,11.85C655.08,99.1,659.97,94.22,659.97,87.26z"/>
	<path d="M676.18,89.11c0-10.88,9.25-19.99,20.21-19.99c10.88,0,20.06,9.11,20.06,19.99s-9.18,20.06-20.06,20.06
		C685.43,109.17,676.18,99.99,676.18,89.11z M709.12,89.11c0-7.4-5.85-13.62-12.73-13.62c-7.03,0-12.88,6.22-12.88,13.62
		c0,7.48,5.85,13.7,12.88,13.7C703.28,102.8,709.12,96.58,709.12,89.11z"/>
</g>
</svg>
