<?xml version="1.0" encoding="utf-8"?>
<!-- Generator: Adobe Illustrator 26.0.3, SVG Export Plug-In . SVG Version: 6.00 Build 0)  -->
<svg version="1.1" id="Layer_1" xmlns="http://www.w3.org/2000/svg" xmlns:xlink="http://www.w3.org/1999/xlink" x="0px" y="0px"
	 viewBox="0 0 960 1080" style="enable-background:new 0 0 960 1080;" xml:space="preserve">
<style type="text/css">
	.st0{fill:#999999;}
	.st1{fill:none;}
	.st2{fill:none;stroke:#000000;stroke-width:2;stroke-miterlimit:10;}
	.st3{fill:#061C49;}
	.st4{fill:#F8FFFF;}
	.st5{fill:#FFBE3D;}
	.st6{fill:#E3E1DC;}
	.st7{fill:#D0A657;}
	.st8{fill:#102132;}
	.st9{fill:#FFBE3D;stroke:#FFFFFF;stroke-width:3;stroke-miterlimit:10;}
	.st10{fill:#D0A657;stroke:#FFFFFF;stroke-width:3;stroke-miterlimit:10;}
	.st11{fill:#102132;stroke:#FFFFFF;stroke-width:3;stroke-miterlimit:10;}
	.st12{fill:#061C49;stroke:#FFFFFF;stroke-width:3;stroke-miterlimit:10;}
	.st13{fill:#0C2648;}
	.st14{fill:#FE7F31;}
	.st15{fill:#FFFFFF;}
	.st16{fill:#FE7F31;stroke:#FFFFFF;stroke-width:3;stroke-miterlimit:10;}
	.st17{fill:#0C2648;stroke:#FFFFFF;stroke-width:3;stroke-miterlimit:10;}
	.st18{fill:#7A7A7A;}
	.st19{fill:#5C5C5C;}
	.st20{fill:#3D3D3D;}
	.st21{fill:#1F1F1F;}
	.st22{font-family:'Metropolis-Medium';}
	.st23{font-size:15.9409px;}
	.st24{font-size:15.05px;}
	.st25{fill:none;stroke:#000000;stroke-width:4;stroke-miterlimit:10;}
</style>
<g>
	<polygon points="423.13,471.93 423.13,482.22 376.96,482.22 376.96,348.83 387.26,353.69 387.26,471.93 	"/>
	<polygon class="st0" points="423.13,471.93 423.13,482.22 376.96,482.22 376.96,348.83 387.26,353.69 387.26,471.93 	"/>
	<polygon points="483.98,270 527.21,300.28 527.21,312.85 483.98,282.57 437.09,315.4 436.93,482.22 426.78,482.22 426.78,435.76 
		426.69,435.76 426.69,432.11 426.8,322.62 391.26,347.51 387.82,349.92 377.11,344.87 380.55,342.46 	"/>
	<polygon points="527.21,300.28 527.21,312.85 483.98,282.57 437.09,315.4 436.93,482.22 426.78,482.22 426.78,435.76 
		426.69,435.76 426.69,432.11 426.8,322.62 391.26,347.51 387.82,349.92 377.11,344.87 380.55,342.46 483.98,270 	"/>
	<path class="st0" d="M534.51,305.39l-3.65-2.56v179.39h10.3v-55.54H591v-81.72L534.51,305.39z M580.7,416.39h-39.55v-93.77
		l39.55,27.7V416.39z"/>
	<g>
		<g>
			<g>
				<polygon points="591,431.04 591,482.22 545.41,482.22 545.41,471.93 580.7,471.93 580.7,431.04 				"/>
			</g>
		</g>
	</g>
	<g>
		<g>
			<path d="M483.98,388.69c-18.98,0-34.43,15.44-34.43,34.43v59.5h68.83v-59.5C518.38,404.13,502.97,388.69,483.98,388.69z
				 M508.09,472.32h-48.24v-49.2c0-13.31,10.82-24.13,24.13-24.13c13.29,0,24.11,10.82,24.11,24.13V472.32z"/>
		</g>
	</g>
	<g>
		<path d="M467.11,435.37c-2.76,0-5.03,2.24-5.03,5c0,2.77,2.26,5.03,5.03,5.03c2.77,0,5.01-2.25,5.01-5.03
			C472.13,437.61,469.89,435.37,467.11,435.37z M466.87,440.37c0-0.12,0.11-0.22,0.24-0.22c0.12,0,0.23,0.1,0.23,0.22
			C467.35,440.64,466.87,440.64,466.87,440.37z"/>
		<path class="st1" d="M467.35,440.37c0,0.27-0.47,0.27-0.47,0c0-0.12,0.11-0.22,0.24-0.22
			C467.24,440.15,467.35,440.25,467.35,440.37z"/>
	</g>
</g>
<g>
	<path d="M387.76,53.42h7.48v50.86h-7.48V53.42z"/>
	<path d="M404.12,85.11c0-10.88,9.25-19.99,20.21-19.99c5.48,0,10.44,2.3,14.07,5.92l-4.96,4.59c-2.29-2.59-5.63-4.15-9.18-4.15
		c-6.96,0-12.73,6.22-12.73,13.62c0,7.48,5.77,13.7,12.81,13.7c3.55,0,6.96-1.63,9.33-4.29l4.96,4.52
		c-3.7,3.78-8.66,6.14-14.36,6.14C413.37,105.17,404.12,95.99,404.12,85.11z"/>
	<path d="M443.58,85.11c0-10.88,9.25-19.99,20.21-19.99c10.88,0,20.06,9.11,20.06,19.99s-9.18,20.06-20.06,20.06
		C452.83,105.17,443.58,95.99,443.58,85.11z M476.52,85.11c0-7.4-5.85-13.62-12.73-13.62c-7.03,0-12.88,6.22-12.88,13.62
		c0,7.48,5.85,13.7,12.88,13.7C470.67,98.8,476.52,92.58,476.52,85.11z"/>
	<path d="M526.27,79.92v24.36h-7.18v-23.1c0-5.7-3.63-9.7-8.81-9.7c-5.33,0-9.92,3.48-10.51,8v24.8h-7.33V66.01h7.33v5.55
		c2.29-3.78,6.96-6.44,12.14-6.44C520.35,65.12,526.27,71.26,526.27,79.92z"/>
	<path d="M565.28,94.51l4.59,4.74c-3.41,3.63-10.07,5.92-15.47,5.92c-10.66,0-19.69-8.37-19.69-20.14c0-11.48,8.51-19.92,19.1-19.92
		c11.7,0,18.44,8.88,18.44,22.58h-30.13c0.96,6.37,5.63,10.96,12.22,10.96C558.32,98.66,562.99,96.88,565.28,94.51z M542.19,81.85
		h22.95c-0.81-5.92-4.44-10.22-11.03-10.22C548.18,71.63,543.37,75.63,542.19,81.85z"/>
</g>
<g>
	<g>
		<path d="M314.11,772.89h-95.19c-19.62,0-35.67-16.05-35.67-35.67v-95.19c0-19.62,16.05-35.67,35.67-35.67h95.19
			c19.62,0,35.67,16.05,35.67,35.67v95.19C349.78,756.84,333.73,772.89,314.11,772.89z"/>
		<g>
			<polygon class="st0" points="242.01,728.14 242.01,732.28 223.41,732.28 223.41,678.56 227.56,680.52 227.56,728.14 			"/>
			<polygon class="st0" points="242.01,728.14 242.01,732.28 223.41,732.28 223.41,678.56 227.56,680.52 227.56,728.14 			"/>
			<polygon class="st0" points="266.51,646.81 283.92,659 283.92,664.07 266.51,651.87 247.63,665.1 247.57,732.28 243.48,732.28 
				243.48,713.57 243.44,713.57 243.44,712.1 243.48,668 229.17,678.03 227.78,679 223.47,676.96 224.86,675.99 			"/>
			<polygon class="st0" points="283.92,659 283.92,664.07 266.51,651.87 247.63,665.1 247.57,732.28 243.48,732.28 243.48,713.57 
				243.44,713.57 243.44,712.1 243.48,668 229.17,678.03 227.78,679 223.47,676.96 224.86,675.99 266.51,646.81 			"/>
			<path class="st0" d="M286.86,661.06l-1.47-1.03v72.25h4.15v-22.37h20.08V677L286.86,661.06z M305.47,705.77h-15.93V668
				l15.93,11.16V705.77z"/>
			<g>
				<g>
					<g>
						<polygon class="st0" points="309.62,711.67 309.62,732.28 291.26,732.28 291.26,728.14 305.47,728.14 305.47,711.67 						"/>
					</g>
				</g>
			</g>
			<g>
				<g>
					<path class="st0" d="M266.51,694.61c-7.65,0-13.87,6.22-13.87,13.87v23.96h27.72v-23.96
						C280.37,700.83,274.16,694.61,266.51,694.61z M276.22,728.3h-19.43v-19.82c0-5.36,4.36-9.72,9.72-9.72
						c5.35,0,9.71,4.36,9.71,9.72V728.3z"/>
				</g>
			</g>
			<g>
				<path class="st0" d="M259.72,713.41c-1.11,0-2.02,0.9-2.02,2.01c0,1.12,0.91,2.02,2.02,2.02c1.12,0,2.02-0.91,2.02-2.02
					C261.74,714.32,260.84,713.41,259.72,713.41z M259.62,715.43c0-0.05,0.04-0.09,0.1-0.09c0.05,0,0.09,0.04,0.09,0.09
					C259.81,715.54,259.62,715.54,259.62,715.43z"/>
				<path class="st0" d="M259.81,715.43c0,0.11-0.19,0.11-0.19,0c0-0.05,0.04-0.09,0.1-0.09
					C259.77,715.34,259.81,715.38,259.81,715.43z"/>
			</g>
		</g>
		<path class="st0" d="M741.08,772.89h-95.19c-19.62,0-35.67-16.05-35.67-35.67v-95.19c0-19.62,16.05-35.67,35.67-35.67h95.19
			c19.62,0,35.67,16.05,35.67,35.67v95.19C776.75,756.84,760.7,772.89,741.08,772.89z"/>
		<g>
			<polygon points="668.98,728.14 668.98,732.28 650.38,732.28 650.38,678.56 654.53,680.52 654.53,728.14 			"/>
			<polygon points="668.98,728.14 668.98,732.28 650.38,732.28 650.38,678.56 654.53,680.52 654.53,728.14 			"/>
			<polygon points="693.49,646.81 710.9,659 710.9,664.07 693.49,651.87 674.6,665.1 674.54,732.28 670.45,732.28 670.45,713.57 
				670.41,713.57 670.41,712.1 670.45,668 656.14,678.03 654.75,679 650.44,676.96 651.83,675.99 			"/>
			<polygon points="710.9,659 710.9,664.07 693.49,651.87 674.6,665.1 674.54,732.28 670.45,732.28 670.45,713.57 670.41,713.57 
				670.41,712.1 670.45,668 656.14,678.03 654.75,679 650.44,676.96 651.83,675.99 693.49,646.81 			"/>
			<path d="M713.84,661.06l-1.47-1.03v72.25h4.15v-22.37h20.08V677L713.84,661.06z M732.44,705.77h-15.93V668l15.93,11.16V705.77z"
				/>
			<g>
				<g>
					<g>
						<polygon points="736.59,711.67 736.59,732.28 718.23,732.28 718.23,728.14 732.44,728.14 732.44,711.67 						"/>
					</g>
				</g>
			</g>
			<g>
				<g>
					<path d="M693.49,694.61c-7.65,0-13.87,6.22-13.87,13.87v23.96h27.72v-23.96C707.34,700.83,701.13,694.61,693.49,694.61z
						 M703.2,728.3h-19.43v-19.82c0-5.36,4.36-9.72,9.72-9.72c5.35,0,9.71,4.36,9.71,9.72V728.3z"/>
				</g>
			</g>
			<g>
				<path d="M686.69,713.41c-1.11,0-2.02,0.9-2.02,2.01c0,1.12,0.91,2.02,2.02,2.02c1.12,0,2.02-0.91,2.02-2.02
					C688.71,714.32,687.81,713.41,686.69,713.41z M686.59,715.43c0-0.05,0.04-0.09,0.1-0.09c0.05,0,0.09,0.04,0.09,0.09
					C686.79,715.54,686.59,715.54,686.59,715.43z"/>
				<path d="M686.79,715.43c0,0.11-0.19,0.11-0.19,0c0-0.05,0.04-0.09,0.1-0.09C686.74,715.34,686.79,715.38,686.79,715.43z"/>
			</g>
		</g>
	</g>
	<g>
		<g>
			<circle class="st0" cx="249" cy="899" r="56"/>
			<circle class="st18" cx="341.4" cy="899" r="56"/>
			<circle class="st19" cx="433.8" cy="899" r="56"/>
			<circle class="st20" cx="526.2" cy="899" r="56"/>
			<circle class="st21" cx="618.6" cy="899" r="56"/>
			<circle cx="711" cy="899" r="56"/>
		</g>
		<text transform="matrix(1 0 0 1 205 903.9199)" class="st15 st22 st23">#999999</text>
		<text transform="matrix(1 0 0 1 680.1064 903.7852)" class="st15 st22 st24">#000000</text>
	</g>
</g>
</svg>
