<?xml version="1.0" encoding="utf-8"?>
<!-- Generator: Adobe Illustrator 26.0.3, SVG Export Plug-In . SVG Version: 6.00 Build 0)  -->
<svg version="1.1" id="Layer_1" xmlns="http://www.w3.org/2000/svg" xmlns:xlink="http://www.w3.org/1999/xlink" x="0px" y="0px"
	 viewBox="0 0 960 1080" style="enable-background:new 0 0 960 1080;" xml:space="preserve">
<style type="text/css">
	.st0{fill:#999999;}
	.st1{fill:none;}
	.st2{fill:none;stroke:#000000;stroke-width:2;stroke-miterlimit:10;}
	.st3{fill:#061C49;}
	.st4{fill:#F8FFFF;}
	.st5{fill:#FFBE3D;}
	.st6{fill:#E3E1DC;}
	.st7{fill:#D0A657;}
	.st8{fill:#102132;}
	.st9{fill:#FFBE3D;stroke:#FFFFFF;stroke-width:3;stroke-miterlimit:10;}
	.st10{fill:#D0A657;stroke:#FFFFFF;stroke-width:3;stroke-miterlimit:10;}
	.st11{fill:#102132;stroke:#FFFFFF;stroke-width:3;stroke-miterlimit:10;}
	.st12{fill:#061C49;stroke:#FFFFFF;stroke-width:3;stroke-miterlimit:10;}
	.st13{fill:#0C2648;}
	.st14{fill:#FE7F31;}
	.st15{fill:#FFFFFF;}
	.st16{fill:#FE7F31;stroke:#FFFFFF;stroke-width:3;stroke-miterlimit:10;}
	.st17{fill:#0C2648;stroke:#FFFFFF;stroke-width:3;stroke-miterlimit:10;}
	.st18{fill:#7A7A7A;}
	.st19{fill:#5C5C5C;}
	.st20{fill:#3D3D3D;}
	.st21{fill:#1F1F1F;}
	.st22{fill:none;stroke:#000000;stroke-width:4;stroke-miterlimit:10;}
</style>
<g>
	<g>
		<polygon points="97.22,596.67 97.22,602.77 69.85,602.77 69.85,523.72 75.96,526.6 75.96,596.67 		"/>
		<polygon class="st0" points="97.22,596.67 97.22,602.77 69.85,602.77 69.85,523.72 75.96,526.6 75.96,596.67 		"/>
		<polygon points="133.28,477 158.89,494.94 158.89,502.39 133.28,484.45 105.49,503.91 105.4,602.77 99.38,602.77 99.38,575.23 
			99.32,575.23 99.32,573.07 99.39,508.18 78.33,522.93 76.29,524.36 69.94,521.37 71.98,519.94 		"/>
		<polygon points="158.89,494.94 158.89,502.39 133.28,484.45 105.49,503.91 105.4,602.77 99.38,602.77 99.38,575.23 99.32,575.23 
			99.32,573.07 99.39,508.18 78.33,522.93 76.29,524.36 69.94,521.37 71.98,519.94 133.28,477 		"/>
		<path class="st0" d="M163.22,497.97l-2.16-1.51v106.31h6.1v-32.92h29.54v-48.43L163.22,497.97z M190.6,563.75h-23.44v-55.57
			l23.44,16.41V563.75z"/>
		<g>
			<g>
				<g>
					<polygon points="196.7,572.44 196.7,602.77 169.68,602.77 169.68,596.67 190.6,596.67 190.6,572.44 					"/>
				</g>
			</g>
		</g>
		<g>
			<g>
				<path d="M133.28,547.34c-11.25,0-20.4,9.15-20.4,20.4V603h40.79v-35.26C153.67,556.49,144.53,547.34,133.28,547.34z
					 M147.56,596.9h-28.59v-29.16c0-7.89,6.41-14.3,14.3-14.3c7.88,0,14.29,6.41,14.29,14.3V596.9z"/>
			</g>
		</g>
		<g>
			<path d="M123.28,575c-1.64,0-2.98,1.33-2.98,2.96c0,1.64,1.34,2.98,2.98,2.98c1.64,0,2.97-1.33,2.97-2.98
				C126.25,576.33,124.93,575,123.28,575z M123.14,577.97c0-0.07,0.06-0.13,0.14-0.13c0.07,0,0.14,0.06,0.14,0.13
				C123.42,578.13,123.14,578.13,123.14,577.97z"/>
			<path class="st1" d="M123.42,577.97c0,0.16-0.28,0.16-0.28,0c0-0.07,0.06-0.13,0.14-0.13
				C123.35,577.84,123.42,577.9,123.42,577.97z"/>
		</g>
	</g>
	<g>
		<path d="M237.1,583.75c-0.88-0.84-1.31-1.98-1.31-3.4v-59.31c0-1.49,0.45-2.71,1.36-3.65c0.91-0.94,2.11-1.41,3.6-1.41
			c1.56,0,2.79,0.45,3.69,1.36c0.91,0.91,1.36,2.14,1.36,3.69v55.62h29.56c1.49,0,2.64,0.36,3.45,1.07
			c0.81,0.71,1.22,1.75,1.22,3.11c0,1.36-0.41,2.4-1.22,3.11c-0.81,0.71-1.96,1.07-3.45,1.07h-34.71
			C239.16,585.01,237.97,584.59,237.1,583.75z"/>
		<path d="M288.29,525.51c-1.1-1.04-1.65-2.4-1.65-4.08c0-1.68,0.55-3.03,1.65-4.04c1.1-1,2.59-1.51,4.47-1.51
			c1.81,0,3.29,0.5,4.42,1.51c1.13,1.01,1.7,2.35,1.7,4.04c0,1.69-0.55,3.05-1.65,4.08c-1.1,1.04-2.59,1.56-4.47,1.56
			C290.88,527.06,289.39,526.54,288.29,525.51z M289.21,584.33c-0.94-0.78-1.41-1.95-1.41-3.5v-39.48c0-1.56,0.47-2.74,1.41-3.55
			c0.94-0.81,2.12-1.21,3.55-1.21c1.42,0,2.59,0.41,3.5,1.21c0.91,0.81,1.36,1.99,1.36,3.55v39.48c0,1.56-0.45,2.72-1.36,3.5
			c-0.91,0.78-2.08,1.17-3.5,1.17C291.34,585.5,290.15,585.11,289.21,584.33z"/>
		<path d="M353.92,555.55v25.28c0,1.49-0.44,2.64-1.31,3.45c-0.88,0.81-2.09,1.22-3.65,1.22c-1.49,0-2.67-0.42-3.55-1.26
			c-0.88-0.84-1.31-1.98-1.31-3.4v-24.79c0-4.02-0.79-6.97-2.38-8.85c-1.59-1.88-4.07-2.82-7.44-2.82c-3.96,0-7.13,1.23-9.53,3.69
			c-2.4,2.46-3.6,5.77-3.6,9.92v22.85c0,1.43-0.44,2.56-1.31,3.4c-0.88,0.84-2.06,1.26-3.55,1.26c-1.49,0-2.69-0.42-3.6-1.26
			c-0.91-0.84-1.36-1.98-1.36-3.4v-39.57c0-1.36,0.47-2.48,1.41-3.35c0.94-0.88,2.12-1.31,3.55-1.31c1.42,0,2.56,0.42,3.4,1.26
			c0.84,0.84,1.26,1.95,1.26,3.31v3.99c1.56-2.85,3.73-5.02,6.51-6.51c2.79-1.49,5.93-2.24,9.43-2.24
			C348.25,536.4,353.92,542.78,353.92,555.55z"/>
		<path d="M406.72,574.12c0.58,0.71,0.88,1.62,0.88,2.72c0,1.88-1.17,3.47-3.5,4.76c-2.27,1.3-4.75,2.3-7.44,3.01
			c-2.69,0.71-5.27,1.07-7.73,1.07c-7.52,0-13.45-2.19-17.79-6.56c-4.34-4.38-6.51-10.36-6.51-17.94c0-4.86,0.96-9.17,2.87-12.93
			c1.91-3.76,4.6-6.68,8.07-8.75c3.47-2.07,7.4-3.11,11.81-3.11c6.35,0,11.38,2.04,15.07,6.13s5.54,9.59,5.54,16.53
			c0,2.59-1.17,3.89-3.5,3.89h-30.04c0.65,10.05,5.48,15.07,14.49,15.07c2.4,0,4.47-0.32,6.22-0.97c1.75-0.65,3.6-1.49,5.54-2.53
			c0.19-0.13,0.73-0.4,1.6-0.83c0.88-0.42,1.6-0.63,2.19-0.63C405.39,573.05,406.13,573.41,406.72,574.12z M378.52,547.19
			c-2.27,2.4-3.63,5.77-4.08,10.11h25.09c-0.19-4.41-1.31-7.79-3.35-10.16c-2.04-2.37-4.91-3.55-8.61-3.55
			C383.8,543.59,380.79,544.79,378.52,547.19z"/>
		<path d="M446.97,584.14c-0.91-0.91-1.36-2.14-1.36-3.69v-59.12c0-1.49,0.44-2.67,1.31-3.55c0.88-0.88,2.09-1.31,3.65-1.31H474
			c7.26,0,12.9,1.78,16.92,5.35c4.02,3.57,6.03,8.62,6.03,15.17c0,6.48-2.01,11.54-6.03,15.17c-4.02,3.63-9.66,5.45-16.92,5.45
			h-18.38v22.85c0,1.56-0.44,2.79-1.31,3.69c-0.88,0.91-2.12,1.36-3.74,1.36C449.07,585.5,447.88,585.04,446.97,584.14z
			 M472.93,549.52c9.59,0,14.39-4.18,14.39-12.54c0-8.3-4.8-12.45-14.39-12.45h-17.31v24.99H472.93z"/>
		<path d="M536.42,540.58c0,1.43-0.36,2.5-1.07,3.21c-0.71,0.71-1.94,1.13-3.69,1.26l-2.92,0.29c-4.08,0.39-7.11,1.82-9.09,4.28
			c-1.98,2.47-2.97,5.45-2.97,8.95v22.27c0,1.56-0.45,2.72-1.36,3.5c-0.91,0.78-2.08,1.17-3.5,1.17c-1.43,0-2.61-0.39-3.55-1.17
			c-0.94-0.78-1.41-1.95-1.41-3.5v-39.57c0-1.49,0.47-2.64,1.41-3.45c0.94-0.81,2.12-1.21,3.55-1.21c1.3,0,2.38,0.41,3.26,1.21
			c0.88,0.81,1.31,1.93,1.31,3.36v4.67c1.3-2.85,3.18-5.02,5.64-6.51c2.46-1.49,5.25-2.37,8.36-2.63l1.36-0.1
			C534.87,536.4,536.42,537.73,536.42,540.58z"/>
		<path d="M549.79,582.68c-3.53-2.01-6.26-4.88-8.17-8.61c-1.91-3.73-2.87-8.05-2.87-12.98c0-4.99,0.96-9.35,2.87-13.08
			c1.91-3.73,4.63-6.59,8.17-8.61c3.53-2.01,7.63-3.01,12.3-3.01c4.67,0,8.77,1.01,12.3,3.01c3.53,2.01,6.25,4.88,8.17,8.61
			c1.91,3.73,2.87,8.09,2.87,13.08c0,4.93-0.96,9.25-2.87,12.98c-1.91,3.73-4.64,6.6-8.17,8.61c-3.53,2.01-7.63,3.01-12.3,3.01
			C557.42,585.69,553.32,584.69,549.79,582.68z M572.06,573.64c2.3-2.85,3.45-7.03,3.45-12.54c0-5.44-1.17-9.61-3.5-12.49
			c-2.33-2.88-5.64-4.33-9.92-4.33c-4.28,0-7.58,1.44-9.92,4.33c-2.33,2.89-3.5,7.05-3.5,12.49c0,5.51,1.15,9.69,3.45,12.54
			c2.3,2.85,5.62,4.28,9.97,4.28C566.43,577.91,569.76,576.49,572.06,573.64z"/>
		<path d="M632.73,539.51c3.21,2.07,5.7,4.99,7.49,8.75c1.78,3.76,2.67,8.1,2.67,13.03c0,4.86-0.87,9.14-2.62,12.83
			c-1.75,3.69-4.23,6.55-7.44,8.56c-3.21,2.01-6.89,3.01-11.04,3.01c-3.57,0-6.71-0.76-9.43-2.28c-2.72-1.52-4.8-3.71-6.22-6.56
			v21.68c0,1.36-0.44,2.45-1.31,3.26c-0.88,0.81-2.03,1.22-3.45,1.22c-1.49,0-2.71-0.42-3.65-1.26c-0.94-0.84-1.41-1.98-1.41-3.4
			v-56.98c0-1.42,0.45-2.58,1.36-3.45c0.91-0.88,2.11-1.31,3.6-1.31c1.42,0,2.59,0.44,3.5,1.31c0.91,0.87,1.36,2.03,1.36,3.45v3.99
			c1.43-2.85,3.5-5.06,6.22-6.61c2.72-1.56,5.87-2.33,9.43-2.33C625.87,536.4,629.52,537.43,632.73,539.51z M629.37,573.59
			c2.33-2.88,3.5-6.98,3.5-12.3c0-5.38-1.18-9.56-3.55-12.54c-2.37-2.98-5.66-4.47-9.87-4.47c-4.28,0-7.57,1.46-9.87,4.37
			c-2.3,2.92-3.45,7.07-3.45,12.45c0,5.38,1.15,9.53,3.45,12.45c2.3,2.92,5.59,4.37,9.87,4.37
			C623.74,577.91,627.04,576.47,629.37,573.59z"/>
		<path d="M693.16,574.12c0.58,0.71,0.88,1.62,0.88,2.72c0,1.88-1.17,3.47-3.5,4.76c-2.27,1.3-4.75,2.3-7.44,3.01
			c-2.69,0.71-5.27,1.07-7.73,1.07c-7.52,0-13.45-2.19-17.79-6.56c-4.34-4.38-6.51-10.36-6.51-17.94c0-4.86,0.96-9.17,2.87-12.93
			c1.91-3.76,4.6-6.68,8.07-8.75c3.47-2.07,7.4-3.11,11.81-3.11c6.35,0,11.38,2.04,15.07,6.13c3.69,4.08,5.54,9.59,5.54,16.53
			c0,2.59-1.17,3.89-3.5,3.89h-30.04c0.65,10.05,5.48,15.07,14.49,15.07c2.4,0,4.47-0.32,6.22-0.97c1.75-0.65,3.6-1.49,5.54-2.53
			c0.19-0.13,0.73-0.4,1.6-0.83c0.88-0.42,1.6-0.63,2.19-0.63C691.83,573.05,692.57,573.41,693.16,574.12z M664.96,547.19
			c-2.27,2.4-3.63,5.77-4.08,10.11h25.09c-0.19-4.41-1.31-7.79-3.35-10.16c-2.04-2.37-4.91-3.55-8.61-3.55
			C670.24,543.59,667.23,544.79,664.96,547.19z"/>
		<path d="M734.77,540.58c0,1.43-0.36,2.5-1.07,3.21c-0.71,0.71-1.94,1.13-3.69,1.26l-2.92,0.29c-4.08,0.39-7.11,1.82-9.09,4.28
			c-1.98,2.47-2.97,5.45-2.97,8.95v22.27c0,1.56-0.45,2.72-1.36,3.5c-0.91,0.78-2.08,1.17-3.5,1.17c-1.43,0-2.61-0.39-3.55-1.17
			c-0.94-0.78-1.41-1.95-1.41-3.5v-39.57c0-1.49,0.47-2.64,1.41-3.45c0.94-0.81,2.12-1.21,3.55-1.21c1.3,0,2.38,0.41,3.26,1.21
			c0.88,0.81,1.31,1.93,1.31,3.36v4.67c1.3-2.85,3.18-5.02,5.64-6.51c2.46-1.49,5.25-2.37,8.36-2.63l1.36-0.1
			C733.22,536.4,734.77,537.73,734.77,540.58z"/>
		<path d="M771.18,579.13c0.62,0.62,0.92,1.48,0.92,2.58c0,1.3-0.5,2.28-1.51,2.96c-1.01,0.68-2.48,0.96-4.42,0.83l-2.62-0.19
			c-5.25-0.39-9.17-1.99-11.77-4.81c-2.59-2.82-3.89-6.98-3.89-12.49v-22.85h-5.83c-2.85,0-4.28-1.26-4.28-3.79
			c0-1.17,0.37-2.09,1.12-2.77c0.74-0.68,1.8-1.02,3.16-1.02h5.83v-10.01c0-1.49,0.44-2.66,1.31-3.5c0.88-0.84,2.06-1.26,3.55-1.26
			c1.49,0,2.69,0.42,3.6,1.26c0.91,0.84,1.36,2.01,1.36,3.5v10.01h9.63c1.36,0,2.41,0.34,3.16,1.02c0.74,0.68,1.12,1.6,1.12,2.77
			c0,1.23-0.37,2.17-1.12,2.82c-0.75,0.65-1.8,0.97-3.16,0.97h-9.63v23.53c0,3.05,0.63,5.28,1.9,6.71c1.26,1.43,3.19,2.24,5.79,2.43
			l2.72,0.2C769.55,578.14,770.57,578.51,771.18,579.13z"/>
		<path d="M779.69,525.51c-1.1-1.04-1.65-2.4-1.65-4.08c0-1.68,0.55-3.03,1.65-4.04c1.1-1,2.59-1.51,4.47-1.51
			c1.81,0,3.29,0.5,4.42,1.51c1.13,1.01,1.7,2.35,1.7,4.04c0,1.69-0.55,3.05-1.65,4.08c-1.1,1.04-2.59,1.56-4.47,1.56
			C782.28,527.06,780.79,526.54,779.69,525.51z M780.62,584.33c-0.94-0.78-1.41-1.95-1.41-3.5v-39.48c0-1.56,0.47-2.74,1.41-3.55
			c0.94-0.81,2.12-1.21,3.55-1.21c1.42,0,2.59,0.41,3.5,1.21c0.91,0.81,1.36,1.99,1.36,3.55v39.48c0,1.56-0.45,2.72-1.36,3.5
			c-0.91,0.78-2.08,1.17-3.5,1.17C782.74,585.5,781.55,585.11,780.62,584.33z"/>
		<path d="M842.11,574.12c0.58,0.71,0.88,1.62,0.88,2.72c0,1.88-1.17,3.47-3.5,4.76c-2.27,1.3-4.75,2.3-7.44,3.01
			c-2.69,0.71-5.27,1.07-7.73,1.07c-7.52,0-13.45-2.19-17.79-6.56c-4.34-4.38-6.51-10.36-6.51-17.94c0-4.86,0.96-9.17,2.87-12.93
			c1.91-3.76,4.6-6.68,8.07-8.75c3.47-2.07,7.4-3.11,11.81-3.11c6.35,0,11.38,2.04,15.07,6.13c3.69,4.08,5.54,9.59,5.54,16.53
			c0,2.59-1.17,3.89-3.5,3.89h-30.04c0.65,10.05,5.48,15.07,14.49,15.07c2.4,0,4.47-0.32,6.22-0.97c1.75-0.65,3.6-1.49,5.54-2.53
			c0.19-0.13,0.73-0.4,1.6-0.83c0.88-0.42,1.6-0.63,2.19-0.63C840.78,573.05,841.53,573.41,842.11,574.12z M813.92,547.19
			c-2.27,2.4-3.63,5.77-4.08,10.11h25.09c-0.19-4.41-1.31-7.79-3.35-10.16c-2.04-2.37-4.91-3.55-8.61-3.55
			C819.2,543.59,816.18,544.79,813.92,547.19z"/>
		<path d="M854.46,581.61c-1.17-0.71-1.99-1.46-2.48-2.24c-0.49-0.78-0.73-1.65-0.73-2.63c0-1.04,0.29-1.91,0.88-2.63
			c0.58-0.71,1.33-1.07,2.24-1.07c0.84,0,2.17,0.52,3.99,1.56c1.94,1.04,3.84,1.88,5.69,2.53c1.85,0.65,4.16,0.97,6.95,0.97
			c3.11,0,5.54-0.55,7.29-1.65c1.75-1.1,2.62-2.66,2.62-4.67c0-1.3-0.34-2.33-1.02-3.11c-0.68-0.78-1.86-1.47-3.55-2.09
			c-1.69-0.62-4.18-1.28-7.49-1.99c-5.7-1.23-9.8-2.9-12.3-5.01c-2.5-2.11-3.74-4.97-3.74-8.61c0-2.79,0.81-5.3,2.43-7.53
			c1.62-2.24,3.86-3.97,6.71-5.2c2.85-1.23,6.09-1.85,9.72-1.85c2.59,0,5.12,0.34,7.58,1.02c2.46,0.68,4.63,1.67,6.51,2.97
			c2.14,1.43,3.21,3.08,3.21,4.96c0,1.04-0.31,1.91-0.92,2.63c-0.62,0.71-1.35,1.07-2.19,1.07c-0.58,0-1.17-0.13-1.75-0.39
			c-0.58-0.26-1.36-0.68-2.33-1.26c-1.75-1.04-3.39-1.85-4.91-2.43c-1.52-0.58-3.42-0.88-5.69-0.88c-2.72,0-4.91,0.58-6.56,1.75
			c-1.65,1.17-2.48,2.76-2.48,4.76c0,1.82,0.76,3.23,2.28,4.23c1.52,1.01,4.39,1.96,8.61,2.87c4.34,0.91,7.74,1.94,10.21,3.11
			c2.46,1.17,4.23,2.61,5.3,4.33c1.07,1.72,1.6,3.91,1.6,6.56c0,4.21-1.77,7.6-5.3,10.16c-3.53,2.56-8.25,3.84-14.15,3.84
			C864.09,585.69,858.67,584.33,854.46,581.61z"/>
	</g>
</g>
<g>
	<path d="M189.09,101.95l4.52-5.55c4.52,4.29,9.85,7.11,16.73,7.11c7.03,0,10.66-3.7,10.66-7.77c0-4.81-4.22-6.66-12.73-8.59
		c-10.37-2.44-17.25-5.55-17.25-14.73c0-8.51,7.4-14.96,17.62-14.96c7.85,0,13.7,2.89,18.58,7.18l-4.29,5.63
		c-4.29-3.92-9.4-6.22-14.58-6.22c-5.7,0-9.7,3.63-9.7,7.7c0,4.74,4.37,6.37,12.73,8.37c10.14,2.37,17.18,5.77,17.18,14.88
		c0,8.59-6.51,15.1-18.51,15.1C201.53,110.1,194.5,107.14,189.09,101.95z"/>
	<path d="M266.02,99.51l4.59,4.74c-3.41,3.63-10.07,5.92-15.47,5.92c-10.66,0-19.69-8.37-19.69-20.14c0-11.48,8.51-19.92,19.1-19.92
		c11.7,0,18.44,8.88,18.44,22.58h-30.13c0.96,6.37,5.63,10.96,12.22,10.96C259.06,103.66,263.72,101.88,266.02,99.51z M242.92,86.85
		h22.95c-0.81-5.92-4.44-10.22-11.03-10.22C248.91,76.63,244.1,80.63,242.92,86.85z"/>
	<path d="M279.41,90.11c0-10.88,9.25-19.99,20.21-19.99c5.48,0,10.44,2.3,14.07,5.92l-4.96,4.59c-2.29-2.59-5.63-4.15-9.18-4.15
		c-6.96,0-12.73,6.22-12.73,13.62c0,7.48,5.77,13.7,12.81,13.7c3.55,0,6.96-1.63,9.33-4.29l4.96,4.52
		c-3.7,3.78-8.66,6.14-14.36,6.14C288.67,110.17,279.41,100.99,279.41,90.11z"/>
	<path d="M318.87,90.11c0-10.88,9.25-19.99,20.21-19.99c10.88,0,20.06,9.11,20.06,19.99s-9.18,20.06-20.06,20.06
		C328.13,110.17,318.87,100.99,318.87,90.11z M351.82,90.11c0-7.4-5.85-13.62-12.73-13.62c-7.03,0-12.88,6.22-12.88,13.62
		c0,7.48,5.85,13.7,12.88,13.7C345.97,103.8,351.82,97.58,351.82,90.11z"/>
	<path d="M401.57,84.92v24.36h-7.18v-23.1c0-5.7-3.63-9.7-8.81-9.7c-5.33,0-9.92,3.48-10.51,8v24.8h-7.33V71.01h7.33v5.55
		c2.29-3.78,6.96-6.44,12.14-6.44C395.64,70.12,401.57,76.26,401.57,84.92z"/>
	<path d="M448.8,57.53v51.75h-7.26v-6.66c-2.96,4.74-7.7,7.55-13.62,7.55c-10.07,0-17.62-8.29-17.62-20.06
		c0-11.7,7.55-19.99,17.62-19.99c5.92,0,10.66,2.81,13.62,7.48V57.53H448.8z M441.54,90.11c0-8-4.96-13.62-11.85-13.62
		c-7.03,0-11.99,5.63-11.99,13.62c0,8,4.96,13.7,11.99,13.7C436.58,103.8,441.54,98.1,441.54,90.11z"/>
	<path d="M491.88,86.11v23.17h-7.18v-5.26c-2.81,4-8.07,6.14-12.73,6.14c-8.14,0-14.14-4.74-14.14-12.22
		c0-7.63,6.89-12.73,15.33-12.73c3.78,0,7.85,0.81,11.55,2.07v-1.18c0-4.81-2.22-9.92-9.85-9.92c-3.78,0-7.48,1.48-10.81,3.18
		l-2.67-5.4c5.48-2.74,10.29-3.85,14.51-3.85C486.18,70.12,491.88,76.63,491.88,86.11z M484.7,97.29v-5.11
		c-3.11-0.96-6.66-1.48-10.44-1.48c-5.11,0-9.4,2.89-9.4,7.03c0,4.15,3.7,6.66,8.51,6.66C478.11,104.4,483.44,102.03,484.7,97.29z"
		/>
	<path d="M524.38,70.12v6.37c-7.92,0-13.55,4.37-14.21,11.03v21.77h-7.33V71.01h7.33v7.33C512.61,73.3,517.79,70.12,524.38,70.12z"
		/>
	<path d="M531.04,120.98l1.63-5.63c1.48,0.81,3.18,1.18,4.66,1.18c2.37,0,4-0.74,5.26-2.96l1.93-4.07l-16.44-38.5h7.85l12.29,30.21
		l11.62-30.21h7.63l-16.88,41.76c-2.74,6.89-6.81,9.77-12.29,9.85C535.71,122.61,533.04,122.02,531.04,120.98z"/>
	<path d="M630.91,102.32v6.96h-34.5V58.42h7.55v43.9H630.91z"/>
	<path d="M636.46,90.11c0-10.88,9.25-19.99,20.21-19.99c10.88,0,20.06,9.11,20.06,19.99s-9.18,20.06-20.06,20.06
		C645.72,110.17,636.46,100.99,636.46,90.11z M669.41,90.11c0-7.4-5.85-13.62-12.73-13.62c-7.03,0-12.88,6.22-12.88,13.62
		c0,7.48,5.85,13.7,12.88,13.7C663.56,103.8,669.41,97.58,669.41,90.11z"/>
	<path d="M721.75,71.01v34.2c0,9.85-8.07,16.81-19.4,16.81c-6.44,0-12.36-2.15-15.99-5.11l2.89-5.48c2.81,2.67,7.4,4.22,11.99,4.22
		c8.22,0,13.18-3.92,13.18-10.59v-5.55c-3.04,4.37-7.77,6.96-13.55,6.96c-10.07,0-17.4-7.55-17.4-18.21s7.33-18.14,17.4-18.14
		c5.78,0,10.66,2.74,13.55,7.03v-6.15H721.75z M714.42,88.26c0-6.89-4.89-11.77-11.7-11.77c-6.81,0-11.62,4.89-11.62,11.77
		c0,6.96,4.81,11.85,11.62,11.85C709.53,100.1,714.42,95.22,714.42,88.26z"/>
	<path d="M730.63,90.11c0-10.88,9.25-19.99,20.21-19.99c10.88,0,20.06,9.11,20.06,19.99s-9.18,20.06-20.06,20.06
		C739.88,110.17,730.63,100.99,730.63,90.11z M763.58,90.11c0-7.4-5.85-13.62-12.73-13.62c-7.03,0-12.88,6.22-12.88,13.62
		c0,7.48,5.85,13.7,12.88,13.7C757.73,103.8,763.58,97.58,763.58,90.11z"/>
</g>
</svg>
