<?xml version="1.0" encoding="utf-8"?>
<!-- Generator: Adobe Illustrator 28.3.0, SVG Export Plug-In . SVG Version: 6.00 Build 0)  -->
<svg version="1.1" id="Layer_1" xmlns="http://www.w3.org/2000/svg" xmlns:xlink="http://www.w3.org/1999/xlink" x="0px" y="0px"
	 viewBox="0 0 512 512" style="enable-background:new 0 0 512 512;" xml:space="preserve">
<style type="text/css">
	.st0{opacity:0.1;fill:#D4E1F4;enable-background:new    ;}
	.st1{fill:#3B82F6;}
</style>
<path class="st0" d="M113.9,228.5c0.2-0.6,0.3-1.2,0.3-1.9V81.7c0-5.5,6.4-10.2,14-10.2h-30c-7.6,0-14,4.7-14,10.2v144.9
	c0,0.6-0.1,1.3-0.3,1.9v80h30C113.9,308.5,113.9,228.5,113.9,228.5z M58.7,405.4l8.2,35.1h10l-8.2-35.1
	C68.7,405.4,58.7,405.4,58.7,405.4z M416.1,405.4l8.2,35.1h10l-8.2-35.1H416.1z M470.1,310.5v-81.9c0-5.8,4.1-10.8,10-12.9
	c-2-0.7-4.1-1.1-6.2-1.1h-17.7c-8.9,0-16.1,6.2-16.1,13.9v81.9c-0.1,5.6-4.8,10.1-10.4,10h30C465.3,320.6,469.9,316.1,470.1,310.5
	L470.1,310.5z M52,379.5V228.6c0-5.8,4.1-10.8,10-12.9c-2-0.7-4.1-1.1-6.2-1.1H38.1c-8.9,0-16.1,6.2-16.1,13.9v150.9
	c0,7.7,7.2,13.9,16.1,13.9h30C59.2,393.4,52,387.1,52,379.5z"/>
<path class="st1" d="M414.1,59.5H98.2c-14.3,0-26,10-26,22.2v144.9c0,3.3,2.7,6,6,6s6-2.7,6-6V81.7c0-5.5,6.4-10.2,14-10.2H414
	c7.6,0,14,4.7,14,10.2v147.9c0,3.3,2.7,6,6,6s6-2.7,6-6V81.7C440.1,69.5,428.4,59.5,414.1,59.5z"/>
<path class="st1" d="M473.9,202.6h-17.7c-15.5,0-28.1,11.6-28.1,25.9v79.9H83.9v-79.9c0-14.3-12.6-25.9-28.1-25.9H38.1
	c-15.5,0-28.1,11.6-28.1,25.9v150.9c0,14.3,12.6,25.9,28.1,25.9h8.3l9.6,41c0.9,3.7,4.2,6.3,8,6.2h26.6c3.8,0.1,7.1-2.5,8-6.2
	l9.6-40.9h295.5l9.6,40.9c0.9,3.7,4.2,6.3,8,6.2H448c3.8,0,7.1-2.5,8-6.2l9.6-40.9h8.3c15.5,0,28.1-11.6,28.1-25.9v-151
	C502,214.3,489.4,202.6,473.9,202.6z M87.7,440.5H67l-8.2-35.1H96L87.7,440.5z M445,440.5h-20.7l-8.2-35.1h37.2L445,440.5z
	 M490,379.5c0,7.7-7.2,13.9-16.1,13.9H38.1c-8.9,0-16.1-6.2-16.1-13.9V228.6c0-7.7,7.2-13.9,16.1-13.9h17.7
	c8.9,0,16.1,6.2,16.1,13.9v81.9c0.1,5.6,4.8,10.1,10.4,10h347.3c5.6,0.1,10.3-4.4,10.4-10v-82c0-7.7,7.2-13.9,16.1-13.9h17.7
	c8.9,0,16.1,6.2,16.1,13.9v151H490z"/>
</svg>
