<?xml version="1.0" encoding="utf-8"?>
<!-- Generator: Adobe Illustrator 28.3.0, SVG Export Plug-In . SVG Version: 6.00 Build 0)  -->
<svg version="1.1" id="Layer_1" xmlns="http://www.w3.org/2000/svg" xmlns:xlink="http://www.w3.org/1999/xlink" x="0px" y="0px"
	 viewBox="0 0 512 512" style="enable-background:new 0 0 512 512;" xml:space="preserve">
<style type="text/css">
	.st0{opacity:0.1;fill:#D4E1F4;enable-background:new    ;}
	.st1{fill:#3B82F6;}
</style>
<path class="st0" d="M52,263.8v-16.3c0-7.7,6.3-14,14-14H36c-7.7,0-14,6.3-14,14v16.3c0,7.7,6.3,14,14,14h29.7
	C58.1,277.6,52,271.4,52,263.8z"/>
<path class="st1" d="M183.5,175.9v-2.8c0.1-16.4-6.7-32.2-18.6-43.5c-1.4-1.4-3.4-2.2-5.4-2.2h-26c0.1-0.6,0.1-1.2,0.1-1.8
	c0.2-0.5,0.4-1.1,0.5-1.6c0.9-6.7,8.4-11.3,16.7-10.3c3.3,0.4,6.3-1.9,6.7-5.2s-1.9-6.3-5.2-6.7c-6-0.8-12.1,0.3-17.5,3.1
	c0.3-7,0.4-14.2,0.4-21.6c0-3.3-2.7-6-6-6s-6,2.7-6,6c0,5.7-0.1,11.2-0.2,16.4c-7.8-1.8-13.4-7.1-13.4-13.4c0-3.3-2.7-6-6-6
	s-6,2.7-6,6c0,12.6,10.7,23.1,25,25.5c-0.3,5.6-0.7,10.8-1.1,15.6H86.6c-2,0-3.9,0.8-5.4,2.2c-12.5,12-19.3,28.8-18.5,46.1v0.3
	c1.5,30.7,26.8,55.8,57.5,57.2c1,0,1.9,0.1,2.9,0.1c31.8,0,58.1-24.6,60.2-56.3C183.4,176.8,183.5,176.3,183.5,175.9L183.5,175.9z
	 M157.8,139.6c7.9,8,12.7,18.6,13.5,29.8h-45.1c2.1-6.4,3.6-12.9,4.6-19.5c0.5-3.2,1-6.7,1.4-10.2L157.8,139.6z M88.3,139.6h31.8
	c-2.1,16.3-4.8,26.2-6.9,29.8H74.8C75.7,158.2,80.5,147.6,88.3,139.6z M156.6,208.1c-9.6,9.2-22.5,14-35.8,13.4
	C98.4,220.3,79.7,204,75.5,182h95.3C168.9,191.9,163.9,201.1,156.6,208.1z M201,233.7c3.3,0,6-2.7,6-6s-2.7-6-6-6v-12.4h115.8v12.4
	c-3.3,0-6,2.7-6,6s2.7,6,6,6c6.6,0,12-5.4,12-12v-12.5c0-6.6-5.4-12-12-12h-29.5c1.5-3,2.3-6.4,2.3-9.8c0-12.1-9.8-21.9-21.9-21.9
	s-21.9,9.8-21.9,21.9c0,3.4,0.8,6.8,2.3,9.8H201c-6.6,0-12,5.4-12,12v12.5C189,228.4,194.4,233.7,201,233.7z M257.9,187.5
	c0-5.4,4.4-9.9,9.8-9.9s9.9,4.4,9.9,9.8s-4.3,9.8-9.7,9.9h-0.3C262.3,197.2,258,192.9,257.9,187.5L257.9,187.5z"/>
<path class="st1" d="M476,221.5H36c-14.4,0-26,11.6-26,26v16.3c0,14.4,11.6,26,26,26h24.7l-9.9,138.3c-0.2,3.3,2.3,6.2,5.6,6.4h0.4
	c3.1,0,5.8-2.4,6-5.6l5.3-74.3h376.8l5.3,74.3c0.2,3.1,2.8,5.6,6,5.6h0.4c3.3-0.2,5.8-3.1,5.6-6.4l-9.9-138.3H476
	c14.4,0,26-11.6,26-26v-16.3C502,233.1,490.4,221.5,476,221.5L476,221.5z M444,342.6H68.9l3.8-52.9h367.5L444,342.6z M490,263.8
	c0,7.7-6.3,14-14,14h-28.7c-1-0.3-2-0.3-3,0H68.7c-1-0.3-2-0.3-3,0H36c-7.7,0-14-6.3-14-14v-16.3c0-7.7,6.3-14,14-14h440
	c7.7,0,14,6.3,14,14V263.8z"/>
</svg>
