<?xml version="1.0" encoding="utf-8"?>
<!-- Generator: Adobe Illustrator 28.3.0, SVG Export Plug-In . SVG Version: 6.00 Build 0)  -->
<svg version="1.1" id="Layer_1" xmlns="http://www.w3.org/2000/svg" xmlns:xlink="http://www.w3.org/1999/xlink" x="0px" y="0px"
	 viewBox="0 0 512 512" style="enable-background:new 0 0 512 512;" xml:space="preserve">
<style type="text/css">
	.st0{fill:#D4E1F4;}
	.st1{fill:#3B82F6;}
</style>
<path class="st0" d="M261.6,22h20v468h-20V22z M99,474.5V36.6c0-8.1,6.3-14.6,14-14.6H93c-7.7,0-14,6.6-14,14.6v437.9
	c0,8.5,6.3,15.5,14,15.5h20C105.3,490,99,483.1,99,474.5z"/>
<path class="st1" d="M223.5,248c-3.3,0-6,2.7-6,6v38.7c0,3.3,2.7,6,6,6s6-2.7,6-6V254C229.5,250.7,226.9,248,223.5,248z M331.3,64.1
	h32.1c3.3,0,6-2.7,6-6s-2.7-6-6-6h-32.1c-3.3,0-6,2.7-6,6S328,64.1,331.3,64.1z M363.4,218.6c3.3,0,6-2.7,6-6s-2.7-6-6-6h-32.1
	c-3.3,0-6,2.7-6,6s2.7,6,6,6H363.4z M363.4,382.6c3.3,0,6-2.7,6-6s-2.7-6-6-6h-32.1c-3.3,0-6,2.7-6,6s2.7,6,6,6H363.4z M255.6,163.2
	H439v12H255.6V163.2z M255.6,328.3H439v12H255.6V328.3z"/>
<path class="st1" d="M445,474.5V36.6c0-14.7-11.7-26.6-26-26.6H93c-14.3,0-26,11.9-26,26.6v437.9c0,15.1,11.7,27.5,26,27.5h326
	C433.3,502,445,489.7,445,474.5z M433,36.6v437.9c0,8.5-6.3,15.5-14,15.5H261.6V22H419C426.7,22,433,28.6,433,36.6z M79,474.5V36.6
	C79,28.5,85.3,22,93,22h156.6v468H93C85.3,490,79,483.1,79,474.5z"/>
</svg>
