<?xml version="1.0" encoding="utf-8"?>
<!-- Generator: Adobe Illustrator 28.3.0, SVG Export Plug-In . SVG Version: 6.00 Build 0)  -->
<svg version="1.1" id="Layer_1" xmlns="http://www.w3.org/2000/svg" xmlns:xlink="http://www.w3.org/1999/xlink" x="0px" y="0px"
	 viewBox="0 0 512 512" style="enable-background:new 0 0 512 512;" xml:space="preserve">
<style type="text/css">
	.st0{opacity:0.1;fill:#D4E1F4;enable-background:new    ;}
	.st1{fill:#3B82F6;}
</style>
<path class="st0" d="M22,77h20v245.4H22V77z M22.2,353.1h20v79.8h-20V353.1L22.2,353.1z M259,353.1h20v79.8h-20V353.1L259,353.1z
	 M182.1,175h20v147.4h-20V175z"/>
<path class="st1" d="M494,341.1H18.2c-4.4,0-8,3.6-8,8v87.8c0,4.4,3.6,8,8,8H494c4.4,0,8-3.6,8-8v-87.8
	C502,344.7,498.4,341.1,494,341.1L494,341.1z M22.2,353.1H247v79.8H22.2L22.2,353.1L22.2,353.1z M490,432.9H259v-79.8h231V432.9
	L490,432.9z"/>
<path class="st1" d="M152,368h-24c-3.3,0-6,2.7-6,6s2.7,6,6,6h24c3.3,0,6-2.7,6-6S155.4,368,152,368z M367,380h24c3.3,0,6-2.7,6-6
	s-2.7-6-6-6h-24c-3.3,0-6,2.7-6,6S363.7,380,367,380z M18,334.4h114.6c4.4,0,8-3.6,8-8V73c0-4.4-3.6-8-8-8H18c-4.4,0-8,3.6-8,8
	v253.4C10,330.8,13.6,334.4,18,334.4z M22,77h106.6v245.4H22V77z"/>
<path class="st1" d="M107.3,178.9c-3.3,0-6,2.7-6,6v29.7c0,3.3,2.7,6,6,6s6-2.7,6-6v-29.7C113.3,181.6,110.6,178.9,107.3,178.9z
	 M429,163H178c-4.4,0-8,3.6-8,8v155.4c0,4.4,3.6,8,8,8h251c4.4,0,8-3.6,8-8V171C437,166.6,433.4,163.1,429,163z M425,322.4H182V175
	h243V322.4z"/>
</svg>
