<?xml version="1.0" encoding="utf-8"?>
<!-- Generator: Adobe Illustrator 28.3.0, SVG Export Plug-In . SVG Version: 6.00 Build 0)  -->
<svg version="1.1" id="Layer_1" xmlns="http://www.w3.org/2000/svg" xmlns:xlink="http://www.w3.org/1999/xlink" x="0px" y="0px"
	 viewBox="0 0 512 512" style="enable-background:new 0 0 512 512;" xml:space="preserve">
<style type="text/css">
	.st0{fill:#D4E1F4;}
	.st1{fill:#3B82F6;}
</style>
<path class="st0" d="M22.3,92h20v46.4h-20V92z M22.3,33.6h20V80h-20V33.6z M345.1,89.3h20v49.1h-20V89.3z M345.1,33.6h20v43.8h-20
	V33.6z M184,358.3h20v132h-20V358.3z M43.6,476.3v-104c0-7.7,6.3-14,14-14h-20c-7.7,0-14,6.3-14,14v104c0,7.7,6.3,14,14,14h20
	C49.9,490.3,43.6,484,43.6,476.3z M345.1,358.3h20v132h-20V358.3z"/>
<path class="st1" d="M477,346.3H37.6c-14.4,0-26,11.6-26,26v104c0,14.4,11.6,26,26,26H477c14.4,0,26-11.6,26-26v-104
	C503,357.9,491.3,346.3,477,346.3z M333.1,358.3v132H184v-132H333.1z M23.6,476.3v-104c0-7.7,6.3-14,14-14H172v132H37.6
	C29.9,490.3,23.6,484,23.6,476.3z M491,476.3c0,7.7-6.3,14-14,14H345.1v-132H477c7.7,0,14,6.3,14,14V476.3z M18.3,150.4h475.4
	c4.4,0,8-3.6,8-8V29.6c0-4.4-3.6-8-8-8H18.3c-4.4,0-8,3.6-8,8v112.9C10.3,146.9,13.9,150.4,18.3,150.4z M22.3,92h144.6v46.4H22.3
	C22.3,138.4,22.3,92,22.3,92z M333.1,138.4H178.9V33.6h154.3v104.8H333.1L333.1,138.4z M345.1,138.4V89.3h144.6v49.1H345.1
	L345.1,138.4z M489.7,77.3H345.1V33.5h144.6L489.7,77.3L489.7,77.3z M166.9,33.6V80H22.3V33.6H166.9L166.9,33.6z"/>
<path class="st1" d="M143.9,370.3h-84c-3.3,0-6,2.7-6,6s2.7,6,6,6h84c3.3,0,6-2.7,6-6S147.3,370.3,143.9,370.3z M214.2,382.3h84
	c3.3,0,6-2.7,6-6s-2.7-6-6-6h-84c-3.3,0-6,2.7-6,6S210.8,382.3,214.2,382.3L214.2,382.3z M462.6,370.3h-84c-3.3,0-6,2.7-6,6
	s2.7,6,6,6h84c3.3,0,6-2.7,6-6S465.9,370.3,462.6,370.3z M318.4,240.5h-114c-3.3,0-6,2.7-6,6v9h-15.1v-4c0-3.3-2.7-6-6-6h-38
	c-8.8,0-16,7.2-16,16c0,8.8,7.2,16,16,16h38c3.3,0,6-2.7,6-6v-4h15.1V289c0,14.4,11.6,26,26,26h74c14.4,0,26-11.6,26-26v-42.5
	C324.4,243.2,321.8,240.5,318.4,240.5z M171.3,265.5h-32c-2.2,0-4-1.8-4-4s1.8-4,4-4h32V265.5z M312.4,289c0,7.7-6.3,14-14,14h-74
	c-7.7,0-14-6.3-14-14v-36.5h102V289z"/>
<path class="st1" d="M226.5,293.2c3.3,0,6-2.7,6-6v-22c0-3.3-2.7-6-6-6s-6,2.7-6,6v22C220.5,290.6,223.2,293.2,226.5,293.2z
	 M312.8,321.7c-1.6-2.9-5.2-4-8.1-2.4c-1,0.6-1.9,1.4-2.4,2.4l-3.5,6.4c-0.3,0.6-0.6,1.2-0.8,1.8c-0.2-0.6-0.4-1.2-0.8-1.8l-3.5-6.4
	c-1.6-2.9-5.2-4-8.1-2.4c-1,0.6-1.9,1.4-2.4,2.4l-3.5,6.4c-0.3,0.6-0.6,1.2-0.8,1.8c-0.2-0.6-0.4-1.2-0.8-1.8l-3.5-6.4
	c-1.6-2.9-5.2-4-8.1-2.4c-1,0.6-1.9,1.4-2.4,2.4l-3.5,6.4c-0.3,0.6-0.6,1.2-0.8,1.8c-0.2-0.6-0.4-1.2-0.8-1.8l-3.4-6.4
	c-1.6-2.9-5.2-4-8.1-2.4c-1,0.6-1.9,1.4-2.4,2.4l-3.4,6.4c-0.3,0.6-0.6,1.2-0.8,1.8c-0.2-0.6-0.4-1.2-0.8-1.8l-3.4-6.4
	c-1.6-2.9-5.2-4-8.1-2.4c-1,0.6-1.9,1.4-2.4,2.4l-3.5,6.4c-0.3,0.6-0.6,1.2-0.8,1.8c-0.2-0.6-0.4-1.2-0.8-1.8l-3.5-6.4
	c-1.6-2.9-5.2-4-8.1-2.4c-1,0.6-1.9,1.4-2.4,2.4l-3.4,6.4c-2.1,3.9-1.4,8.6,1.7,11.7c3.9,3.9,10.2,3.9,14,0c1.2-1.2,2-2.6,2.5-4.1
	c1.6,5.2,7.1,8.2,12.3,6.6c3.2-1,5.7-3.4,6.6-6.6c1.6,5.2,7.1,8.2,12.3,6.6c1.6-0.5,3-1.3,4.2-2.5s2-2.6,2.5-4.1
	c1.6,5.2,7.1,8.2,12.3,6.6c1.6-0.5,3-1.3,4.2-2.5s2-2.6,2.5-4.1c1.6,5.2,7.1,8.2,12.3,6.6c3.2-1,5.7-3.4,6.6-6.6
	c1.6,5.2,7.1,8.2,12.3,6.6c1.6-0.5,3-1.3,4.2-2.5c3.1-3.1,3.8-7.9,1.7-11.7L312.8,321.7L312.8,321.7z M289.1,230.3c0,3.3,2.7,6,6,6
	s6-2.7,6-6v-20c0-3.3-2.7-6-6-6s-6,2.7-6,6V230.3z M269.1,210.3v10c0,3.3,2.7,6,6,6s6-2.7,6-6v-10c0-3.3-2.7-6-6-6
	S269.1,207,269.1,210.3z M249.1,210.3v20c0,3.3,2.7,6,6,6c3.3,0,6-2.7,6-6v-20c0-3.3-2.7-6-6-6S249.1,207,249.1,210.3z M229.1,210.3
	v10c0,3.3,2.7,6,6,6s6-2.7,6-6v-10c0-3.3-2.7-6-6-6S229.1,207,229.1,210.3z"/>
</svg>
