<?xml version="1.0" encoding="utf-8"?>
<!-- Generator: Adobe Illustrator 28.3.0, SVG Export Plug-In . SVG Version: 6.00 Build 0)  -->
<svg version="1.1" id="Layer_1" xmlns="http://www.w3.org/2000/svg" xmlns:xlink="http://www.w3.org/1999/xlink" x="0px" y="0px"
	 viewBox="0 0 512 512" style="enable-background:new 0 0 512 512;" xml:space="preserve">
<style type="text/css">
	.st0{fill:#D4E1F4;}
	.st1{fill:#3B82F6;}
</style>
<path class="st0" d="M279,401.8c-93.1,0-168.8-75.7-168.8-168.8c0-39.2,13.6-77.1,38.6-107.3c-39,32-61.6,79.8-61.5,130.3
	c0,93.1,75.7,168.8,168.8,168.8c50.4,0,98.2-22.6,130.3-61.5C356.1,388.2,318.1,401.9,279,401.8L279,401.8z"/>
<path class="st1" d="M256,438.6c100.7,0,182.6-81.9,182.6-182.6S356.7,73.4,256,73.4S73.4,155.3,73.4,256S155.3,438.6,256,438.6z
	 M256,87.2c93.1,0,168.8,75.7,168.8,168.8S349.1,424.8,256,424.8S87.2,349.1,87.2,256S162.9,87.2,256,87.2L256,87.2z"/>
<path class="st1" d="M256.4,330.8h-0.8c-18.9-0.2-34-15.6-34-34.4c0-3.8-3.1-6.9-6.9-6.9s-6.9,3.1-6.9,6.9c0,24,17.6,44.3,41.3,47.7
	v18.2c0,3.8,3.1,6.9,6.9,6.9s6.9-3.1,6.9-6.9v-18.2c26.4-3.8,44.6-28.3,40.8-54.6c-3.4-23.7-23.8-41.3-47.7-41.3
	c-19,0-34.4-15.4-34.4-34.4s15.4-34.4,34.4-34.4s34.4,15.4,34.4,34.4c0,3.8,3.1,6.9,6.9,6.9s6.9-3.1,6.9-6.9
	c0-24-17.6-44.3-41.3-47.7v-16.3c0-3.8-3.1-6.9-6.9-6.9s-6.9,3.1-6.9,6.9V166c-26.4,3.8-44.6,28.3-40.8,54.6
	C211.7,244.4,232,262,256,262c19,0,34.4,15.4,34.4,34.4C290.4,315.3,275.2,330.6,256.4,330.8z"/>
</svg>
