<?xml version="1.0" encoding="utf-8"?>
<!-- Generator: Adobe Illustrator 28.3.0, SVG Export Plug-In . SVG Version: 6.00 Build 0)  -->
<svg version="1.1" id="Layer_1" xmlns="http://www.w3.org/2000/svg" xmlns:xlink="http://www.w3.org/1999/xlink" x="0px" y="0px"
	 viewBox="0 0 512 512" style="enable-background:new 0 0 512 512;" xml:space="preserve">
<style type="text/css">
	.st0{fill:#D4E1F4;}
	.st1{fill:#3B82F6;}
</style>
<path class="st0" d="M36.4,300.1c0-2.8,2.9-5.2,5.6-5.2h36.9c2.4,0,4.7-1.1,6.1-3.1c16.8-23.6,42.1-42.9,73.4-56
	c1.8-0.8,3.3-2.2,4-4c8-19.1,9.3-40.4,3.7-60.4c17.5,2.3,33.7,10.3,46.1,22.8c6,5.8,11,12.6,14.8,20c1.4,2.7,4.2,4.3,7.2,4.1
	c3.4-0.2,37.3-0.1,59.3,0c48,0,92.6,24.7,118.2,65.3c-20.6-54.3-72.6-90.3-130.8-90.4c-22-0.1-55.9-0.2-59.3,0
	c-3,0.2-5.8-1.4-7.2-4.1c-3.8-7.4-8.8-14.1-14.8-20c-12.4-12.5-28.7-20.5-46.1-22.8c5.6,20,4.3,41.2-3.7,60.4c-0.8,1.8-2.2,3.3-4,4
	c-31.2,13.1-56.6,32.4-73.4,56c-1.4,2-3.7,3.1-6.1,3.1H29.4c-2.8,0-5.6,2.5-5.6,5.2v92.2c0.3,3,2.7,5.3,5.6,5.5h6.9
	C36.3,372.7,36.4,300.1,36.4,300.1z M293.7,138.1c-37.4,0-67.7-30.3-67.8-67.7c0-14.9,4.9-29.5,14-41.3
	c-29.7,22.7-35.4,65.3-12.6,95c22.7,29.7,65.3,35.4,95,12.6c4.7-3.6,9-7.9,12.6-12.6C323.1,133.1,308.6,138.1,293.7,138.1
	L293.7,138.1z"/>
<path class="st1" d="M29.5,387.8H50c10.5,20.1,26.6,38.3,46.7,53.5v50.6c0,11.1,9.6,20.1,20.7,20.1h50.2c11.1,0,19.5-9,19.5-20.1
	V480c0.3-9.9,8.3-17.9,18.2-18.2h72.5c9.7,0,17.2,8.5,17.2,18.2v11.9c0.2,11.2,9.3,20.1,20.4,20.1h50.2c11-0.1,19.8-9,19.7-20v-59.6
	c30.1-25.6,47.4-57.3,50.2-92.5h5.4c4.7,0.2,8.3,4,8.5,8.7v7.7c0,12.8,10.1,23.8,22.9,23.8h22.9c4.2,0,7.5-3.4,7.5-7.5
	s-3.4-7.5-7.5-7.5h-22.9c-4.5,0-7.8-4.2-7.8-8.7v-7.7c-0.1-13-10.5-23.5-23.5-23.7h-5.2c-4-81.6-71.9-147-154.7-147
	c-4.8,0-41.5-0.1-55.3,0c-17.4-29.2-48.8-47.2-82.8-47.4c-4.2,0-7.5,3.4-7.5,7.6c0,0.8,0.1,1.7,0.4,2.5l1.7,4.9
	c6,17,5.9,35.6-0.5,52.5C106,211.6,80.3,231,62.5,254.8h-33c-11.1,0-20.7,9.2-20.7,20.3v92.2C9.1,378.5,18.2,387.6,29.5,387.8
	L29.5,387.8z M23.9,275c0-2.8,2.9-5.2,5.6-5.2h36.9c2.4,0,4.7-1.1,6.1-3.1c16.8-23.6,42.1-42.9,73.4-56c1.8-0.8,3.3-2.2,4-4
	c8-19.1,9.3-40.4,3.7-60.4c17.5,2.3,33.7,10.3,46.1,22.8c6,5.8,11,12.6,14.8,20c1.4,2.7,4.2,4.3,7.2,4.1c3.4-0.2,37.3-0.1,59.3,0
	c76.8,0.1,139.1,62,139.8,138.7c-0.3,33.7-17.3,66.1-47.6,91.2c-1.8,1.4-2.8,3.5-2.9,5.8v62.9c0.2,2.6-1.9,4.9-4.5,5.1h-50.4
	c-2.8,0-5.2-2.2-5.4-5.1V480c0-18-14.3-33.2-32.3-33.2h-72.5c-18.3,0.3-33,15-33.3,33.2v11.9c0,2.8-1.6,5.1-4.4,5.1h-50.1
	c-2.8,0-5.6-2.3-5.6-5.1v-54.5c0.1-2.4-1-4.7-2.9-6.1c-21.5-15.1-37.8-33.8-47.5-54.5c-1.2-2.6-3.8-4.2-6.7-4.1H29.5
	c-3-0.2-5.4-2.5-5.6-5.5V275z"/>
<path class="st1" d="M121.6,320.8c15.9,0,28.8-12.9,28.9-28.9c0-4.2-3.4-7.5-7.5-7.5c-4.2,0-7.5,3.4-7.5,7.5
	c0,7.6-6.2,13.8-13.8,13.8c-7.6,0-13.8-6.2-13.8-13.8c0-4.2-3.4-7.5-7.5-7.5s-7.5,3.4-7.5,7.5C92.8,307.9,105.7,320.8,121.6,320.8z
	 M243.5,242.2h67c4.2,0,7.5-3.4,7.5-7.5c0-4.2-3.4-7.5-7.5-7.5h-67c-4.2,0-7.5,3.4-7.5,7.5S239.4,242.2,243.5,242.2z M281.2,165.7
	c45.7,0,82.8-37.1,82.8-82.8S326.9,0,281.2,0s-82.8,37.1-82.8,82.8C198.4,128.6,235.4,165.6,281.2,165.7L281.2,165.7z M281.2,15.1
	c37.4,0,67.8,30.3,67.8,67.8s-30.3,67.8-67.8,67.8s-67.8-30.3-67.8-67.8S243.8,15.1,281.2,15.1z"/>
<path class="st1" d="M281.3,110.3h-0.2c-5.6-0.1-10.1-4.6-10.1-10.2c0-4.2-3.4-7.5-7.5-7.5c-4.2,0-7.5,3.4-7.5,7.5
	c0,11,7.2,20.8,17.7,24.1v4.2c0,4.2,3.4,7.5,7.5,7.5c4.2,0,7.5-3.4,7.5-7.5v-4.2c13.3-4.2,20.7-18.3,16.6-31.6
	c-3.3-10.5-13.1-17.7-24.1-17.7c-5.6,0-10.2-4.6-10.2-10.2s4.6-10.2,10.2-10.2s10.2,4.6,10.2,10.2c0,4.2,3.4,7.5,7.5,7.5
	s7.5-3.4,7.5-7.5c0-11-7.2-20.8-17.7-24.1v-3.4c0-4.2-3.4-7.5-7.5-7.5c-4.2,0-7.5,3.4-7.5,7.5v3.4c-13.3,4.2-20.7,18.3-16.6,31.6
	c3.3,10.5,13.1,17.7,24.1,17.7c5.6,0,10.2,4.5,10.2,10.1S286.9,110.3,281.3,110.3z"/>
</svg>
