<?xml version="1.0" encoding="utf-8"?>
<!-- Generator: Adobe Illustrator 28.3.0, SVG Export Plug-In . SVG Version: 6.00 Build 0)  -->
<svg version="1.1" id="Layer_1" xmlns="http://www.w3.org/2000/svg" xmlns:xlink="http://www.w3.org/1999/xlink" x="0px" y="0px"
	 viewBox="0 0 512 512" style="enable-background:new 0 0 512 512;" xml:space="preserve">
<style type="text/css">
	.st0{opacity:0.1;fill:#D4E1F4;enable-background:new    ;}
	.st1{fill:#D4E1F4;}
	.st2{fill:#3B82F6;}
</style>
<path class="st0" d="M22,55v18.1h20V55H22z M30.3,266h20v23.8h-20V266z"/>
<path class="st1" d="M81,301.8h-0.6H81z"/>
<path class="st0" d="M44.2,337.4c2.2-0.6,4.6,0.2,6,1.9v-37.4h-20V457h9c3.3-15.2,12.5-66.3,0.7-112.3
	C39.1,341.5,41,338.2,44.2,337.4L44.2,337.4z M50.3,85.1h-20V254h16.8l3.2-7.9C50.3,246.1,50.3,85.1,50.3,85.1z M206.9,85.1h-20
	c6.3,29.9,34.2,51,68.9,51c3.4,0,6.7-0.2,10.1-0.6C235.9,131.9,212.6,112.1,206.9,85.1z M450.7,344.4c-0.1-13.9,0.3-28,1.5-41.4h-20
	c-5.4,61.1,5.1,134.5,8.2,154h10.9C447.6,438.7,439.7,390.3,450.7,344.4z M392.4,177.2c-13.3-25.1-24-54.5-33.4-92.1h-20
	c9.4,37.6,20.1,67,33.4,92.1c17.1,32.3,37.9,57.4,63.5,76.8h13.4l-5-9.5C424,226.6,406.9,204.5,392.4,177.2z M438.2,266
	c-2,8.2-3.6,16.6-4.6,25h10c1-8.4,2.6-16.7,4.6-25H438.2z"/>
<path class="st2" d="M295.2,102.3c-8.6,9-23.1,14.4-39,14.5h-0.5c-19.4,0-36.8-8.1-43.4-20.2c-1.6-2.9-5.3-3.9-8.2-2.3
	s-3.9,5.2-2.4,8.1c8.8,16.1,29.9,26.5,53.9,26.5h0.6c19-0.1,36.8-7,47.5-18.2c2.3-2.4,2.2-6.2-0.2-8.5
	C301.3,99.8,297.5,99.9,295.2,102.3L295.2,102.3z"/>
<path class="st2" d="M425.7,382.8h-88.3V79.1c0-3.3-2.7-6-6-6s-6,2.7-6,6v303.7H185.9V79.1c0-3.3-2.7-6-6-6s-6,2.7-6,6v303.7H87
	c-3.3,0-6,2.7-6,6s2.7,6,6,6h338.6c3.3,0,6-2.7,6-6S429,382.8,425.7,382.8L425.7,382.8z"/>
<path class="st2" d="M259,201.8c-3.1-1.2-6.6,0.3-7.8,3.3l-29.8,74.2c-1.2,3.1,0.3,6.6,3.3,7.8s6.6-0.3,7.8-3.3l29.8-74.2
	C263.6,206.6,262.1,203.1,259,201.8L259,201.8z M254.5,286.2c3.1,1.3,6.6-0.2,7.8-3.2l15.1-36.2c1.3-3.1-0.2-6.6-3.2-7.9
	c-3.1-1.3-6.6,0.2-7.9,3.2l-15.1,36.2C250,281.4,251.4,284.9,254.5,286.2L254.5,286.2z"/>
<path class="st2" d="M494,43H18c-4.4,0-8,3.6-8,8v26.1c0,4.4,3.6,8,8,8h0.3V461c0,4.4,3.6,8,8,8h49c2.8,0,5.2-1.9,5.8-4.6
	c5.5-24.4,9.4-49.2,11.8-74.1c5.2-53.5,2.3-96.7-8.8-128.4c22.6-17.9,44.1-44.6,62.1-77.5c14.1-26.1,25.5-53.6,33.8-82.1
	c4.5,10,11.2,18.8,19.5,25.9c15,12.8,35,19.9,56.3,19.9c34.6,0,63.5-18,75.6-44.5c8.6,31.3,18.5,56.9,30.3,79.3
	c17.3,32.6,39.1,59.3,65,79.3c-8.1,31.1-10.1,74-6.2,127.6c3.1,41.3,8.8,74,8.9,74.3c0.5,2.9,3,5,5.9,5h46.8c4.4,0,8-3.6,8-8v-376
	h3.8c4.4,0,8-3.6,8-8V51C502,46.6,498.4,43,494,43L494,43z M22,55h468v18.1H22V55z M72.9,266c2.6,7.8,4.7,15.7,6.2,23.8H30.3V266
	C30.3,266,72.9,266,72.9,266z M70.5,457h-19c3.9-18.6,12-68.6,0-115.3c-0.9-3.2-4.1-5.1-7.3-4.2c-3.2,0.8-5.1,4.1-4.3,7.2
	c11.8,46,2.6,97.1-0.7,112.3h-9V301.9h50.7C89.1,363.7,74.6,438,70.5,457z M135.8,178.6c-17.8,32.5-38.9,58.5-61,75.4H60l22.5-55.1
	v-0.1c6.7-17.2,12-34.9,15.8-52.9l9.6-40.7c0.8-3.2-1.2-6.5-4.5-7.2c-3.2-0.8-6.5,1.2-7.2,4.5l-9.6,40.7v0.1
	c-3.7,17.4-8.8,34.5-15.3,51.1L47.1,254H30.3V85.1h142C164.1,117.7,151.8,149.1,135.8,178.6z M255.9,136.1
	c-34.7,0-62.6-21.1-68.9-51h137.7C319.6,114.6,291.2,136.1,255.9,136.1L255.9,136.1z M478.2,266v25h-44.7c1-8.4,2.6-16.7,4.6-25
	H478.2z M463.7,457c-3.3-15.2-12.5-66.3-0.7-112.3c0.8-3.2-1.2-6.5-4.4-7.3c-3.2-0.8-6.4,1.1-7.2,4.3c-12,46.7-3.9,96.6,0,115.3
	h-10.9c-3.1-19.5-13.7-92.8-8.2-154h46v154H463.7L463.7,457z M478.2,85.1V254h-15.3l-9.1-17.3c-21.3-42.3-34.7-88.2-39.6-135.3
	c-0.3-3.3-3.3-5.7-6.6-5.3c-3.3,0.3-5.7,3.3-5.3,6.6c5.1,48.6,18.9,95.8,40.9,139.5l6.3,11.9h-13.4c-25.6-19.4-46.4-44.5-63.5-76.8
	c-13.3-25.1-24-54.5-33.4-92.1L478.2,85.1L478.2,85.1z"/>
</svg>
