<?xml version="1.0" encoding="utf-8"?>
<!-- Generator: Adobe Illustrator 28.3.0, SVG Export Plug-In . SVG Version: 6.00 Build 0)  -->
<svg version="1.1" id="Layer_1" xmlns="http://www.w3.org/2000/svg" xmlns:xlink="http://www.w3.org/1999/xlink" x="0px" y="0px"
	 viewBox="0 0 512 512" style="enable-background:new 0 0 512 512;" xml:space="preserve">
<style type="text/css">
	.st0{opacity:0.1;fill:#D4E1F4;enable-background:new    ;}
	.st1{fill:#3B82F6;}
</style>
<path class="st0" d="M52,242.2v-2.3c0-4.9,2-7.8,2.9-8.1h-30c-0.8,0.3-2.9,3.2-2.9,8.1v2.3c0,4.9,2,7.8,2.9,8.1h30
	C54,250,52,247.1,52,242.2z M184.3,424c-3.5,0-7-0.8-10.2-2.3c-69-32.9-111-92.2-113.3-159.5h-30c2.3,67.3,44.3,126.6,113.3,159.5
	c3.2,1.5,6.7,2.3,10.2,2.3h205H184.3L184.3,424z"/>
<path class="st1" d="M75.7,231.7c3.3,0,6-2.7,6-6V113.5C81.8,98.9,94,87,109,87c13-0.1,24.2,9,26.8,21.8l-16.8,3.9
	c-3.2,0.7-5.3,3.9-4.6,7.1c0.7,3.2,3.9,5.3,7.1,4.6h0.2l21-4.9c0.5-0.1,1-0.2,1.5-0.4l20.9-4.9c3.2-0.7,5.3-4,4.5-7.2
	c-0.7-3.2-4-5.3-7.2-4.5h-0.1l-14.9,3.5c-3.8-18.2-19.9-31.1-38.5-31c-21.5,0-39,17.1-39.2,38.2v112.6
	C69.7,229,72.4,231.7,75.7,231.7L75.7,231.7z"/>
<path class="st1" d="M487.2,219.7h-71.5v42.6H481c-1.2,31.8-11.6,63-30.5,90.4c-19.5,28.4-47.5,52.2-80.8,68.9
	c-3.3,1.6-6.9,2.5-10.6,2.5H154.2c-3.5,0-7-0.8-10.2-2.3C75,388.9,33,329.6,30.7,262.3H322v-42.6H24.8c-8.3,0-14.8,8.8-14.8,20.1
	v2.3c0,8.3,3.5,15.3,8.7,18.4c0.9,35.8,12.4,70.5,32.9,99.8c20.9,30,51.1,55,87.3,72.2c4.8,2.3,10,3.4,15.4,3.4h204.9
	c5.5,0,11-1.3,16-3.7c35.2-17.6,64.7-42.8,85.4-72.8c20.5-29.9,31.8-64,32.6-98.8c5.3-3.1,8.9-10.1,8.9-18.5v-2.3
	C502,228.6,495.5,219.7,487.2,219.7L487.2,219.7z M22,239.8c0-4.9,2-7.8,2.9-8.1H310v18.6H24.9c-0.8-0.3-2.9-3.2-2.9-8.1V239.8z
	 M427.7,231.7h59.4c0.8,0.3,2.9,3.2,2.9,8.1v2.3c0,4.9-2,7.8-2.9,8.1h-59.4V231.7L427.7,231.7z"/>
<path class="st1" d="M310,228v119.9c0,17.1,12.6,31,28,31h61.7c15.4,0,28-13.9,28-31V228c0-4.5-3.7-8.2-8.2-8.2H318.2
	C313.7,219.7,310,223.4,310,228z M399.7,366.9H338c-8,0-14.6-6.9-15.8-16h93.3C414.3,360,407.7,366.9,399.7,366.9z M415.7,231.7
	v107.2H322V231.7H415.7z"/>
</svg>
