<?xml version="1.0" encoding="utf-8"?>
<!-- Generator: Adobe Illustrator 28.3.0, SVG Export Plug-In . SVG Version: 6.00 Build 0)  -->
<svg version="1.1" id="Layer_1" xmlns="http://www.w3.org/2000/svg" xmlns:xlink="http://www.w3.org/1999/xlink" x="0px" y="0px"
	 viewBox="0 0 512 512" style="enable-background:new 0 0 512 512;" xml:space="preserve">
<style type="text/css">
	.st0{fill:#D4E1F4;}
	.st1{fill:#3B82F6;}
</style>
<path class="st0" d="M19.5,28h30v104.9h-30V28z M176.1,28h30v66.4h-30V28z M342.4,28h30v104.9h-30V28z M181.2,335h30v51h-30V335z
	 M181.2,398h30v84.7h-30V398z M181.2,280.7h30V323h-30V280.7z M50.8,468.7v-174c0-7.7,6.3-14,14-14h-30c-7.7,0-14,6.3-14,14v174
	c0,7.7,6.3,14,14,14h30C57.1,482.7,50.8,476.4,50.8,468.7z M342.4,280.7h30v202h-30V280.7z"/>
<path class="st1" d="M474.2,268.7H34.8c-14.4,0-26,11.6-26,26v174c0,14.4,11.6,26,26,26h439.4c14.4,0,26-11.6,26-26v-174
	C500.2,280.3,488.6,268.7,474.2,268.7L474.2,268.7z M330.4,386H181.2v-51h149.1v51H330.4z M181.2,398h149.1v84.7H181.2V398z
	 M330.4,323H181.2v-42.4h149.1V323H330.4z M20.8,468.7v-174c0-7.7,6.3-14,14-14h134.4v202H34.8C27.1,482.7,20.8,476.4,20.8,468.7z
	 M488.2,468.7c0,7.7-6.3,14-14,14H342.4v-202h131.8c7.7,0,14,6.3,14,14L488.2,468.7L488.2,468.7z"/>
<path class="st1" d="M141.2,292.7h-84c-3.3,0-6,2.7-6,6s2.7,6,6,6h84c3.3,0,6-2.7,6-6S144.5,292.7,141.2,292.7z M459.9,292.7h-84
	c-3.3,0-6,2.7-6,6s2.7,6,6,6h84c3.3,0,6-2.7,6-6S463.2,292.7,459.9,292.7z M490.9,16H15.5c-4.4,0-8,3.6-8,8v112.9c0,4.4,3.6,8,8,8
	h154.6c3.3,0,6-2.7,6-6v-32.4h37.6v31.3l-18.5,47.1c-1.6,4.1,0.4,8.8,4.5,10.4c0.9,0.4,1.9,0.6,2.9,0.6h101.8c4.4,0,8-3.6,8-8
	c0-1-0.2-2-0.6-2.9l-18.5-47.1v-31.3h37V139c0,3.3,2.7,6,6,6h154.6c4.4,0,8-3.6,8-8V24C498.9,19.5,495.3,16,490.9,16L490.9,16z
	 M19.5,28h144.6v104.9H19.5V28z M208.5,183.7l15.3-38.9h59.5l15.3,38.9L208.5,183.7L208.5,183.7z M281.3,132.9h-55.7v-26.4h55.7
	V132.9z M176.1,94.4V28h154.3v66.4H176.1z M486.9,132.9H342.4V28H487L486.9,132.9z"/>
<path class="st1" d="M119.5,110.6H65.3c-3.3,0-6,2.7-6,6s2.7,6,6,6h54.2c3.3,0,6-2.7,6-6S122.8,110.6,119.5,110.6z M393.3,122.6
	h54.2c3.3,0,6-2.7,6-6s-2.7-6-6-6h-54.2c-3.3,0-6,2.7-6,6S390,122.6,393.3,122.6z"/>
</svg>
