<?xml version="1.0" encoding="utf-8"?>
<!-- Generator: Adobe Illustrator 28.3.0, SVG Export Plug-In . SVG Version: 6.00 Build 0)  -->
<svg version="1.1" id="Layer_1" xmlns="http://www.w3.org/2000/svg" xmlns:xlink="http://www.w3.org/1999/xlink" x="0px" y="0px"
	 viewBox="0 0 512 512" style="enable-background:new 0 0 512 512;" xml:space="preserve">
<style type="text/css">
	.st0{fill:#D4E1F4;}
	.st1{fill:#3B82F6;}
</style>
<path class="st0" d="M135.6,292.6v-17.1h-20v17.1c0,18.8,15.2,34,34,34h20C150.8,326.6,135.6,311.4,135.6,292.6z M171,203.6V56
	c0-18.8,15.2-34,34-34h-20c-18.8,0-34,15.2-34,34v147.6c0,18.8,15.2,34,34,34h20C186.3,237.6,171.1,222.4,171,203.6z"/>
<path class="st1" d="M185,249.6h48.8v19.9c0,3.3,2.7,6,6,6s6-2.7,6-6v-19.9h22v19.9c0,3.3,2.7,6,6,6s6-2.7,6-6v-19.9h46.6
	c25.4,0,46-20.6,46-46V56c0-25.4-20.6-46-46-46H185c-25.4,0-46,20.6-46,46v147.6C139.1,229,159.6,249.6,185,249.6z M151,56
	c0-18.8,15.2-34,34-34h65.8v53.2c0,3.3,2.7,6,6,6s6-2.7,6-6V22h63.6c18.8,0,34,15.2,34,34v147.6c0,18.8-15.2,34-34,34H274l12.1-34.8
	c1.1-3.1-0.6-6.5-3.8-7.6c-3.1-1-6.5,0.6-7.6,3.7l-13.5,38.7h-8.7L239,198.9c-1.1-3.1-4.5-4.8-7.7-3.6c-3.1,1.1-4.7,4.5-3.7,7.6
	l12.1,34.8H185c-18.8,0-34-15.2-34-34V56z M68,166h7.8v79.4c0,18.7,13.3,35.7,32.3,41.5c3.2,1,6.5-0.8,7.5-4s-0.8-6.5-4-7.5
	c-14-4.3-23.8-16.6-23.8-30V166h8c4.4,0,8-3.6,8-8v-14.6c0-4.4-3.6-8-8-8H68c-4.4,0-8,3.6-8,8V158C60,162.4,63.6,166,68,166z
	 M72,147.4h19.8v6.6H72V147.4z M444,135.4h-27.8c-4.4,0-8,3.6-8,8V158c0,4.4,3.6,8,8,8h8v79.4c0,13.4-9.8,25.8-23.8,30
	c-3.2,1-5,4.3-4,7.5s4.3,5,7.5,4c19-5.8,32.3-22.9,32.3-41.5V166h7.8c4.4,0,8-3.6,8-8v-14.6C452,139,448.4,135.4,444,135.4z
	 M440,154h-19.8v-6.6H440V154z"/>
<path class="st1" d="M361.9,338.6c25.4,0,46-20.6,46-46v-19.1c0-5.5-4.5-10-10-10H113.6c-5.5,0-10,4.5-10,10v19.1
	c0,25.4,20.6,46,46,46h84.3v25.8c-2.4,1.2-4,3.5-4.4,6.1l-11.2,68.9c-0.4,2.3,0.3,4.6,1.8,6.4c1.1,1.3,2.7,2.3,4.4,2.6L196,466.8
	c-0.9-0.3-1.7-0.5-2.6-0.7c-1-0.2-1.9-0.3-2.9-0.3c-9-0.1-16.3,7.1-16.4,16.1c0,3.3,1,6.5,2.9,9.2c3.1,4.4,8.1,6.9,13.5,6.9
	c9,0.1,16.3-7.1,16.4-16.1c0-2.4-0.5-4.7-1.6-6.9l41.1-26.5h0.5V471c-6.2,2.4-10.3,8.3-10.4,15c0,3.3,1,6.5,2.9,9.2
	c3.1,4.4,8.1,6.9,13.5,6.9c9,0.1,16.3-7.1,16.4-16.1c0-6.7-4.2-12.6-10.4-15v-22.2h4.1l40.6,23.8c-4.1,5.5-4.2,13-0.3,18.6
	c3.1,4.4,8.1,6.9,13.5,6.9c8.9,0.2,16.2-6.9,16.4-15.7c0.2-8-5.6-14.9-13.5-16.2c-1-0.2-1.9-0.3-2.9-0.3h-0.7l-29.6-17.3
	c1.9-0.3,3.7-1.2,5-2.7c1.5-1.8,2.2-4.1,1.8-6.4l-11.2-68.9c-0.3-1.7-1.1-3.3-2.2-4.5v-27.4L361.9,338.6L361.9,338.6z M252.8,490
	c-1.5,0-2.8-0.7-3.7-1.9c-0.5-0.7-0.7-1.4-0.7-2.2c0.1-2.2,1.9-4,4.2-4.1h0.4c0.2,0,0.4,0,0.6,0.1c2,0.3,3.5,2,3.6,4
	C257.1,488.2,255.2,490.1,252.8,490L252.8,490z M115.6,292.6v-17.1h280.3v17.1c0,18.8-15.2,34-34,34H149.6
	C130.8,326.6,115.6,311.4,115.6,292.6z M190.4,486.1c-1.5,0-2.8-0.7-3.7-1.9c-0.5-0.7-0.7-1.4-0.7-2.2c0.1-2.3,2.1-4.2,4.4-4.1
	c0.3,0,0.6,0,0.8,0.1c2,0.3,3.5,2,3.6,4C194.7,484.4,192.7,486.2,190.4,486.1L190.4,486.1z M316.8,486.1c-1.5,0-2.8-0.7-3.7-1.9
	c-0.5-0.7-0.7-1.4-0.7-2.2c0.1-2.3,2.1-4.2,4.4-4.1c0.3,0,0.6,0,0.8,0.1c2,0.3,3.5,2,3.6,4C321.1,484.4,319.1,486.2,316.8,486.1
	L316.8,486.1z M230.8,436.7l9.9-61.2h30l9.9,61.2H230.8L230.8,436.7z M267.8,363.5h-22v-24.9h22V363.5z"/>
</svg>
