<?xml version="1.0" encoding="utf-8"?>
<!-- Generator: Adobe Illustrator 28.3.0, SVG Export Plug-In . SVG Version: 6.00 Build 0)  -->
<svg version="1.1" id="Layer_1" xmlns="http://www.w3.org/2000/svg" xmlns:xlink="http://www.w3.org/1999/xlink" x="0px" y="0px"
	 viewBox="0 0 512 512" style="enable-background:new 0 0 512 512;" xml:space="preserve">
<style type="text/css">
	.st0{fill:#D4E1F4;}
	.st1{fill:#3B82F6;}
</style>
<path class="st0" d="M51.7,456.5V218.8c0-7.7,6.3-14,14-14h-20c-7.7,0-14,6.3-14,14v237.7c0,7.7,6.3,14,14,14h20
	C58,470.4,51.7,464.2,51.7,456.5z"/>
<path class="st1" d="M363.8,246.5H378c3.3,0,6-2.7,6-6s-2.7-6-6-6h-14.2c-3.3,0-6,2.7-6,6C357.8,243.9,360.4,246.5,363.8,246.5z
	 M377.9,348.7h-14.2c-3.3,0-6,2.7-6,6s2.7,6,6,6h14.2c3.3,0,6-2.7,6-6S381.2,348.7,377.9,348.7z M214.6,311.1c-3.3,0-6,2.7-6,6v41.1
	c0,3.3,2.7,6,6,6s6-2.7,6-6v-41.1C220.6,313.8,217.9,311.1,214.6,311.1z M392.6,98.6c-8.2-7.7-20.3-9.7-30.6-5.1
	c-1.6-0.9-3.3-1.5-5-1.9c-1.6-8.1-6.5-15.2-13.6-19.4c4.3-3.6,7.8-8,10.4-12.9c5.1-9.6,6.1-20.9,2.9-31.3l-1.8-5.7l-5.7,1.8
	c-11.3,3.7-20.5,12.1-25.2,23.1c-7.7-8.8-18.8-13.8-30.4-13.8h-6v6c0,15.1,8.4,28.9,21.8,35.9c-4.9,4.3-8.2,10.2-9.4,16.6
	c-4,0.9-7.6,2.8-10.7,5.4c-12-9.7-29.5-7.9-39.2,4.1c-3.7,4.5-5.9,10.1-6.2,16c-0.2,4.1,0.4,8.2,2,12v2.9c0,30.7,18.2,59.7,45.3,72
	c3,1.4,6.6,0,7.9-3s0-6.6-3-7.9c-21.1-9.6-35.9-31.2-38-55.1h129.8c-2.1,23.8-16.3,45.5-36.7,55.1c-3,1.4-4.3,5-2.9,8s5,4.3,8,2.9
	h0.1c26.2-12.4,43.8-41.3,43.8-71.9v-4.9C403.3,117.1,400.4,105.9,392.6,98.6L392.6,98.6z M372.5,103.1c8.8-0.6,16.3,6.1,16.9,14.9
	c0.2,2.9-0.4,5.8-1.8,8.4h-28.2c-4.1-7.8-1-17.4,6.8-21.5C368.1,103.8,370.3,103.2,372.5,103.1L372.5,103.1z M340.6,126.3
	c-1.1-2-1.7-4.3-1.8-6.6v-0.3c-0.2-5.3,0.9-9.4,3.4-12.1c2.2-2.2,5-3.6,8.1-4.1c-4.6,6.7-6,15.2-3.8,23.1H340.6L340.6,126.3z
	 M298.4,126.3c1.8-6.5,1.1-13.5-1.9-19.6c2.5-2.2,5.8-3.5,9.1-3.6h1.2c8.8,0,15.9,7.1,15.9,15.9v0.8c-0.1,2.3-0.7,4.5-1.8,6.5
	L298.4,126.3L298.4,126.3z M333.6,99.1c-1.3,1.4-2.4,2.9-3.3,4.6c-4.1-6.3-10.6-10.6-18-12.1C315.4,82.7,325.1,78,334,81
	c5.2,1.8,9.2,6,10.8,11.3C340.5,93.5,336.6,95.8,333.6,99.1L333.6,99.1z M346.4,38.4c0.5,10.6-4.6,20.7-13.5,26.5
	c-0.1-0.5-0.2-1-0.4-1.5C332.6,53.3,337.8,43.9,346.4,38.4z M300.3,46.2c10.3,2.6,18.3,10.6,20.9,20.9
	C310.8,64.5,302.8,56.5,300.3,46.2z M255.6,118c0.5-8,6.9-14.4,14.9-14.9c4.4-0.3,8.7,1.3,11.9,4.3c0.8,0.7,1.5,1.6,2.1,2.4
	c3.4,4.9,3.8,11.2,1.1,16.5h-28.2C256.1,123.7,255.5,120.9,255.6,118L255.6,118z"/>
<path class="st1" d="M466.3,192.8H45.7c-14.4,0-26,11.6-26,26v237.7c0,14.4,11.6,26,26,26h420.6c14.4,0,26-11.6,26-26V218.8
	C492.3,204.4,480.6,192.8,466.3,192.8L466.3,192.8z M480.3,218.8v110.8H247.5V204.8h218.8C474,204.8,480.3,211.1,480.3,218.8z
	 M31.7,456.5V218.8c0-7.7,6.3-14,14-14h189.8v265.7H45.7C38,470.4,31.7,464.2,31.7,456.5z M466.3,470.5H247.5V341.6h232.8v114.8
	C480.3,464.2,474,470.4,466.3,470.5L466.3,470.5z"/>
</svg>
