<?xml version="1.0" encoding="utf-8"?>
<!-- Generator: Adobe Illustrator 28.3.0, SVG Export Plug-In . SVG Version: 6.00 Build 0)  -->
<svg version="1.1" id="Layer_1" xmlns="http://www.w3.org/2000/svg" xmlns:xlink="http://www.w3.org/1999/xlink" x="0px" y="0px"
	 viewBox="0 0 512 512" style="enable-background:new 0 0 512 512;" xml:space="preserve">
<style type="text/css">
	.st0{opacity:0.1;fill:#D4E1F4;enable-background:new    ;}
	.st1{fill:#3B82F6;}
</style>
<path class="st0" d="M136,148.1h20v13.8h-20V148.1z M266,22.4c-3.3-0.3-6.6-0.4-10-0.4c-64.2,0-116.7,50.7-119.9,114.1h20
	C159.2,76.1,206.1,27.5,266,22.4z"/>
<path class="st1" d="M196.3,490.5c-1.9,4-0.2,8.8,3.7,10.7c1.1,0.5,2.3,0.8,3.5,0.8h105c4.4,0,8-3.6,8-8c0-1.2-0.3-2.4-0.8-3.5
	c-10.2-20.9-30.5-35-53.7-37.2l-0.8-285.4c0-3.3-2.7-6-6-6s-6,2.7-6,6l0.8,285.4C226.8,455.5,206.5,469.6,196.3,490.5L196.3,490.5z
	 M256,465c18.5,0.1,35.7,9.5,45.7,25h-91.3C220.3,474.5,237.5,465.1,256,465z M327.3,167.6v73.8c-10.6,3.3-16.5,14.6-13.2,25.2
	s14.6,16.5,25.2,13.2s16.5-14.6,13.2-25.2c-2-6.3-6.9-11.2-13.2-13.2v-73.8L327.3,167.6L327.3,167.6z M333.3,268.6
	c-4.5,0-8.1-3.6-8.1-8.1s3.6-8.1,8.1-8.1s8.1,3.6,8.1,8.1S337.8,268.6,333.3,268.6z"/>
<path class="st1" d="M256,10c-72.8,0-132,59.3-132,132.1v23.8c0,4.4,3.6,8,8,8h248c4.4,0,8-3.6,8-8v-23.8C388,69.3,328.8,10,256,10z
	 M376,161.9H136v-13.8h240V161.9z M136.1,136.1C139.3,72.7,191.8,22,256,22s116.7,50.7,119.9,114.1L136.1,136.1L136.1,136.1z"/>
</svg>
