<?xml version="1.0" encoding="utf-8"?>
<!-- Generator: Adobe Illustrator 28.3.0, SVG Export Plug-In . SVG Version: 6.00 Build 0)  -->
<svg version="1.1" id="Layer_1" xmlns="http://www.w3.org/2000/svg" xmlns:xlink="http://www.w3.org/1999/xlink" x="0px" y="0px"
	 viewBox="0 0 512 512" style="enable-background:new 0 0 512 512;" xml:space="preserve">
<style type="text/css">
	.st0{fill:#D4E1F4;}
	.st1{fill:#3B82F6;}
</style>
<path class="st0" d="M261,251.6l-2.1,199.1h20l2.1-199.1H261z M263.5,22l-2.3,217.6h20L283.5,22H263.5z M62.5,22h20v217.6h-20V22z
	 M62.5,251.6h20v199.1h-20V251.6z"/>
<path class="st1" d="M479,450.7h-14.4V18.3c0-4.5-3.6-8.3-8.2-8.3H58.7c-4.5,0-8.2,3.8-8.2,8.3v432.4H33c-4.4,0-8,3.6-8,8V494
	c0,4.4,3.6,8,8,8h446c4.4,0,8-3.6,8-8v-35.3C487,454.3,483.4,450.7,479,450.7z M258.9,450.7l2.1-199.1h191.6v199.1H258.9z
	 M452.6,239.6H261.2L263.5,22h189.1L452.6,239.6L452.6,239.6z M251.5,22l-2.3,217.6H62.5V22H251.5z M62.5,251.6H249l-2.1,199.1H62.5
	V251.6z M475,490H37v-27.3h438V490z"/>
<path class="st1" d="M159.4,45.9c-2.7-1.9-6.5-1.2-8.4,1.5l-45.6,65.3c-1.9,2.7-1.2,6.5,1.5,8.4s6.5,1.2,8.4-1.5l45.6-65.3
	C162.8,51.5,162.2,47.8,159.4,45.9z M174.9,78.4c-2.8-1.8-6.5-0.9-8.3,1.8l-25.2,39.6c-1.8,2.8-0.9,6.5,1.8,8.3
	c2.8,1.8,6.5,0.9,8.3-1.8l25.2-39.6C178.6,83.9,177.7,80.2,174.9,78.4z M367.8,298.6c-2.7-1.9-6.5-1.2-8.4,1.5l-45.6,65.3
	c-1.9,2.7-1.3,6.4,1.4,8.4c2.7,1.9,6.4,1.3,8.4-1.4c0,0,0-0.1,0.1-0.1l45.6-65.3C371.1,304.2,370.5,300.5,367.8,298.6z M383.3,331.1
	c-2.8-1.8-6.5-0.9-8.3,1.9l-25.2,39.6c-1.8,2.8-1,6.5,1.8,8.3s6.5,1,8.3-1.8l25.2-39.6C386.9,336.6,386.1,332.9,383.3,331.1z"/>
</svg>
