<?xml version="1.0" encoding="utf-8"?>
<!-- Generator: Adobe Illustrator 28.3.0, SVG Export Plug-In . SVG Version: 6.00 Build 0)  -->
<svg version="1.1" id="Layer_1" xmlns="http://www.w3.org/2000/svg" xmlns:xlink="http://www.w3.org/1999/xlink" x="0px" y="0px"
	 viewBox="0 0 512 512" style="enable-background:new 0 0 512 512;" xml:space="preserve">
<style type="text/css">
	.st0{fill:#D4E1F4;}
	.st1{fill:#3B82F6;}
</style>
<path class="st0" d="M169.9,316.9c23.9-34.7,59.4-55.4,101.4-59.4c-4.9-0.5-10-0.7-15.1-0.7c-48.5,0-89.6,21.3-116.3,60.1
	c32.1,28.2,73.4,43.7,116.1,43.6c5.1,0,10.1-0.2,15-0.6C233.6,356.8,198.1,341.7,169.9,316.9L169.9,316.9z M112.5,191.2
	c0-88.4,69.8-161.2,158.5-168.6c-4.9-0.4-9.9-0.6-15-0.6C160.3,22,82.5,97.9,82.5,191.2c0,45.5,18.5,86.9,48.6,117.4
	c4.4-6.3,9.3-12.3,14.6-17.9C124.2,262.1,112.5,227.1,112.5,191.2L112.5,191.2z M286.2,244.9c-5.1,0-10,0.2-15,0.6
	c45.5,3.9,84,25.7,110.3,62.4c5.5-5.6,10.5-11.5,15.2-17.8C368.4,260.7,330.1,244.9,286.2,244.9L286.2,244.9z"/>
<path class="st1" d="M204.1,502h103.7c3.3,0,6-2.7,6-6c0-0.6-0.1-1.2-0.3-1.7l-0.4-1.2c-6.8-22.5-27.4-38-50.9-38l-0.7-88.6l-12,0.1
	l0.7,88.5H250c-23.7-0.1-44.6,15.4-51.3,38l-0.4,1.2c-1,3.2,0.8,6.5,4,7.5C203,501.9,203.5,502,204.1,502z M250.1,467.1h11.8
	c15.8-0.1,30.2,8.8,37.3,22.9h-86.3C219.9,475.9,234.3,467,250.1,467.1L250.1,467.1z"/>
<path class="st1" d="M256,372.5c102.3,0,185.5-81.3,185.5-181.2S358.3,10,256,10S70.5,91.3,70.5,191.2S153.7,372.5,256,372.5z
	 M139.9,316.9c26.7-38.8,67.8-60.1,116.3-60.1c48.6,0,89.8,21.1,116.5,59.4C306.3,375,206.7,375.2,139.9,316.9L139.9,316.9z M256,22
	c95.7,0,173.5,75.9,173.5,169.2c0,45.2-18.3,86.3-47.9,116.7c-29.1-40.7-73.3-63.1-125.3-63.1c-51.9,0-96.1,22.6-125.1,63.7
	c-30.2-30.3-48.7-71.7-48.7-117.3C82.5,97.9,160.3,22,256,22z"/>
</svg>
