<?xml version="1.0" encoding="utf-8"?>
<!-- Generator: Adobe Illustrator 28.3.0, SVG Export Plug-In . SVG Version: 6.00 Build 0)  -->
<svg version="1.1" id="Layer_1" xmlns="http://www.w3.org/2000/svg" xmlns:xlink="http://www.w3.org/1999/xlink" x="0px" y="0px"
	 viewBox="0 0 512 512" style="enable-background:new 0 0 512 512;" xml:space="preserve">
<style type="text/css">
	.st0{opacity:0.1;fill:#D4E1F4;enable-background:new    ;}
	.st1{fill:#3B82F6;}
</style>
<path class="st0" d="M84.7,203.1l10.8-16.9c21.3-33.5,52.9-59.1,90.1-73.1c0.8-0.3,1.6-0.7,2.3-1.2c1.7-1.3,2.7-3.2,3-5.3
	c1.6-13.6,1-27.5-1.6-40.9c-8.7-4.9-18.2-8.1-28.1-9.5c4.5,16.4,5.8,33.5,3.9,50.4c-0.2,2.1-1.3,4-3,5.3c-0.7,0.5-1.5,0.9-2.3,1.2
	C122.6,127,91,152.7,69.7,186.2l-10.9,16.9c-1.5,2.2-3.9,3.5-6.6,3.4h25.9C80.7,206.6,83.2,205.3,84.7,203.1z M144.7,442.7
	c0.1-33-12-64.9-34.1-89.5c-9.9-10.8-18.2-23-24.5-36.2c-1.3-2.7-4-4.4-7-4.3H53.2c3-0.1,5.7,1.6,7,4.3
	c6.3,13.2,14.6,25.4,24.5,36.2c22.1,24.6,34.2,56.5,34.1,89.5c0,7.5,6.1,13.6,13.6,13.7h25.9C150.8,456.4,144.7,450.3,144.7,442.7
	L144.7,442.7z M43.8,305.6v-92c0-3.7,2.6-7.2,6.3-7.2H24.2c-3.7,0-6.3,3.5-6.3,7.2v92c0,3.7,2.6,7,6.3,7h25.9
	C46.4,312.7,43.8,309.3,43.8,305.6z"/>
<path class="st1" d="M161.8,189.8c0.1,9.3-7.4,16.9-16.7,17s-16.9-7.4-17-16.7v-0.3c0-4.3-3.5-7.8-7.8-7.8s-7.8,3.5-7.8,7.8
	c-0.1,17.9,14.3,32.5,32.2,32.6s32.5-14.3,32.6-32.2v-0.4c0-4.3-3.5-7.8-7.8-7.8C165.3,182,161.8,185.5,161.8,189.8L161.8,189.8z"/>
<path class="st1" d="M501.9,199c-4.3,0-7.8,3.5-7.8,7.8c0,17-12.5,31.4-29.3,33.8C453.2,150,368.3,79.4,265.6,79.4
	c-12.2,0-24.5,0.9-36.6,2.8C211.5,55.8,182,40,150.4,40c-4.3,0-7.8,3.5-7.8,7.8c0,0.8,0.1,1.5,0.3,2.3l2.1,7c4.3,14,6,28.7,4.8,43.3
	c-38.5,15.4-71.2,42.5-93.5,77.5l-8.5,13.2H24c-12.3,0-21.8,10.5-21.8,22.8v92c0,12.3,9.6,22.6,21.8,22.6h24.2
	c6.9,12.7,15.2,24.7,24.8,35.5c19.5,21.7,30.2,49.9,30.1,79.1c0,16.1,13,29.1,29.1,29.2h29.7c16.1,0,29.1-13.1,29.1-29.1
	c0-7.5,6.1-13.6,13.6-13.6H248c4.3,0,7.8-3.5,7.8-7.8s-3.5-7.8-7.8-7.8h-43.4c-16.1,0-29.1,13.1-29.1,29.1c0,7.5-6.1,13.6-13.6,13.6
	h-29.5c-7.5-0.1-13.6-6.2-13.6-13.7c0.1-33-12-64.9-34.1-89.5c-9.9-10.8-18.2-23-24.5-36.2c-1.3-2.7-4-4.4-7-4.3h-29
	c-3.7,0-6.3-3.3-6.3-7v-92c0-3.7,2.6-7.2,6.3-7.2h28c2.6,0.1,5.1-1.2,6.6-3.4l10.8-16.9c21.3-33.5,52.9-59.1,90.1-73.1
	c0.8-0.3,1.6-0.7,2.3-1.2c1.7-1.3,2.7-3.2,3-5.3c2-16.9,0.6-34-3.9-50.4c39.2,5.4,68.4,38.9,68.5,78.4c0,4.3,3.5,7.8,7.8,7.8
	s7.8-3.5,7.8-7.8c0-13.1-2.7-26.1-8-38c9.5-1.2,19-1.8,28.6-1.8c102,0,185,74.9,185,166.9c0,24.4-5.9,48.5-17.1,70.2
	c-2,3.8-0.5,8.5,3.3,10.5s8.5,0.5,10.5-3.3c0,0,0-0.1,0.1-0.1c12.4-23.9,18.9-50.4,18.8-77.3c0-1.9,0-3.8-0.1-5.7
	c24.9-3.1,43.6-24.2,43.6-49.3C509.7,202.4,506.2,199,501.9,199L501.9,199z"/>
<path class="st0" d="M354.1,393.5c-1,0-2.1,0-3.1-0.1c-0.5,0-0.9-0.1-1.4-0.1s-1.1-0.1-1.6-0.1c-0.6-0.1-1.2-0.2-1.9-0.2
	c-0.3,0-0.6-0.1-1-0.1c-0.8-0.1-1.5-0.3-2.3-0.4l-0.3-0.1c-24-5-42-24.9-44.7-49.3c0-0.2,0-0.4-0.1-0.6c-0.1-0.7-0.1-1.4-0.2-2.1
	v-0.7c0-0.9-0.1-1.8-0.1-2.7c0-12.4,4.1-24.4,11.6-34.2c-14,10.7-22.2,27.3-22.2,44.9c0,0.9,0,1.8,0.1,2.7v0.7
	c0,0.7,0.1,1.4,0.2,2.1c0,0.2,0,0.4,0.1,0.6C290,378,308,397.9,332,402.9l0.3,0.1c0.8,0.2,1.5,0.3,2.3,0.4c0.3,0,0.6,0.1,1,0.1
	c0.6,0.1,1.2,0.2,1.9,0.2c0.5,0.1,1.1,0.1,1.6,0.1s0.9,0.1,1.4,0.1c1,0.1,2.1,0.1,3.1,0.1c17.6,0,34.2-8.2,44.9-22.2
	C378.6,389.4,366.5,393.5,354.1,393.5L354.1,393.5z"/>
<path class="st1" d="M509.5,366.6c0-13.8-11.2-25-25-24.9h-72c-3.1-35.1-32.9-63.2-69-63.2c-2.6,0-5.2,0.1-7.8,0.4
	c-1.3-2.1-2.9-4-4.7-5.7c5.3-4.7,8.3-11.4,8.3-18.4c0-13.7-11.2-24.9-24.9-24.8H202.5c-13.7-0.1-24.9,10.9-25,24.6
	c-0.1,7.2,3,14,8.3,18.8c-10.3,9.1-11.2,24.9-2,35.1l2.1,2.1c-10.3,9.1-11.3,24.9-2.1,35.2c0.7,0.7,1.4,1.5,2.1,2.1
	c-10.3,9.1-11.3,24.9-2.1,35.2l2.1,2.1c-10.3,9.1-11.3,24.9-2.1,35.2c0.7,0.8,1.5,1.6,2.4,2.3c-5.5,4.6-8.7,11.5-8.7,18.6
	c0,13.7,11.2,24.8,24.9,24.8h111.9c13.7,0.2,24.9-10.8,25-24.4c0.1-7.3-3.1-14.3-8.6-19.1c2.1-1.8,3.8-3.9,5.2-6.2
	c0.4,0,0.7,0.1,1.1,0.1c0.9,0.1,1.8,0.2,2.7,0.2h0.7c1,0,2.1,0.1,3.1,0.1c2.5,0,5.1-0.1,7.6-0.4c1.3,2.2,2.8,4.1,4.7,5.8
	c-10.3,9.5-10.9,25.5-1.4,35.7c4.7,5.1,11.3,8,18.3,8.1h111.8c13.9-0.1,25.1-11.5,25-25.4c-0.1-7-3-13.6-8.1-18.3
	c10.2-9.3,10.9-25.1,1.6-35.3l-1.8-1.8C506.4,380.5,509.5,373.7,509.5,366.6L509.5,366.6z M496.7,366.6c0,6.8-5.5,12.2-12.2,12.2
	h-79.1c3.8-7.7,6.2-15.9,7.1-24.5h72C491.2,354.4,496.7,359.9,496.7,366.6z M190.3,254.9c0-6.8,5.5-12.2,12.2-12.2h111.8
	c6.8,0,12.2,5.5,12.2,12.2c0,6.7-5.5,12.2-12.2,12.2H202.5C195.8,267.1,190.3,261.7,190.3,254.9L190.3,254.9z M314.3,279.9
	c2.6,0,5.2,0.8,7.3,2.4c-12.6,4.2-23.6,11.4-31.8,22.1h-87.2c-6.8,0-12.2-5.5-12.2-12.2c0-6.8,5.5-12.2,12.2-12.2L314.3,279.9
	L314.3,279.9z M299.5,401.1c0.8,0.6,1.5,1.2,2.3,1.8c0.2,0.2,0.4,0.3,0.7,0.5c0.6,0.4,1.1,0.8,1.7,1.2c5.5,3.8,11.5,6.8,17.8,8.9
	c-2.2,1.7-4.9,2.7-7.6,2.7H202.5c-6.8,0-12.2-5.5-12.2-12.2s5.5-12.2,12.2-12.2H290C292.9,395,296.1,398.2,299.5,401.1L299.5,401.1z
	 M281.6,378.9h-79.1c-6.8,0-12.2-5.5-12.2-12.2c0-6.8,5.5-12.2,12.2-12.2h72c0,0.2,0,0.5,0.1,0.7
	C275.5,363.4,277.9,371.4,281.6,378.9z M274.5,341.6h-72c-6.8,0-12.2-5.5-12.2-12.2c0-6.8,5.5-12.2,12.2-12.2h78.9
	C277.7,324.8,275.3,333.1,274.5,341.6L274.5,341.6z M314.3,453.4H202.5c-6.8,0-12.2-5.5-12.2-12.2s5.5-12.2,12.2-12.2h111.8
	c6.8,0,12.2,5.5,12.2,12.2S321.1,453.4,314.3,453.4z M340.4,404c-0.5,0-0.9-0.1-1.4-0.1s-1.1-0.1-1.6-0.1c-0.6-0.1-1.2-0.2-1.9-0.2
	c-0.3,0-0.6-0.1-1-0.1c-0.8-0.1-1.5-0.3-2.3-0.4l-0.3-0.1c-24-5-42-24.9-44.7-49.3c0-0.2,0-0.4-0.1-0.6c-0.1-0.7-0.1-1.4-0.2-2.1
	v-0.7c0-0.9-0.1-1.8-0.1-2.7c0-31.2,25.3-56.5,56.5-56.5s56.5,25.3,56.5,56.5s-25.3,56.5-56.5,56.5
	C342.5,404.1,341.4,404.1,340.4,404L340.4,404z M496.7,440.9c0,6.8-5.4,12.3-12.2,12.4H372.7c-6.8-0.1-12.3-5.7-12.2-12.6
	c0.1-5.8,4.1-10.7,9.8-12c0.8,0.1,1.6,0.1,2.5,0.1h114.3C492.7,430.1,496.7,435.1,496.7,440.9L496.7,440.9z M484.5,416.1H372.7
	c-0.8,0-1.7-0.2-2.5-0.1c-1.9-0.4-3.7-1.3-5.2-2.5c12.6-4.1,23.6-12.3,31.9-21.9h87.5c6.8,0,12.2,5.5,12.2,12.2
	c0,5.8-4.1,10.9-9.8,12.2C486.2,416,485.3,416.1,484.5,416.1L484.5,416.1z"/>
<path class="st1" d="M343.5,318c6.3,0,11.4,5.1,11.4,11.4c0,3.5,2.9,6.4,6.4,6.4c3.4,0,6.2-2.8,6.2-6.3v-0.1
	c0.1-11-7.3-20.6-18-23.3v-4.2c0-3.5-2.9-6.4-6.4-6.4s-6.4,2.9-6.4,6.4v4.2c-9.6,2.8-17.6,12.2-17.6,23.3
	c0.1,13.4,10.9,24.2,24.2,24.2c6.3-0.1,11.4,5,11.5,11.3s-5,11.4-11.3,11.5h-0.2c-6.2-0.1-11.3-5.1-11.3-11.4c0-3.5-2.9-6.4-6.4-6.4
	c-3.6,0-6.5,2.8-6.6,6.4c0,11.1,8,20.5,17.6,23.3v5.1c0,3.5,2.9,6.4,6.4,6.4s6.4-2.9,6.4-6.4v-5.1c12.9-3.4,20.6-16.6,17.1-29.5
	c-2.8-10.6-12.3-17.9-23.3-18c-6.3-0.1-11.3-5.2-11.2-11.5C332.2,323.1,337.3,318.1,343.5,318L343.5,318z"/>
</svg>
