<?xml version="1.0" encoding="utf-8"?>
<!-- Generator: Adobe Illustrator 28.3.0, SVG Export Plug-In . SVG Version: 6.00 Build 0)  -->
<svg version="1.1" id="Layer_1" xmlns="http://www.w3.org/2000/svg" xmlns:xlink="http://www.w3.org/1999/xlink" x="0px" y="0px"
	 viewBox="0 0 512 512" style="enable-background:new 0 0 512 512;" xml:space="preserve">
<style type="text/css">
	.st0{opacity:0.1;fill:#D4E1F4;enable-background:new    ;}
	.st1{fill:#3B82F6;}
</style>
<path class="st0" d="M65.5,32.3c0.1-4.7,3.9-8.4,8.6-8.3h-30c-4.6-0.2-8.4,3.4-8.6,8s3.4,8.4,8,8.6h30.6
	C69.4,40.7,65.6,37,65.5,32.3z"/>
<path class="st1" d="M50.1,144c0,3.3,2.7,6,6,6h78.6v35.5c0,3.3,2.7,6,6,6s6-2.7,6-6V150h16.1v32.6c0,3.3,2.7,6,6,6s6-2.7,6-6v-35.9
	c0-4.9-3.5-8.7-8-8.7H56.1C52.8,138,50.1,140.7,50.1,144L50.1,144z M139.9,350.1c3.3,0,6-2.7,6-6V241c-0.2-4.5-3.9-7.9-8.3-7.8
	h-32.1c-0.8-3.9-4.2-6.7-8.2-6.6H56.2c-3.3,0-6,2.7-6,6s2.7,6,6,6h37.4v105.6c0,3.3,2.7,6,6,6s6-2.7,6-6v-99h28.3v98.9
	C133.9,347.4,136.6,350.1,139.9,350.1L139.9,350.1z M443.3,359.1h-64.7c-5,0-9,3.6-9,8.2v33.1H345c-5.2,0-9,3.1-9,7.5v89.7
	c0,3.3,2.7,6,6,6s6-2.7,6-6v-85.1h21.7v85.1c0,3.3,2.7,6,6,6s6-2.7,6-6V371.1h21.7v126.4c0,3.3,2.7,6,6,6s6-2.7,6-6V371.1h25v125.4
	c0,3.3,2.7,6,6,6s6-2.7,6-6V367.4C452.3,362.8,448.3,359.1,443.3,359.1L443.3,359.1z M175.8,431.4H56.1c-3.3,0-6,2.7-6,6s2.7,6,6,6
	H174v18.3H56.1c-3.3,0-6,2.7-6,6s2.7,6,6,6H140v24.4c0,3.3,2.7,6,6,6s6-2.7,6-6v-24.4h7.7v18.7c-3.1,1.1-4.8,4.5-3.7,7.7
	c0.8,2.4,3.1,4,5.7,4c5.6,0,10-4.9,10-11.2v-19.2h4.2c5.6,0,10.1-4.4,10.2-10v-22.3C185.9,435.8,181.4,431.3,175.8,431.4
	L175.8,431.4z M417.5,113.4c-1.3-1.3-3.1-2-5-2H398c0.5-3.1,4.4-5.3,8.5-4.8c3.3,0.4,6.3-1.9,6.7-5.2c0.4-3.3-1.9-6.3-5.2-6.7
	c-3.2-0.4-6.4-0.1-9.5,0.9c0.1-3.6,0.2-7.2,0.2-10.9c0-3.3-2.7-6-6-6s-6,2.7-6,6c0,2.7,0,5.3-0.1,7.8c-2.8-1.3-4.7-3.4-4.7-5.8
	c0-3.3-2.7-6-6-6s-6,2.7-6,6c0,8.7,6.8,16,16.2,18.3c-0.1,2.2-0.3,4.4-0.5,6.4H365c-1.8,0-3.6,0.7-5,2c-8.6,8.2-13.2,19.7-12.7,31.6
	v0.4c1.2,21.3,18.2,38.2,39.5,39.3h2c21.8,0,39.8-16.8,41.4-38.5c0.1-0.4,0.1-0.8,0.1-1.1v-1.8C430.3,132,425.7,121.2,417.5,113.4
	L417.5,113.4z M417.9,138.7h-24.2c0.9-3.4,1.6-6.8,2.2-10.3c0.3-1.6,0.5-3.2,0.7-4.9h14C414.4,127.6,417,133,417.9,138.7z
	 M367,123.4h17.4c-1.1,7.6-2.3,12.7-3.4,15.2h-21.4C360.5,133,363.1,127.7,367,123.4z M387.4,172.6c-12.7-0.7-23.6-9.4-27-21.6h56.9
	C413.5,164.3,401.1,173.3,387.4,172.6z"/>
<path class="st1" d="M467.9,12H44.1c-11.3-0.1-20.5,9-20.6,20.3c0.1,11.3,9.3,20.4,20.6,20.3h6v431c0.1,11.3,9.3,20.4,20.6,20.3
	h370.6c11.3,0.1,20.5-9,20.6-20.3v-431h6c11.3,0.1,20.5-9,20.6-20.3C488.4,21,479.2,11.9,467.9,12z M449.9,338.1l-387.8,0.2V191.5
	l387.8-0.2V338.1z M441.3,492H70.7c-4.7,0.1-8.5-3.6-8.6-8.3V350.4l387.8-0.2v133.5C449.8,488.4,446,492.1,441.3,492L441.3,492z
	 M449.9,179.3l-387.8,0.2V52.6h387.8V179.3z M467.9,40.6H44.1c-4.6,0.2-8.4-3.4-8.6-8s3.4-8.4,8-8.6h424.4c4.6-0.2,8.4,3.4,8.6,8
	s-3.4,8.4-8,8.6H467.9z"/>
</svg>
