<?xml version="1.0" encoding="utf-8"?>
<!-- Generator: Adobe Illustrator 28.3.0, SVG Export Plug-In . SVG Version: 6.00 Build 0)  -->
<svg version="1.1" id="_1" xmlns="http://www.w3.org/2000/svg" xmlns:xlink="http://www.w3.org/1999/xlink" x="0px" y="0px"
	 viewBox="0 0 3479.5 1622.5" style="enable-background:new 0 0 3479.5 1622.5;" xml:space="preserve">
<style type="text/css">
	.st0{fill:none;}
	.st1{fill:#DCDCDC;}
	.st2{fill:#A1A1A1;}
	.st3{opacity:0.11;fill:#12151C;enable-background:new    ;}
	.st4{opacity:0.6;}
	.st5{fill:#36B9DE;}
	.st6{fill:url(#SVGID_1_);}
	.st7{fill:#5FD393;}
	.st8{fill:#2A6799;}
	.st9{enable-background:new    ;}
	.st10{fill:#C5C5C5;}
	.st11{fill:#898989;}
	.st12{fill:#B4B4B4;}
	.st13{fill:#F1F1F1;}
	.st14{fill:url(#SVGID_00000138562598824177560700000004739060557669386640_);}
	.st15{fill:#D8E3F0;}
	.st16{fill:#5961F7;}
	.st17{fill:url(#SVGID_00000052812843006596247070000003648801898684015246_);}
	.st18{fill:#3B82F6;}
	.st19{fill:#38668C;}
	.st20{fill:#64B7FC;}
	.st21{fill:#E30039;}
	.st22{fill:#4D8DC2;}
	.st23{fill:#966552;}
	.st24{fill:#E9E9E9;}
	.st25{fill:#B0B0B0;}
	.st26{fill:#FFFFFF;}
	.st27{fill:#BEBEBE;}
	.st28{fill:#838383;}
	.st29{fill:#EBEBEB;}
	.st30{fill:#BFBFBF;}
</style>
<pattern  y="1622.5" width="51.3" height="14" patternUnits="userSpaceOnUse" id="SVGID_2_" viewBox="0 -14 51.3 14" style="overflow:visible;">
	<g>
		<rect y="-14" class="st0" width="51.3" height="14"/>
		<path class="st0" d="M0,0h51.3v-14H0V0z"/>
		<path class="st0" d="M0,0h51.3v-14H0V0z"/>
		<path class="st1" d="M0-6h51.3v-2H0V-6z"/>
		<path class="st0" d="M0,0h51.3v-14H0V0z"/>
	</g>
</pattern>
<pattern  y="1622.5" width="51.3" height="14" patternUnits="userSpaceOnUse" id="SVGID_5_" viewBox="0 -14 51.3 14" style="overflow:visible;">
	<g>
		<rect y="-14" class="st0" width="51.3" height="14"/>
		<path class="st0" d="M0,0h51.3v-14H0V0z"/>
		<path class="st0" d="M0,0h51.3v-14H0V0z"/>
		<path class="st2" d="M0-6h51.3v-2H0V-6z"/>
		<path class="st0" d="M0,0h51.3v-14H0V0z"/>
	</g>
</pattern>
<path class="st3" d="M814.1,1256.3c-11.4-1.9-26.8,13.6-26.2,2c1.4-28.8,19.3-23.7,32.1-49.6s10.2-27.2,23-53.1s4.6-30,17.4-55.9
	c7.5-15.3,13.1-28.8,2.3-42.2c-8.4-10.5-25-14.7-41.6-22c-13.1-5.8-25.9-19.2-42.7-22c-19.1-3.2-38.8,3.7-56.5,4.9
	c-20.2,1.4-39.1,2.7-54.8,9.1c-20,8.1-31.9,21.8-39.2,36.5c-12.8,25.9-13.6,25.5-26.3,51.4c-12.8,25.9-8.6,28-21.4,53.9
	c-12.8,25.9-4.2,39.3-29.8,52.9c-24.5,13-30.7-2.5-58.1-7.1s-25.2-18.2-52.6-22.8c-27.4-4.6-28-1.1-55.5-5.7s-32.4,10.7-57.4-1.4
	c14.5-10.3,27.8-28.6,41.9-38.5c14.5-10.2,34.4-12.3,48.6-22.3c14.5-10.2,22.3-29.5,36.5-39.4c14.5-10.1,32.9-14.2,47.2-24.2
	c14.4-10.1,31-16.8,45.4-26.7c14.4-10,22.2-29.3,36.5-39.3s32.7-14.1,47.1-24.1c14.2-9.9,30.7-16.9,45.2-27
	c14.2-9.9,22.1-29.1,36.6-39.2c14.1-9.9,28.6-19.7,43.2-29.9c14.1-9.9,30-17.7,44.6-27.9c11.5-8,20.2-10.2,23.2-16.3
	c7.2-14.5-2.6-28.6-13.3-42.5c-8.4-10.8-20.7-17.4-36.3-25.1c-13.2-6.5-24.3-24.4-40.5-27.1c-21.5-3.6-45.4,6.6-67,9.7
	c-24.2,3.4-48.5,5.3-64.1,16.6c-21.4,15.2-18.8,19-40.3,34.2c-21.5,15.1-23.3,12.6-44.8,27.8c-21.5,15.1-22,14.4-43.5,29.6
	c-21.5,15.1-18,20.1-39.4,35.3c-21.5,15.1-28.2,5.6-49.7,20.7c-21.5,15.1-21,15.8-42.6,30.9c-21.5,15.1-14.3,25.3-35.8,40.5
	c-21.5,15.1-22.3,14-43.8,29.1c-21.5,15.2-24.5,10.8-46.1,26c-21.5,15.1-19,18.7-40.5,33.8c-21.5,15.2-24.4,11-45.9,26.2
	s-17,21.6-38.6,36.7c-21.5,15.2-24.2,11.3-45.9,26.4c-17.1,11.4-38.6,25.1-40.6,29.1c-7.7,15.6-3.2,35.7,7.2,50.3
	c8,11.3,21.7,23.3,39.4,31.3c13.2,6,30.8,6,48.9,9c27.6,4.6,26.4,11.6,54,16.2s28.6-1.4,56.2,3.2s26.8,9.4,54.4,14
	s27.5,5.1,55.1,9.7s27.4,6,55,10.6s28.4-0.1,56,4.5s43.8-18,59.6,5.2c13.1,19.2-15.4,23.2-25.6,44c-10.3,20.8-6.6,22.7-16.8,43.5
	c-7.6,15.4-12.2,32.9-1.5,46.4c8.3,10.4,28.1,10.9,45.1,18.2c13,5.6,26.7,11.4,43.9,14.2c19.1,3.2,37,1.9,54.7,0.7
	c20.2-1.4,38.2-1.9,53.9-8.2c20-8.1,40-15.5,47.3-30.3c10.3-20.8,13-19.5,23.2-40.3c10.3-20.8,0-25.5,17.5-40.8
	c8.7-7.6,8.8-7.7,20.2-5.8c18.7,3.1,36.7,13.4,54.1,12c19.7-1.6,35.7-14.4,51-20.9c19.5-8.2,29.8-18.7,36.9-33
	c7.1-14.3,6.1-22.6-4.3-36.1c-7.9-10.2-14.4-26.2-30.6-33.5C845.9,1266.5,830.8,1259.1,814.1,1256.3L814.1,1256.3z M3476.4,1262.4
	c-6.2-14.7-19.5-28.5-41-37.1c-16-6.4-35.7-6-56.6-7.5c-18.2-1.3-36.9-2.2-56.8,0.9c-12.5,2-18.4,12.1-27.1,2.9
	c-20.3-21.3-4-31.1-15.4-58.2c-11.4-27.2-17.2-24.7-28.6-51.9c-11.4-27.2-7.7-28.7-19.1-55.9c-6.6-15.7-26.3-26.9-48.1-35.3
	c-16.6-6.4-37.1-2.8-58.3-4.3c-19-1.3-37.8-2.8-57.7,0.4c-18.7,3-35.1,5.7-49.6,11.5c-18.7,7.5-34.5,14-44.6,24.6
	c-13.6,14.4-14.8,29.1-7.9,45.6c11.4,27.1,11.9,26.9,23.3,54.1c11.4,27.2,3.4,30.5,14.8,57.7c11.4,27.2,45.9,30,31,55.4
	c-15.4,26.3-33.6,8.6-63.8,13.4c-30.1,4.8-30.1,5.3-60.2,10.1c-30.2,4.8-30.8,0.7-61,5.6c-30.2,4.8-30.1,8.5-60.4,4.4
	c5.5-17,8.4-31.8,13.7-48c5.5-16.9,12-33.1,17.3-49.4c5.5-16.8,6-35,11.4-51.4c5.5-16.7,19-30.6,24.5-47c5.5-16.6,3.1-35.7,8.6-52.3
	c5.5-16.5,11.6-32.8,17.2-49.4c5.4-16.4,19.9-29.9,25.4-46.7c5.4-16.3,13.8-31.9,19.3-48.8c5.3-16.3,0.9-36.1,6.4-53
	c3.7-10.8,2.7-16.6,0-22.9c-6.3-15-19.7-33-41.9-41.7c-16.9-6.7-39.4-1.6-60.1-3.7c-19.7-1.9-39.9-7.3-59-4.2
	c-21.7,3.5-44.6,5.7-61.5,14.2c-22.2,11.2-32.3,32.4-37.1,48.7c-8.5,26.6-8.1,26.7-16.7,53.3c-8.6,26.5-6.6,27.2-15.2,53.7
	c-8.6,26.5-13,25.1-21.6,51.7c-8.6,26.5-16.9,23.9-25.5,50.4s0.3,29.4-8.3,56c-8.6,26.5-4.3,28-12.9,54.5
	c-8.6,26.5-17.1,23.8-25.7,50.3c-8.6,26.6,0.4,29.5-8.2,56c-8.6,26.6-18,23.5-26.6,50.1s-12.4,25.3-21.3,51.8
	c-5.8,15.7,0.9,38.1,2.6,42.4c6.8,16.1,23.7,28.1,46.3,37.7c16.9,7.2,36.1,20.4,58.7,22.2c19.2,1.5,41.3-1.3,62.9-4.7
	c26.5-4.2,25.8-8.4,52.4-12.7c26.5-4.2,26.7-3.1,53.2-7.3c26.5-4.2,26.6-3.7,53.1-7.9s25.1-13.3,51.6-17.5s27.3,0.7,53.8-3.6
	c26.5-4.2,26-7.9,52.5-12.2c26.5-4.2,26.9-1.9,53.5-6.2c26.6-4.2,29.7-17.3,53.9-5.4c21.2,10.5,3.4,24.6,12.6,46.4
	s9.3,21.8,18.5,43.6c6.7,15.9,25.8,31.9,47.5,40.4c16.5,6.4,38.6,2.6,60.2,3.9c18.7,1.1,39.3,7.1,59.7,3.9c18.7-3,35.5-10.5,50-16.3
	c18.7-7.5,27.6-23.6,37.6-34.2c13.6-14.4,25.9-26.7,18.9-43.3c-9.2-21.8-15-19.4-24.2-41.2c-9.2-21.8-12.7-21-9.4-44.5
	c1.8-12.6,6.9-5.2,19.4-7.2c18.3-2.9,35.2-4.8,49.3-10.6c18.1-7.5,29.8-19.6,39.3-30.3C3478.6,1291.6,3483.2,1278.5,3476.4,1262.4
	L3476.4,1262.4z"/>
<g class="st4">
	<path class="st5" d="M1694.8,1511.3c-71.4,0-249.3-6.6-357.6-67.9l-4.2-2.4c-5-2.9-9.9-6.1-14.6-9.3
		c-22.4-14.9-38.3-30.5-48.5-47.9c-1.2-0.8-3.1-2-6.4-3.9c-2.1-1.2-4.3-2.4-6.4-3.6l-0.3-0.2c-2.4-1.3-4.9-2.7-7.3-4
		c-12-6.8-25.6-15.5-35.3-28.7l-2.5-3.4l-1.8-3.8c-2.9-6-4.7-11.4-6.1-15.4l-0.2-0.7c-0.1-0.4-0.5-1.5-0.8-2.2l-0.2-0.4l-0.5-0.9
		c-0.4-0.2-1.1-0.6-2.3-1l-4.2-1.4l-3.8-2.2c-11.9-6.7-18.1-16.4-21.7-24c-17.9-15.3-22.8-32.9-24.6-45.2c-1.6-0.8-3.1-1.7-4.6-2.5
		c-1.7-1-3.2-1.9-4.8-2.8c-18.6-11.5-29.6-25.9-32.9-42.8c-2.7-14.1,0.4-28.4,8.8-40.5c1.6-2.6,1.9-4.1,2.7-13.7
		c0.5-7.1,1.2-16.3,3.8-27.2c-0.1-0.6-0.3-1.2-0.4-1.7c-3-11.4-7.9-30.5,0.7-50.3l0.5-1.2l0.6-1.2c7.7-15.2,16.6-25.9,24.4-35.3
		c5.2-6.3,9.8-11.8,14.2-18.8c7.2-19.9,21.1-33.3,41.1-39.6l0.7-0.2l0.7-0.2c1.7-0.6,6.6-4.1,9.9-6.4c4.6-3.3,9.7-7,15.9-10.4
		c27.9-15.9,54-26.7,81.6-38.1c10.2-4.2,20.7-8.6,31.5-13.3c18.6-8.4,35.7-18,53.9-28c24.1-13.4,49-27.2,78.7-39.1l0.4-0.1
		c45.2-17.8,96.2-26,160.4-26c42.8,0,86.4,3.7,128.6,7.2c40.5,3.4,78.6,6.6,115.6,6.8c95.4,0.7,182.8,23.2,260,66.9
		c49.6,28.1,94.3,63.8,140.8,112.4c11,10.8,17.2,24.3,22.2,35.1c1.6,3.5,3.9,8.5,5.3,10.8l0.8,0.8c8.5,8.8,19.1,19.8,26.6,33.6
		c12,22.1,12.4,45.5,1.3,65.5c0.2,0.9,0.4,1.8,0.6,2.6c1.9,8.1,4.5,19.3,3.6,32l-0.1,1.8l-0.3,1.8c-8.9,60.9-45,120.9-107.2,178.3
		l-1.3,1.2l-1.4,1.1c-2.3,1.8-4.5,3.6-6.9,5.4c-4.5,3.5-9.1,7.1-13.8,10.7c-64.6,50.4-137.8,107.4-264.8,119.4h-0.2
		c-59.5,5.3-124.5,10.7-196.4,13.6C1729.6,1510.9,1712.3,1511.3,1694.8,1511.3L1694.8,1511.3z"/>
</g>
<linearGradient id="SVGID_1_" gradientUnits="userSpaceOnUse" x1="1718.7076" y1="209.301" x2="1718.7076" y2="539.035" gradientTransform="matrix(1 0 0 1 0 542)">
	<stop  offset="0" style="stop-color:#DEB3A2"/>
	<stop  offset="1" style="stop-color:#FFE3D9"/>
</linearGradient>
<path class="st6" d="M2122.4,865c55.2,31.9,98.9,71.7,134.7,110.1c11.1,10.6,16.4,37.4,28.7,48.7c14.7,15.5,31.9,33.9,19.8,50.9
	c-12.1,15.5,1.4,36,0.3,53.6c-8.2,57.2-44.5,111-95.8,159.3c-2.1,1.7-4.3,3.4-6.5,5.2c-68.5,54-136.5,114.8-262.2,126.8
	c-69.5,6.4-131.7,11.3-200,14.1c-129.1,5.8-302.5-10.2-395.5-63.9l-3.6-2.1c-4.4-2.6-8.6-5.4-12.6-8.2
	c-15.8-10.6-29.3-22.7-36.7-36.8c-3.7-7.6-12.9-13.7-23.1-19.6c-2.4-1.4-4.8-2.7-7.3-4.1c-2.4-1.3-4.8-2.7-7.2-4.1
	c-8.8-5.1-16.9-10.4-21.5-16.7c-1.8-3.9-3.1-7.8-4.3-11.5c-1.2-3.7-2.5-7.3-4.3-10.4c-3.7-7.4-9.4-14.4-18.7-19.7
	c-3.2-1.8-6.7-3.5-10.8-4.9c-3.7-2.2-4.5-12.8-7.8-14.8c-20.5-12.3-14.6-23.8-19.1-43.3c-1.5-3.4-5.2-6-9.5-8.5
	c-2.9-1.7-6.1-3.3-9.1-5c-2.3-1.2-4.7-2.5-6.9-3.7c-1.1-0.6-2.2-1.3-3.2-2c-9.5-6-15.9-12.9-10.5-20.3c14.5-22.6,7.5-38.3,14.7-63.7
	c3.6-10.6-8.4-30.4-3.5-41.7c10.9-21.9,25.9-32.2,40.4-57.8c2.4-5.6,2.4-12.7,13.3-16.2c14.6-4.2,25.2-15.3,37.4-22.4
	c36.5-21.2,70.9-33.5,112.3-51.8c47.5-21.9,85.1-49.5,135-70c118.1-47.3,265.9-9.9,398.9-9.2C1979.1,801.9,2058.5,828.1,2122.4,865
	L2122.4,865z"/>
<path class="st7" d="M2018.7,851.9c41,23.9,73.5,53.8,100.1,82.5c8.2,8,12.2,28,21.3,36.5c10.9,11.7,23.7,25.4,14.7,38.1
	c-9,11.6,1.1,27,0.2,40.2c-6.1,42.9-33.1,83.2-71.2,119.4l-4.8,3.9c-50.9,40.5-101.5,86-194.8,95c-51.7,4.8-97.9,8.5-148.7,10.6
	c-96,4.3-224.8-7.6-293.9-47.9c-0.9-0.5-1.8-1.1-2.7-1.6c-3.3-2-6.4-4-9.3-6.1c-11.8-8-21.8-17-27.3-27.6
	c-2.8-5.7-9.6-10.3-17.1-14.7c-1.8-1-3.6-2.1-5.4-3.1s-3.6-2-5.3-3c-6.5-3.8-12.6-7.8-15.9-12.5c-1.4-2.9-2.3-5.8-3.2-8.6
	c-0.9-2.8-1.8-5.4-3.2-7.8c-2.7-5.5-7-10.8-13.9-14.8c-2.3-1.4-5-2.6-8-3.7c-2.8-1.6-3.3-9.6-5.8-11.1
	c-15.2-9.2-10.9-17.8-14.2-32.5c-1.1-2.5-3.8-4.5-7.1-6.4c-2.1-1.2-4.5-2.5-6.8-3.8c-1.8-0.9-3.5-1.8-5.2-2.8l-2.4-1.5
	c-7.1-4.5-11.9-9.7-7.8-15.2c10.8-16.9,5.6-28.7,10.9-47.8c2.7-7.9-6.2-22.8-2.6-31.3c8.1-16.4,19.3-24.1,30-43.3
	c1.8-4.2,1.8-9.5,9.9-12.2c10.9-3.2,18.7-11.5,27.8-16.8c27.1-15.9,52.7-25.1,83.5-38.9c35.3-16.4,63.3-37.1,100.4-52.4
	c87.8-35.5,197.6-7.4,296.5-6.9C1912.2,804.5,1971.2,824.2,2018.7,851.9L2018.7,851.9z"/>
<path class="st8" d="M1459.9,848.6l166.7-96.3l-14.7-27L1459.9,848.6z"/>
<g class="st9">
	<path class="st10" d="M1467.6,997.1v14.1l119.9,69.6v-14L1467.6,997.1z"/>
	<path class="st11" d="M1576.9,1072.9v14.1l10.6-6.2v-14L1576.9,1072.9z"/>
	<path class="st10" d="M1385.4,1044.5l0.1,14.1l119.9,69.7l-0.1-14.1L1385.4,1044.5z"/>
	<path class="st1" d="M1385.4,1044.5l119.9,69.7l71.6-41.3l10.6-6.1l-119.9-69.7L1385.4,1044.5z"/>
	<path class="st11" d="M1505.3,1114.2l0.1,14.1l71.5-41.3v-14.1L1505.3,1114.2z M1776.1,1188.7l0.1,14l268.6-154.6l-0.1-14
		L1776.1,1188.7z"/>
	<path class="st10" d="M1576.9,1072.9v14.1l199.3,115.7l-0.1-14L1576.9,1072.9z"/>
	<path class="st1" d="M1467.6,997.1l119.9,69.7l-10.6,6.1l199.2,115.8l268.6-154.6l-319.1-185.5L1467.6,997.1z"/>
</g>
<g class="st9">
	<path class="st12" d="M1776.9,1174.6l243.1-141.3l0.5-159.7l-243.1,141.2L1776.9,1174.6z"/>
	<path class="st13" d="M1626.6,716.9l-152,123.1l-0.5,159.8l302.8,174.8l0.5-159.8L1626.6,716.9z"/>
</g>
<pattern  id="SVGID_00000010296880521014615280000010825433983706942858_" xlink:href="#SVGID_2_" patternTransform="matrix(-1.1209 -0.6472 0 1.1209 -42496.8242 17035.6797)">
</pattern>
<path style="fill:url(#SVGID_00000010296880521014615280000010825433983706942858_);" d="M1626.6,716.9l-152,123.1l-0.5,159.8
	l302.8,174.8l0.5-159.8L1626.6,716.9z"/>
<path class="st15" d="M1474.6,882.1l152-123.1l150.6,297.7l0.2-41.9l-150.8-297.9l-152,123.1l-0.5,159.8l0.2,0.1L1474.6,882.1z"/>
<path class="st16" d="M1459.9,848.6l152-123.3v-13.7l-152,124.9V848.6z"/>
<pattern  id="SVGID_00000050661031370167309580000001415821776908575391_" xlink:href="#SVGID_5_" patternTransform="matrix(-1.1209 0.6423 0 1.1209 -42496.8242 26590.3301)">
</pattern>
<path style="fill:url(#SVGID_00000050661031370167309580000001415821776908575391_);" d="M1776.9,1174.6l243.1-141.3l0.5-159.7
	l-243.1,141.2L1776.9,1174.6z"/>
<path class="st15" d="M1777.4,1057l242.9-141.2l0.2-42.2l-243.1,141.2l-0.5,159.8l0.1-0.1L1777.4,1057z"/>
<path class="st16" d="M1772.3,1027.2l-9.6-4l-150.8-297.9v-13.7L1772.3,1027.2z"/>
<path class="st18" d="M1772.3,1027.2l268.4-156.1l-160.3-315.6l-268.5,156.1L1772.3,1027.2z"/>
<path class="st19" d="M1917,707l-45.7-26.3l4.1-7.4L1917,707z"/>
<path class="st20" d="M1917,707l-41.6-33.7v-3.8l41.6,34.2V707z"/>
<path class="st21" d="M1830.1,752.6l-66.6-38.7l41.3-81.6l66.5,38.7L1830.1,752.6z"/>
<path class="st13" d="M1871.3,671l41.6,33.7l0.2,43.7l-82.9,47.9l-0.1-43.7L1871.3,671z"/>
<path class="st12" d="M1763.5,717.2v-3.3l66.6,38.7l0.1,43.7l-37.8-21.9L1763.5,717.2z"/>
<path class="st16" d="M1831.5,755.9l-73.5-42.7l43.9-86.4l73.5,42.7L1831.5,755.9z"/>
<path class="st22" d="M1831.5,755.9l2.6-1l41.3-81.6v-3.8L1831.5,755.9z"/>
<path class="st1" d="M1915.9,1050.2l-0.1-37.6l-3.6,2l0.1,37.7v1.2l3.6-2.1V1050.2z"/>
<g class="st9">
	<path class="st8" d="M1956.6,1023.5l-0.1-34.4l-40.7,23.5l0.1,37.6l37.9-21.9C1955.4,1027.4,1956.6,1025.2,1956.6,1023.5
		L1956.6,1023.5z M1956.4,950.5c0-1.8-1.3-2.5-2.8-1.6l-37.9,21.9l0.1,37.6l40.7-23.5L1956.4,950.5L1956.4,950.5z M1912.3,1052.3
		l-0.1-37.6l-40.7,23.5l0.1,34.4c0,1.8,1.3,2.5,2.8,1.6L1912.3,1052.3L1912.3,1052.3z"/>
	<path class="st1" d="M1868.8,1074.2c0,3.6,2.5,5,5.6,3.2l79.4-45.8c3.1-1.8,5.6-6.1,5.6-9.7l-0.2-73c0-3.6-2.5-5-5.6-3.2
		l-79.4,45.8c-3.1,1.8-5.6,6.1-5.6,9.7L1868.8,1074.2L1868.8,1074.2z M1874.2,994.7l37.9-21.9l0.1,37.6l-40.7,23.5l-0.1-34.4
		C1871.4,997.8,1872.7,995.6,1874.2,994.7L1874.2,994.7z M1956.5,984.9l-40.7,23.5l-0.1-37.6l37.9-21.9c1.5-0.9,2.8-0.2,2.8,1.6
		L1956.5,984.9L1956.5,984.9z M1871.5,1038.1l40.7-23.5l3.6-2.1l40.7-23.5l0.1,34.4c0,1.8-1.2,4-2.8,4.8l-37.9,21.9v1.2l-3.6,2.1
		v-1.2l-37.9,21.9c-1.5,0.9-2.8,0.2-2.8-1.6L1871.5,1038.1L1871.5,1038.1z"/>
</g>
<path class="st8" d="M1874.2,994.7c-1.5,0.9-2.8,3.1-2.8,4.8l0.1,34.4l40.7-23.5l-0.1-37.6L1874.2,994.7L1874.2,994.7z"/>
<g class="st9">
	<path class="st20" d="M1895.7,743.8v-15.3l-18.1,10.4v16.7l16.8-9.7C1895.1,745.6,1895.7,744.6,1895.7,743.8L1895.7,743.8z
		 M1895.6,711.4c0-0.8-0.6-1.1-1.2-0.7l-16.8,9.7v16.7l18.1-10.4L1895.6,711.4z M1876,756.6v-16.7l-18.1,10.4v15.3
		c0,0.8,0.6,1.1,1.3,0.7L1876,756.6L1876,756.6z"/>
	<path class="st23" d="M1896.8,710.7c0-1.6-1.1-2.2-2.5-1.4l-35.3,20.4c-1.4,0.8-2.5,2.7-2.5,4.3l0.1,32.4c0,1.6,1.1,2.2,2.5,1.4
		l35.3-20.4c1.4-0.8,2.5-2.7,2.5-4.3L1896.8,710.7z M1894.3,710.7c0.7-0.4,1.2-0.1,1.2,0.7v15.3l-18.1,10.4v-16.7L1894.3,710.7z
		 M1857.8,733.2c0-0.8,0.6-1.8,1.2-2.1l16.8-9.7v16.7l-18.1,10.4L1857.8,733.2L1857.8,733.2z M1859.2,766.3
		c-0.7,0.4-1.2,0.1-1.3-0.7v-15.3l18.1-10.4v16.7L1859.2,766.3L1859.2,766.3z M1894.4,746l-16.8,9.7V739l18.1-10.4v15.3
		C1895.7,744.6,1895.1,745.6,1894.4,746L1894.4,746z"/>
</g>
<path class="st20" d="M1859.1,731.1c-0.7,0.4-1.2,1.4-1.2,2.1v15.3l18.1-10.4v-16.7L1859.1,731.1L1859.1,731.1z"/>
<path class="st16" d="M1559.1,1049l-57.4-33.1l0.3-103.8l57.4,33.1L1559.1,1049z M1507.3,1013.5l46.2,26.7l0.1-44l-46.2-26.7
	L1507.3,1013.5 M1507.5,964.9l46.2,26.7l0.1-44l-46.2-26.7L1507.5,964.9"/>
<path class="st8" d="M1507.6,920.9l-0.1,44l46.2,26.7l0.1-44L1507.6,920.9z M1507.5,969.6l-0.2,43.9l46.2,26.7l0.2-44L1507.5,969.6z
	"/>
<g class="st9">
	<path class="st24" d="M1494.7,1066.2l0.2,33.4l10.5,6.1l-0.2-33.4L1494.7,1066.2z"/>
	<path class="st25" d="M1505.2,1072.3l0.2,33.4l10.5-6.1l-0.2-33.4L1505.2,1072.3z"/>
	<path class="st26" d="M1494.7,1066.2l10.5,6.1l10.5-6.1l-10.4-6.1L1494.7,1066.2z"/>
</g>
<g class="st9">
	<path class="st24" d="M1499.7,984.1l0.1,81.4l5.6,3.2l-0.1-81.4L1499.7,984.1z"/>
	<path class="st25" d="M1505.3,987.3l0.1,81.4l5.5-3.2l-0.1-81.4L1505.3,987.3z"/>
	<path class="st26" d="M1499.7,984.1l5.6,3.2l5.5-3.2l-5.5-3.2L1499.7,984.1z"/>
</g>
<g class="st9">
	<path class="st24" d="M1396.4,1010.2l0.2,33.4l10.5,6.1l-0.2-33.4L1396.4,1010.2z"/>
	<path class="st25" d="M1406.9,1016.3l0.2,33.4l10.5-6.1l-0.2-33.4L1406.9,1016.3z"/>
	<path class="st26" d="M1396.4,1010.2l10.5,6.1l10.5-6.1l-10.4-6.1L1396.4,1010.2z"/>
</g>
<g class="st9">
	<path class="st24" d="M1401.4,928.1l0.1,81.4l5.6,3.2l-0.1-81.4L1401.4,928.1z"/>
	<path class="st25" d="M1407,931.3l0.1,81.4l5.5-3.2l-0.1-81.4L1407,931.3z"/>
	<path class="st26" d="M1401.4,928.1l5.6,3.2l5.5-3.2l-5.5-3.2L1401.4,928.1z"/>
</g>
<g class="st9">
	<path class="st21" d="M1577.3,910.3l-103.2-59.2l-3,1.8l103.2,59.1L1577.3,910.3z"/>
	<path class="st27" d="M1493.8,996.7l-103.2-59.1v5.1l103.2,59.2V996.7z"/>
	<path class="st21" d="M1574.3,912l-103.2-59.1l-80.5,84.7l103.2,59.1L1574.3,912z"/>
	<path class="st28" d="M1574.3,912l-80.5,84.7v5.2l83.6-48.4l-0.1-43.2L1574.3,912z"/>
</g>
<path class="st18" d="M1576.4,910.9l7.9-4.5l-110.2-63.1l-5.2,3l-83.8,88.2l109.3,62.7L1576.4,910.9z"/>
<path class="st16" d="M1584.3,906.4v3.9l-7.9,4.5l-82,86.3v-3.9l82-86.3L1584.3,906.4z"/>
<path class="st16" d="M1385.1,934.5v3.9l109.3,62.7v-3.9L1385.1,934.5z"/>
<g class="st9">
	<path class="st10" d="M1376.9,1070.1v7l97.2,56.5v-7L1376.9,1070.1z"/>
	<path class="st11" d="M1474.1,1126.6v7l20.2-11.6v-7.1L1474.1,1126.6z"/>
	<path class="st1" d="M1376.9,1070.1l97.2,56.5l20.2-11.7l-97.2-56.5L1376.9,1070.1z"/>
</g>
<path class="st2" d="M1705.9,1027.8l-83.6-48.3l-1,0.3l-0.1,66.6l83.6,48.3l0.9-0.3L1705.9,1027.8z"/>
<path class="st26" d="M1705,1028.1l-83.7-48.3l-0.1,66.6l83.6,48.3L1705,1028.1z"/>
<path class="st8" d="M1626,987.9l-0.2,55.8l74.4,42.9l0.1-55.8L1626,987.9z"/>
<path class="st11" d="M1626,987.9l2.4,1.4l-0.2,52.9l72,41.5v2.9l-74.4-42.9L1626,987.9z"/>
<path class="st29" d="M1596.8,987.9h29.2v56.5h-29.2V987.9z"/>
<path class="st8" d="M1611.7,989.5h12.1v25.6h-12.1V989.5z M1598.1,989.5h12.1v25.6h-12.1V989.5z M1611.7,1017h12.1v25.6h-12.1V1017
	z M1598.1,1017h12.1v25.6h-12.1V1017z"/>
<path class="st2" d="M1626,987.9l-1.1-0.9h-29.2l1.1,0.9H1626z"/>
<path class="st30" d="M1596.8,1044.4l-1.1-0.9V987l1.1,0.9V1044.4z"/>
<path class="st29" d="M1718.6,1104.7l-18.8-18.2V1030l18.8,18.2V1104.7z"/>
<path class="st8" d="M1709,1066.2l-7.8-7.5v-25.6l7.8,7.5V1066.2z M1717.7,1074.7l-7.7-7.5v-25.7l7.7,7.6V1074.7z M1709,1093.7
	l-7.8-7.5v-25.7l7.8,7.6V1093.7z M1717.7,1102.2l-7.7-7.6V1069l7.7,7.5V1102.2z"/>
<path class="st2" d="M1699.8,1030l1.7-0.4l18.8,18.3l-1.7,0.3L1699.8,1030z"/>
<path class="st30" d="M1718.6,1104.7l1.7-0.3v-56.5l-1.7,0.3V1104.7z"/>
</svg>
