<?xml version="1.0" encoding="utf-8"?>
<!-- Generator: Adobe Illustrator 28.3.0, SVG Export Plug-In . SVG Version: 6.00 Build 0)  -->
<svg version="1.1" id="Calque_1" xmlns="http://www.w3.org/2000/svg" xmlns:xlink="http://www.w3.org/1999/xlink" x="0px" y="0px"
	 viewBox="0 0 600.1 488.1" style="enable-background:new 0 0 600.1 488.1;" xml:space="preserve">
<style type="text/css">
	.st0{fill:#F2836D;}
	.st1{fill:#75723B;}
	.st2{fill:#82664B;}
	.st3{fill:#96914B;}
	.st4{fill:#AFA652;}
	.st5{fill:#515032;}
	.st6{fill:#2E2E47;}
	.st7{fill:#EAE6E4;}
	.st8{fill:#FA634B;}
	.st9{fill:#CCCAC8;}
	.st10{opacity:0.13;fill:#2E2E47;enable-background:new    ;}
	.st11{fill:#235EB5;}
	.st12{fill:#3B82F6;}
	.st13{fill:#FFC97D;}
	.st14{fill:#FFFFFF;}
	.st15{fill:#A424FF;}
	.st16{fill:#FFA982;}
	.st17{fill:#82A7AF;}
	.st18{fill:#5FA9B3;}
	.st19{fill:#85C4CC;}
	.st20{fill:#ED2161;}
	.st21{fill:#4AD89B;}
	.st22{fill:#9E4F60;}
</style>
<ellipse class="st0" cx="873.9" cy="425.4" rx="31.8" ry="2.7"/>
<path class="st1" d="M880.7,365c0,0,7.3-54.2,16.1-51.4c8.8,2.8,8.8-4.8,10.8-8.8s-1.2-16.8,10.7-16.5s12.8-8.5,17.3-16.1
	c4.5-7.7,1.6-16,12.5-15.5c10.9,0.4,11.6-12.1,18.3-8.7c6.8,3.4-0.4,13-0.4,15.6s9.1,4.1,3.3,11.9s-17,12.2-15.8,15.3
	c1.3,3.1,7.1,1.9,4.8,8.5c-2.3,6.5-26.4,21-27,23.6s9.3,0.5,4.8,7.5s-35.1,31.4-35.4,34.9h-20L880.7,365z"/>
<path class="st2" d="M846.3,365l7.1,59.8h41l6.5-59.8H846.3z"/>
<path class="st3" d="M892.4,357.7c0.6,0,1.2-0.5,1.2-1.1c0.4-3.6,4.7-8.8,9.2-14.2c3.2-3.8,6.4-7.7,8.8-11.6
	c3.6-5.9,5.6-7.8,8.6-10.7c1.8-1.7,3.8-3.7,6.7-7c5.8-6.6,7.3-10.2,9.5-15.2c0.7-1.7,1.5-3.6,2.6-5.8c2.4-4.9,5.1-8.1,7.9-11.4
	c2-2.3,4.1-4.7,6.1-7.9c4.7-7.3,12.3-17.1,12.4-17.2c0.4-0.5,0.3-1.3-0.2-1.7s-1.3-0.3-1.7,0.2c-0.1,0.1-7.7,10-12.5,17.4
	c-1.9,3-4,5.3-5.9,7.6c-2.8,3.3-5.8,6.7-8.3,11.9c-1.1,2.3-1.9,4.2-2.7,5.9c-2,4.7-3.5,8.2-9,14.5c-2.8,3.2-4.8,5.1-6.6,6.8
	c-3,2.9-5.2,5.1-9,11.2c-2.3,3.7-5.5,7.6-8.6,11.3c-4.7,5.7-9.2,11.1-9.7,15.5c-0.1,0.7,0.4,1.3,1.1,1.4
	C892.3,357.7,892.4,357.7,892.4,357.7L892.4,357.7z M873.6,365c0,0,6.2-32.6,4.5-39.9c-1.6-7.3-5.1-13.1-9.6-16.6s-7.4-11.2-9-20.2
	s-1.9-17.3-7.4-19.1c-5.5-1.8-6.8-5.6-10-9s-10,6.2-6.8,12s5.5,5.7,4.5,11.1s-7.1,11.1-1.9,18.8c5.1,7.7,9.3,8.8,8.3,14.9
	s-2.6,7.8,0,17c2.6,9.3,5.9,28.1,10.2,31.1L873.6,365L873.6,365z"/>
<path class="st4" d="M864,361.2c0.1,0,0.2,0,0.4-0.1c0.7-0.2,1-0.9,0.8-1.6c-0.8-2.6-1.3-12.3-1-19.9c0.3-7.1-1.8-21-5.3-30.4
	c-1.8-4.8-3.7-7-5.2-8.8c-1.4-1.6-2.4-2.8-3-5.6c-0.5-2.6-0.2-3.7,0.1-5.1c0.5-1.8,1-3.9-0.1-8.9c-2-8.9-8.4-16.5-8.6-16.8
	c-0.4-0.5-1.2-0.6-1.8-0.1c-0.5,0.4-0.6,1.2-0.2,1.8c0.1,0.1,6.3,7.5,8.1,15.8c1,4.4,0.6,6.1,0.1,7.8c-0.4,1.5-0.8,3.1-0.1,6.2
	c0.7,3.4,2.1,5,3.5,6.7c1.5,1.7,3.1,3.7,4.8,8.1c3.4,9.1,5.4,22.6,5.1,29.4c-0.3,7.2,0.1,17.4,1.1,20.7
	C863,360.8,863.5,361.2,864,361.2L864,361.2z"/>
<path class="st5" d="M865.6,365c0,0-11.1-33.4-6.9-42.5c4.3-9.1,8.1-1.6,9.4-10.3c1.3-8.7-0.9-25.6,0-32.4s6.9-7.7,9-14.1
	s-2.6-28.2,3.4-32.7s11.6-7.4,12-14.8s2.6-33.4,11.6-38.6c9-5.2,11.1,0.5,9.4,6.7c-1.7,6.1-5.6,14.2-3.4,17.2c2.1,3.1,2.4,1.9,4,9.1
	c1.6,7.2-6.5,14-4.8,17.7s9,6.7,9,16.1c0,9.4-12.4,17.4-11.6,21.1c0.9,3.7,3.9,0.9,4.3,8.9c0.4,8.1-14.3,29.2-10.2,34.3
	c4.2,5.1,7.2,7.4,7.2,11.6S888,365,888,365H865.6z"/>
<path class="st1" d="M876.3,361.8c0.6,0,1.2-0.5,1.2-1.1c0-0.3,3.4-27.9,6.8-36.2c2.4-6.1,3.1-12.8,3.8-19.8c0.3-3,0.6-6.2,1.1-9.4
	c0.6-4.3,1-8.5,1.4-12.6c0.5-6,1-11.7,2.3-16.7c1-4,2.4-8.4,3.7-12.6c1.5-4.7,2.9-9.1,3.6-12.5c0.2-0.9,0.4-1.9,0.7-3.1
	c1.5-6.9,3.7-17.3,3.7-21.8c0-0.9-0.1-2.1-0.1-3.5c-0.3-6.3-1-17.9,4-22.8c0.5-0.5,0.5-1.3,0-1.8s-1.3-0.5-1.8,0
	c-5.9,5.6-5.2,17.6-4.8,24.7c0.1,1.3,0.1,2.5,0.1,3.3c0,4.3-2.2,14.5-3.6,21.3c-0.2,1.1-0.5,2.2-0.7,3.1c-0.7,3.2-2,7.6-3.5,12.2
	c-1.3,4.3-2.7,8.7-3.8,12.8c-1.3,5.2-1.8,11-2.4,17.1c-0.4,4-0.7,8.2-1.4,12.4c-0.5,3.2-0.8,6.4-1.1,9.5c-0.7,6.9-1.4,13.4-3.7,19.1
	c-3.5,8.6-6.8,35.7-6.9,36.8c-0.1,0.7,0.4,1.3,1.1,1.4C876.2,361.8,876.3,361.8,876.3,361.8L876.3,361.8z"/>
<path class="st6" d="M804,252.5h6.9v181.8H804V252.5z"/>
<path class="st7" d="M770.4,143.3h74.1v114.3h-74.1V143.3z"/>
<path class="st8" d="M826.8,166.7c0.6-0.2,7.2-0.5,6.6-4.5c-0.7-4.1-5.2-3.3-8.2-1.3s-2.2,12.1,1.4,12.9c3.6,0.7,5.5-2.5,5.5-2.5
	l-2.9-1.8c0,0-0.8,0.7-1.4,0.4C827.2,169.5,826,167.3,826.8,166.7L826.8,166.7z M803.9,160.7c0,0,4.4-0.7,5.6,2.2s-1.1,7.7-0.2,9.7
	c0.9,2,4-0.5,4-0.5l1.5,2.8c0,0-3.1,1.4-5.6,1.5c-2.5,0-2.8-0.9-2.8-0.9s-7.6,2.3-7.8-1.8c-0.2-4.2,3.5-5.3,5-5.1
	c1.6,0.2,2.5,0.7,2.5,0.7s1.4-3.6,0.2-4.5c-1.3-0.9-2.5-0.4-2.5-0.4L803.9,160.7z"/>
<path class="st8" d="M816.5,156.4c0,0.2-1.1,22.4,0.2,22.5c1.3,0.2,8.5,0.5,8.8-0.1s0.7-3.4-0.4-3.6c-1.1-0.2-5.5,0.2-5.5,0.2
	l0.2-19.1L816.5,156.4L816.5,156.4z M791.8,152.5c0,0-8.2,4.6-6.1,9.4c2.1,4.8,4.8,3.3,6,7.4c1.3,4-6.6,6.1-6.6,6.1l1.8,5.2
	c0,0,9.7-1.6,9.9-9.5s-5.3-9.6-5.5-11.1s3.4-3.2,3.4-3.2L791.8,152.5L791.8,152.5z"/>
<path class="st9" d="M781.5,191.9h51.9v3.9h-51.9V191.9z M781.5,200.8h29.4v3.9h-29.4V200.8z M781.5,209.8h51.9v3.9h-51.9V209.8z
	 M781.5,218.7h29.4v3.9h-29.4V218.7z M781.5,227.6h51.9v3.9h-51.9V227.6z"/>
<ellipse class="st10" cx="593" cy="430.7" rx="290.2" ry="7.9"/>
<path class="st2" d="M353.9,386.9l-6.6,47.5h10.5l23.8-47.5H353.9z M430.8,386.9l-6.6,47.5h10.6l23.7-47.5H430.8z M810.8,386.9
	l6.6,47.5h-10.6l-23.7-47.5H810.8z M733.9,386.9l6.6,47.5h-10.6l-23.7-47.5H733.9z"/>
<path class="st11" d="M868.1,268.9h-82.6c-3.6,0-6.9,2-8.5,5.2l-49.2,97.4H424.4l-51.1-102.6h-82.1c-5.3,0-8.7,5.6-6.3,10.3
	l50.1,99.1c3.8,7.6,11.6,12.3,20.1,12.3h370.7c4.9,0,9.5-1.6,13.3-4.4h72.6L868.1,268.9L868.1,268.9z"/>
<path class="st11" d="M744.7,246.7c-3.7-9.5-12.9-15.8-23.1-15.8H567.1c-7.1,0-13.5,4.2-16.3,10.8l-1.3,3c-1.3-4.6-4.6-8.4-8.9-10.4
	c-4.7-2.2-9.9-3.3-15.2-3.3H336c-4.6,0-8.9,2.1-11.5,5.8c-1.4,2-2.2,4.2-1.1,6.3l59.2,117.1c4.5,8.9,13.7,14.6,23.7,14.6h386.3
	L744.7,246.7L744.7,246.7z"/>
<path class="st12" d="M859.2,274.1L810,371.5H435l-47.4-93.8c-2.7-5.4-8.2-8.8-14.3-8.8c-5.3,0-8.7,5.6-6.3,10.3l50.1,99.1
	c3.8,7.6,11.6,12.3,20.1,12.3h370.7c8.5,0,16.2-4.8,20.1-12.3l48.3-95.5c3.2-6.3-1.4-13.8-8.5-13.8
	C864.1,268.9,860.8,270.9,859.2,274.1L859.2,274.1z"/>
<path class="st12" d="M437.3,365.2h368l10.7-19.1c4.1-7.3-1.2-16.4-9.6-16.4H438.1c-8,0-13.4,8.3-10,15.6L437.3,365.2L437.3,365.2z
	 M585.5,235.2h144.3c6.4,0,12.1,3.9,14.3,9.9l22.3,59c3.8,10-3.6,20.7-14.3,20.7H609.3c-6.3,0-11.9-3.8-14.2-9.6l-23.7-59
	C567.3,246.2,574.7,235.2,585.5,235.2L585.5,235.2z M386.5,235.2h144.3c6.4,0,12.1,3.9,14.3,9.9l22.3,59c3.8,10-3.6,20.7-14.3,20.7
	H410.3c-6.3,0-11.9-3.8-14.2-9.6l-23.7-59C368.3,246.2,375.7,235.2,386.5,235.2L386.5,235.2z"/>
<path class="st13" d="M553,76.7h-12.6c0,0-8.9,30.1-6.3,40.1c1.9,7.2,6.1,9.3,8.2,9.9c1,0.3,1.9,0.8,2.5,1.6l0.3,0.4
	c0.9,0.9,2.3,0.9,3.2,0l0.3-0.4c0.7-0.7,1.6-1.3,2.5-1.6c2.1-0.6,6.3-2.7,8.2-9.9C561.9,106.8,553,76.7,553,76.7L553,76.7z"/>
<path class="st14" d="M547.2,116.8c-0.1,0-0.3,0-0.4-0.1c-1.4-0.3-2.9-2.5-3.8-4.8c-0.9,1.4-1.8,2.5-2.4,2.6c-0.1,0-0.2,0-0.3-0.1
	c-0.3-0.3-0.9-1,1-18.5c0.9-8.6,2-17.2,2-17.2c0-0.2,0.2-0.3,0.3-0.2c0.2,0,0.3,0.2,0.2,0.3c-1.7,12.8-4,33.5-3.2,35.2
	c0.5-0.2,1.3-1.3,2.1-2.7c-0.3-0.9-0.5-1.7-0.6-2.5c-0.2-1.8,0.2-3.1,1.2-3.5c0.7-0.3,1.2-0.4,1.6-0.1c0.5,0.4,0.5,1.3,0,2.7
	c-0.3,1-0.9,2.4-1.6,3.6c0.9,2.5,2.5,4.6,3.6,4.9c0.6,0.1,1.1-0.1,1.5-0.8c0.6-0.9,1-2,1.2-3c-0.6-0.5-1-1.2-1.3-2.1
	c-0.7-2.2-0.5-5.4,0.2-6c0.2-0.1,0.4-0.2,0.7,0.1c0.8,0.7,1.7,4.3,1.1,7.8c0.4,0.2,0.8,0.4,1.4,0.4c0.1,0,0.2,0,0.4-0.2
	c0.6-0.7,1.4-4.1-0.5-18c-1.1-8-2.5-15.6-2.6-15.7c0-0.1,0.1-0.3,0.2-0.3s0.3,0.1,0.3,0.2c0.2,1.3,5.8,30.8,2.9,34.1
	c-0.2,0.3-0.5,0.4-0.8,0.4c-0.5,0-1-0.2-1.5-0.4c-0.3,1-0.6,2-1.2,3C548.4,116.6,547.7,116.8,547.2,116.8L547.2,116.8z M548.8,104.8
	c-0.4,0.4-0.7,3.1,0,5.3c0.2,0.6,0.5,1.2,0.9,1.6c0.4-2.3,0-4.6-0.4-6C549.1,105.1,548.9,104.8,548.8,104.8z M544.4,105.5
	c-0.2,0-0.4,0.1-0.7,0.2c-1,0.5-1,2.1-0.9,3c0.1,0.7,0.2,1.3,0.4,2c0.5-1,1-2,1.3-3c0.4-1.3,0.4-1.9,0.2-2.1
	C544.5,105.5,544.5,105.5,544.4,105.5z"/>
<path class="st6" d="M585.7,134.9h-78.3v-30.7L531.5,71h30.1l24.1,33.2L585.7,134.9L585.7,134.9z M508.6,133.8h76.1v-29.3L561.1,72
	h-29l-23.5,32.5L508.6,133.8L508.6,133.8z"/>
<path class="st6" d="M546.6,104.9c-0.2,0-0.4-0.1-0.5-0.3l-14.8-32.9c-0.1-0.3,0-0.6,0.3-0.7s0.6,0,0.7,0.3l14.3,31.8l14.3-31.8
	c0.1-0.3,0.5-0.4,0.7-0.3c0.3,0.1,0.4,0.5,0.3,0.7l-14.8,32.9C547,104.8,546.8,104.9,546.6,104.9z"/>
<path class="st6" d="M585.2,104.9H508c-0.3,0-0.5-0.2-0.5-0.5s0.2-0.5,0.5-0.5h77.2c0.3,0,0.5,0.2,0.5,0.5
	C585.7,104.6,585.5,104.9,585.2,104.9z"/>
<path class="st6" d="M585.2,134.9c-0.2,0-0.4-0.1-0.5-0.3L567.5,106L547,133.9c-0.1,0.1-0.3,0.2-0.5,0.2s-0.3-0.1-0.4-0.2
	l-18.9-28.5l-18.7,29.3c-0.2,0.3-0.5,0.3-0.8,0.2c-0.3-0.2-0.3-0.5-0.2-0.8l19.2-30c0.1-0.2,0.3-0.3,0.5-0.3s0.4,0.1,0.5,0.2
	l18.9,28.6l20.5-27.9c0.1-0.1,0.3-0.2,0.5-0.2s0.4,0.1,0.4,0.3l17.6,29.4c0.2,0.3,0.1,0.6-0.2,0.8
	C585.4,134.9,585.3,134.9,585.2,134.9L585.2,134.9z M539.8,71.5h13.6v6h-13.6V71.5z"/>
<path class="st6" d="M546.6,72c-0.3,0-0.5-0.2-0.5-0.5V15.4c0-0.3,0.2-0.5,0.5-0.5s0.5,0.2,0.5,0.5v56.1
	C547.2,71.8,546.9,72,546.6,72z"/>
<path class="st13" d="M682,135.6h-12.6c0,0-8.9,30.1-6.3,40.1c1.9,7.2,6.1,9.3,8.2,9.9c1,0.3,1.9,0.8,2.5,1.6l0.3,0.4
	c0.9,0.9,2.3,0.9,3.2,0l0.3-0.4c0.7-0.7,1.6-1.3,2.5-1.6c2.1-0.6,6.3-2.7,8.2-9.9C690.9,165.7,682,135.6,682,135.6L682,135.6z"/>
<path class="st14" d="M676.3,175.7c-0.1,0-0.3,0-0.4-0.1c-1.4-0.3-2.9-2.5-3.8-4.8c-0.9,1.4-1.8,2.5-2.4,2.6c-0.1,0-0.2,0-0.3-0.1
	c-0.3-0.3-0.9-1,1-18.5c0.9-8.6,2-17.2,2-17.2c0-0.2,0.2-0.3,0.3-0.2c0.2,0,0.3,0.2,0.2,0.3c-1.7,12.8-4,33.5-3.2,35.2
	c0.5-0.2,1.3-1.3,2.1-2.7c-0.3-0.9-0.5-1.7-0.6-2.5c-0.2-1.8,0.2-3.1,1.2-3.5c0.7-0.3,1.2-0.4,1.6-0.1c0.5,0.4,0.5,1.3,0,2.7
	c-0.3,1-0.9,2.4-1.6,3.6c0.9,2.5,2.5,4.6,3.6,4.9c0.6,0.1,1.1-0.1,1.5-0.8c0.6-0.9,1-2,1.2-3c-0.6-0.5-1-1.2-1.3-2.1
	c-0.7-2.2-0.5-5.4,0.2-6c0.2-0.1,0.4-0.2,0.7,0.1c0.8,0.7,1.7,4.3,1.1,7.8c0.4,0.2,0.8,0.4,1.4,0.4c0.1,0,0.2,0,0.4-0.2
	c0.6-0.7,1.4-4.1-0.5-18c-1.1-8-2.5-15.6-2.6-15.7c0-0.1,0.1-0.3,0.2-0.3s0.3,0.1,0.3,0.2c0.2,1.3,5.8,30.8,2.9,34.1
	c-0.2,0.3-0.5,0.4-0.8,0.4c-0.5,0-1-0.2-1.5-0.4c-0.3,1-0.6,2-1.2,3C677.4,175.4,676.8,175.7,676.3,175.7L676.3,175.7z M677.9,163.7
	c-0.4,0.4-0.7,3.1,0,5.3c0.2,0.6,0.5,1.2,0.9,1.6c0.4-2.3,0-4.6-0.4-6C678.2,164,678,163.7,677.9,163.7L677.9,163.7z M673.4,164.3
	c-0.2,0-0.4,0.1-0.7,0.2c-1,0.5-1,2.1-0.9,3c0.1,0.7,0.2,1.3,0.4,2c0.5-1,1-2,1.3-3c0.4-1.3,0.4-1.9,0.2-2.1
	C673.6,164.4,673.5,164.3,673.4,164.3L673.4,164.3z"/>
<path class="st6" d="M714.8,193.8h-78.3V163l24.1-33.2h30.1l24.1,33.2L714.8,193.8L714.8,193.8z M637.6,192.7h76.1v-29.3l-23.5-32.5
	h-29l-23.5,32.5L637.6,192.7L637.6,192.7z"/>
<path class="st6" d="M675.6,163.8c-0.2,0-0.4-0.1-0.5-0.3l-14.8-32.9c-0.1-0.3,0-0.6,0.3-0.7c0.3-0.1,0.6,0,0.7,0.3l14.3,31.8
	l14.3-31.8c0.1-0.3,0.5-0.4,0.7-0.3s0.4,0.5,0.3,0.7l-14.8,32.9C676.1,163.6,675.9,163.8,675.6,163.8z"/>
<path class="st6" d="M714.2,163.8H637c-0.3,0-0.5-0.2-0.5-0.5s0.2-0.5,0.5-0.5h77.2c0.3,0,0.5,0.2,0.5,0.5
	C714.8,163.5,714.5,163.8,714.2,163.8z"/>
<path class="st6" d="M714.2,193.8c-0.2,0-0.4-0.1-0.5-0.3l-17.2-28.7L676,192.7c-0.1,0.1-0.3,0.2-0.5,0.2s-0.3-0.1-0.4-0.2
	l-18.9-28.5l-18.7,29.3c-0.2,0.3-0.5,0.3-0.8,0.2c-0.3-0.2-0.3-0.5-0.2-0.8l19.2-30c0.1-0.2,0.3-0.3,0.5-0.3s0.4,0.1,0.5,0.2
	l18.9,28.6l20.5-27.9c0.1-0.1,0.3-0.2,0.5-0.2s0.4,0.1,0.4,0.3l17.6,29.4c0.2,0.3,0.1,0.6-0.2,0.8
	C714.4,193.7,714.3,193.8,714.2,193.8L714.2,193.8z M668.8,130.3h13.6v6h-13.6V130.3z"/>
<path class="st6" d="M675.6,130.9c-0.3,0-0.5-0.2-0.5-0.5V74.3c0-0.3,0.2-0.5,0.5-0.5s0.5,0.2,0.5,0.5v56.1
	C676.2,130.6,676,130.9,675.6,130.9z"/>
<path class="st15" d="M389.7,97.2c0,0-62.6,30.7-67.2,53.2c-4.5,22.4,23.4,26.1,40.1,10.4C379.4,145.1,389.7,97.2,389.7,97.2z"/>
<ellipse class="st10" cx="407" cy="447.5" rx="93.1" ry="6.6"/>
<path class="st6" d="M466.6,433.3c3.2,2.7,6.3,8.3,7.1,9.9c2.5,5.6-1.2,8.4-6.5,8.6c-8.3,0.4-22.3-6.8-22.3-6.8s-1.2-3.4-0.7-8.9
	c0.1-1.2,1.7-4.1,3.7-4.9C452.8,429.5,455.1,423.7,466.6,433.3L466.6,433.3z"/>
<path class="st16" d="M462.4,432.5c0,0-6.9-4.1-10.8-0.4c-4.8,4.7-5.5,0.9-5.5,0.6c0-0.2-3.7-11.7-0.3-12.7c3.4-1,11.5,0.3,12.3,1.7
	C459,423.1,461.7,432.2,462.4,432.5z"/>
<path class="st6" d="M348.4,434.9c0,0-17.1,8.9-17.1,10.4c-0.2,3.8,5.9,5.1,14.7,4.7s15.7-3.1,15.7-3.1l2.1-2.6l-0.1,2.2l7.1-1.8
	c0,0,1.8-5.2,1.1-9.9c-0.1-1-1.6-3.5-3.5-4.1c-2.6-0.9-6.5-2.1-11-0.8c-0.5,0.1-1.2,1.7-1.2,1.7S351,433.7,348.4,434.9L348.4,434.9z
	"/>
<path class="st16" d="M356.1,431.8c0,0,1.9-1.5,3.9,0.1c1.3,1,5.6,4.9,6.3,3.7c2.3-3.7,3.7-3.4,3.7-3.6s2.7-10.1-0.3-10.8
	s-11.1-4.1-11.8-2.9C357.2,419.6,356.6,429.7,356.1,431.8L356.1,431.8z"/>
<path class="st17" d="M430,225.7l-37.5-14.9l-41,14.9l0.4,200.4c0,0,4.1,1.9,12.3,1.9c7.5,0,12.6-1.9,12.6-1.9l12.5-177.6
	l50.3,177.6c0,0,4.5,1.9,12.3,1.9c7.6,0,10.7-1.9,10.7-1.9S433.6,250.3,430,225.7L430,225.7z"/>
<path class="st15" d="M430.3,170.5c0.4-26.8,5.1-75.5-27-77.8c-32.2-2.3-44.5,80.1-44.5,80.1l-10.7,57.7c0,0,11.9,3.9,31.1,1.5
	c2.1-0.3,5.1-3.7,5.6-5.7l1.3-6.1l2.1,6c0.7,1.9,2.4,3.9,4.2,4.6c10.6,4.5,38.4,3.6,44.2-1.2C434.7,199.3,430.2,178.3,430.3,170.5
	L430.3,170.5z"/>
<path class="st15" d="M396.3,93.9c0,0,1.7-4.5,7.6-4.1c5.9,0.5,9.5,1.9,10.7,6.6c1.2,4.8,0.8,6.7,0.8,6.7l-20.6-3
	C394.8,100.1,393.9,96.3,396.3,93.9z"/>
<path class="st14" d="M400.7,93.4c0,0,3.3-1.5,7.2,0.3c3.9,1.8,4,4.8,2.3,10.2c-1.7,5.4-14.4,51.4-16.9,53.6
	c-1.8,1.6-0.9-30.8,2.8-50.2C397.6,99.9,397.7,94.6,400.7,93.4z"/>
<path class="st16" d="M414.1,76.7c0,0-1.8,5.6-2.4,11.3c-0.3,2.3-0.8,5.1-0.5,6.8c0.4,2.2-2.5,4-5.6,4.3c-0.9,0.1-1-2-2.1-2.2
	c-1.4-0.3-3.1,1.3-3.7,0.7c-1.3-1.4-0.7-3.4,0-4.7c1-2,3.6-11.8,4.1-12.6C404.5,79.4,413.1,75.2,414.1,76.7L414.1,76.7z"/>
<path class="st14" d="M399.5,92.5l2.7,3.6c0,0,9.3-3,9.5-2.4s0.1,3.5,0.2,4.3s-6.9,2.4-7.1,2.2c-0.3-0.2-1.7-3-2.2-2.9
	c-0.6,0.1-4,1.7-4.3,1.6c-0.3-0.2-0.2-2.5,0-3.8C398.4,93.8,399.5,92.5,399.5,92.5L399.5,92.5z"/>
<path class="st6" d="M386.5,219.5c-0.2,0-0.3-0.2-0.3-0.3l6.5-60.4c0-0.2,0.2-0.3,0.3-0.2c0.2,0,0.3,0.2,0.2,0.3l-6.5,60.4
	C386.7,219.4,386.6,219.5,386.5,219.5L386.5,219.5z"/>
<path class="st14" d="M387.1,182.8c-0.1,0.9-0.5,1.6-0.8,1.5c-0.3,0-0.5-0.8-0.4-1.7s0.5-1.6,0.8-1.5S387.2,182,387.1,182.8z"/>
<path class="st6" d="M401.2,89.1c1,0.1,2.1,0.1,3.2-0.1c3.6-0.7,7.3-5.2,7.3-5.2s-5.9,0.7-9.2,0.9C402.1,86.1,401.6,87.7,401.2,89.1
	z"/>
<path class="st14" d="M388.9,162.1c-0.1,0.9-0.5,1.6-0.8,1.5c-0.3,0-0.5-0.8-0.4-1.7s0.5-1.6,0.8-1.5
	C388.9,160.5,389,161.3,388.9,162.1z"/>
<path class="st6" d="M396.4,156.8c-0.1,0-0.1,0-0.2-0.1s-0.1-0.3,0-0.4c4.1-5.2,23.5-33.6,23-35.7c-0.1-0.2-0.2-0.3-0.2-0.3
	c-0.6-0.2-2.4,1.2-3.8,2.3c-1.4,1.1-2.6,2.1-3.4,2.2c-0.3,0-0.4-0.1-0.5-0.2c-0.2-0.4,0.2-1.2,2.3-3.9c2.1-2.8,5.4-7.1,5.1-9.1
	c-0.5-3.6-4-13.7-4-13.8c0-0.1,0-0.3,0.2-0.3c0.1-0.1,0.3,0,0.3,0.2c0.1,0.4,3.5,10.2,4,13.9c0.3,2.2-2.9,6.4-5.2,9.5
	c-0.9,1.3-2,2.7-2.2,3.2c0.7-0.2,1.9-1.2,3-2.1c1.7-1.4,3.4-2.7,4.3-2.4c0.2,0.1,0.5,0.2,0.6,0.7c0.7,2.6-19.8,32-23.1,36.2
	C396.5,156.8,396.4,156.8,396.4,156.8L396.4,156.8z M459.4,421.8c-0.1,0-0.1,0-0.2-0.1c-0.2-0.1-0.5-0.4-2.7-13
	c-1.2-6.6-2.3-13.3-2.5-14.9c-0.2-1-1.7-8.4-3.7-17.8c-4.5-21-11.2-52.7-11.9-58.8c-0.4-3-0.8-7.9-1.3-13c-1-10.4-2.2-22.1-3.1-27.2
	c-1.4-7.6-6.3-42.2-6.4-42.5c0-0.2,0.1-0.3,0.2-0.3s0.3,0.1,0.3,0.2c0,0.3,5,34.9,6.4,42.5c0.9,5.1,2.1,16.8,3.1,27.2
	c0.5,5.1,1,9.9,1.3,13c0.7,6.1,7.4,37.8,11.9,58.8c2.1,9.7,3.6,16.8,3.7,17.8c1,6.1,4.4,26.5,5.1,27.5c0.1,0.1,0.1,0.3,0,0.4
	C459.6,421.7,459.5,421.8,459.4,421.8L459.4,421.8z M390.9,156.6c-0.1,0-0.2-0.1-0.3-0.2c0-0.1-1.8-7.4-2.8-13.6
	c-0.9-5.9-3.8-28.1-3.4-29.2c0.1-0.2,0.3-0.2,0.3-0.3c0.4,0,0.6,0.4,1.8,3.5c0.7,1.8,2.2,5.4,2.7,5.6v-0.1c0.6-1.3-0.7-5-1.7-7.9
	c-0.5-1.3-0.9-2.6-1.2-3.6c0-0.1-0.1-0.6,8.4-15.4c0.1-0.1,0.2-0.2,0.4-0.1c0.1,0.1,0.2,0.2,0.1,0.4c-3.3,5.6-8.1,14.2-8.4,15
	c0.3,1,0.7,2.2,1.1,3.5c1.2,3.3,2.4,6.8,1.7,8.4c-0.2,0.4-0.4,0.4-0.5,0.4c-0.8,0-1.6-1.8-3.3-6c-0.4-1-0.8-2-1.1-2.6
	c0.1,3.7,2.4,21.8,3.4,28.4c1,6.2,2.8,13.5,2.8,13.6C391.2,156.4,391.1,156.5,390.9,156.6z M404.9,251.9c-10.6-3.6-34-4.6-34.2-4.6
	s-0.3-0.1-0.3-0.3s0.1-0.3,0.3-0.3c0.1,0,6,0.3,13.1,0.9c6.6,0.6,15.6,1.8,21.2,3.7c0.1,0,0.2,0.2,0.2,0.3
	C405.1,251.8,405,251.9,404.9,251.9L404.9,251.9z"/>
<path class="st6" d="M404.8,253.8c-2,0-6.8-1.5-9.9-2.5c-1.1-0.3-2-0.6-2.3-0.7c-0.1,0-0.2-0.2-0.2-0.3s0.2-0.2,0.3-0.2
	c0.4,0.1,1.3,0.4,2.4,0.7c3,0.9,8,2.5,9.8,2.4c1,0,1.1-0.3,1.1-0.3c0-0.1-0.2-0.4-0.4-0.6c-0.1-0.1-0.1-0.3-0.1-0.4
	c0.1-0.1,0.3-0.1,0.4-0.1c0.1,0.1,0.8,0.6,0.6,1.2C406.4,253.6,405.9,253.8,404.8,253.8C404.9,253.8,404.9,253.8,404.8,253.8
	L404.8,253.8z M369.3,250.7c-0.1,0-0.3-0.1-0.3-0.2c0-0.2,0.1-0.3,0.2-0.3c5-0.6,17.1-0.8,17.2-0.8s0.3,0.1,0.3,0.3
	s-0.1,0.3-0.3,0.3C386.4,249.9,374.3,250.1,369.3,250.7L369.3,250.7z M373.8,420c-0.2,0-0.3-0.1-0.3-0.3c0-0.1,0-0.8,0.1-2.2
	c0.2-4.5,0.6-15.1,0.8-23.1c0.1-8.7,3.4-37,4.7-49c0.2-2.1,0.4-3.7,0.5-4.4c0.5-4.8,2.3-51,2.1-61.6c-0.2-10.2,2.2-27.2,2.3-27.3
	c0-0.2,0.2-0.3,0.3-0.2c0.2,0,0.3,0.2,0.2,0.3c0,0.2-2.4,17.1-2.3,27.2c0.2,10.6-1.6,56.9-2.1,61.7c-0.1,0.8-0.3,2.3-0.5,4.4
	c-1.4,12.1-4.6,40.3-4.7,49c-0.1,8-0.6,18.6-0.8,23.2c-0.1,1.3-0.1,2.1-0.1,2.2C374,419.9,373.9,420,373.8,420L373.8,420z"/>
<path class="st18" d="M345.1,111.2c-0.8-0.2-1.4,0.3-1.4,1l1.4,0.3l-3,74l49.5,9.8l3.1-75.3L345.1,111.2z"/>
<path class="st14" d="M390.9,196.7l-49.5-9.8l3.7-79.6l48.8,9.7L390.9,196.7z"/>
<path class="st19" d="M390.2,197.4l-49.5-9.9l3-75.3l49.5,9.9L390.2,197.4z"/>
<path class="st15" d="M335.3,140.9c0,0,35.6-9.7,39.9-7c1.7,1.1,7.7,13.9,3.3,18.9c-1.8,2-13.3,8.7-25.8,13.4
	c-3,1.1-6.5,2.8-9.6,3.5C317.1,175.7,317.2,145.4,335.3,140.9L335.3,140.9z"/>
<path class="st14" d="M367.3,135.7c0,0,6.3-1.8,8.6-1.1s4,4.4,4.4,7.5s1.5,6.3,0,7.6s-10.8,3-12.2,0
	C366.7,146.7,364.9,136.9,367.3,135.7z"/>
<path class="st16" d="M377.8,137c0,0,0.8-3,2.5-4.4s2.7-1.9,3.6-3c1.4-1.7,2.7-5.7,3.4-4.2c1,2,1.1,3.2-1.4,6.7
	c-0.7,1,1.2,1.3-1,2.7C382.7,136.1,377.6,137.5,377.8,137z"/>
<path class="st16" d="M390.2,135.3c-0.9-0.4-1.3-0.7-0.7-0.9c0.6-0.2,5.8,2.2,6.4,1.2c0.6-0.9-3.3-4-4.6-4.6
	c-1.3-0.6-6.1,0.4-8.2,1.8c-1.2,0.9-2.6,1.9-3.6,2.2c-3.1,1-3,1.6-4.4,1.6c-8.2-0.5-3.1,9.5-0.4,9.8c1.5,0.2,5.7,0,7.2-0.4
	c2.2-0.5,2.4-1.6,4.4-2c2.1-0.4,5.7,1.4,6.4,0.4c0.7-0.9-1.4-3.6-1.4-3.6s3,1.6,4.1,0.8c1.2-0.8-0.7-2.1-0.7-2.1s3.2,1.1,2.8-0.6
	S391.2,135.6,390.2,135.3L390.2,135.3z"/>
<path class="st6" d="M327.4,145.7c-0.1,0-0.2,0-0.2-0.1c-0.1-0.1-0.1-0.3,0-0.4c7.2-6.1,15.3-6.5,15.4-6.5c0.2,0,0.3,0.1,0.3,0.3
	s-0.1,0.3-0.3,0.3C342.5,139.3,334.6,139.7,327.4,145.7C327.5,145.7,327.5,145.7,327.4,145.7L327.4,145.7z"/>
<path class="st6" d="M325.1,144.3c-0.1,0-0.2,0-0.2-0.1c-0.1-0.1-0.1-0.3,0.1-0.4c4.4-3.2,8.4-4.6,11-5.3c2.8-0.7,4.5-0.7,4.6-0.7
	c0.2,0,0.3,0.1,0.3,0.3s-0.1,0.3-0.3,0.3c-0.1,0-7-0.1-15.3,5.8C325.3,144.3,325.2,144.3,325.1,144.3L325.1,144.3z"/>
<path class="st20" d="M425.9,63.8c0,0,0.3,15.8-9.1,15.7c-6.2-0.1,1.6-18,3-19.4C421.1,58.8,425.9,63.8,425.9,63.8z M401,53
	c0,0-1.9,1.2-3.3,3.7s-2.7,6.6-1,7.7c1.7,1.1,8-7.2,7.7-9.1C404.1,53.3,401,53,401,53L401,53z"/>
<path class="st16" d="M421.9,69.7c-1-0.7-1.9-0.2-1.8-0.7c0,0,3-7.1,0.1-11.7c-2.9-4.7-12.7-7-16.9-3.6c-4.2,3.4-6.1,8.5-7.4,11.1
	c-0.6,1.2-2.2,5.3-3,7.5c-1.4,4.1-2.8,9.4,5.2,12.8c8.9,3.8,14.5-0.3,16.4-2.6c1.9-2.3,3.1-4.5,3.1-4.5s1.6,0.5,2.9-1
	S423.6,70.9,421.9,69.7L421.9,69.7z"/>
<path class="st6" d="M402.2,72.8c-1.8-0.3-3-0.9-3.3-1.8c-0.2-0.5,0-1.1,0.5-1.6c0.3-0.3,0.6-0.5,0.9-0.7c0.9-0.6,1.8-1.3,2.6-3
	c0.1-0.2,0.2-0.4,0.2-0.6c0.7-1.7,0.8-1.8-0.5-3.1c-1-1-3.8-1-3.9-1c-0.2,0-0.3-0.1-0.3-0.3s0.1-0.3,0.3-0.3c0.1,0,3.2,0,4.3,1.1
	c1.5,1.5,1.4,1.9,0.7,3.7c-0.1,0.2-0.2,0.4-0.2,0.5c-0.8,1.8-1.9,2.6-2.7,3.2c-0.3,0.2-0.6,0.4-0.9,0.7c-0.2,0.2-0.5,0.6-0.3,1
	c0.1,0.3,0.6,1.1,2.8,1.4c0.2,0,0.3,0.2,0.2,0.3C402.4,72.7,402.3,72.8,402.2,72.8L402.2,72.8z"/>
<path class="st0" d="M410.9,75.1c-0.5,1-2.3,1.3-3.9,0.5s-2.6-2.3-2-3.3c0.5-1,2.3-1.3,3.9-0.5C410.5,72.5,411.4,74,410.9,75.1z
	 M398.5,69.8c-0.5,1-1.9,1.4-3.1,0.8s-1.8-1.9-1.3-3c0.5-1,1.9-1.4,3.1-0.8S399,68.8,398.5,69.8z"/>
<path class="st6" d="M410,69.4h-0.1c-1.7-1.1-3.5-1.4-3.5-1.4c-0.1,0-0.3-0.2-0.2-0.3c0-0.1,0.2-0.3,0.3-0.2c0.1,0,1.9,0.3,3.7,1.4
	c0.1,0.1,0.2,0.2,0.1,0.4C410.1,69.4,410,69.4,410,69.4z"/>
<path class="st6" d="M406.5,68.5c0,0-1.5,1.5-0.3,2.1s2.3-0.9,1.9-1.5C407.8,68.6,407.2,68,406.5,68.5z M400.4,65.9
	c-0.1,0-0.1,0-0.2-0.1c-1.3-1.2-3.1-1-3.1-1c-0.1,0-0.3-0.1-0.3-0.2c0-0.2,0.1-0.3,0.2-0.3s2-0.3,3.5,1.1c0.1,0.1,0.1,0.3,0,0.4
	C400.5,65.9,400.5,65.9,400.4,65.9z"/>
<path class="st6" d="M397.2,64.9c0,0-1.5,1.5-0.3,2.1s2.3-0.9,1.9-1.5C398.5,65,397.9,64.4,397.2,64.9z M412.9,68.7
	c0,0,6.1-0.7,6.3-0.5c0.2,0.2,0.1,0.5-0.1,0.6c-0.1,0.2-6.7,1.7-6.7,1.7L412.9,68.7L412.9,68.7z"/>
<path class="st20" d="M418.5,58.1c0,0-0.6,4.9-0.3,6.6c0.3,1.7-2,7.3-1,7.8c1.2,0.7,2.5-1.8,3.9-3.6c1.3-1.8,3-4.7,1.4-6.2
	C420.8,61.4,418.8,57.9,418.5,58.1z"/>
<path class="st6" d="M405.8,67.7c0,0-1.6-1.2-2.7-1.5s-1.7-0.4-1.7-0.4l-0.5,0.8c0,0,3.1,0.7,3.7,1.4
	C405.1,68.8,405.8,67.7,405.8,67.7z"/>
<path class="st6" d="M413.9,68.8c-0.4-0.5-2.9-1.1-3.6-1.3c-0.7-0.3-3.6-1.4-4.7-0.6s-1.1,2.6-1.4,3.9s-0.3,2.8,2.7,3.5
	c1.8,0.4,3.4,0.8,5-0.8c0.8-0.8,1.1-2.5,1.2-2.6c0-0.2,0.8-0.7,0.8-0.7S414.2,69.3,413.9,68.8z M412.2,70.9c-1,4-3.6,3.3-5.2,2.9
	s-2.2-1.4-2.2-1.8s0-3.9,1.3-4.4s5.4,1.2,6.1,1.6C412.8,69.7,412.2,70.9,412.2,70.9L412.2,70.9z M397.3,62.8
	c-0.8-0.2-2.3-0.6-2.7-0.7c-0.4-0.1-0.4,0.5-0.6,1.2s0.5,0.8,0.8,0.7s-1.1,3.1-1.2,3.7c-0.1,0.7,0.9,2.3,3.6,2.8
	c2.7,0.4,4.5-3.9,4.9-4.4S399.1,63.2,397.3,62.8L397.3,62.8z M400.5,67.1c-1.6,3.7-3.4,2.6-4.6,2.1s-1.5-1.4-1.4-1.9
	c0.1-0.4,0.8-3.7,2-4.1c1.1-0.4,4,1.7,4.5,2.1C401.4,65.9,400.5,67.1,400.5,67.1z"/>
<path class="st20" d="M419.9,62c0,0-1.6-2-4.7-2.6c-3.1-0.5-4.6-0.2-7.9-1.5s-4.3-2.6-6.8-2.9c-2.4-0.3-4.9-7.3,0.7-10.3
	c5.5-3,11.5-2.1,13.5,0.9s2.5,4.8,4.7,6.3c2.2,1.6,7.9,1.7,9,4.8s-0.4,6.4-1.7,6.9C425.3,64.3,419.9,62,419.9,62L419.9,62z"/>
<path class="st6" d="M412.8,66.7c-0.1,0-0.1,0-0.2-0.1c0,0-2.2-2.2-4.7-2.6c-0.2,0-0.3-0.2-0.2-0.3c0-0.2,0.2-0.3,0.3-0.2
	c2.7,0.4,5,2.7,5,2.8c0.1,0.1,0.1,0.3,0,0.4C412.9,66.6,412.9,66.7,412.8,66.7L412.8,66.7z"/>
<path class="st14" d="M398.7,76.7c-3-1.2-2.4-4.4-2.4-4.4c2.1,1.9,8.4,3.1,8.4,3.1S404.5,79,398.7,76.7z"/>
<path class="st15" d="M421.2,102.2l50.6,34.9c0,0,58.2,11,60.5,15.1c2.3,4.2,4.4,11.1,2.2,15.4c-2.2,4.3-46.5,1.4-68.4-4.4
	c-21.3-5.6-37.4-25.8-42.2-37.3C419.1,114.3,421.2,102.2,421.2,102.2L421.2,102.2z"/>
<path class="st16" d="M532.6,163.8l4.8,0.6c0,0,5.5,7.5,7.9,9.1s12.6,4.6,12.5,4s-1-1.1-1-1.1s3.8,1.4,4.5,0.9l0.3-1
	c0,0,1.2-0.1,1.4-1.1c0.3-1-7.4-5.1-7.3-5.3c0.1-0.2,6.5,3.8,7.2,2.5c0.6-1.3-12.2-8-11.3-8.9s7.4,1.7,9.2-0.2
	c1.9-1.9-2.3-2-3.9-2.4c-1.6-0.5-10.2-4.5-12.9-5.2s-12.5-1.3-13.5,1S530.9,164,532.6,163.8L532.6,163.8z"/>
<path class="st14" d="M527,157.1c0,0,0.8-3.8,2-4.5c1.2-0.8,8.7-0.2,8.9,0.4c0.2,0.5,0,11.9-0.8,12.4s-8.6-0.8-9-1.4
	C527.6,163.3,526.4,160.3,527,157.1L527,157.1z M375.5,135.5c0,0-0.8,5.5,0.7,8.1c1.4,2.7,2.6,3.9,2.6,3.9s-5.2,3.5-8.5,0.5
	s-2.3-9.6-1-11.3S375.5,135.5,375.5,135.5L375.5,135.5z"/>
<path class="st6" d="M430.6,136.9c-0.1,0-0.2,0-0.2-0.1c-3.9-4.7-7.2-9.7-7.2-9.8c-0.1-0.1,0-0.3,0.1-0.4s0.3,0,0.4,0.1
	c0,0.1,3.3,5.1,7.2,9.7c0.1,0.1,0.1,0.3,0,0.4C430.7,136.9,430.6,136.9,430.6,136.9L430.6,136.9z M473.3,154c-0.1,0-0.3,0-0.4-0.1
	c-0.3-0.2-1.1-0.8-1.3-6.8v-2.6c-0.7,3.6-1.9,8.5-3,8.8c-0.1,0-0.4,0-0.6-0.2c-1.4-1.8,3.2-14.5,3.7-16c0.1-0.1,0.2-0.2,0.4-0.2
	c0.1,0.1,0.2,0.2,0.2,0.4c-2,5.4-4.7,14.3-3.8,15.5l0.1,0.1c0.6-0.1,2-4.5,3.2-11.5c0-0.1,0.2-0.2,0.3-0.2c0.1,0,0.3,0.1,0.2,0.3
	c-0.2,4.3,0,11.4,1.1,12.2c0.1,0,0.1,0.1,0.2,0c1.5-0.7,0.7-8.7-0.2-13.7c0-0.1,0.1-0.3,0.2-0.3s0.3,0.1,0.3,0.2
	c0.2,1.3,2.2,13.2-0.2,14.3C473.5,154,473.4,154,473.3,154L473.3,154z"/>
<ellipse class="st10" cx="165.1" cy="451.2" rx="151.8" ry="7.5"/>
<path class="st15" d="M172.8,446c2.9-0.4,5.3-1.7,6.7-2.5c-0.1-0.6,0.9-2.7-0.4-4.2c-1.4-1.7-3.5-0.6-7.7-1s-4.9-3-8.8-5.8
	s-1.7-11.1-3.5-11.7s-6.5,1.3-11.6,1.6c-5.1,0.3-6.5-0.2-6.5-0.2c-2.4,2.5,0,4.8,0.2,7.5c0.2,2.8-0.7,3.2-1.7,6.8s-0.5,6-0.5,6
	s4.9,1.7,11.4,2.8C156.9,446.3,168.3,446.6,172.8,446L172.8,446z"/>
<path class="st14" d="M179.6,443.6l-0.1-0.1c-1.4,0.9-3.8,2.1-6.7,2.5c-4.5,0.6-15.9,0.3-22.5-0.7c-6.5-1-11.4-2.8-11.4-2.8
	s-0.5,0.2-0.7,1s-1.2,4.2-0.5,4.8c0.7,0.7,8.6,1.1,10.3,1.3c1.6,0.1,1.3-1.7,1.9-2.3c0.6-0.5,4.6,0.2,6.3,0.5s0.7,0.5,0.8,1.2
	s1.1,0.4,4.3,0.5s14.6-1.5,16.2-1.7c1.6-0.2,2.6-1.2,2.8-2.4C180.4,444.2,179.9,443.9,179.6,443.6L179.6,443.6z"/>
<path class="st6" d="M155,426.7c0.3-0.6-0.2-4-0.4-5.5c-2.1,0.4-4.6,1-7.2,1.2c-2.3,0.1-3.8,0.1-4.8,0c0.4,1.9,1.3,5,2.2,5.6
	C146.3,428.8,154.7,427.4,155,426.7L155,426.7z"/>
<path class="st15" d="M39.4,446c-2.9-0.4-5.2-1.7-6.5-2.5c0.2-0.6-0.6-2.7,0.8-4.3c1.6-1.7,3.6-0.6,7.7-1c4.2-0.4,5.2-3,9.3-5.9
	c4.1-2.8,2.6-11.1,4.5-11.7c1.8-0.6,6.4,1.4,11.5,1.6s6.5-0.2,6.5-0.2c2.2,2.6-0.4,4.8-0.8,7.6s0.4,3.2,1.2,6.9c0.7,3.7,0,6.1,0,6.1
	s-5,1.7-11.6,2.8C55.2,446.3,43.8,446.7,39.4,446z"/>
<path class="st14" d="M32.8,443.6l0.1-0.1c1.3,0.9,3.6,2.1,6.5,2.5c4.5,0.6,15.8,0.3,22.5-0.7c6.6-1,11.6-2.8,11.6-2.8
	s0.5,0.2,0.6,1s0.8,4.2,0.1,4.9c-0.7,0.7-8.7,1.1-10.3,1.3c-1.6,0.1-1.2-1.7-1.7-2.3c-0.5-0.5-4.6,0.2-6.3,0.5s-0.7,0.5-0.9,1.2
	s-1.1,0.4-4.3,0.5s-14.4-1.5-16.1-1.7c-1.6-0.2-2.5-1.2-2.6-2.5S32.4,444,32.8,443.6z"/>
<path class="st6" d="M58.7,426.7c-0.2-0.6,0.5-4,0.8-5.5c2,0.5,4.5,1,7.1,1.2c2.2,0.1,3.8,0.1,4.8,0c-0.6,1.9-1.7,5-2.7,5.6
	C67.2,428.8,59,427.4,58.7,426.7L58.7,426.7z"/>
<path class="st21" d="M257.7,180.9c0,0,18.1-5.2,20,2.5c1.9,7.8,7.6,22.8,0.9,23.5s-18.5,1.1-20.9-5.2S257.7,180.9,257.7,180.9z"/>
<path class="st22" d="M232.3,78.8c0,0,1.3,8.4,4.2,14.5s7.3,8.8,10.7,13.4s1.8,16.4-1.8,24.2s-30.6,7.9-38.3,5.5
	c-7.7-2.5-8.4-14.4-5.8-21.5c2.6-7,2.1-22.5,2.1-22.5L232.3,78.8L232.3,78.8z"/>
<path class="st12" d="M130.3,92.1l55.1,31.7c0,0,44-21,53.3-15.1c2.3,1.5,9.1,6.4,7.1,11.6c-5.9,15.5-37.9,30.3-60.3,30.9
	c-18.5,0.5-43.7-19.7-54.2-37.1C124.7,103.4,130.3,92.1,130.3,92.1z"/>
<path class="st16" d="M283.9,184.8c0,0-0.9,0.1-2.2-1.4c-1.3-1.5-1.3-3.8-2.7-2.8c-1.3,1,0.4,7.2,1.8,7.3
	C282.4,188,284.9,186.1,283.9,184.8L283.9,184.8z"/>
<path class="st2" d="M290.3,210l-3.1-11.8c0,0-14.4-29.9-21.5-46.5s-20.5-31.2-20.5-31.2v6.8l33.4,76.2L290.3,210z"/>
<path class="st21" d="M230,109.6c0,0,9.8,2.8,16.7,11.7c11.8,15.2,13.4,33.6,14.7,40.5s6.5,31.1,7.8,50.6c0.6,9.2,8.8,81.7,8.5,86.6
	c-0.3,5-62.1,3.4-68.4,1.7C203,299,237,164.9,236.5,152.5C236,140.2,230,109.6,230,109.6L230,109.6z"/>
<path class="st16" d="M232.4,127.2c6.2-0.2,3.6-11.1,0.8-15.5c-2.2-1.6-3.8-2.4-3.9-2.5c-6.9-5.3-6.9-19.1-6.9-19.1
	s-11.1,0.5-8.4,7.8c1.5,4.1-0.1,9.9-2.7,15.6C214.5,118.3,226.1,127.4,232.4,127.2L232.4,127.2z"/>
<path class="st14" d="M253.2,170.5c0-22.2-4-32.5-7-38.8c-2.9-6.1-5.7-13.9-7.4-15.5c-2-1.8-3.9-3.3-5.5-4.5
	c0.7,5.2,3.8,12.8-2.5,13c-6.2,0.2-16.2-6.4-19.5-11.3c-0.4,0.8-0.7,1.6-1.1,2.4c-4.1,7-8.2,14.2-8.5,16.6
	c-1.8,12.2-1.5,29.8-1.9,46.1c-0.2,5.4-0.4,10.6-0.8,15.4c14.9,3.4,47.6,0.4,55.7-0.4C254.3,191.9,253.2,174.4,253.2,170.5z"/>
<path class="st6" d="M224.5,102c-0.6-1.6-1-3.3-1.3-4.8l-7.7,0.3C215.4,97.4,220.7,101.9,224.5,102z"/>
<path class="st16" d="M278.6,432.7c1.5,12.5-15.3,14.5-16.1,0.2c-0.1-1.9-2.9-15.3-3.9-22.4c7.5-1.8,12.9-2,17.5-3.1
	C276.1,415.9,278.3,430.4,278.6,432.7z"/>
<path class="st7" d="M304,444.9c-1.3-1.6-7.3-1.1-9.5-1.8c-2.2-0.8-12.6-11.9-16.1-11.8c-2.8,0.1-3.2,0.1-3.2,0.1s-3.3,0.5-4.5,1
	s0.8,5.3-1.9,6.3s-3.3-2.5-3.6-4.4c-0.3-1.9-3-1.4-3-1.4c0.1,0.7-4.2,4.3-4.7,6.6s-0.9,3.3-0.9,3.3s-1.8,2.5-3.2,6
	c-1.4,3.6,6,5,9.2,5.2s3.3-2.4,5.6-2c2.3,0.4,0.6,2.2,2.7,2.3c2,0.1,23.7-0.5,27.3-1.2C301.8,452.5,305.2,446.5,304,444.9L304,444.9
	z"/>
<path class="st14" d="M273.6,433.8c0,0,5.6-1.6,6.5-1s5.8,4.1,5.9,4.6c0.1,0.6-5,2.8-6.1,1.9S273.6,433.8,273.6,433.8z M281,450.7
	c-2.9,0-6.6-1-9.6-1.8c-2.2-0.6-4-1.1-5.1-1.1c-3.1-0.1-7.8-5.3-8-5.5c-0.1-0.1-0.1-0.3,0-0.4s0.3-0.1,0.4,0c0,0.1,4.8,5.3,7.6,5.4
	c1.2,0,3.1,0.6,5.3,1.2c3.5,1,7.8,2.2,10.7,1.7c1.1-0.1,2-0.2,2.8-0.3c2.9-0.3,4.6-0.5,7.1-2.6c3.3-2.8,5.1-2.8,5.2-2.8
	s0.3,0.1,0.3,0.3c0,0.2-0.1,0.3-0.3,0.3c0,0-1.8,0.1-4.9,2.7c-2.6,2.2-4.4,2.4-7.4,2.7c-0.8,0.1-1.7,0.2-2.8,0.3
	C282,450.7,281.5,450.7,281,450.7L281,450.7z"/>
<path class="st16" d="M193.5,432.7c1.5,12.5-15.3,14.5-16.1,0.2c-0.1-1.9,0.9-15.3-0.1-22.4c7.5-1.8,12.9-2,17.5-3.1
	C194.8,415.9,193.2,430.4,193.5,432.7L193.5,432.7z"/>
<path class="st7" d="M218.9,444.9c-1.3-1.6-7.3-1.1-9.5-1.8c-2.2-0.8-12.6-11.9-16.1-11.8c-2.8,0.1-3.2,0.1-3.2,0.1s-3.3,0.5-4.5,1
	s0.8,5.3-1.9,6.3s-3.3-2.5-3.6-4.4s-3-1.4-3-1.4c0.1,0.7-4.2,4.3-4.7,6.6s-0.9,3.3-0.9,3.3s-1.8,2.5-3.2,6c-1.4,3.6,6,5,9.2,5.2
	s3.3-2.4,5.6-2s0.6,2.2,2.7,2.3c2,0.1,23.7-0.5,27.3-1.2C216.7,452.5,220.1,446.5,218.9,444.9L218.9,444.9z"/>
<path class="st14" d="M188.6,433.8c0,0,5.6-1.6,6.5-1s5.8,4.1,5.9,4.6c0.1,0.6-5,2.8-6.1,1.9C193.7,438.5,188.6,433.8,188.6,433.8
	L188.6,433.8z M195.9,450.7c-2.9,0-6.6-1-9.6-1.8c-2.2-0.6-4-1.1-5.1-1.1c-3.1-0.1-7.8-5.3-8-5.5c-0.1-0.1-0.1-0.3,0-0.4
	s0.3-0.1,0.4,0c0,0.1,4.8,5.3,7.6,5.4c1.2,0,3.1,0.6,5.3,1.2c3.5,1,7.8,2.2,10.7,1.7c1.1-0.1,2-0.2,2.8-0.3c2.9-0.3,4.6-0.5,7.1-2.6
	c3.3-2.8,5.1-2.8,5.2-2.8c0.1,0,0.3,0.1,0.3,0.3c0,0.2-0.1,0.3-0.3,0.3c0,0-1.7,0.1-4.9,2.7c-2.6,2.2-4.4,2.4-7.4,2.7
	c-0.8,0.1-1.7,0.2-2.8,0.3C196.9,450.7,196.4,450.7,195.9,450.7L195.9,450.7z"/>
<path class="st6" d="M254.5,193.6c-8.1-0.7-41.2,4.9-55.2-1.3c-1.8,6.2-3.7,11.6-6,15.9c-12.2,22.5-13.9,147.9-21.5,211.5
	c0.1,4.7,37.3,12.9,51,7.2c1.2-35.7-0.1-144,2.9-161.3c4.3,11.5,9.1,122.7,8,159.6c7.3,0.7,42.2-3.2,45.9-4.9
	C279.4,391.8,255.5,205.8,254.5,193.6L254.5,193.6z"/>
<path class="st21" d="M212.7,110c0,0,4.6,23.5,3.8,40.1c-0.8,16.5,12.9,129.6-2.3,151.1c0,0-30.6,5.2-43.7-3.8
	c0,0,26.7-162.5,30.9-171.8C205.5,116.4,212.7,110,212.7,110L212.7,110z"/>
<path class="st16" d="M208.5,92.2c0,0-0.6,0.9-2.2,0.1c-1.3-0.6-3.1-4.9-2.4-6.1s2.1-0.5,2.4-0.6c0.3-0.2-2.1-5.1-1.3-8.7
	c0.7-3.6,3-7.4,8.2-8.5c5.1-1.1,8.5,0.9,10.7,2.6c2.3,1.7,3.7,6,4.5,8.1c0.8,2,1.5,2.5,2.2,3.5c1.6,2.3,2.5,4.1,2.6,7.3
	c0.1,3.2-2.2,7-7.1,8.3C221,99.5,212.4,99.4,208.5,92.2L208.5,92.2z"/>
<path class="st6" d="M222.8,87.6c0.5,0,1.1-0.2,1.8-0.4c0.5-0.2,1.1-0.4,1.2-0.9c0.1-0.5-0.2-1-1.2-1.9c-1.4-1.3-2.2-3.5-2.5-4.2
	c0,0-0.7-1.4-0.3-2.4c0.2-0.4,0.6-0.7,1.1-0.9c1.1-0.4,3-0.9,3.5-0.8c0.1,0,0.2,0,0.3-0.1c0-0.1,0-0.2-0.1-0.3
	c-0.7-0.3-3.2,0.6-3.8,0.8c-0.7,0.2-1.2,0.6-1.4,1.2c-0.5,1.1,0.2,2.5,0.3,2.7c0.3,0.9,1.2,3,2.6,4.3c0.8,0.7,1.1,1.2,1,1.4
	c0,0.2-0.3,0.4-0.9,0.6c-1.4,0.5-2.1,0.6-2.5-0.1c-0.1-0.1-0.2-0.1-0.3-0.1c-0.1,0.1-0.1,0.2-0.1,0.3
	C221.8,87.4,222.2,87.6,222.8,87.6L222.8,87.6z M214.4,80.9c0.1,0,0.1,0,0.2-0.1c0,0,1.5-1.4,3.7-2c0.1,0,0.2-0.2,0.2-0.3
	c0-0.1-0.2-0.2-0.3-0.2c-2.3,0.6-3.8,2-3.9,2.1c-0.1,0.1-0.1,0.2,0,0.3C214.2,80.9,214.3,80.9,214.4,80.9z"/>
<path class="st14" d="M228.3,87.9c0,0,0,2.1-2.6,3.1s-5-1.1-5-1.1L228.3,87.9z"/>
<path class="st6" d="M217.8,81.9c0.6-0.2,1.2,0.1,1.4,0.7c0.2,0.5,0.5,1.2,0.3,1.7c-0.3,1-1.5,0.7-2,0.5c-0.4-0.3-0.5-1.9-0.4-2.1
	C217.2,82.3,217.4,82.1,217.8,81.9z"/>
<path class="st6" d="M215.7,83.2c-0.1-0.1-0.1-0.2,0-0.3c0,0,0.9-0.8,1.5-1.1c0.5-0.2,1.8-0.5,2-0.1c0.1,0.1,0,0.2-0.1,0.3
	c-0.1,0.1-0.2,0-0.3,0c-0.2,0-0.9,0-1.5,0.3c-0.6,0.2-1.4,1-1.4,1l-0.1,0.1C215.8,83.3,215.7,83.3,215.7,83.2L215.7,83.2z M218.9,82
	C218.9,81.9,218.9,81.9,218.9,82C218.9,81.9,218.9,81.9,218.9,82z"/>
<path class="st11" d="M171.6,115.8c-2.7,4-6.6,8.8-9.6,9.6c-0.7,0.2-1.2,0.1-1.7-0.4c-3.5-2.9-2.2-10.7-0.7-16.1l-5-2.9
	c-0.6,1.8-1.2,4.1-1.6,6.5c-1.4,7.9-0.2,13.5,3.7,16.8c1.4,1.2,3,1.8,4.8,1.8c1,0,1.9-0.2,2.9-0.5c3.3-1.2,6.9-4.5,10.7-9.8
	c0.4-0.6,0.9-1.3,1.5-2.1L171.6,115.8L171.6,115.8z"/>
<path class="st6" d="M226.2,79.4c0.5-0.2,1.1,0.1,1.3,0.7c0.2,0.5,0.5,1.2,0.3,1.7c-0.3,0.9-1.4,0.7-1.7,0.4
	c-0.4-0.3-0.5-1.9-0.5-2.1C225.7,79.7,225.9,79.5,226.2,79.4L226.2,79.4z"/>
<path class="st6" d="M224.2,80.9c-0.1-0.1-0.2-0.2-0.1-0.3c0-0.1,0.4-0.7,1.7-1.2c0.8-0.3,1.7-0.4,1.9-0.1c0.1,0.1,0,0.2-0.1,0.3
	c-0.1,0.1-0.2,0-0.3,0s-0.6,0-1.4,0.2c-1.2,0.4-1.5,1-1.5,1C224.4,80.9,224.3,80.9,224.2,80.9L224.2,80.9z"/>
<path class="st0" d="M218.6,85.9c0,0-3.6,0.2-4.2,1.6c-0.6,1.4,3.4,1.2,5.2,0.3C221.4,86.9,219.5,85.8,218.6,85.9z M229.5,82.2
	c0,0-2.6,0.4-2.7,1.7c-0.1,1.3,2.8,0.9,3.9,0S230.2,82.1,229.5,82.2z"/>
<path class="st22" d="M222.5,74.1c0,0,4,1.9,10.4,8.2c0,0,0.3-3.3-2.2-5.4C227.8,74.3,226.8,73.5,222.5,74.1z M202.1,87.6
	c0,0,2.6,13.7,5.4,11.9c2.8-1.7,6.8,2.3,6.8,2.3S213.4,91,213,89.6c-0.3-1.4-0.2-5.9,1.7-8.7c1.9-2.7,2.4-4.3-0.9-5
	C210.7,75.2,203.3,82.5,202.1,87.6z"/>
<path class="st15" d="M228.5,75.2c0,0-2.1-0.2-5.1,0c-6.9,0.5-12,4.9-16.6,10l-4.8,3.9c0,0-2.7-6-2.4-8.4c0.4-2.5,1.4-4.9,1.4-4.9
	s1.6-3.6,1-5.8c-0.5-2.1-1.1-5.5,1-7.1c2.7-2.1,6.8-2.2,8.1-1.5s4.9,2.6,6.1,2.9s4.4,1.1,6.1,1.6C224.8,66.6,228.8,71.4,228.5,75.2z
	"/>
<path class="st11" d="M200.4,79.4c0.1,0,0.1,0,0.2-0.1s6.4-7.6,11.5-9.8c5-2.2,10.5-2.9,10.6-2.9s0.2-0.1,0.2-0.3
	c0-0.1-0.1-0.2-0.3-0.2c-0.1,0-5.6,0.7-10.7,2.9s-11.4,9.6-11.6,9.9c-0.1,0.1-0.1,0.2,0,0.3C200.3,79.4,200.3,79.4,200.4,79.4z
	 M167.1,146.4c-2.9-9.7-25.4-40.9-25.4-40.9l2.5,24.5C151.1,136.6,159.1,142.5,167.1,146.4z"/>
<path class="st14" d="M219.4,81.1c0,0,1.4-1,2.3-1.2c0.9-0.2,1.4-0.2,1.4-0.2l0.4,0.9c0,0-2.6,0.4-3.1,1.1
	C219.9,82.3,219.4,81.1,219.4,81.1L219.4,81.1z"/>
<path class="st14" d="M211.7,85.1c0,0,0.9,0.4,0.9,0.5c0.1,0.2,0.7,1.7,1.6,2.4c1.9,1.3,3.3,0.7,5-0.1c2.8-1.2,2.5-2.7,2-3.9
	c-0.5-1.2-0.8-3-2.1-3.6c-1.2-0.6-3.9,1-4.5,1.4s-3,1.4-3.3,2C211.2,84.4,211.7,85.1,211.7,85.1L211.7,85.1z M213.3,83.9
	c0.6-0.5,4.4-2.9,5.7-2.7c1.3,0.2,2,3.6,2.1,4c0,0.4-0.4,1.5-1.9,2.2s-4,1.8-5.7-1.9C213.5,85.6,212.7,84.5,213.3,83.9L213.3,83.9z
	 M222.7,80.1c0.4,0.5,1.9,4.9,4.6,4.7c2.7-0.2,3.8-1.8,3.7-2.5c0-0.7-1.3-3.9-1-3.8s1,0,0.9-0.7c-0.2-0.7-0.1-1.3-0.5-1.2
	c-0.4,0.1-1.9,0.4-2.7,0.5C225.9,77.5,222.3,79.6,222.7,80.1z M223.8,79.6c0.5-0.4,3.5-2.3,4.6-1.8c1.1,0.4,1.6,3.7,1.7,4.2
	c0,0.4-0.3,1.3-1.5,1.8c-1.2,0.4-3.1,1.4-4.4-2.4C224.2,81.3,223.4,80,223.8,79.6L223.8,79.6z M183,143.3h-0.1
	c-0.3-0.1-0.4-0.2,0.9-9.1c0.6-4.3,1.3-8.6,1.4-8.7c0-0.1,0.2-0.3,0.3-0.2c0.1,0,0.3,0.2,0.2,0.3c-0.8,4.9-1.8,11.6-2.3,15.1
	c0.7-2.9,1.8-7.9,2.5-11.4c0-0.1,0.1-0.2,0.3-0.2c0.1,0,0.2,0.1,0.3,0.2c0.5,4.5,1.5,11.8,2,12.8c0.1,0,0.1,0,0.1,0.1
	c0.1,0.1,0.1,0.3,0,0.4c-0.1,0.1-0.2,0.1-0.3,0.1c-0.2-0.1-0.6-0.2-1.5-6.8c-0.3-1.8-0.5-3.5-0.6-4.8c-2.5,12-2.9,12.2-3,12.2
	L183,143.3L183,143.3z M178.8,141.6c-0.2,0-0.3-0.1-0.3-0.3c0.6-15.4,6.2-17.7,6.5-17.8c0.1-0.1,0.3,0,0.4,0.2
	c0.1,0.1,0,0.3-0.2,0.4c-0.1,0-5.6,2.3-6.1,17.3C179.1,141.5,179,141.6,178.8,141.6L178.8,141.6z"/>
<path class="st2" d="M129.1,48.5c0,0,0.4,4.3-0.1,7c-0.4,2.7-0.5,3.5-1.7,2.8s-2.4-7.3-1.4-8.9C126.8,47.7,128.5,47.3,129.1,48.5z
	 M103.9,45.4c0,0-3.7,2.1-4.6,6.7s6.2,19.7,9.3,19.9C111.7,72.3,112.7,44.2,103.9,45.4z"/>
<path class="st6" d="M83.6,223.1l37.5-14.9l41,14.9l-0.4,200.3c0,0-4.1,1.9-12.3,1.9c-7.5,0-12.6-1.9-12.6-1.9l-12.5-177.6
	L81.6,424.6c0,0-6.6,1.8-14.3,1.8c-7.6,0-13.8-3-13.8-3S80,247.7,83.6,223.1z"/>
<path class="st6" d="M133.6,236.8c13.2,0.2,22.6,0,28.4-0.3v-13.4l-10.3-3.7L90.8,226C90.8,226,109.5,236.4,133.6,236.8L133.6,236.8
	z"/>
<path class="st14" d="M56.7,419.1c-0.1,0-0.2,0-0.2-0.1c-0.1-0.1-0.1-0.2,0-0.3c0.7-1.9,11.6-67.5,18.2-106.8
	c3.1-18.3,5.5-32.8,5.9-35.2c1.4-7.6,6.5-49.3,6.5-49.7c0-0.2,0.2-0.3,0.3-0.2c0.2,0,0.3,0.2,0.2,0.3c-0.1,0.4-5.1,42.2-6.5,49.8
	c-0.4,2.4-2.8,16.8-5.9,35.2c-3.5,21.2-7.9,47.7-11.6,69.1c-6.4,37.7-6.6,37.9-6.8,38C56.8,419.1,56.7,419.1,56.7,419.1L56.7,419.1z
	"/>
<path class="st12" d="M85,162.6c0.5-26.8,0.5-75.2,32.7-76.5s42.3,86.3,42.3,86.3l5.4,55.4c0,0-31.2,3-41.6,2.8
	C80,229.9,80,225.2,80,225.2C81.8,195,84.8,170.4,85,162.6L85,162.6z"/>
<path class="st11" d="M140.4,114.2c-12-2.3-18.9-10-18.5-14.6c0.2-2.6,2.3-6.9,5.2-11.1c-1.7-1-3.5-1.6-5.4-2
	c-2.9,4.5-5.2,9.1-5.4,12.7c-0.3,4.1,2,8.6,6.2,12.5c4.3,3.9,10.3,6.8,16.9,8.1c2.4,0.4,5.1,0.1,8.2-0.9c-0.7-1.8-1.3-3.5-2.1-5.2
	C143.1,114.3,141.5,114.4,140.4,114.2L140.4,114.2z"/>
<path class="st16" d="M107.5,69.8c0,0,1.6,5.7,2,11.4c0.2,2.3,0.6,5.1,0.2,6.8c-0.5,2.2,2.4,4.1,5.4,4.5c0.9,0.1,1.1-2,2.2-2.1
	c1.4-0.2,3.1,1.4,3.7,0.8c1.3-1.3,0.8-3.3,0.1-4.7c-0.9-2-3.2-11.9-3.7-12.7S108.6,68.3,107.5,69.8L107.5,69.8z"/>
<path class="st14" d="M121.5,86l-2.8,3.5c0,0-9.2-3.3-9.4-2.7c-0.2,0.6-0.2,3.5-0.3,4.3c-0.1,0.8,6.8,2.6,7.1,2.4
	c0.3-0.2,1.7-2.9,2.3-2.8c0.6,0.1,4,1.9,4.2,1.7c0.3-0.1,0.3-2.5,0.2-3.8C122.6,87.4,121.5,86,121.5,86L121.5,86z"/>
<path class="st6" d="M120.5,84.4c-0.4-1.2-0.8-2.8-1.2-4.3c-3.1-0.2-7.3-0.6-7.3-0.6s1,4,4.6,4.8C118,84.6,119.4,84.6,120.5,84.4z"
	/>
<path class="st16" d="M127.9,51.4c0,0,0.3,4.3,0.8,7.4c0.2,1.1,0.5,2.6,0.6,3.2c0.4,2.3,1.5,3.9,1.6,7.4s-0.5,10.4-6.9,11.4
	s-12.9-1.8-14.5-5.2c-1.6-3.5-2.6-7.3-2.6-7.3s-2,0.3-3.2-2.2s-2.6-5.9-0.3-6.4c2.3-0.5,2.9,0.7,3.4,0.5s0.5-7.2,3.4-8.3
	C113.1,51,125.9,48.3,127.9,51.4z"/>
<path class="st2" d="M128.2,67.6c1.6-0.1,0.5-4.3,0.7-5.6c0.2-1.2,2.1,4.6,2,5.6c-0.1,1.1,1.2,7.8-0.7,10.4s-6.2,4.6-11.5,4.5
	s-7.1-2.1-7.5-2.6c-0.4-0.6-1.7-4.3-2.4-7.3c-0.9-3.6-2-7.5-1.5-8s2.1,4.4,4,5.9c1.8,1.4,7.4-4.4,13.9-3.8
	C127.4,67,127.5,67.6,128.2,67.6z"/>
<path class="st16" d="M128.3,68.7c0,0,0-0.8-2.3-0.6c-2.3,0.3-2.6,0.9-4.6,0.9c-1.9,0-2.9-0.5-3.5,0.4s0.6,1.6,0.8,2.3
	c0.2,0.7,1.6,2.5,2.7,2.1s0.2-1.2,1-1.5s2.6-1.1,3.4-0.7s0,0.9,1.2,1.1C128,72.9,128.4,70.7,128.3,68.7z M124.6,64.4
	c0,0,1.1,2.3,0.3,2.9c-0.8,0.5-2.1,0.8-2.7,0.4s-0.9-2.6,0-3.5C123.1,63.2,124.2,63.5,124.6,64.4z"/>
<path class="st6" d="M123.6,68.1c-0.4,0-0.9-0.1-1.5-0.3c-0.1,0-0.2-0.2-0.2-0.3c0-0.1,0.2-0.2,0.3-0.2c2.1,0.6,2.4,0,2.7-0.6
	c0.1-0.3-0.3-1.1-0.7-1.8c-0.5-1.1-1.2-2.4-1.3-3.7v-0.1c-0.1-1.7-0.3-3.5,0.4-4.3c0.7-0.9,3.7-0.8,4.3-0.8c0.2,0,0.3,0.1,0.3,0.3
	s-0.1,0.3-0.3,0.3c-1.4,0-3.5,0.2-3.9,0.6c-0.6,0.7-0.4,2.4-0.3,3.9v0.1c0.1,1.2,0.8,2.5,1.3,3.5c0.6,1.1,0.9,1.9,0.7,2.4
	C125.1,67.6,124.7,68.1,123.6,68.1z M112.7,58.7c-0.1,0-0.2-0.1-0.2-0.2c-0.1-0.1,0-0.3,0.1-0.4c3.5-1.7,5.8-0.8,5.9-0.8
	c0.1,0.1,0.2,0.2,0.2,0.4c-0.1,0.1-0.2,0.2-0.4,0.2C118.3,57.9,116.1,57.1,112.7,58.7L112.7,58.7z M114.5,61.9c-0.1,0-0.1,0-0.2-0.1
	s-0.1-0.3,0-0.4c0,0,2.2-2.2,4.4-0.7c0.1,0.1,0.2,0.3,0.1,0.4c-0.1,0.1-0.3,0.2-0.4,0.1c-1.8-1.3-3.7,0.6-3.7,0.6
	C114.7,61.9,114.6,61.9,114.5,61.9z"/>
<path class="st6" d="M116.4,61c0,0-0.2,1.4,0.5,1.7c0.7,0.4,1.1-0.2,1.2-0.6c0.1-0.4,0.1-1.5-0.4-1.5
	C117.4,60.5,116.6,60.8,116.4,61z M124.4,60.5c-0.1,0-0.1,0-0.2-0.1s-0.1-0.3,0-0.4c0.7-0.6,2.3-1.5,3.7-0.2c0.1,0.1,0.1,0.3,0,0.4
	c-0.1,0.1-0.3,0.1-0.4,0C126.1,59,124.6,60.4,124.4,60.5C124.5,60.4,124.5,60.5,124.4,60.5z"/>
<path class="st6" d="M126.2,59.9c0,0-0.1,1.3,0.5,1.6s0.8-0.1,0.9-0.5s0-1.3-0.3-1.4C126.9,59.5,126.2,59.6,126.2,59.9z"/>
<path class="st14" d="M108.6,249.3c-0.1,0-0.2-0.1-0.3-0.2c0-0.1,0-0.3,0.2-0.3c5.5-1.9,14.6-3,21.2-3.7c7.1-0.7,13-0.9,13.1-0.9
	c0.2,0,0.3,0.1,0.3,0.3s-0.1,0.3-0.3,0.3C142.6,244.7,119.3,245.7,108.6,249.3C108.7,249.3,108.7,249.3,108.6,249.3L108.6,249.3z"/>
<path class="st14" d="M108.7,251.2c-1.1,0-1.6-0.2-1.7-0.6c-0.2-0.5,0.5-1.1,0.6-1.2c0.1-0.1,0.3-0.1,0.4,0.1
	c0.1,0.1,0.1,0.3-0.1,0.4c-0.2,0.2-0.5,0.5-0.4,0.6c0,0,0.1,0.2,1.1,0.3c1.8,0,6.8-1.5,9.8-2.4c1.1-0.3,2-0.6,2.4-0.7
	c0.1,0,0.3,0.1,0.3,0.2s-0.1,0.3-0.2,0.3c-0.4,0.1-1.2,0.4-2.3,0.7C115.5,249.8,110.7,251.2,108.7,251.2L108.7,251.2z M144.3,248.1
	C144.3,248.1,144.2,248.1,144.3,248.1c-5-0.6-17.1-0.8-17.2-0.8c-0.2,0-0.3-0.1-0.3-0.3s0.1-0.3,0.3-0.3c0.1,0,12.2,0.1,17.2,0.8
	c0.2,0,0.3,0.2,0.2,0.3C144.5,248,144.4,248.1,144.3,248.1z"/>
<path class="st11" d="M113,207.3l-0.2-0.8c-2.3-7.6-5.6-18-14.7-23c-5.7-3.2-11.1-3.3-14.5-2.8c-0.2,1.8-0.4,3.8-0.5,5.8
	c2.2-0.5,7-1,12.4,1.9c7.1,3.9,9.8,12.7,12,19.8l0.2,0.8c1.6,5.1,2.3,15.8,2.6,21.3c1.8,0.1,3.7,0.1,5.7,0.2
	C115.6,225,114.9,213.3,113,207.3z"/>
<path class="st11" d="M102.6,229.9c0.2-6.9-0.3-17.3-4.5-24.9c-4.3-7.9-11-10.4-15.9-10.7c-0.2,1.8-0.3,3.7-0.5,5.6
	c2.9,0.2,8,1.4,11.4,7.8c3.5,6.3,3.9,15.5,3.8,21.7C98.7,229.6,100.6,229.7,102.6,229.9L102.6,229.9z M138.3,182.1
	c4-11.3,15-17.5,20.2-19.9c-0.3-1.7-0.6-3.7-1-5.7c-5.2,2.2-19.4,9.3-24.5,23.7c-2.6,7.4-1.3,19.2,4,35.2c1.8,5.6,3.8,10.6,5.4,14.4
	c2-0.1,4-0.3,5.9-0.4C142.8,216.6,134.5,193,138.3,182.1L138.3,182.1z"/>
<path class="st11" d="M162.9,201.9c-4.1-3.5-7.5-7.5-7.2-10.6c0.4-4.2,3.1-6.9,5.4-8.5l-0.6-6.2c-3.4,1.7-9.6,5.9-10.4,14.1
	c-0.5,4.9,2.9,10.4,10.1,16.2c1.2,0.9,2.3,1.8,3.4,2.6L162.9,201.9z M108,158.9c0.5,0,0.9,0.1,1.4,0.1c4.3,0,8.3-1.9,10.4-5
	c4.3-6.3,2.1-13.7-2.3-17.7c-4.2-3.9-12.8-1.2-14.5-0.6l-0.2,0.1c-0.5,0.2-4.7,2.1-6.4,6.5c-1.1,2.7-0.9,5.7,0.4,8.8
	C98.8,155.4,103,158.4,108,158.9L108,158.9z M102.4,142.9c1-1.2,2.3-1.9,2.6-2c2.9-1,7.5-1.6,8.7-0.5c1.8,1.7,4.4,6,1.5,10.4
	c-1.2,1.8-3.9,2.8-6.6,2.5c-1.4-0.1-4.9-0.9-6.6-4.6C101,146.4,101.1,144.5,102.4,142.9L102.4,142.9z"/>
<path class="st11" d="M133.5,153.4c0.5-5.8-0.9-12.3-3.9-18.3c-2.9-5.8-12-10.4-27.8-13.9c-4.9-1.1-9.6-1.9-13.3-2.5
	c-0.4,1.8-0.7,3.7-1,5.5c3.7,0.6,8.4,1.4,13.1,2.4c18.1,4.1,22.8,8.6,24,11c5.5,10.9,3.6,21.1-0.3,23.6c-4.2,2.8-17.6,3.6-25.3,1.6
	c-4.5-1.2-10.2-4.1-13.9-6.2c0,2.1-0.1,4.1-0.1,5.9v0.4c3.8,2,8.5,4.2,12.6,5.3c3,0.8,7.3,1.2,11.8,1.2c6.9,0,14.2-1.1,18.1-3.6
	C130.8,163.7,133,159.1,133.5,153.4z"/>
<path class="st11" d="M96.3,110c0,0-3.1,2.7-7.3,6.5c-2.8,11.8-3.6,25.1-3.9,36.5C98.7,148.7,96.3,110,96.3,110z"/>
<path class="st14" d="M139.8,417.3c-0.2,0-0.3-0.1-0.3-0.3c0-0.1,0-0.9-0.1-2.2c-0.2-4.5-0.6-15.1-0.8-23.2
	c-0.1-8.7-3.4-36.9-4.7-49c-0.2-2.1-0.4-3.7-0.5-4.4c-0.5-4.8-2.3-51.1-2.1-61.7c0.2-10.2-2.2-27.1-2.3-27.2c0-0.2,0.1-0.3,0.2-0.3
	c0.2,0,0.3,0.1,0.3,0.2c0,0.2,2.4,17.1,2.3,27.3c-0.2,10.6,1.6,56.8,2.1,61.6c0.1,0.8,0.3,2.3,0.5,4.4c1.4,12.1,4.6,40.3,4.7,49
	c0.1,8,0.6,18.6,0.8,23.1c0.1,1.4,0.1,2.1,0.1,2.2C140.1,417.2,139.9,417.3,139.8,417.3z"/>
<path class="st0" d="M126.1,63.1c0,0.7,1.1,1.3,2.5,1.3s2.5-0.6,2.5-1.3s-1.1-1.3-2.5-1.3S126.1,62.3,126.1,63.1z"/>
<path class="st6" d="M268,203.4c-0.2,0-0.3-0.1-0.3-0.3c0.1-8.2-3.2-23.5-3.3-23.6c0-0.1,0.1-0.3,0.2-0.3s0.3,0.1,0.3,0.2
	c0,0.2,3.4,15.5,3.3,23.7C268.3,203.3,268.2,203.4,268,203.4L268,203.4z"/>
<path class="st2" d="M123.1,50.4c0,0,3.6,0.1,4.8,2c0.8,1.2,2.4-5.4-0.5-7.7c-2.9-2.2-4.2-1.7-5-0.2
	C121.5,46.2,122.4,49.9,123.1,50.4z"/>
<path class="st0" d="M113.9,65.2c0.1,0.7,1.3,1.1,2.7,0.9c1.4-0.2,2.4-1,2.2-1.7c-0.1-0.7-1.3-1.1-2.7-0.9
	C114.8,63.7,113.8,64.5,113.9,65.2z"/>
<path class="st2" d="M125.4,48.9c0,0-0.7,1.4-3,2.5s-5.4,1.1-7.7,0.8c-2.3-0.3-4.5-0.7-5.5,0.8s-1.9,6.1-1.8,7.9
	c0.1,1.9,1.4,7.1,0.6,6.7c-0.7-0.4-2.4-7.4-2.8-8.1c-0.4-0.7-4.5-7.8-5-10.4c-0.5-2.6,2.8-5.2,5.2-4.9c0,0-1.4-4.1,4.2-6.6
	C116.8,34.4,126.5,39.4,125.4,48.9z"/>
<path class="st14" d="M119.3,69.6c0,0,2.5,0.2,4.9-0.3s3.4-0.9,3.4-0.9s0.2,1.8-1.6,2.6S120.1,71.8,119.3,69.6z"/>
<path class="st12" d="M101.6,92.5c0,0-62.7,31.3-70.7,60c-6.7,23.8,24.4,57.6,33.7,66.6c1.9,1.8,8.3,0.3,10.4-1.3
	c3.6-2.7,9.1-5.5,7.4-11.9L61.1,157c0,0,20.1-21.7,26.2-30.1C98.3,111.5,101.6,92.5,101.6,92.5z"/>
<path class="st16" d="M81.5,205.2c-1.3-0.7-2.7-1.3-4.1-1.5c-1.5-0.3-3.2-0.3-4,0.8c-1.6,2.1,0.3,4.1,0.3,4.1s-1.9,1.1-2.3,2.5
	s1.7,2.4,1.7,2.4s-1.6,0.9-1.6,1.8c-0.1,0.9,1.7,2.4,1.7,2.4s-0.8,0.5-0.4,1.6c0.4,1,7.5,3.9,9.7,2.8c2.2-1.1-1.3-3.3-1.3-3.3
	s2,0.4,2.9-0.8s-1.3-2.7-1.3-2.7s2.7,0.5,2.8-0.8c0.1-1.3-7.1-5.5-7.1-5.5s6.1,2,7.8,0.9C87.5,208.8,83.6,206.4,81.5,205.2z"/>
<path class="st14" d="M41.6,166.5c-0.4,0-0.7-0.1-1-0.2c-0.3-0.2-0.5-0.5-0.6-0.9c-0.2-2.2,4.4-3.9,8.1-5.2c1.3-0.5,3-1.1,3.3-1.4
	c-0.4-0.2-2.1,0-3.4,0.1c-3,0.2-6.7,0.5-8-0.7c-0.3-0.3-0.5-0.7-0.5-1.2c0-0.3,0.2-0.6,0.5-0.9c1.2-1,5.2-1.3,11.7-0.7
	c4.8,0.4,9.4,1.1,9.4,1.1c0.1,0,0.3,0.2,0.2,0.3c0,0.2-0.2,0.3-0.3,0.2c0,0-4.6-0.7-9.4-1.1c-8-0.7-10.5,0-11.3,0.6
	c-0.2,0.1-0.3,0.3-0.3,0.5c0,0.3,0.1,0.6,0.3,0.8c1.1,1.1,4.9,0.8,7.6,0.6c2.6-0.2,3.8-0.3,4,0.3c0.1,0.1,0.1,0.2,0,0.4
	c-0.2,0.5-1.3,0.9-3.7,1.8c-3.2,1.1-7.9,2.9-7.8,4.7c0,0.2,0.1,0.3,0.3,0.4c1.8,1,10.1-3.1,13.1-4.8c0.1-0.1,0.3,0,0.4,0.1
	c0.1,0.1,0,0.3-0.1,0.4C53.2,162.1,45,166.5,41.6,166.5L41.6,166.5z"/>
<path class="st2" d="M238.7,113.8c0,0,5.5,13.4,10.7,48.2c2.4,16.1,2.3,53,3.1,61.8c0.9,9.9-2.2,25.1,11.4,25.6
	c13.6,0.4,37.2-6.9,37.4-10.8c0.2-3.9-12.5-40.4-14.1-40.4s-23.2,3.9-24,3.8c-0.7-0.2-5.1-33.6-6.7-39.9
	c-6.1-24.2-12.5-45.5-12.5-45.5L238.7,113.8L238.7,113.8z"/>
<path class="st21" d="M201.4,125.7l17,57.1c0,0,33.9,18.1,34.1,21.5c0.2,3.4-1.8,13.8-7.2,14.5s-36.2,1.3-45.2-12.7
	c-6.7-10.4-11-27.4-9.7-42.2C192.1,143.2,201.4,125.7,201.4,125.7L201.4,125.7z"/>
<path class="st16" d="M251.1,205c0,0,8.2-0.1,13.8,2c1.6,0.6,9.4,8.3,9,9.1s-4-1.4-4-1.4s3.9,4,3.6,4.4c-0.2,0.4-1.9-0.1-1.9-0.1
	s1,1.4,0.4,1.7s-8.7-4.8-9.2-4.8s1.7,1.5,2.2,2s2.3,1.5,1.9,2.3s-7-3.7-8.6-4.3s-3.6,0.9-8.3-1.2c-3.1-1.4-6.9-5.9-5.7-9.1
	C245.4,202.4,251.1,205,251.1,205L251.1,205z M247.1,114c-2.4-4.6-8.7-7.5-10.7-5.6c0,0-0.7,3,1,5.6c3.7,5.7,5.9,5.5,6.1,4.8
	c1,1.5,2.2,3.2,2.5,3.7c0.5,0.8,0.6-1.1,0.6-1.1s1.2,3.1,2.2,3.1C249.8,124.4,249.5,118.6,247.1,114L247.1,114z M278,195.8
	c-0.6-1.3,4-6.2,3.7-6.7c-0.4-0.6-3.3,3.4-3.9,2.5s0.7-3.2,3.8-5.8c1.9-1.6,3.1-1.6,3.7-0.6c0.6,0.8,0.8,1.4,1,2.1
	c0.2,0.9,1,1.4,1.2,2.4c0.2,0.8-0.2,1.5,0,2.2s0.7,0.9,0.8,1.8c-0.1,0.2-0.4,1.5-0.3,1.8c0.1,0.7,0.7,1.2,0.7,2.1
	c0,0.4,0,0.7-0.3,0.9c-1.5,0.5-5.3,4-6,3.3c-0.7-0.8,2.4-4.9,2.4-4.9s-3.9,1.9-4.8,1.5s-0.4-2.2-0.4-2.2S278.6,197.1,278,195.8
	L278,195.8z"/>
<path class="st11" d="M53.3,139.1c-5.3,2.6-11.1,1.8-15.5,0.4c-1.2,1.6-2.3,3.2-3.3,4.8c3.1,1.1,7,2.1,11.1,2.1
	c3.3,0,6.7-0.6,10.1-2.2c3.8-1.8,8.5-6,9-15.7c0.3-5.1-0.7-10-1.3-12.6c-1.7,1.2-3.4,2.5-5,3.8C60.7,132.5,57,137.3,53.3,139.1
	L53.3,139.1z M57.1,179c-7.3-4-15.5-1.5-21.4,1.7c0.8,1.7,1.7,3.3,2.6,5c4.8-2.5,11-4.5,16.1-1.7c1.2,0.6,1.9,1.6,2.3,3.2
	c1.2,4.8-1.2,12.6-3.9,19.1c1.4,1.7,2.8,3.3,4.1,4.7c3.4-7.5,7.1-18.1,5.3-25.2C61.4,182.6,59.7,180.4,57.1,179z"/>
<path class="st6" d="M210.3,199.5c-0.1,0-0.2,0-0.2-0.1c-0.3-0.2-0.6-0.5,3.3-7.9c1.2-2.2,2.3-4.4,3.1-5.7
	c-3.1,2.7-11.2,9.8-12.6,10.6c-0.3,0.2-0.4,0.1-0.5,0c-0.2-0.3-0.2-0.3,4.6-4.9c3.5-3.4,8.9-8.5,9.1-9.3c0.3-1.2-5.2-19.6-9-31.7
	c0-0.1,0-0.3,0.2-0.3c0.1,0,0.3,0,0.3,0.2c1,3.1,9.5,30.4,9,32.1c-0.3,0.9-4.2,4.7-9.3,9.5c-0.6,0.6-1.2,1.2-1.8,1.7
	c4.1-3.4,10.6-9.1,10.6-9.2c0.1-0.1,0.3-0.1,0.4,0c0.1,0.1,0.1,0.2,0.1,0.3c-2.6,4.7-6.6,12.2-7.2,14.1c2.3-2.2,9.4-14.6,9.5-14.8
	c0.1-0.1,0.2-0.2,0.4-0.1c0.1,0.1,0.2,0.2,0.1,0.4c-0.3,0.5-7.6,13.3-9.8,15.1H210.3L210.3,199.5z M220.3,217.4
	c-10.3-1-16.8-6.3-20.4-10.6c-3.9-4.7-5.5-9.2-5.5-9.2c0-0.1,0-0.3,0.2-0.3c0.1,0,0.3,0,0.3,0.2c0,0,1.5,4.5,5.4,9
	c3.6,4.2,9.9,9.4,20,10.4c0.2,0,0.3,0.1,0.2,0.3C220.5,217.3,220.4,217.4,220.3,217.4L220.3,217.4z"/>
<path class="st14" d="M225.6,265.9c-0.2,0-0.3-0.1-0.3-0.3c0-0.1,0.5-5.5,1.6-11.8c1.4-8.4,3.1-14.2,5.1-17.2
	c3.9-6,12.6-7.7,15.3-6.9c0.7,0.2,0.9,0.6,0.9,0.9c0,1-2.4,2.1-6.4,3.8c-2.7,1.2-6.1,2.6-6.3,3.4c0,0.1-0.2,0.2-0.3,0.2
	s-0.2-0.2-0.2-0.3c0.3-1,2.7-2.1,6.7-3.8c2.5-1.1,6-2.6,6-3.3c0-0.1-0.2-0.3-0.5-0.4c-2.2-0.7-10.7,0.6-14.7,6.6
	c-4.6,6.9-6.5,28.5-6.6,28.7C225.9,265.8,225.8,265.9,225.6,265.9z"/>
</svg>
