<?xml version="1.0" encoding="utf-8"?>
<!-- Generator: Adobe Illustrator 28.3.0, SVG Export Plug-In . SVG Version: 6.00 Build 0)  -->
<svg version="1.1" id="Calque_1" xmlns="http://www.w3.org/2000/svg" xmlns:xlink="http://www.w3.org/1999/xlink" x="0px" y="0px"
	 viewBox="0 0 600.1 488.1" style="enable-background:new 0 0 600.1 488.1;" xml:space="preserve">
<style type="text/css">
	.st0{opacity:0.5;}
	.st1{opacity:0.77;}
	.st2{fill:#D9D9DA;}
	.st3{fill:#EFEFF0;}
	.st4{opacity:0.2;fill:#62AFBD;enable-background:new    ;}
	.st5{fill:#9E9D98;}
	.st6{fill:none;}
	.st7{fill:url(#SVGID_1_);}
	.st8{fill:url(#SVGID_00000020395602083343384690000013369431428259609760_);}
	.st9{fill:url(#SVGID_00000087413198743835373260000018417849404478921611_);}
	.st10{fill:#D6D5CA;}
	.st11{fill:#0080CE;}
	.st12{fill:#0086FF;}
	.st13{fill:#4BAFF9;}
	.st14{fill:#FFFCE8;}
	.st15{fill:#FF1F4F;}
	.st16{fill:#31A3F7;}
	.st17{fill:#0586E5;}
	.st18{fill:#1095F9;}
	.st19{fill:url(#SVGID_00000127039879984552995890000012143683880796198040_);}
	.st20{fill:url(#SVGID_00000111185138328619887590000015831187933583969973_);}
	.st21{fill:#605E60;}
	.st22{fill:#2D374C;}
	.st23{fill:#434C5B;}
	.st24{fill:#002856;}
	.st25{fill:#70696F;}
	.st26{fill:url(#SVGID_00000157300878635855784730000017426337822941697665_);}
	.st27{fill:url(#SVGID_00000030467300362293016070000011054335529713093258_);}
	.st28{fill:#1C9AF9;}
	.st29{fill:url(#SVGID_00000142878274598105692820000005046607126356535984_);}
	.st30{fill:url(#SVGID_00000034060974975290037530000013106118659569186483_);}
	.st31{fill:#726F72;}
	.st32{opacity:5.000000e-02;fill:#B9C4D6;enable-background:new    ;}
	.st33{fill:#2E2E47;}
	.st34{fill:#CC8B70;}
	.st35{fill:#FFE2BD;}
	.st36{fill:#FFFFFF;}
	.st37{fill:#FFA982;}
	.st38{fill:#226AD3;}
	.st39{fill:#82A7AF;}
	.st40{fill:#FFEA8F;}
	.st41{fill:#3B82F6;}
	.st42{fill:#235EB5;}
	.st43{fill:#EAE6E4;}
	.st44{fill:#FFC97D;}
	.st45{fill:#A424FF;}
</style>
<g id="Section5">
	<g class="st0">
		<g class="st1">
			<path class="st2" d="M1512-2399.9h-120.7v297.3h132.6v-297.3L1512-2399.9z M1091.8-2399.9v297.3h133.7v-297.3h-66.4H1091.8z
				 M1278.5-2399.9h-36.4v297.3h132.6v-297.3h-47.6H1278.5z"/>
		</g>
		<path class="st3" d="M1225.3-2399.8h-66.2l-66.9,66.9v119.3l133.1-133.1V-2399.8z M1225.3-2298.1l-133.1,133.2v61.9h44.9
			l88.2-88.2V-2298.1z M1241.6-2399.8v36.8l36.9-36.8H1241.6z M1374.7-2399.8h-47.6l-85.5,85.4v106.9l133.1-133.1V-2399.8z
			 M1374.7-2262.5l-133.1,133.1v26.4h49.5l83.6-83.6V-2262.5z M1391-2399.8v42.9l42.9-42.9H1391z M1524.1-2399.8H1512l-121,121v75.8
			l133.1-133.1V-2399.8z M1524.1-2178.4l-75.4,75.4h75.4V-2178.4z M1524.1-2275.6L1391-2142.5v39.5h25.3l107.8-107.8L1524.1-2275.6z
			"/>
	</g>
	<path class="st4" d="M1589.4-1965.1h-180.3c-2.8,0-5-2.2-5-5s2.2-5,5-5h180.3c2.8,0,5,2.2,5,5
		C1594.4-1967.4,1592.2-1965.1,1589.4-1965.1z"/>
	<path class="st5" d="M1420.4-2042.9v53c0,12.2,8.2,22.1,18.2,22.1h112.1c10,0,18.2-9.9,18.2-22.1v-53c0-12.2-8.2-22.1-18.2-22.1
		h-112.1C1428.6-2065,1420.4-2055.1,1420.4-2042.9z"/>
	<path class="st6" d="M1463.4-1976.3h-26.8c-6.2,0-11.2-6.1-11.2-13.6v-22.7h34.1v22.7C1459.5-1984.8,1461-1980.1,1463.4-1976.3z
		 M1459.5-2021.1h-34.1v-21.8c0-7.5,5-13.6,11.2-13.6h26.8c-2.4,3.7-3.9,8.4-3.9,13.6V-2021.1z"/>
	
		<linearGradient id="SVGID_1_" gradientUnits="userSpaceOnUse" x1="1517.2061" y1="-13896.4209" x2="1464.819" y2="-13893.6924" gradientTransform="matrix(1 0 0 -1 0 -15933.9062)">
		<stop  offset="5.400000e-02" style="stop-color:#9E9D98"/>
		<stop  offset="1" style="stop-color:#7B7C7F"/>
	</linearGradient>
	<path class="st7" d="M1535.3-2042.9v21.8h-75.8v-21.8c0-5.1,1.5-9.8,3.9-13.6h60.8C1530.3-2056.5,1535.3-2050.4,1535.3-2042.9z"/>
	
		<linearGradient id="SVGID_00000150095197784587745050000001243088350853475243_" gradientUnits="userSpaceOnUse" x1="1518.1709" y1="-13940.4414" x2="1465.8029" y2="-13937.7139" gradientTransform="matrix(1 0 0 -1 0 -15933.9062)">
		<stop  offset="5.400000e-02" style="stop-color:#9E9D98"/>
		<stop  offset="1" style="stop-color:#7B7C7F"/>
	</linearGradient>
	<path style="fill:url(#SVGID_00000150095197784587745050000001243088350853475243_);" d="M1535.3-1989.9c0,7.5-5,13.6-11.2,13.6
		h-60.8c-2.4-3.7-3.9-8.4-3.9-13.6v-22.7h75.8L1535.3-1989.9z"/>
	
		<linearGradient id="SVGID_00000089574772268432822770000007912235650028197268_" gradientUnits="userSpaceOnUse" x1="1477.6001" y1="-13917.5059" x2="1568.8" y2="-13917.5059" gradientTransform="matrix(1 0 0 -1 0 -15933.9062)">
		<stop  offset="5.400000e-02" style="stop-color:#9E9D98"/>
		<stop  offset="1" style="stop-color:#CCCBC4"/>
	</linearGradient>
	<path style="fill:url(#SVGID_00000089574772268432822770000007912235650028197268_);" d="M1542.3-1989.9v-53
		c0-12.2-8.2-22.1-18.2-22.1h-46.5h73c10,0,18.2,9.9,18.2,22.1v53c0,12.2-8.2,22.1-18.2,22.1h-26.5
		C1534.2-1967.9,1542.3-1977.7,1542.3-1989.9z"/>
	<path class="st10" d="M1436.6-2065h41.1c-5.8,0-11,3.4-14.3,8.5h-26.8c-6.2,0-11.2,6.1-11.2,13.6v21.8h34.1v8.5h-34.1v22.7
		c0,7.5,5,13.6,11.2,13.6h26.8c3.3,5.2,8.5,8.5,14.3,8.5h46.5h-87.6c-10,0-18.2-9.9-18.2-22.1v-53
		C1418.4-2055.1,1426.6-2065,1436.6-2065z"/>
	<path class="st10" d="M1463.4-1976.3h60.8c6.2,0,11.2-6.1,11.2-13.6v-22.7h-75.8v-8.5h75.8v-21.8c0-7.5-5-13.6-11.2-13.6h-60.8
		c3.3-5.2,8.5-8.5,14.3-8.5h46.5c10,0,18.2,9.9,18.2,22.1v53c0,12.2-8.1,22.1-18.1,22.1h-46.5
		C1471.9-1967.8,1466.7-1971.2,1463.4-1976.3z"/>
	<path class="st11" d="M1507.8-2037.3c2.4,0,4.5,0.8,6,2.2s2.5,3.2,2.5,5.3c0,4.2-3.8,7.5-8.5,7.5h-19.9l17-15H1507.8z"/>
	<path class="st12" d="M1450.8-2035.6v-1.7h54.1l-17,15.1h-37.1v-1.7h1.6v-11.7L1450.8-2035.6z"/>
	<path class="st13" d="M1452.7-2035.6v11.7h-1.9v1.7h27.7c4.7,0,8.5-3.4,8.5-7.5c0-2.1-1-4-2.5-5.3c-1.5-1.4-3.7-2.2-6-2.2h-27.7
		v1.7L1452.7-2035.6L1452.7-2035.6z"/>
	<path class="st14" d="M1452.4-2035.6v11.7h25.4c3.7,0,6.6-2.6,6.6-5.9c0-1.6-0.7-3.1-1.9-4.1c-1.2-1.1-2.9-1.7-4.7-1.7H1452.4z"/>
	<path class="st15" d="M1475.7-2030.1h-3.7v4.2l1.8-1.6l1.9,1.6L1475.7-2030.1z"/>
	<path class="st11" d="M1507.8-2052c2.4,0,4.5,0.8,6,2.2s2.5,3.2,2.5,5.3c0,4.2-3.8,7.5-8.5,7.5h-19.9l17-15H1507.8z"/>
	<path class="st12" d="M1450.8-2050.4v-1.6h54.1l-17,15h-37.1v-1.6h1.6v-11.8H1450.8z"/>
	<path class="st13" d="M1452.7-2050.4v11.7h-1.9v1.7h27.7c4.7,0,8.5-3.4,8.5-7.5c0-2.1-1-4-2.5-5.3c-1.5-1.4-3.7-2.2-6-2.2h-27.7
		v1.7L1452.7-2050.4L1452.7-2050.4z"/>
	<path class="st14" d="M1452.4-2050.4v11.7h25.4c3.7,0,6.6-2.6,6.6-5.9c0-1.6-0.7-3.1-1.9-4.1c-1.2-1.1-2.9-1.7-4.7-1.7H1452.4z"/>
	<path class="st15" d="M1467.1-2048.4h-3.7v4.2l1.8-1.6l1.9,1.6L1467.1-2048.4z"/>
	<path class="st4" d="M846.7-1965.1l53.8,4.7l278.3-4.7l-53.8-5.1L846.7-1965.1z"/>
	<path class="st5" d="M910.9-1995.1l-10.4,34.9h4l11.7-34.9H910.9z"/>
	<path class="st10" d="M924.5-1995.1h-8.3l-11.7,34.9h4.8L924.5-1995.1z"/>
	<path class="st5" d="M857.1-1999.7l-10.4,34.8h4l11.7-34.8H857.1z"/>
	<path class="st10" d="M870.7-1999.7h-8.3l-11.7,34.8h4.8L870.7-1999.7z"/>
	<path class="st5" d="M1114.5-2004.8l10.4,34.9h-4l-11.7-34.9H1114.5z"/>
	<path class="st10" d="M1100.9-2004.8h8.3l11.7,34.9h-4.8L1100.9-2004.8z"/>
	<path class="st5" d="M1168.3-1999.7l10.4,34.8h-4l-11.7-34.8H1168.3z"/>
	<path class="st10" d="M1154.7-1999.7h8.3l11.7,34.8h-4.8L1154.7-1999.7z"/>
	<path class="st16" d="M1078-2167.6H864.5l29.1,130.3H1114v-94.3C1114-2151.4,1097.8-2167.6,1078-2167.6z"/>
	<path class="st12" d="M864.5-2167.6v130.3h29.1v-101.1C893.6-2154.5,880.6-2167.6,864.5-2167.6z M1183.8-1996.2v-94.3h-65.3
		c-14.8,0-26.8,12-26.8,26.8v76h83.5L1183.8-1996.2L1183.8-1996.2z"/>
	<path class="st16" d="M1183.8-2090.5v94.3c0,4.7-3.8,8.5-8.5,8.5H1150v-69C1150-2075.4,1165.1-2090.5,1183.8-2090.5z"/>
	<path class="st17" d="M934.5-2037.3h214.3c3.3,0,6,2.7,6,6v36.2H934.5V-2037.3z"/>
	<path class="st18" d="M934.5-2029.9h220.3v42.1H934.5V-2029.9z"/>
	<path class="st18" d="M902.1-2090.5c18.7,0,33.8,15.1,33.8,33.8v69h-33.8V-2090.5z"/>
	<path class="st12" d="M854.2-1987.7h48v-102.8h-49.8c-5.6,0-10.1,4.5-10.1,10.1v80.9C842.3-1993,847.6-1987.7,854.2-1987.7
		L854.2-1987.7z"/>
	
		<linearGradient id="SVGID_00000181799174858472483660000016972817437334836106_" gradientUnits="userSpaceOnUse" x1="531.5338" y1="-2085.8276" x2="546.0967" y2="-2085.8276" gradientTransform="matrix(0.9551 0.2962 -0.2962 0.9551 136.3477 -410.464)">
		<stop  offset="0" style="stop-color:#FDDEDC"/>
		<stop  offset="0.974" style="stop-color:#FDBCB8"/>
	</linearGradient>
	<path style="fill:url(#SVGID_00000181799174858472483660000016972817437334836106_);" d="M1277.1-2246c1-0.8-0.4-2.3-1.4-1.5
		c-1.7,1.4-3.1,3.1-4.1,5l-1-0.4c0.3-2.9,1.4-5.6,3.4-8c0.8-1-0.9-2.1-1.7-1.1c-2,2.4-3.2,5.3-3.6,8.3l-0.9-0.3
		c0-3.5,1.2-6.7,3.5-9.5c0.8-1-0.9-2.1-1.7-1.1c-2.3,2.8-3.6,6.2-3.8,9.8l-1.2-0.5c0.1-2.7,1.1-5.2,2.9-7.4c0.8-1-0.9-2.1-1.7-1.1
		c-2.2,2.7-3.3,6-3.2,9.5l-2.8,10.6l5.9,2.1l5.4-3l0.6-1.6c0.1-0.1,0.2-0.3,0.2-0.5v-0.2l1.7-4.8
		C1274.4-2243.4,1275.6-2244.8,1277.1-2246L1277.1-2246z"/>
	<path class="st17" d="M1259.7-2233.9l-36.1,30.1l-32.5-42.8c-4.2-5.4-12.3-5.7-17-0.7c-4,4.4-3.9,11.2,0.3,15.4l44.3,52.2
		c1.6,1.8,4.4,1.8,5.9-0.1l41-52L1259.7-2233.9L1259.7-2233.9z"/>
	
		<linearGradient id="SVGID_00000090269145113683487330000000367090862176088762_" gradientUnits="userSpaceOnUse" x1="-275.049" y1="-1972.84" x2="-260.775" y2="-1972.84" gradientTransform="matrix(-1 0 0 1 1170.8301 -293.4)">
		<stop  offset="0" style="stop-color:#FDDEDC"/>
		<stop  offset="0.974" style="stop-color:#FDBCB8"/>
	</linearGradient>
	<path style="fill:url(#SVGID_00000090269145113683487330000000367090862176088762_);" d="M1431.7-2273c-0.5-1.2,1.4-1.9,1.9-0.7
		c0.9,2.1,1.3,4.2,1.4,6.3l1.1,0.1c1.1-2.8,1.3-5.6,0.7-8.7c-0.3-1.3,1.8-1.5,2-0.2c0.6,3.1,0.4,6.2-0.6,9l0.9,0.1
		c1.6-3.1,2-6.5,1.3-10c-0.3-1.3,1.8-1.5,2-0.2c0.7,3.6,0.3,7.2-1.2,10.4l1.3,0.1c1.2-2.5,1.5-5.1,0.9-7.9c-0.3-1.3,1.8-1.5,2-0.2
		c0.7,3.4,0.2,6.9-1.6,9.9l-2.4,10.7l-6.2-0.8l-3.4-5.2l0.2-1.6v-0.7l0.7-5.1C1432.9-2269.5,1432.5-2271.3,1431.7-2273L1431.7-2273z
		"/>
	<path class="st21" d="M1441.6-2254.2l18.1,43.4c0,0,51.4-27.4,51.5-27.5c9.3-6,18.9,0.8,19.6,8.6c0.7,7.9-70.4,36.6-76,38.9
		c-2.2,0.9-4.7-0.5-5.2-2.8l-14.2-61.4L1441.6-2254.2z"/>
	<path class="st22" d="M1462.9-2142.3h-244.1c-1.4,0-2.4-1.1-2.4-2.4v-135.7c0-1.4,1.1-2.4,2.4-2.4h244.1c1.4,0,2.4,1.1,2.4,2.4
		v135.7C1465.3-2143.4,1464.2-2142.3,1462.9-2142.3z"/>
	<path class="st23" d="M1224.7-2275.6h232.2v125.3h-232.2V-2275.6z"/>
	<path class="st4" d="M1214.1-1950.6c-28.3-0.5-56.5-0.3-84.8,0.7c-1.6-1.9-4.2-3.2-7.1-2.8c-18.6,2.6-37.5,1-56.1,4
		c-2.6,0.4-2.6,4.8,0,5.2c13.9,2.3,28,1.9,42,2.7c0.2,3.4,2.5,6.5,7.2,6.5c33-0.6,65.9-2.3,98.8-5
		C1221.2-1939.9,1221.4-1950.4,1214.1-1950.6L1214.1-1950.6z"/>
	<path class="st21" d="M1190-2137.8l-38.5-17l-0.1,2.6c-1,24.8,4.5,49.4,15.9,71.4l13.7,26.5l-3,28l12.1,70.8c2.3,0,4.7-0.1,7-0.2
		l13.4-99.1L1190-2137.8z"/>
	<path class="st24" d="M1189.9-1953.6l7.1-0.2l8.9,4.3l11.1,1l1.7,2.4l-31.1,1.5L1189.9-1953.6z"/>
	<path class="st25" d="M1164.6-2133.9l-28.9-30.5l-4.1,8.8c-8.5,18.2-12.1,38.4-10.5,58.4l2.9,36.9l-13.5,24.7l-16.2,70
		c2.2,0.9,4.4,1.7,6.5,2.6l50.7-86.2L1164.6-2133.9L1164.6-2133.9z"/>
	<path class="st24" d="M1093.4-1964l6.5,2.5l6.6,7.5l9.9,5.1l0.6,2.9l-29.3-10.6L1093.4-1964z"/>
	<path class="st12" d="M1175.6-2261.6c-6.6-0.4-13.7,3-18.9,8.8c-4.7,5.3-7.6,11.6-10.4,17.9c-9.5,21.7-29.3,108.2-24.8,115.2h73
		c-5.7-48.9-3.9-75.3-1-100.5c1.1-10.2,1.6-22.8-3.8-32.1C1186.1-2258.5,1181-2261.3,1175.6-2261.6L1175.6-2261.6z"/>
	<path class="st15" d="M1200.5-2292c3.2-3.5,5.5-7.8,6.6-12.5c0.9-3.8,0.8-8.1-1.7-11s-6.7-3.6-10.4-2.8c-3.7,0.8-7,2.9-10.1,4.9
		c-2.4,1.5-4.8,3.1-7.2,4.6c-1.4,0.9-2.9,1.9-3.9,3.3c-0.9,1.4-1.1,3.5,0,4.8c-5.1,2-7.4,9.2-4.2,13.8c1.6,2.4,4.5,4.1,5.1,7
		c0.8,3.7-2.4,7.5-1.1,11L1200.5-2292L1200.5-2292z"/>
	
		<linearGradient id="SVGID_00000176736306713327327380000013804479938447621008_" gradientUnits="userSpaceOnUse" x1="863.687" y1="-2070.584" x2="900.0626" y2="-2070.584" gradientTransform="matrix(0.9912 0.1322 -0.1322 0.9912 39.8115 -338.9852)">
		<stop  offset="0" style="stop-color:#FDDEDC"/>
		<stop  offset="0.974" style="stop-color:#FDBCB8"/>
	</linearGradient>
	<path style="fill:url(#SVGID_00000176736306713327327380000013804479938447621008_);" d="M1198-2303.1c2.3,0.7,3.5,3.2,3.7,5.6
		c0.2,2.4-0.4,4.7-0.4,7.1c0,2.4,0.9,5,3,6.1c1,0.5,2.4,0.9,2.7,2c0.3,1.5-1.8,2.2-2.9,3.2c-1.8,1.5-1.6,4.3-1.2,6.7
		c0.4,2.3,0.5,5.2-1.4,6.6c-2.4,1.8-5.8-0.3-8.8-0.5c-2.8-0.1-5.4,1.5-7.2,3.7c-1.7,2.2-5.2,13.6-6.1,16.2
		c-4.9,0.5-10.5-5.6-12.1-12.8l10.5-19.8c-1.6,0.5-3.5-0.2-4.6-1.5s-1.3-3.3-0.4-4.8s5.4-3.9,6.5,1.6c0,0,2.7-3.8,3.1-8.5
		C1183.4-2302.6,1198-2303.1,1198-2303.1L1198-2303.1z"/>
	
		<linearGradient id="SVGID_00000017499298842809307360000009637381723909825709_" gradientUnits="userSpaceOnUse" x1="2674.1602" y1="1430.7201" x2="2692.3511" y2="1430.7201" gradientTransform="matrix(-4.320087e-02 -0.9991 0.9991 -4.320087e-02 -45.9305 565.3719)">
		<stop  offset="0" style="stop-color:#FDDEDC"/>
		<stop  offset="0.974" style="stop-color:#FDBCB8"/>
	</linearGradient>
	<path style="fill:url(#SVGID_00000017499298842809307360000009637381723909825709_);" d="M1256.7-2185.9l-1.7,6.4l3.7,5.4l1.7,0.4
		c0.1,0.1,0.3,0.1,0.5,0.2h0.2l5.2,1.4c1.8,0.8,3.4,2,4.8,3.4c1,1,2.4-0.6,1.5-1.6c-1.7-1.7-3.5-3-5.6-3.9l0.3-1.1
		c3.1,0,6,1,8.7,2.8c1.2,0.8,2.1-1.1,1-1.9c-2.8-1.9-5.8-2.9-9.1-3l0.3-0.9c3.7-0.3,7.2,0.6,10.3,2.7c1.2,0.8,2.1-1.1,1-1.9
		c-3.2-2.2-6.9-3.2-10.6-3.1l0.4-1.4c2.9-0.1,5.6,0.7,8.1,2.3c1.2,0.8,2.1-1.1,1-1.9c-3.1-2.1-6.6-2.9-10.3-2.5L1256.7-2185.9
		L1256.7-2185.9z"/>
	<path class="st28" d="M1256.7-2185.9l-54.5-6.8l-30-48.2c-3.9-6.1-12.4-7.2-17.8-2.4c-4.7,4.2-5.2,11.4-1.2,16.2l39.6,49.9
		c1.5,2.1,62.7-1.5,62.7-1.5L1256.7-2185.9L1256.7-2185.9z"/>
	<path class="st4" d="M1569.9-1953.8c-28.9-0.5-43.7-6.5-72.7-3.5c-0.6-0.8-1.4-1.2-2.3-1.1c-17.4,1.7-34.7,3.2-52,5.7
		c-2.9,0.4-3,7.2,0,7.3c14.2,0.4,28.4,0.2,42.6-0.1c0.7,2,2,3.5,3.8,3.6c31.6,0.5,63.6-1.8,95.1-5.6
		C1589.5-1948.2,1575.2-1953.7,1569.9-1953.8z"/>
	<path class="st15" d="M1551.6-2251.2c-0.9,5.5,5.1,9.8,5.8,15.3c0.5,4.6-3.1,8.9-7.5,10.4s-9.2,0.8-13.6-0.5s-8.7-3.2-13.3-4
		c-4-0.7-8.2-0.7-12.1-1.8c-5.6-1.6-10.3-5.8-12.6-11.1c-2.3-5.3-2.2-11.6,0.4-16.8c-4-4.6-7.4-9.9-8.9-15.8
		c-1.6-5.9-1.2-12.5,1.9-17.8s9.1-9,15.2-8.5c3-8.1,12-13.2,20.6-12.4s16.2,6.9,19.7,14.7c3.5,7.9,3.2,17.2-0.1,25.1
		c3.5,0.2,6.8,2.3,8.5,5.3s1.9,6.9,0.4,10C1554.5-2256.4,1552.1-2254.2,1551.6-2251.2L1551.6-2251.2z"/>
	<path class="st17" d="M1494.4-2051.9l27.5-88.5l22-8.4l8,36.7l-0.9-0.9l-37.3,58.2l4.7,22.9l-3.2,69.5h-6.4L1494.4-2051.9
		L1494.4-2051.9z"/>
	<path class="st24" d="M1515.2-1960.7h-6.3l-8,4.1l-10.1,1.1l-1.5,2.2l28.3,0.7L1515.2-1960.7z"/>
	<path class="st12" d="M1553.6-2102.6l-60.6,24l64.3,57.1l-5.7,5.2l-86.3-58.6l60.9-62.8l45.2-19l3,16.3
		C1577.4-2124.4,1568.6-2108.6,1553.6-2102.6z"/>
	<path class="st24" d="M1558.3-2019.6l-4.4,4.7l-2.4,8.6l-6,8.1l0.6,2.7l19.7-20.3L1558.3-2019.6z"/>
	
		<linearGradient id="SVGID_00000180360608301260450340000005257326496477483185_" gradientUnits="userSpaceOnUse" x1="-1002.9919" y1="-1607.292" x2="-968.7589" y2="-1607.292" gradientTransform="matrix(-0.9566 0.2914 0.2914 0.9566 1039.7903 -443.5018)">
		<stop  offset="0" style="stop-color:#FDDEDC"/>
		<stop  offset="0.974" style="stop-color:#FDBCB8"/>
	</linearGradient>
	<path style="fill:url(#SVGID_00000180360608301260450340000005257326496477483185_);" d="M1509.3-2297c-2.3,0.2-4,2.5-4.6,4.7
		c-0.6,2.3-0.5,4.7-1,6.9c-0.5,2.3-1.8,4.7-4,5.3c-1.1,0.3-2.5,0.4-2.9,1.4c-0.6,1.4,1.3,2.4,2.2,3.6c1.4,1.8,0.7,4.5-0.1,6.7
		c-0.8,2.2-1.4,4.9,0.1,6.6c2,2.2,10.9-1.1,13.8-0.7c0,0,6.1,18.8,6.6,21.5c4.7,1.4,6.4-0.1,9.2-6.7l-4.3-22.3
		c1.5,0.8,3.4,0.5,4.7-0.6c1.3-1,1.9-3,1.3-4.6s-4.5-4.8-6.6,0.3c0,0-1.9-4.1-1.4-8.8C1523.3-2293.8,1509.3-2297,1509.3-2297
		L1509.3-2297z"/>
	<path class="st25" d="M1509.2-2205.5c1,2.5,1.1,4.9,1.6,8.3c1.3,10.1,2.5,20.3,3.8,30.4c0.7,5.7,1.8,27.8,5.5,32.2
		c5.3,6.3,53.2-10.9,54.3-14.2c1-3-3.8-10.8-5.8-13.2c-8.5-10.6-22.7-16.7-27.5-29.4c-2.6-6.9,1.2-38.7,3-45.9
		c2.8-10.7-7.6-16.5-12.1-16.2c-10.7,0.8-20.6,8.3-25.8,17.4c-2.6,4.7-4.2,10.1-3.8,15.5c0.3,4.2,2.4,8.2,4.8,11.6
		C1508.1-2207.7,1508.8-2206.6,1509.2-2205.5L1509.2-2205.5z"/>
	
		<linearGradient id="SVGID_00000114045120184578800360000004102475211744235142_" gradientUnits="userSpaceOnUse" x1="2711.0386" y1="-434.3781" x2="2728.2644" y2="-434.3781" gradientTransform="matrix(-5.602463e-03 -1 -1 5.602463e-03 1009.8313 545.6256)">
		<stop  offset="0" style="stop-color:#FDDEDC"/>
		<stop  offset="0.974" style="stop-color:#FDBCB8"/>
	</linearGradient>
	<path style="fill:url(#SVGID_00000114045120184578800360000004102475211744235142_);" d="M1438.9-2185.2l1.9,6l-3.2,5.3l-1.6,0.5
		c-0.1,0.1-0.3,0.1-0.5,0.2h-0.2l-4.9,1.5c-1.6,0.9-3.1,2-4.4,3.5c-0.9,1-2.3-0.5-1.5-1.4c1.5-1.7,3.2-3,5.1-3.9l-0.4-1
		c-3,0.2-5.7,1.2-8.1,3.1c-1.1,0.8-2.1-1-1-1.8c2.5-1.9,5.4-3,8.4-3.3l-0.3-0.9c-3.5-0.1-6.8,0.9-9.6,3.1c-1.1,0.8-2.1-1-1-1.8
		c2.9-2.2,6.3-3.3,9.9-3.4l-0.5-1.3c-2.8,0-5.3,0.9-7.5,2.6c-1.1,0.8-2.1-1-1-1.8c2.8-2.1,6.2-3.1,9.6-2.8L1438.9-2185.2
		L1438.9-2185.2z"/>
	<path class="st31" d="M1438.9-2185.2l51.2-9l26.1-47c3.4-6,11.4-7.4,16.7-3.1c4.6,3.8,5.4,10.5,1.9,15.3l-35.2,49
		c-1.3,2-59.3,1.5-59.3,1.5L1438.9-2185.2L1438.9-2185.2z"/>
	<circle class="st23" cx="1332.5" cy="-2278.9" r="1.6"/>
	<path class="st32" d="M1322.7-2150.3l134.2-107.7v50.5l-75.6,57.2H1322.7z M1420.4-2150.3l36.5-26.2v26.2H1420.4z"/>
</g>
<path class="st33" d="M204.2,433.4c3-0.4,5.6-1.8,7.1-2.7c-0.1-0.6,0.9-2.8-0.4-4.5c-1.5-1.8-3.8-0.6-8.1-1
	c-4.4-0.4-5.2-3.1-9.3-6.2c-4.1-3-1.8-11.7-3.7-12.3c-1.9-0.6-6.8,1.4-12.3,1.7c-5.4,0.3-6.8-0.3-6.8-0.3c-2.5,2.7,0,5,0.2,8
	c0.2,2.9-0.7,3.3-1.8,7.2c-1.1,3.8-0.5,6.4-0.5,6.4s5.1,1.8,12,2.9C187.4,433.7,199.4,434,204.2,433.4z"/>
<path class="st34" d="M211.2,430.9c0,0-0.1-0.1-0.1-0.2c-1.4,0.9-4,2.2-7.1,2.7c-4.7,0.6-16.7,0.3-23.6-0.8c-6.9-1.1-12-2.9-12-2.9
	s-0.5,0.3-0.7,1.1c-0.2,0.8-1.3,4.4-0.5,5.1c0.7,0.7,9,1.2,10.8,1.3c1.7,0.2,1.4-1.8,2-2.4c0.6-0.5,4.8,0.2,6.5,0.4
	c1.8,0.3,0.7,0.5,0.9,1.3c0.2,0.7,1.2,0.4,4.6,0.5c3.4,0.2,15.4-1.5,17.1-1.8c1.7-0.2,2.7-1.3,3-2.6
	C212.3,431.3,211.7,431.2,211.2,430.9z"/>
<path class="st33" d="M51.8,396.5c1.4,2.6,3.5,4.2,4.7,5.1c0.5-0.4,2.7-0.7,3.7-2.9c1.1-2.3-0.8-3.8-2-8.1s0.9-6.4,2-11.9
	c1.1-5.4,9.3-8,9.2-10c-0.1-2.1-3.6-5.5-5.7-10.4c-2.1-4.8-2.2-6.4-2.2-6.4c-3.1-0.9-4.3,2.7-6.7,4.5s-3,1.1-6.8,2.1
	c-3.7,1.1-5.5,3-5.5,3s0.3,5.7,1.8,12.6C45.6,381.2,49.5,392.5,51.8,396.5L51.8,396.5z"/>
<path class="st34" d="M56.4,401.7C56.4,401.6,56.5,401.6,56.4,401.7c-1.2-0.9-3.2-2.6-4.7-5.2c-2.2-4-6.2-15.3-7.6-22.2
	c-1.5-7-1.8-12.6-1.8-12.6s-0.4-0.4-1.2-0.1s-4.2,1.2-4.6,2.2c-0.4,1,2.1,9,2.7,10.6c0.4,1.6,2.1,0.3,2.8,0.5
	c0.7,0.3,1.5,4.6,1.9,6.4s-0.3,1-0.8,1.5s0.1,1.3,1.2,4.5s6.7,13.3,7.5,14.9c0.8,1.4,2.1,1.8,3.2,1.3
	C56.1,402.9,56.2,402.3,56.4,401.7L56.4,401.7z"/>
<path class="st33" d="M176.3,99.6c7-4.7,20,44.7,22.4,54.1c-3.8,1.7-12.1,4.4-25.1,4.5C166.5,133.9,174.5,100.9,176.3,99.6
	L176.3,99.6z"/>
<path class="st33" d="M124.9,125c-1.1-15,3.9-20.9,12-26.7c10.9-8,26-8.5,35.7-3.8c10.9,5.2,16,17.6,16.8,34.5
	c0.5,11.3-4.3,53.5-4.3,53.5l-63,2.9c0,0,2.3-16,2.1-34C124,140.6,125.6,135.1,124.9,125L124.9,125z M141,65.8c0,0,0.3,8.8,3.9,11.4
	c3.7,2.6,5.2,1.8,7.2,0.1c2.1-1.6,0.6-14.9-3.4-14.4C144.7,63.5,141.8,64.8,141,65.8z"/>
<path class="st35" d="M149.9,80.1c0,0-0.1,8.3-1.6,12.9c-0.9,2.6,8.2,5.7,12.6,5.4c4.3-0.4-0.2-7.6-0.8-9.6c-0.7-2-1.6-7.8-2-8.6
	C157.7,79.3,151,78.7,149.9,80.1z"/>
<path class="st35" d="M166.7,60.2c0,0,0.8,3.8,2,7.2c0.7,2.1,1.6,3.8,2.7,6.9c1.2,3.1,1.2,8.1-4.3,10.8c-5.5,2.7-12.4,1.8-14.9-0.8
	c-2.4-2.7-3.6-7.2-3.6-7.2s-0.9,1.7-2.8-0.2c-1.8-1.9-4-5.1-2.1-6.3c1.9-1.1,2.7,0.5,3.1,0.3c0.4-0.4-0.3-3.8-0.4-6.6
	C146.5,61.5,158.4,53.8,166.7,60.2L166.7,60.2z"/>
<path class="st33" d="M170.9,73.6c0-0.2,0.2-0.2,0.3-0.1c0.5,0.8,1.6,2.8,1.8,4.6c0.3,2.4,0.3,4.7-0.8,6.4s-4.6,4.1-7.8,4.7
	s-7.6-0.4-9.6-1.4c-2-1.2-4.6-4.5-4.7-6.2c-0.1-1.7-0.7-5.2-0.9-6.1c-0.2-1,1.6-1.1,1.9-0.7c0.3,0.3,5.5,6.9,7.8,5.7
	c2.4-1.3,3.3-4,6.5-4.6C169.6,75.1,170.6,78.1,170.9,73.6z M155,67.9c-0.1,0-0.2-0.1-0.2-0.2c-0.1-0.1,0-0.3,0.1-0.4
	c0.1,0,2.1-1.1,3.7-1.3c0.1,0,0.3,0.1,0.3,0.2s-0.1,0.3-0.2,0.3c-1.4,0.2-3.5,1.2-3.5,1.3C155.1,67.9,155,67.9,155,67.9L155,67.9z"
	/>
<path class="st36" d="M168.6,78.1c0,0-2.7,1.4-5.7,1c0,0,1,1,2.7,1.4c0.4,0.1,0.6,0.2,0.9,0.2c1.1,0.1,2.1-0.7,2.1-1.6
	C168.5,78.7,168.5,78.3,168.6,78.1z"/>
<path class="st37" d="M155.7,75.6c0.2,0.8,1.6,1.1,3,0.6c1.5-0.4,2.5-1.4,2.2-2.1c-0.2-0.8-1.6-1.1-3-0.6
	C156.5,73.8,155.4,74.8,155.7,75.6z M167.6,71.9c0.2,0.8,1.3,1.2,2.2,0.9c1-0.3,1.6-1.2,1.4-2c-0.2-0.8-1.3-1.2-2.2-0.9
	C167.9,70.2,167.3,71.1,167.6,71.9z"/>
<path class="st33" d="M149.9,66.5c0,0,0.9,6,0,6.7s-1.6,0.5-2.5-0.3c-0.9-0.9-2.7-5.9-2.1-6.4C145.9,66,149.9,66.5,149.9,66.5z"/>
<path class="st35" d="M163.7,70c0,0,2.2,0.9,2.9,1.8c0.5,0.8,0.9,1.3,0.6,2.2c-0.3,0.8-1.5,1.3-3,0.9C162.8,74.3,163.7,70,163.7,70z
	"/>
<path class="st33" d="M165.3,75.2c-0.4,0-1.1-0.1-1.9-0.3c-0.1,0-0.2-0.2-0.2-0.3c0-0.1,0.2-0.2,0.3-0.2c1.7,0.4,2.9,0.4,3.3-0.4
	c0.4-0.7,0-1.7-0.8-2.2c-3-2.2-3.8-5.1-3.5-6c0.2-0.7,1-1.2,2.3-1.2c0.9,0,1.8,0.1,1.8,0.1c0.1,0,0.2,0.2,0.2,0.3
	c0,0.1-0.2,0.2-0.3,0.2c-0.9-0.2-3.3-0.3-3.6,0.7c-0.2,0.7,0.5,3.4,3.3,5.5c1,0.7,1.3,2,0.9,2.9C167.1,74.7,166.6,75.2,165.3,75.2z"
	/>
<path class="st38" d="M165.8,60.3c0,0-2.2-10.1-6.9-10.8s-10.8,0.2-12.6,0.6c-3.8,1.1-6.4,5.9-6.9,7.7c-0.7,2.5,0.5,6.1,1.1,9.1
	l0.7,3c0,0,4.7-0.6,6.1-1.1C159.1,65.3,164.5,61.8,165.8,60.3L165.8,60.3z"/>
<path class="st33" d="M155.7,71c-0.1,0-0.2,0-0.2-0.1c-0.1-0.1,0-0.3,0.1-0.4c1.9-1.3,3.7-1.4,3.8-1.4c0.2,0,0.3,0.1,0.3,0.2
	c0,0.2-0.1,0.3-0.2,0.3c0,0-1.8,0.2-3.6,1.3C155.8,71,155.7,71,155.7,71L155.7,71z"/>
<path class="st33" d="M157.9,69.5c0.3-0.1,0.8-0.4,1.3,0.2c0.4,0.5,0.5,1.6,0.1,2.2s-1.3,0.4-1.7,0s-0.6-1.5-0.4-1.8
	C157.3,69.8,157.7,69.6,157.9,69.5L157.9,69.5z M165.2,68.3c-0.2-0.1-0.3-0.2-0.2-0.4c0,0,0.9-1.8,3-1.2c0.1,0,0.2,0.2,0.2,0.3
	c0,0.1-0.2,0.2-0.3,0.2c-1.8-0.4-2.4,0.9-2.5,1C165.4,68.3,165.3,68.3,165.2,68.3z"/>
<path class="st33" d="M166.3,67.4c0.1-0.3,0.8-0.7,1.3-0.4c0.4,0.4,0.6,1.3,0.5,1.9c-0.2,0.5-0.9,0.4-1.3,0.1S166.1,67.7,166.3,67.4
	z M165.7,59.8c0,0,12.9,0.7,12.4,2.1c-0.4,1.4-6.9,4.1-11,4.6c-4.1,0.4-19.1,2.5-19.6,2.1c-0.4-0.2,8.2-2.8,13.6-5.3
	C164.7,61.8,165.7,59.8,165.7,59.8z"/>
<path class="st36" d="M160.8,54.6c0,0-6.1,0.5-7.2,3.1s5.1,1.7,7.2,0.4C163.1,56.7,163.2,54.3,160.8,54.6z"/>
<path class="st39" d="M115.4,215.9c0.8-7.2,1.9-15.5,3.7-22.4l2.1-21.2c0,0,13.2-2.4,15.8-9.3c3-7.9-0.8-64.3-0.8-64.3
	c4.1-4.8,8.9-4.9,8.9-4.9l3.9,38.8l26-1.1c-0.2-3.7-5.8-38.5-5.8-38.5c9.2,2.3,11,7.2,11,7.2c6.4,20.2,7.7,86.6,7.7,86.6
	c2.5,16,4.5,80.3,5.7,136.3c0.1,3.6-2.6,5.7-2.6,9.2c0,1.5,2.1,9.3,2.1,10.8c0.9,41.6,2.1,70.3,2.1,70.3s-2.8,2.5-13.7,3.1
	c-9.3,0.5-13.3-2.2-13.3-2.2s-9.8-94.3-11.5-110.7c-0.4-3.6-4-65.1-4-65.1s-0.8,61.7-10.7,78.8c-11.3,19.3-71.1,54.6-71.1,54.6
	s-18.8-16.7-14.8-21.3c12.2-13.5,53.2-48.8,53.2-48.8L115.4,215.9L115.4,215.9z"/>
<path class="st33" d="M153.1,242.9c-0.2,0-0.3-0.1-0.3-0.3c0-0.7,0.8-17.1,3.3-19.2c2.4-2.1,14-3.4,14.5-3.5c0.1,0,0.3,0.1,0.3,0.2
	s-0.1,0.3-0.2,0.3s-12,1.4-14.3,3.4c-1.9,1.6-2.9,14-3.1,18.8C153.3,242.8,153.2,242.9,153.1,242.9z"/>
<path class="st35" d="M139.1,210.3c0,0,1.6,5.7,8.9,7.2c7.2,1.5,9.3-3,11.6-3.6s6.2-0.9,6.9-2.2s6.6-3.1-0.8-4.2
	C158.2,206.2,141.5,206.9,139.1,210.3L139.1,210.3z"/>
<path class="st40" d="M176,136.4l-26.8,1.3c0,0,1.3,11.2,12.7,11.7S177.6,142.2,176,136.4z"/>
<path class="st33" d="M112.8,166.9c-2.9-26.8,15.1-62.1,17.5-62.7c7.8-2.2,8.8,48.5,8.9,60.8C134,166.2,122.9,169.7,112.8,166.9z"/>
<path class="st35" d="M137.9,162.3c0,1.7,2,8.7,2,8.7s22.8,39.1,16,44.7c-8.1,6.6-16-6.4-31.9-27.7c-5.3-7.1-8.4-15.1-9.4-24
	C122.1,158.7,128.8,157.2,137.9,162.3z"/>
<path class="st38" d="M211.8,52.3c2.1-4.8,7.5-8.1,13.2-7.8c7.7,0.4,17.6,1.5,20.9,5.2c5.7,6.3-12.7,146-14.9,149.8
	c-2.1,3.8-105.1,14.8-108.2,13.2c-3-1.5-15.9-85.6-2.5-88.6s56.9,2.6,59.4-1C181.6,120.2,203.2,71.7,211.8,52.3L211.8,52.3z"/>
<path class="st38" d="M138.1,153l81.6-24.3l219.9,1.4l-20.7,79.1l-68.5,16.2L134,209.9L138.1,153z"/>
<path class="st41" d="M216.2,129.5c-6.3-0.4-10.1-5.9-7.9-11.4c8.8-21.6,28.1-68.2,30.6-68.7c2.7-0.6,68.9,4.1,92.4,5.9
	c4.3,0.4,7.1,4,5.7,7.9l-21.3,64.4c-1.4,4.4-6.2,7.4-11.1,7.2L216.2,129.5L216.2,129.5z"/>
<path class="st41" d="M315.2,134.4c-3.5-0.3-5.5-3.3-4.3-6.4c7.4-18.3,21.5-68.5,32.6-73.6c2.6-1.2,71.8,0.2,93.7,0.4
	c3.5,0,5.8,2.9,4.8,6l-23,77.3c-0.8,2.6-3.6,4.4-6.4,4.1L315.2,134.4L315.2,134.4z"/>
<path class="st41" d="M435.2,51.5c1.3-5.1,7.1-7.9,13.2-6.3c7.4,2,16.5,5.1,19.6,9.2c5.6,7.4-2.7,164-4.8,167.3
	c-1.4,2.2-58.3,10.8-90.3,12.3c-15.9,0.8-18.3-4-19.3-4.7c-3-1.8-14.9-92.5-1.4-94.5s58.7-3,61.2-6
	C415.2,126.7,429.5,72.9,435.2,51.5L435.2,51.5z"/>
<path class="st42" d="M348.8,138.3h-0.2c-0.4-0.1-0.5-0.5-0.4-0.9c1.3-3.8,6.4-3.9,17.8-4.4c6-0.2,13.4-0.5,22.9-1.3
	c3.8-0.4,7-0.6,9.8-0.8c6.4-0.4,10.5-0.8,12.8-1.7c2.8-1.1,3.1-2.7,3.4-4.4c0.1-0.6,0.3-1.3,0.4-1.8c1.5-3.8,21.2-73.3,21.4-74
	c0.1-0.4,0.5-0.6,0.9-0.4c0.4,0.1,0.6,0.5,0.4,0.9c-0.8,2.9-20,70.2-21.5,74.1c-0.2,0.4-0.3,1-0.4,1.5c-0.4,1.9-0.8,4.1-4.3,5.5
	c-2.5,1-6.8,1.3-13.2,1.8c-2.9,0.2-6.1,0.4-9.8,0.8c-9.5,0.9-17,1.2-23,1.3c-10.4,0.4-15.6,0.5-16.5,3.4
	C349.3,138.1,349,138.3,348.8,138.3L348.8,138.3z M142.8,210.1c-0.2,0-0.3,0-0.4-0.1c-4.5-3-4.5-7.2-4.4-12.3c0-1.5,0-3.1-0.1-4.8
	c-0.2-3.1-0.6-9.8-0.4-17.1c0.3-8.8,1.4-16.2,3.4-21.9c2-5.8,14.3-11.5,36.7-16.8c16.6-3.9,32.7-6.3,32.8-6.4
	c0.4-0.1,0.7,0.2,0.8,0.6c0.1,0.4-0.2,0.7-0.6,0.8c-0.2,0-16.3,2.3-32.8,6.3c-27.3,6.5-34.5,12.3-35.7,15.8
	c-4.6,13.5-3.3,32.3-3,38.6c0.1,1.7,0.1,3.4,0.1,4.9c-0.1,4.7-0.1,8.5,3.8,11.1c0.4,0.2,0.4,0.6,0.2,1
	C143.2,209.9,143,210.1,142.8,210.1L142.8,210.1z"/>
<path class="st42" d="M342.9,170.3C342.9,170.3,342.9,170.2,342.9,170.3c-0.4,0-39.2-2.4-58.1-3.8c-18.9-1.3-133.5-12.6-134.7-12.7
	c-0.4,0-0.6-0.4-0.6-0.8s0.4-0.6,0.8-0.6c1.2,0.1,115.8,11.4,134.6,12.7c18.8,1.3,57.6,3.8,58,3.8s0.7,0.4,0.6,0.7
	C343.6,169.9,343.2,170.3,342.9,170.3L342.9,170.3z"/>
<path class="st39" d="M529.5,411.3l-0.6,3.3c0,0-0.6,3.3,7.7,3.4c8.2,0.1,27.4-9.2,23.3-14.6C555.7,398.1,535.1,401.9,529.5,411.3
	L529.5,411.3z"/>
<path class="st37" d="M548.6,409.4c2.1-1.5,3.8-2.3,5.4-2.7c-1.7-0.4-8.1-3.8-10.7-3.1c-4.4,1.3-7.4,5.4-7.4,5.4s8.9,8.1,8.8,9
	C544.6,418,545.7,411.4,548.6,409.4L548.6,409.4z"/>
<path class="st33" d="M562.7,409.7c-3.1-1.6-4.1-1.9-8.8-3.1h-0.1c-1.5,0.4-3.2,1.2-5.4,2.7c-3,2.1-4,8.7-4,8.7
	c-0.3,1-7.8,16.7-7.8,16.7c-7.2,1.3-7.4,4.8-7.2,6.5c0.1,0.4,0.8,0.8,2,1.1c2.9-0.6,7.9-2,9.8-4.1c2.9-3.1,10-17.5,11.2-21.8
	c1.2-4.2,4.2-9.2,10.6-6.1C563.1,410.1,562.9,409.9,562.7,409.7L562.7,409.7z M411,426.2c-3.6,0.7-5.4,5.5-7.6,6.3
	c-2.3,0.7-39.9-2.8-40.9-4.6c-0.7-1.3-2.1-3.1-2.8-4.2c0.5-1.2,1.4-2.1,2.8-2.6c8.1-2.8,18.1-4.7,22.2-5.4c1.3-0.2,2.5-0.4,3.8-0.4
	c26.2-0.5,26.9,7.4,26.1,11.7C413.7,426.4,412.6,425.9,411,426.2z"/>
<path class="st43" d="M359.6,423.7c0.7,1.1,2.1,3,2.8,4.2c1,1.7,37.9,3.5,40.3,2.8c2.3-0.7,4.7-3.8,8.3-4.5c1.6-0.4,2.8,0.2,3.6,0.9
	c-0.1,0.4,1.2,8.1-5.4,10.2c-6.5,2.1-47.8-4.6-49.2-6.2C359,430,358.4,426.3,359.6,423.7L359.6,423.7z"/>
<path class="st37" d="M392.2,410.6c-1.9,5-3.5,4.7-3.1,5.7s9.8,4.2,10.2,4.1c0.4-0.2,3.8-1.4,6.4-1.4c2.7,0.1,3.4,0.3,3.5-0.1
	s3.8-11.5,4.5-14.9s-14-8.1-16.5-5.9C394.7,400.4,394.3,404.9,392.2,410.6L392.2,410.6z M493.6,95c0,0,0,8.3,0.7,14.9
	c0.2,1.9-10.9,0.6-11-0.4c0-0.4,0.5-3.5,0.7-5.9c0.2-5,0.3-10.9,1.7-11C487.9,92.3,492.4,92.3,493.6,95L493.6,95z"/>
<path class="st37" d="M476.3,71.4c-1.3,0.8-2.7,1.8-3.3,5.3c-0.6,3.5-0.7,5.5-2.1,6.3c-1.9,1.3-3,0.9-2.9,3.1
	c0.1,2.1,1.7,2.6,1.7,2.6s-1.3,3.8-1.3,6.4c0,4.8,4.5,7.2,10.7,7.2c6.6,0.1,9.9-4,11.6-5.9c4.2-4.8,4.2-19.3-1.3-23.9
	S479.2,69.8,476.3,71.4L476.3,71.4z"/>
<path class="st44" d="M481,64.1c3.1-0.5,9.8-2.2,12.2-1.5c3,1,4.5,2.2,4.2,4.7c0,0,2.1,1,4.5,3.7c2.3,2.8,1.1,10.7-1.3,13.3
	c-2.2,2.6-5.4,9.6-6.3,12.3c-1,3-4.3,1.3-4.9-0.2c-1.8-4-3.7-14-3.7-14s-2.5,2.7-3.8,2.6c-2.2-0.3-1.2-3.1-1.2-4.5
	c-0.2,0.3-0.7,0.3-2.1-0.4C475.8,78.9,476.5,64.9,481,64.1L481,64.1z"/>
<path class="st37" d="M485,81.3c0,0,0.9-0.4,1.7,0.7s-1.2,7.2-2.9,7.2s-2.2-2.1-1.9-3.2C482.4,84.8,484.2,81.7,485,81.3L485,81.3z"
	/>
<path class="st33" d="M474.9,83.2c-0.1,0-0.2-0.1-0.2-0.2c0,0-0.5-1.6-2-2c-0.1,0-0.2-0.2-0.2-0.3c0-0.1,0.2-0.2,0.3-0.2
	c1.6,0.4,2.2,2.1,2.2,2.2C475.1,83,475,83.2,474.9,83.2C475,83.2,474.9,83.2,474.9,83.2L474.9,83.2z"/>
<path class="st36" d="M469.1,91.1c0.6,0.1,1.6,0.2,2.9-0.2c0,0-0.6,1.1-2.3,1.6c-0.4,0.1-0.6,0.1-0.8,0
	C468.9,92.1,469.1,91.6,469.1,91.1L469.1,91.1z"/>
<path class="st33" d="M474.2,82c0,0-0.1,1.8-1.3,1.4c-1.1-0.4-0.5-2.5,0-2.4C473.9,81.2,474.2,82,474.2,82z M476.9,81.8
	c-0.1,0-0.2-0.1-0.2-0.2c0,0-0.9-3.3-3.6-3.6c-0.1,0-0.2-0.1-0.2-0.3c0-0.1,0.1-0.2,0.3-0.2c1.3,0.1,2.3,0.9,3.1,2.1
	c0.6,0.9,0.8,1.8,0.8,1.8C477.2,81.6,477.1,81.8,476.9,81.8L476.9,81.8z M483.5,101.9c-0.1,0-0.1,0-0.2-0.1s0-0.2,0.1-0.3
	c1.1-0.6,1.9-1.7,2.2-3.1c0.4-1.2,0.4-2.1,0.3-2.4c0-0.1,0.1-0.2,0.2-0.2s0.2,0.1,0.2,0.2C486.2,96,486.4,100.2,483.5,101.9
	L483.5,101.9z M473.2,71.7c0.4-2.1,2.6-4,2.6-4l-3.8-1.2c-2.6-0.8-11.8-3.7-11.8,0c0,4,13.1,9.5,13.1,9.5s2.2,1.3,5,2.8
	C475.7,76.3,472.8,73.4,473.2,71.7L473.2,71.7z"/>
<path class="st45" d="M496.7,63.7c-4.9-2.6-12-1.1-14.3-0.5c-4.1,0.8-6.7,4.6-6.7,4.6s-2.1,2-2.6,4c-0.4,1.8,2.5,4.7,5,7
	c3.9,2.1,8.9,5,10,5.8c1.8,1.3,8.9,3.7,10.7,2.7c1.7-1,5.2-10.2,5.4-12.3C504.4,72.9,500.1,65.5,496.7,63.7z"/>
<path class="st33" d="M454.9,125.6c1.8-9.7,10-16.6,19.9-16.9c16.4-0.4,29.5-0.3,33.7,6.4c5.7,9.1,4.8,68.1,4,84.3
	c-0.1,2.6-2,4.4-2,4.4s-0.6,16.6-15.5,15.8c-17.2-1.1-54.6-15.6-54.6-15.6L454.9,125.6L454.9,125.6z"/>
<path class="st39" d="M525.5,325.8l-8.6-68.5c0,0-1-30.5-6.3-53.5c-4.6-0.1-11.9-1.2-14.6-6.6c-3.9-8.1,2-54.5,2.6-58.6
	c0.5-3.6,6.8-18.9,9.6-24c-0.3-0.6-3.3-3.4-5.5-3.8l-10.6,20.8l-13.2-23c-2.2,0-4.4,0.1-6.4,0.1c2.5,6,10.6,26,10.7,28.7
	c0.2,3.1-6.7,51.4-8.8,54.4c-2,3-5,7.2-16.6,7.2c-6.7,0-13.1-2.9-15.7-5.1l-1.9,8.3l-31.1,99.3l-25.5,108.6c0,0,0.1,2.2,11.3,7.9
	c8.9,4.5,21.7,0,21.7,0l30.2-85.9l27.4-62.7c0,0,8.1,52.2,14,68.6c7.2,20.4,40.4,76.6,40.4,76.6s5.3-3.8,18.1-8.5
	c8-2.9,12.9-2.6,12.9-2.6L525.5,325.8L525.5,325.8z"/>
<path class="st37" d="M457.4,119l-29.2,54.6c0,0-53.2,55.2-47.3,60.2c6,5,53.3-29.2,63.4-41.7c14-17.5,25.3-51.5,26.3-62.9
	C472.6,108.8,460,115.7,457.4,119L457.4,119z"/>
<path class="st37" d="M392.8,229.2c0,0-3.9,6.2-5.5,7.5c-1.4,1.3-3.7-0.3-4.4,0c-0.7,0.3-2.8,0.6-5,0.1c-2.3-0.5-5.5-0.7-6.4-0.9
	c-1-0.3-2.3-1.1-1.7-1.5c0.6-0.5,12.8-6.6,14.7-8.9C386.5,223.2,394.7,223.9,392.8,229.2L392.8,229.2z"/>
<path class="st37" d="M385.6,224.2c0,0-6.9,1.6-10.1,1.2c-3.2-0.4-4.4-1.6-3.5,0.2c0.8,1.8,2.4,2.5,4.7,2.8c2.3,0.3,3.1,1.3,6.2,1.3
	C385.9,229.5,387.1,224.1,385.6,224.2L385.6,224.2z"/>
<path class="st33" d="M465.3,272.4c-0.1,0-0.2-0.1-0.3-0.2c-0.1-0.1,0-0.3,0.1-0.4c0.2-0.1,18-9.1,34.6-7.6c0.2,0,0.3,0.2,0.3,0.3
	c0,0.2-0.2,0.3-0.3,0.3c-16.5-1.5-34.1,7.5-34.3,7.6L465.3,272.4L465.3,272.4z M453.4,247.8l-7.3-9.2v-0.1l2.4-19l22.7,1.8
	l-3.9,20.8L453.4,247.8L453.4,247.8z M446.6,238.5l6.9,8.7l13.2-5.4l3.8-20l-21.7-1.7L446.6,238.5L446.6,238.5z M514,251.1
	l-12.3-7.1l-1.4-21.7l13.7-0.4c0.2,0,0.3,0.1,0.3,0.3s-0.1,0.3-0.3,0.3l-13.2,0.4l1.3,20.9l11.7,6.7l2.3-3.9
	c0.1-0.1,0.3-0.2,0.4-0.1c0.1,0.1,0.2,0.3,0.1,0.4L514,251.1L514,251.1z"/>
<path class="st43" d="M552.6,416.5c-1.2,4.2-8.2,18.7-11.2,21.8c-2,2.1-7.1,3.5-9.8,4.1c4,1.2,13.2,2,17.9,0.5
	c6.1-1.9,8.6-6.1,9-9.8c0.4-3.6,6.4-19.2,4.7-22.6C556.8,407.2,553.7,412.3,552.6,416.5L552.6,416.5z"/>
<path class="st33" d="M509.7,347.9c-0.4,0-0.7-0.1-0.9-0.4c-1-1.5,3.2-7.2,8.9-14.6l0.4-0.6c0.6-0.8,1.1-1.4,1.5-1.9
	c-1.2,0.5-2.9,1.2-5.1,1.5c-3.4,0.4-6.6,1.8-9,2.8c-2.5,1.1-3.7,1.4-4.2,1c-0.4-0.4-0.1-1,0.1-1.3c0.6-1.5,4.9-3.5,12.6-5.8
	c5.7-1.7,11.3-3,11.4-3c0.2,0,0.3,0.1,0.3,0.2c0,0.2-0.1,0.3-0.2,0.3c-6.2,1.4-22.5,5.7-23.6,8.5c-0.3,0.6-0.2,0.8-0.2,0.8
	c0.3,0.3,2.1-0.4,3.6-1.1c2.4-1,5.7-2.3,9.1-2.9c3.8-0.5,5.9-2,6.4-2.4c0.3-0.3,0.4-0.3,0.4-0.2l0.2,0.1v0.2c0,0-0.1,0.1-0.1,0.2
	c0,0-0.9,0.7-2.9,3.3l-0.4,0.6c-3.6,4.7-9.7,12.7-8.9,14c0.1,0.2,0.4,0.2,0.8,0.1c3.8-0.7,13.3-13.5,13.5-13.7
	c0.1-0.1,0.3-0.2,0.4-0.1c0.1,0.1,0.2,0.3,0.1,0.4c-0.4,0.5-9.8,13.1-13.8,13.9C509.9,347.9,509.9,347.9,509.7,347.9L509.7,347.9z
	 M429,341.5c-4,0-10.3-0.8-11.2-2c-0.2-0.2-0.2-0.4-0.1-0.7c0.4-0.8,3.4-1.3,9.7-2.2c2.4-0.4,5-0.7,6.9-1.1c3-0.6,3.1-1,3.1-1.1
	c-0.3-0.5-2.4-0.3-4.7-0.1c-4.6,0.4-11.5,1.2-15.8-2.1c-0.3-0.2-1.2-0.9-0.9-1.5c0.4-0.8,2.4-1.8,16.2-0.6c7.5,0.6,14.9,1.7,15,1.7
	c0.2,0,0.3,0.2,0.2,0.3c0,0.2-0.2,0.3-0.3,0.2c-0.1,0-7.5-1-15-1.7c-13.5-1.2-15.5-0.2-15.7,0.3c-0.1,0.2,0.2,0.5,0.7,0.9
	c4.2,3.1,11,2.4,15.5,2c3-0.3,4.8-0.4,5.2,0.4c0.1,0.2,0.1,0.4,0,0.4c-0.4,0.9-4.3,1.5-10.5,2.4c-3.8,0.5-8.9,1.3-9.3,1.9v0.1
	c1,1.3,10.7,2.2,13.4,1.6c0.2,0,0.3,0.1,0.3,0.2c0,0.2-0.1,0.3-0.2,0.3C431,341.5,430.1,341.5,429,341.5L429,341.5z M461.9,113.6
	c-9,6.8-25.9,45.4-25.9,45.4c2.4,3.7,10.5,10.2,22.6,13.1c8-16.5,13-35.5,13.7-43.4C474.2,108.2,465.3,111,461.9,113.6L461.9,113.6z
	 M389,409.7c-0.2,0-0.3-0.2-0.3-0.4c0.1-0.2,4.8-22.3,5.9-27.4c0.4-1.5,1.6-7.2,3.2-14.3c4.1-18.1,10.4-45.3,11-50.3
	c0.5-4.2,4.1-13,7.3-20.7c2.2-5.5,4.4-10.6,5.1-13.5c1.1-4,6.3-20,10.8-34c3.2-9.9,6.3-19.2,7.2-22.5c2.2-7.4,3.6-22.1,3.6-22.2
	c0-0.2,0.2-0.3,0.3-0.3c0.2,0,0.3,0.2,0.3,0.3c0,0.2-1.3,14.8-3.6,22.4c-1,3.1-4,12.5-7.2,22.5c-4.6,14-9.8,30-10.8,34
	c-0.8,2.9-2.9,8.1-5.1,13.6c-3.1,7.7-6.7,16.5-7.2,20.6c-0.6,5-6.9,32.3-11,50.3c-1.6,7.2-3,12.8-3.2,14.3
	c-1.1,5.2-5.8,27.2-5.9,27.4C389.2,409.7,389.1,409.7,389,409.7L389,409.7z"/>
<path class="st36" d="M459.1,172.2c-0.2-0.1-0.3-0.2-0.3-0.4c0.1-0.2,8.3-19.8,10.7-27.9c2.4-8.1,2.1-19.2,2.1-19.3
	c0-0.2,0.1-0.3,0.3-0.3c0.2,0,0.3,0.1,0.3,0.3c0,0.1,0.4,11.3-2.1,19.5c-2.4,8.2-10.6,27.8-10.7,28
	C459.3,172.2,459.2,172.2,459.1,172.2L459.1,172.2z"/>
<path class="st33" d="M501.9,269.7c-1,0-2.1-0.2-3.5-0.5c-5.5-1.5-22.2,0-22.4,0s-0.3-0.1-0.3-0.3c0-0.2,0.1-0.3,0.3-0.3
	c0.7-0.1,17-1.5,22.6,0c2.1,0.6,4.8,0.9,5.4-0.2c0.2-0.4,0-0.6-0.3-0.9c-1.1-0.9-3.8-1-3.8-1c-0.2,0-0.3-0.1-0.3-0.3
	c0-0.2,0.1-0.3,0.3-0.3c0.1,0,3,0.2,4.1,1.2c0.5,0.4,0.7,1,0.4,1.5C504,269.3,503.1,269.7,501.9,269.7L501.9,269.7z M498.6,138.9
	c-0.1,0-0.2,0-0.2-0.1l-6.3-6.9l-8.7,5.7c-0.1,0.1-0.3,0.1-0.4-0.1c-0.1-0.1-0.1-0.3,0.1-0.4l8.9-5.9c0.1-0.1,0.3-0.1,0.4,0l6.4,7.1
	c0.1,0.1,0.1,0.3,0,0.4C498.8,138.9,498.7,138.9,498.6,138.9L498.6,138.9z M498.3,140.8l-15.1-2c-0.2,0-0.3-0.2-0.3-0.3
	c0-0.2,0.2-0.3,0.3-0.3l15,2c0.2,0,0.3,0.2,0.3,0.3C498.6,140.7,498.5,140.8,498.3,140.8L498.3,140.8z M158.9,226.8
	c-0.1,0-0.2,0-0.2-0.1c-0.1-0.1-0.1-0.3,0.1-0.4c0.4-0.3,1.6-0.4,4.3-0.6c3.7-0.4,8.7-0.9,12-2c1.2-0.4,1.8-0.8,1.8-1.3
	c0-0.9-2.4-2.1-3.9-2.5c-0.1,0-0.2-0.2-0.2-0.3s0.2-0.2,0.3-0.2c0.4,0.2,4.3,1.4,4.3,3c0,0.7-0.7,1.3-2.1,1.8
	c-3.4,1.2-8.4,1.7-12.1,2.1c-2,0.2-3.8,0.4-4,0.5H158.9L158.9,226.8z M116.5,319.9h-0.2c-2.6-0.6-6.6-16-7.1-17.7
	c0-0.1,0.1-0.3,0.2-0.3s0.3,0.1,0.3,0.2c0,0,1.1,4.3,2.5,8.5c2.4,7.4,3.7,8.7,4.2,8.9c0.1,0,0.3,0,0.4-0.2
	c1.9-2.1-2.4-11.1-4.3-14.4c-0.1-0.1,0-0.3,0.1-0.3c0.1-0.1,0.2-0.1,0.3,0c0.1,0.1,8.3,6.5,11.2,6.1c0.2,0,0.2-0.1,0.2-0.1
	c0-0.1,0.1-0.9-6.2-5.1c-3.2-2.1-6.6-4.2-6.6-4.2c-0.1-0.1-0.2-0.2-0.1-0.4c0.1-0.1,0.2-0.2,0.4-0.1l6.6,4.2
	c6.6,4.5,6.5,5.3,6.4,5.6c0,0.2-0.2,0.4-0.5,0.4c-2.5,0.4-8.4-3.8-10.6-5.5c0.6,1.2,1.6,3.2,2.5,5.4c1.9,4.5,2.2,7.4,1.2,8.7
	C116.9,319.8,116.6,319.9,116.5,319.9z M172.2,408.3c-0.1,0-0.3-0.1-0.3-0.2c0-0.2-2.1-20.1-1.5-32.8c0.4-8.6,0-10.5-0.8-14.6
	c-0.4-2.1-0.9-4.6-1.5-8.7c-0.8-5.9-1.9-24.1-3-43.3c-1.3-20.9-2.5-42.5-3.5-47.3c-1.8-9.1-3.9-26.8-3.9-26.9c0-0.1,0.1-0.3,0.2-0.3
	c0.2,0,0.3,0.1,0.3,0.2c0,0.2,2.1,17.8,3.9,26.8c1,4.8,2.2,26.5,3.5,47.4c1.2,19.2,2.2,37.3,3,43.2c0.5,4.1,1.1,6.6,1.5,8.6
	c0.8,4.1,1.2,6,0.8,14.7c-0.5,12.7,1.5,32.6,1.5,32.8C172.4,408.1,172.3,408.3,172.2,408.3z"/>
</svg>
