<?xml version="1.0" encoding="utf-8"?>
<!-- Generator: Adobe Illustrator 28.3.0, SVG Export Plug-In . SVG Version: 6.00 Build 0)  -->
<svg version="1.1" id="Calque_1" xmlns="http://www.w3.org/2000/svg" xmlns:xlink="http://www.w3.org/1999/xlink" x="0px" y="0px"
	 viewBox="0 0 600.1 488.1" style="enable-background:new 0 0 600.1 488.1;" xml:space="preserve">
<style type="text/css">
	.st0{opacity:0.5;}
	.st1{opacity:0.77;}
	.st2{fill:#D9D9DA;}
	.st3{fill:#EFEFF0;}
	.st4{opacity:0.2;fill:#62AFBD;enable-background:new    ;}
	.st5{fill:#9E9D98;}
	.st6{fill:none;}
	.st7{fill:url(#SVGID_1_);}
	.st8{fill:url(#SVGID_00000159447050315212516000000017443028507430620325_);}
	.st9{fill:url(#SVGID_00000039130977006971791940000017979134990995028648_);}
	.st10{fill:#D6D5CA;}
	.st11{fill:#0080CE;}
	.st12{fill:#0086FF;}
	.st13{fill:#4BAFF9;}
	.st14{fill:#FFFCE8;}
	.st15{fill:#FF1F4F;}
	.st16{fill:#31A3F7;}
	.st17{fill:#0586E5;}
	.st18{fill:#1095F9;}
	.st19{fill:url(#SVGID_00000067204408743974118770000002194790090792342952_);}
	.st20{fill:url(#SVGID_00000045617273026624972930000000506082172382888577_);}
	.st21{fill:#605E60;}
	.st22{fill:#2D374C;}
	.st23{fill:#434C5B;}
	.st24{fill:#002856;}
	.st25{fill:#70696F;}
	.st26{fill:url(#SVGID_00000065076987086365427410000009418439485376817599_);}
	.st27{fill:url(#SVGID_00000155830400203153040950000017400665674311051922_);}
	.st28{fill:#1C9AF9;}
	.st29{fill:url(#SVGID_00000143578189891524020480000006650445142767755909_);}
	.st30{fill:url(#SVGID_00000108307988224587621410000015964911262260301702_);}
	.st31{fill:#726F72;}
	.st32{opacity:5.000000e-02;fill:#B9C4D6;enable-background:new    ;}
	.st33{fill:#F2E9E7;}
	.st34{fill:#CC8B70;}
	.st35{fill:#2E2E47;}
	.st36{fill:#FFE2BD;}
	.st37{fill:#7A7642;}
	.st38{fill:#BCB258;}
	.st39{fill:#02934D;}
	.st40{fill:#FFFFFF;}
	.st41{fill:#02BA66;}
	.st42{fill:#09D37C;}
	.st43{fill:#E0A053;}
	.st44{fill:#FFC97D;}
	.st45{fill:#3B82F6;}
	.st46{fill:#FFA982;}
	.st47{fill:#235EB5;}
	.st48{fill:#A424FF;}
	.st49{fill:#F2836D;}
	.st50{fill:#82664B;}
	.st51{fill:#404060;}
	.st52{fill:#515172;}
</style>
<g id="Section5">
	<g class="st0">
		<g class="st1">
			<path class="st2" d="M1512-2399.9h-120.7v297.3h132.6v-297.3L1512-2399.9z M1091.8-2399.9v297.3h133.7v-297.3h-66.4H1091.8z
				 M1278.5-2399.9h-36.4v297.3h132.6v-297.3h-47.6H1278.5z"/>
		</g>
		<path class="st3" d="M1225.3-2399.8h-66.2l-66.9,66.9v119.3l133.1-133.1V-2399.8z M1225.3-2298.1l-133.1,133.2v61.9h44.9
			l88.2-88.2V-2298.1z M1241.6-2399.8v36.8l36.9-36.8H1241.6z M1374.7-2399.8h-47.6l-85.5,85.4v106.9l133.1-133.1V-2399.8z
			 M1374.7-2262.5l-133.1,133.1v26.4h49.5l83.6-83.6V-2262.5z M1391-2399.8v42.9l42.9-42.9H1391z M1524.1-2399.8H1512l-121,121v75.8
			l133.1-133.1V-2399.8z M1524.1-2178.4l-75.4,75.4h75.4V-2178.4z M1524.1-2275.6L1391-2142.5v39.5h25.3l107.8-107.8L1524.1-2275.6z
			"/>
	</g>
	<path class="st4" d="M1589.4-1965.1h-180.3c-2.8,0-5-2.2-5-5s2.2-5,5-5h180.3c2.8,0,5,2.2,5,5
		C1594.4-1967.4,1592.2-1965.1,1589.4-1965.1z"/>
	<path class="st5" d="M1420.4-2042.9v53c0,12.2,8.2,22.1,18.2,22.1h112.1c10,0,18.2-9.9,18.2-22.1v-53c0-12.2-8.2-22.1-18.2-22.1
		h-112.1C1428.6-2065,1420.4-2055.1,1420.4-2042.9z"/>
	<path class="st6" d="M1463.4-1976.3h-26.8c-6.2,0-11.2-6.1-11.2-13.6v-22.7h34.1v22.7C1459.5-1984.8,1461-1980.1,1463.4-1976.3z
		 M1459.5-2021.1h-34.1v-21.8c0-7.5,5-13.6,11.2-13.6h26.8c-2.4,3.7-3.9,8.4-3.9,13.6V-2021.1z"/>
	
		<linearGradient id="SVGID_1_" gradientUnits="userSpaceOnUse" x1="1517.2061" y1="-13896.4209" x2="1464.819" y2="-13893.6924" gradientTransform="matrix(1 0 0 -1 0 -15933.9062)">
		<stop  offset="5.400000e-02" style="stop-color:#9E9D98"/>
		<stop  offset="1" style="stop-color:#7B7C7F"/>
	</linearGradient>
	<path class="st7" d="M1535.3-2042.9v21.8h-75.8v-21.8c0-5.1,1.5-9.8,3.9-13.6h60.8C1530.3-2056.5,1535.3-2050.4,1535.3-2042.9z"/>
	
		<linearGradient id="SVGID_00000089545275350109146270000002958899819480145071_" gradientUnits="userSpaceOnUse" x1="1518.1709" y1="-13940.4414" x2="1465.8029" y2="-13937.7139" gradientTransform="matrix(1 0 0 -1 0 -15933.9062)">
		<stop  offset="5.400000e-02" style="stop-color:#9E9D98"/>
		<stop  offset="1" style="stop-color:#7B7C7F"/>
	</linearGradient>
	<path style="fill:url(#SVGID_00000089545275350109146270000002958899819480145071_);" d="M1535.3-1989.9c0,7.5-5,13.6-11.2,13.6
		h-60.8c-2.4-3.7-3.9-8.4-3.9-13.6v-22.7h75.8L1535.3-1989.9z"/>
	
		<linearGradient id="SVGID_00000004530317597704447790000008146703164663398030_" gradientUnits="userSpaceOnUse" x1="1477.6001" y1="-13917.5059" x2="1568.8" y2="-13917.5059" gradientTransform="matrix(1 0 0 -1 0 -15933.9062)">
		<stop  offset="5.400000e-02" style="stop-color:#9E9D98"/>
		<stop  offset="1" style="stop-color:#CCCBC4"/>
	</linearGradient>
	<path style="fill:url(#SVGID_00000004530317597704447790000008146703164663398030_);" d="M1542.3-1989.9v-53
		c0-12.2-8.2-22.1-18.2-22.1h-46.5h73c10,0,18.2,9.9,18.2,22.1v53c0,12.2-8.2,22.1-18.2,22.1h-26.5
		C1534.2-1967.9,1542.3-1977.7,1542.3-1989.9z"/>
	<path class="st10" d="M1436.6-2065h41.1c-5.8,0-11,3.4-14.3,8.5h-26.8c-6.2,0-11.2,6.1-11.2,13.6v21.8h34.1v8.5h-34.1v22.7
		c0,7.5,5,13.6,11.2,13.6h26.8c3.3,5.2,8.5,8.5,14.3,8.5h46.5h-87.6c-10,0-18.2-9.9-18.2-22.1v-53
		C1418.4-2055.1,1426.6-2065,1436.6-2065z"/>
	<path class="st10" d="M1463.4-1976.3h60.8c6.2,0,11.2-6.1,11.2-13.6v-22.7h-75.8v-8.5h75.8v-21.8c0-7.5-5-13.6-11.2-13.6h-60.8
		c3.3-5.2,8.5-8.5,14.3-8.5h46.5c10,0,18.2,9.9,18.2,22.1v53c0,12.2-8.1,22.1-18.1,22.1h-46.5
		C1471.9-1967.8,1466.7-1971.2,1463.4-1976.3z"/>
	<path class="st11" d="M1507.8-2037.3c2.4,0,4.5,0.8,6,2.2s2.5,3.2,2.5,5.3c0,4.2-3.8,7.5-8.5,7.5h-19.9l17-15H1507.8z"/>
	<path class="st12" d="M1450.8-2035.6v-1.7h54.1l-17,15.1h-37.1v-1.7h1.6v-11.7L1450.8-2035.6z"/>
	<path class="st13" d="M1452.7-2035.6v11.7h-1.9v1.7h27.7c4.7,0,8.5-3.4,8.5-7.5c0-2.1-1-4-2.5-5.3c-1.5-1.4-3.7-2.2-6-2.2h-27.7
		v1.7L1452.7-2035.6L1452.7-2035.6z"/>
	<path class="st14" d="M1452.4-2035.6v11.7h25.4c3.7,0,6.6-2.6,6.6-5.9c0-1.6-0.7-3.1-1.9-4.1c-1.2-1.1-2.9-1.7-4.7-1.7H1452.4z"/>
	<path class="st15" d="M1475.7-2030.1h-3.7v4.2l1.8-1.6l1.9,1.6L1475.7-2030.1z"/>
	<path class="st11" d="M1507.8-2052c2.4,0,4.5,0.8,6,2.2s2.5,3.2,2.5,5.3c0,4.2-3.8,7.5-8.5,7.5h-19.9l17-15H1507.8z"/>
	<path class="st12" d="M1450.8-2050.4v-1.6h54.1l-17,15h-37.1v-1.6h1.6v-11.8H1450.8z"/>
	<path class="st13" d="M1452.7-2050.4v11.7h-1.9v1.7h27.7c4.7,0,8.5-3.4,8.5-7.5c0-2.1-1-4-2.5-5.3c-1.5-1.4-3.7-2.2-6-2.2h-27.7
		v1.7L1452.7-2050.4L1452.7-2050.4z"/>
	<path class="st14" d="M1452.4-2050.4v11.7h25.4c3.7,0,6.6-2.6,6.6-5.9c0-1.6-0.7-3.1-1.9-4.1c-1.2-1.1-2.9-1.7-4.7-1.7H1452.4z"/>
	<path class="st15" d="M1467.1-2048.4h-3.7v4.2l1.8-1.6l1.9,1.6L1467.1-2048.4z"/>
	<path class="st4" d="M846.7-1965.1l53.8,4.7l278.3-4.7l-53.8-5.1L846.7-1965.1z"/>
	<path class="st5" d="M910.9-1995.1l-10.4,34.9h4l11.7-34.9H910.9z"/>
	<path class="st10" d="M924.5-1995.1h-8.3l-11.7,34.9h4.8L924.5-1995.1z"/>
	<path class="st5" d="M857.1-1999.7l-10.4,34.8h4l11.7-34.8H857.1z"/>
	<path class="st10" d="M870.7-1999.7h-8.3l-11.7,34.8h4.8L870.7-1999.7z"/>
	<path class="st5" d="M1114.5-2004.8l10.4,34.9h-4l-11.7-34.9H1114.5z"/>
	<path class="st10" d="M1100.9-2004.8h8.3l11.7,34.9h-4.8L1100.9-2004.8z"/>
	<path class="st5" d="M1168.3-1999.7l10.4,34.8h-4l-11.7-34.8H1168.3z"/>
	<path class="st10" d="M1154.7-1999.7h8.3l11.7,34.8h-4.8L1154.7-1999.7z"/>
	<path class="st16" d="M1078-2167.6H864.5l29.1,130.3H1114v-94.3C1114-2151.4,1097.8-2167.6,1078-2167.6z"/>
	<path class="st12" d="M864.5-2167.6v130.3h29.1v-101.1C893.6-2154.5,880.6-2167.6,864.5-2167.6z M1183.8-1996.2v-94.3h-65.3
		c-14.8,0-26.8,12-26.8,26.8v76h83.5L1183.8-1996.2L1183.8-1996.2z"/>
	<path class="st16" d="M1183.8-2090.5v94.3c0,4.7-3.8,8.5-8.5,8.5H1150v-69C1150-2075.4,1165.1-2090.5,1183.8-2090.5z"/>
	<path class="st17" d="M934.5-2037.3h214.3c3.3,0,6,2.7,6,6v36.2H934.5V-2037.3z"/>
	<path class="st18" d="M934.5-2029.9h220.3v42.1H934.5V-2029.9z"/>
	<path class="st18" d="M902.1-2090.5c18.7,0,33.8,15.1,33.8,33.8v69h-33.8V-2090.5z"/>
	<path class="st12" d="M854.2-1987.7h48v-102.8h-49.8c-5.6,0-10.1,4.5-10.1,10.1v80.9C842.3-1993,847.6-1987.7,854.2-1987.7
		L854.2-1987.7z"/>
	
		<linearGradient id="SVGID_00000153666225392388849330000007151116923255494549_" gradientUnits="userSpaceOnUse" x1="531.5338" y1="-2085.8276" x2="546.0967" y2="-2085.8276" gradientTransform="matrix(0.9551 0.2962 -0.2962 0.9551 136.3477 -410.464)">
		<stop  offset="0" style="stop-color:#FDDEDC"/>
		<stop  offset="0.974" style="stop-color:#FDBCB8"/>
	</linearGradient>
	<path style="fill:url(#SVGID_00000153666225392388849330000007151116923255494549_);" d="M1277.1-2246c1-0.8-0.4-2.3-1.4-1.5
		c-1.7,1.4-3.1,3.1-4.1,5l-1-0.4c0.3-2.9,1.4-5.6,3.4-8c0.8-1-0.9-2.1-1.7-1.1c-2,2.4-3.2,5.3-3.6,8.3l-0.9-0.3
		c0-3.5,1.2-6.7,3.5-9.5c0.8-1-0.9-2.1-1.7-1.1c-2.3,2.8-3.6,6.2-3.8,9.8l-1.2-0.5c0.1-2.7,1.1-5.2,2.9-7.4c0.8-1-0.9-2.1-1.7-1.1
		c-2.2,2.7-3.3,6-3.2,9.5l-2.8,10.6l5.9,2.1l5.4-3l0.6-1.6c0.1-0.1,0.2-0.3,0.2-0.5v-0.2l1.7-4.8
		C1274.4-2243.4,1275.6-2244.8,1277.1-2246L1277.1-2246z"/>
	<path class="st17" d="M1259.7-2233.9l-36.1,30.1l-32.5-42.8c-4.2-5.4-12.3-5.7-17-0.7c-4,4.4-3.9,11.2,0.3,15.4l44.3,52.2
		c1.6,1.8,4.4,1.8,5.9-0.1l41-52L1259.7-2233.9L1259.7-2233.9z"/>
	
		<linearGradient id="SVGID_00000072958674055074859730000002178029996266007477_" gradientUnits="userSpaceOnUse" x1="-275.049" y1="-1972.84" x2="-260.775" y2="-1972.84" gradientTransform="matrix(-1 0 0 1 1170.8301 -293.4)">
		<stop  offset="0" style="stop-color:#FDDEDC"/>
		<stop  offset="0.974" style="stop-color:#FDBCB8"/>
	</linearGradient>
	<path style="fill:url(#SVGID_00000072958674055074859730000002178029996266007477_);" d="M1431.7-2273c-0.5-1.2,1.4-1.9,1.9-0.7
		c0.9,2.1,1.3,4.2,1.4,6.3l1.1,0.1c1.1-2.8,1.3-5.6,0.7-8.7c-0.3-1.3,1.8-1.5,2-0.2c0.6,3.1,0.4,6.2-0.6,9l0.9,0.1
		c1.6-3.1,2-6.5,1.3-10c-0.3-1.3,1.8-1.5,2-0.2c0.7,3.6,0.3,7.2-1.2,10.4l1.3,0.1c1.2-2.5,1.5-5.1,0.9-7.9c-0.3-1.3,1.8-1.5,2-0.2
		c0.7,3.4,0.2,6.9-1.6,9.9l-2.4,10.7l-6.2-0.8l-3.4-5.2l0.2-1.6v-0.7l0.7-5.1C1432.9-2269.5,1432.5-2271.3,1431.7-2273L1431.7-2273z
		"/>
	<path class="st21" d="M1441.6-2254.2l18.1,43.4c0,0,51.4-27.4,51.5-27.5c9.3-6,18.9,0.8,19.6,8.6c0.7,7.9-70.4,36.6-76,38.9
		c-2.2,0.9-4.7-0.5-5.2-2.8l-14.2-61.4L1441.6-2254.2z"/>
	<path class="st22" d="M1462.9-2142.3h-244.1c-1.4,0-2.4-1.1-2.4-2.4v-135.7c0-1.4,1.1-2.4,2.4-2.4h244.1c1.4,0,2.4,1.1,2.4,2.4
		v135.7C1465.3-2143.4,1464.2-2142.3,1462.9-2142.3z"/>
	<path class="st23" d="M1224.7-2275.6h232.2v125.3h-232.2V-2275.6z"/>
	<path class="st4" d="M1214.1-1950.6c-28.3-0.5-56.5-0.3-84.8,0.7c-1.6-1.9-4.2-3.2-7.1-2.8c-18.6,2.6-37.5,1-56.1,4
		c-2.6,0.4-2.6,4.8,0,5.2c13.9,2.3,28,1.9,42,2.7c0.2,3.4,2.5,6.5,7.2,6.5c33-0.6,65.9-2.3,98.8-5
		C1221.2-1939.9,1221.4-1950.4,1214.1-1950.6L1214.1-1950.6z"/>
	<path class="st21" d="M1190-2137.8l-38.5-17l-0.1,2.6c-1,24.8,4.5,49.4,15.9,71.4l13.7,26.5l-3,28l12.1,70.8c2.3,0,4.7-0.1,7-0.2
		l13.4-99.1L1190-2137.8z"/>
	<path class="st24" d="M1189.9-1953.6l7.1-0.2l8.9,4.3l11.1,1l1.7,2.4l-31.1,1.5L1189.9-1953.6z"/>
	<path class="st25" d="M1164.6-2133.9l-28.9-30.5l-4.1,8.8c-8.5,18.2-12.1,38.4-10.5,58.4l2.9,36.9l-13.5,24.7l-16.2,70
		c2.2,0.9,4.4,1.7,6.5,2.6l50.7-86.2L1164.6-2133.9L1164.6-2133.9z"/>
	<path class="st24" d="M1093.4-1964l6.5,2.5l6.6,7.5l9.9,5.1l0.6,2.9l-29.3-10.6L1093.4-1964z"/>
	<path class="st12" d="M1175.6-2261.6c-6.6-0.4-13.7,3-18.9,8.8c-4.7,5.3-7.6,11.6-10.4,17.9c-9.5,21.7-29.3,108.2-24.8,115.2h73
		c-5.7-48.9-3.9-75.3-1-100.5c1.1-10.2,1.6-22.8-3.8-32.1C1186.1-2258.5,1181-2261.3,1175.6-2261.6L1175.6-2261.6z"/>
	<path class="st15" d="M1200.5-2292c3.2-3.5,5.5-7.8,6.6-12.5c0.9-3.8,0.8-8.1-1.7-11s-6.7-3.6-10.4-2.8c-3.7,0.8-7,2.9-10.1,4.9
		c-2.4,1.5-4.8,3.1-7.2,4.6c-1.4,0.9-2.9,1.9-3.9,3.3c-0.9,1.4-1.1,3.5,0,4.8c-5.1,2-7.4,9.2-4.2,13.8c1.6,2.4,4.5,4.1,5.1,7
		c0.8,3.7-2.4,7.5-1.1,11L1200.5-2292L1200.5-2292z"/>
	
		<linearGradient id="SVGID_00000019660905289521160200000002233768389753160889_" gradientUnits="userSpaceOnUse" x1="863.687" y1="-2070.584" x2="900.0626" y2="-2070.584" gradientTransform="matrix(0.9912 0.1322 -0.1322 0.9912 39.8115 -338.9852)">
		<stop  offset="0" style="stop-color:#FDDEDC"/>
		<stop  offset="0.974" style="stop-color:#FDBCB8"/>
	</linearGradient>
	<path style="fill:url(#SVGID_00000019660905289521160200000002233768389753160889_);" d="M1198-2303.1c2.3,0.7,3.5,3.2,3.7,5.6
		c0.2,2.4-0.4,4.7-0.4,7.1c0,2.4,0.9,5,3,6.1c1,0.5,2.4,0.9,2.7,2c0.3,1.5-1.8,2.2-2.9,3.2c-1.8,1.5-1.6,4.3-1.2,6.7
		c0.4,2.3,0.5,5.2-1.4,6.6c-2.4,1.8-5.8-0.3-8.8-0.5c-2.8-0.1-5.4,1.5-7.2,3.7c-1.7,2.2-5.2,13.6-6.1,16.2
		c-4.9,0.5-10.5-5.6-12.1-12.8l10.5-19.8c-1.6,0.5-3.5-0.2-4.6-1.5s-1.3-3.3-0.4-4.8s5.4-3.9,6.5,1.6c0,0,2.7-3.8,3.1-8.5
		C1183.4-2302.6,1198-2303.1,1198-2303.1L1198-2303.1z"/>
	
		<linearGradient id="SVGID_00000018953534277831632920000013465245762434118045_" gradientUnits="userSpaceOnUse" x1="2674.1602" y1="1430.7201" x2="2692.3511" y2="1430.7201" gradientTransform="matrix(-4.320087e-02 -0.9991 0.9991 -4.320087e-02 -45.9305 565.3719)">
		<stop  offset="0" style="stop-color:#FDDEDC"/>
		<stop  offset="0.974" style="stop-color:#FDBCB8"/>
	</linearGradient>
	<path style="fill:url(#SVGID_00000018953534277831632920000013465245762434118045_);" d="M1256.7-2185.9l-1.7,6.4l3.7,5.4l1.7,0.4
		c0.1,0.1,0.3,0.1,0.5,0.2h0.2l5.2,1.4c1.8,0.8,3.4,2,4.8,3.4c1,1,2.4-0.6,1.5-1.6c-1.7-1.7-3.5-3-5.6-3.9l0.3-1.1
		c3.1,0,6,1,8.7,2.8c1.2,0.8,2.1-1.1,1-1.9c-2.8-1.9-5.8-2.9-9.1-3l0.3-0.9c3.7-0.3,7.2,0.6,10.3,2.7c1.2,0.8,2.1-1.1,1-1.9
		c-3.2-2.2-6.9-3.2-10.6-3.1l0.4-1.4c2.9-0.1,5.6,0.7,8.1,2.3c1.2,0.8,2.1-1.1,1-1.9c-3.1-2.1-6.6-2.9-10.3-2.5L1256.7-2185.9
		L1256.7-2185.9z"/>
	<path class="st28" d="M1256.7-2185.9l-54.5-6.8l-30-48.2c-3.9-6.1-12.4-7.2-17.8-2.4c-4.7,4.2-5.2,11.4-1.2,16.2l39.6,49.9
		c1.5,2.1,62.7-1.5,62.7-1.5L1256.7-2185.9L1256.7-2185.9z"/>
	<path class="st4" d="M1569.9-1953.8c-28.9-0.5-43.7-6.5-72.7-3.5c-0.6-0.8-1.4-1.2-2.3-1.1c-17.4,1.7-34.7,3.2-52,5.7
		c-2.9,0.4-3,7.2,0,7.3c14.2,0.4,28.4,0.2,42.6-0.1c0.7,2,2,3.5,3.8,3.6c31.6,0.5,63.6-1.8,95.1-5.6
		C1589.5-1948.2,1575.2-1953.7,1569.9-1953.8z"/>
	<path class="st15" d="M1551.6-2251.2c-0.9,5.5,5.1,9.8,5.8,15.3c0.5,4.6-3.1,8.9-7.5,10.4s-9.2,0.8-13.6-0.5s-8.7-3.2-13.3-4
		c-4-0.7-8.2-0.7-12.1-1.8c-5.6-1.6-10.3-5.8-12.6-11.1c-2.3-5.3-2.2-11.6,0.4-16.8c-4-4.6-7.4-9.9-8.9-15.8
		c-1.6-5.9-1.2-12.5,1.9-17.8s9.1-9,15.2-8.5c3-8.1,12-13.2,20.6-12.4s16.2,6.9,19.7,14.7c3.5,7.9,3.2,17.2-0.1,25.1
		c3.5,0.2,6.8,2.3,8.5,5.3s1.9,6.9,0.4,10C1554.5-2256.4,1552.1-2254.2,1551.6-2251.2L1551.6-2251.2z"/>
	<path class="st17" d="M1494.4-2051.9l27.5-88.5l22-8.4l8,36.7l-0.9-0.9l-37.3,58.2l4.7,22.9l-3.2,69.5h-6.4L1494.4-2051.9
		L1494.4-2051.9z"/>
	<path class="st24" d="M1515.2-1960.7h-6.3l-8,4.1l-10.1,1.1l-1.5,2.2l28.3,0.7L1515.2-1960.7z"/>
	<path class="st12" d="M1553.6-2102.6l-60.6,24l64.3,57.1l-5.7,5.2l-86.3-58.6l60.9-62.8l45.2-19l3,16.3
		C1577.4-2124.4,1568.6-2108.6,1553.6-2102.6z"/>
	<path class="st24" d="M1558.3-2019.6l-4.4,4.7l-2.4,8.6l-6,8.1l0.6,2.7l19.7-20.3L1558.3-2019.6z"/>
	
		<linearGradient id="SVGID_00000043418562383759932610000016163074087024628878_" gradientUnits="userSpaceOnUse" x1="-1002.9919" y1="-1607.292" x2="-968.7589" y2="-1607.292" gradientTransform="matrix(-0.9566 0.2914 0.2914 0.9566 1039.7903 -443.5018)">
		<stop  offset="0" style="stop-color:#FDDEDC"/>
		<stop  offset="0.974" style="stop-color:#FDBCB8"/>
	</linearGradient>
	<path style="fill:url(#SVGID_00000043418562383759932610000016163074087024628878_);" d="M1509.3-2297c-2.3,0.2-4,2.5-4.6,4.7
		c-0.6,2.3-0.5,4.7-1,6.9c-0.5,2.3-1.8,4.7-4,5.3c-1.1,0.3-2.5,0.4-2.9,1.4c-0.6,1.4,1.3,2.4,2.2,3.6c1.4,1.8,0.7,4.5-0.1,6.7
		c-0.8,2.2-1.4,4.9,0.1,6.6c2,2.2,10.9-1.1,13.8-0.7c0,0,6.1,18.8,6.6,21.5c4.7,1.4,6.4-0.1,9.2-6.7l-4.3-22.3
		c1.5,0.8,3.4,0.5,4.7-0.6c1.3-1,1.9-3,1.3-4.6s-4.5-4.8-6.6,0.3c0,0-1.9-4.1-1.4-8.8C1523.3-2293.8,1509.3-2297,1509.3-2297
		L1509.3-2297z"/>
	<path class="st25" d="M1509.2-2205.5c1,2.5,1.1,4.9,1.6,8.3c1.3,10.1,2.5,20.3,3.8,30.4c0.7,5.7,1.8,27.8,5.5,32.2
		c5.3,6.3,53.2-10.9,54.3-14.2c1-3-3.8-10.8-5.8-13.2c-8.5-10.6-22.7-16.7-27.5-29.4c-2.6-6.9,1.2-38.7,3-45.9
		c2.8-10.7-7.6-16.5-12.1-16.2c-10.7,0.8-20.6,8.3-25.8,17.4c-2.6,4.7-4.2,10.1-3.8,15.5c0.3,4.2,2.4,8.2,4.8,11.6
		C1508.1-2207.7,1508.8-2206.6,1509.2-2205.5L1509.2-2205.5z"/>
	
		<linearGradient id="SVGID_00000058550587654791398050000014140115322013832126_" gradientUnits="userSpaceOnUse" x1="2711.0386" y1="-434.3781" x2="2728.2644" y2="-434.3781" gradientTransform="matrix(-5.602463e-03 -1 -1 5.602463e-03 1009.8313 545.6256)">
		<stop  offset="0" style="stop-color:#FDDEDC"/>
		<stop  offset="0.974" style="stop-color:#FDBCB8"/>
	</linearGradient>
	<path style="fill:url(#SVGID_00000058550587654791398050000014140115322013832126_);" d="M1438.9-2185.2l1.9,6l-3.2,5.3l-1.6,0.5
		c-0.1,0.1-0.3,0.1-0.5,0.2h-0.2l-4.9,1.5c-1.6,0.9-3.1,2-4.4,3.5c-0.9,1-2.3-0.5-1.5-1.4c1.5-1.7,3.2-3,5.1-3.9l-0.4-1
		c-3,0.2-5.7,1.2-8.1,3.1c-1.1,0.8-2.1-1-1-1.8c2.5-1.9,5.4-3,8.4-3.3l-0.3-0.9c-3.5-0.1-6.8,0.9-9.6,3.1c-1.1,0.8-2.1-1-1-1.8
		c2.9-2.2,6.3-3.3,9.9-3.4l-0.5-1.3c-2.8,0-5.3,0.9-7.5,2.6c-1.1,0.8-2.1-1-1-1.8c2.8-2.1,6.2-3.1,9.6-2.8L1438.9-2185.2
		L1438.9-2185.2z"/>
	<path class="st31" d="M1438.9-2185.2l51.2-9l26.1-47c3.4-6,11.4-7.4,16.7-3.1c4.6,3.8,5.4,10.5,1.9,15.3l-35.2,49
		c-1.3,2-59.3,1.5-59.3,1.5L1438.9-2185.2L1438.9-2185.2z"/>
	<circle class="st23" cx="1332.5" cy="-2278.9" r="1.6"/>
	<path class="st32" d="M1322.7-2150.3l134.2-107.7v50.5l-75.6,57.2H1322.7z M1420.4-2150.3l36.5-26.2v26.2H1420.4z"/>
</g>
<path class="st33" d="M59.5,162.4h49.2v62.8H59.5V162.4z"/>
<path class="st34" d="M70.7,193.2c0,7.4,6,13.4,13.4,13.4s13.4-6,13.4-13.4H70.7z"/>
<path class="st35" d="M77,189.2c0,0-1-0.5-1.6,0.8c-0.5,1.3-0.3,2.6,1.5,2.3C77.6,192.2,78.1,189.6,77,189.2z M87.6,190.7
	c0,0-1.3-0.6-2,1s-0.4,3.3,1.8,2.9C88.2,194.5,88.9,191.2,87.6,190.7z M80.7,185.7c0,0-1-0.3-1.6,0.4c-0.5,0.7-0.6,2.7,0.9,3
	C81.2,189.3,81.7,185.9,80.7,185.7z M81.9,191c0,0-1-0.3-1.6,0.4c-0.5,0.7-0.6,2.7,0.9,3C82.4,194.6,83,191.2,81.9,191z M85,187.4
	c0,0-0.6-0.2-0.9,0.3c-0.3,0.4-0.4,1.6,0.5,1.7C85.2,189.5,85.6,187.6,85,187.4z M94.4,185.7c0,0-0.6-0.2-0.9,0.3
	c-0.3,0.4-0.4,1.6,0.5,1.7C94.7,187.8,95,185.8,94.4,185.7z M95.1,190.4c0,0-0.6-0.2-0.9,0.3c-0.3,0.4-0.4,1.6,0.5,1.7
	C95.4,192.5,95.7,190.5,95.1,190.4z M77.3,186.4c0,0-0.6-0.2-0.9,0.3c-0.3,0.4-0.4,1.6,0.5,1.7C77.6,188.5,77.9,186.5,77.3,186.4z
	 M73.9,190.8c0,0-0.6-0.2-0.9,0.3c-0.3,0.4-0.4,1.6,0.5,1.7C74.1,192.9,74.5,190.9,73.9,190.8z M73.9,186.9c0,0-0.6-0.2-0.9,0.3
	c-0.3,0.4-0.4,1.6,0.5,1.7C74.1,189,74.5,187,73.9,186.9z M89.1,186c0,0-1.1-0.3-1.7,0.5s-0.7,2.9,1,3.2
	C89.6,189.9,90.2,186.2,89.1,186z M92.7,189.1c0,0-1.1-0.3-1.7,0.5s-0.7,2.9,1,3.2C93.2,193,93.8,189.3,92.7,189.1z"/>
<path class="st36" d="M123.4,187.7h42.1v53.6h-42.1V187.7z"/>
<path class="st37" d="M144.1,197.6c0,0-8.2,10.9-7.5,18s7.5,10,7.5,10l0.5,3.4l2.6-0.1l-0.5-3.6c0,0,2.7-0.7,4.7-4.3
	C153.4,217.3,152.7,200.8,144.1,197.6L144.1,197.6z"/>
<path class="st38" d="M152.3,216.8l-7.1,4.5c-0.1-1.9-0.1-4.3-0.2-6.8l7-3.8c0-0.1,0-0.3-0.1-0.4l-6.9,3.8c-0.1-2.4-0.1-4.8-0.2-6.7
	l4.9-4.4c-0.1-0.1-0.1-0.2-0.2-0.3l-4.7,4.2c-0.1-1.5-0.1-2.6-0.1-3s-0.1-1.1-0.1-1.9l2.2-2.9c-0.1-0.1-0.2-0.2-0.3-0.2l-1.9,2.6
	c-0.1-1.2-0.2-2.6-0.2-3.8c-0.1,0-0.1-0.1-0.2-0.1c0,0-0.1,0.1-0.2,0.3c0.1,1.3,0.2,2.7,0.2,3.9l-2.2-0.9c-0.1,0.1-0.1,0.2-0.2,0.3
	l2.4,1c0,0.8,0.1,1.4,0.1,1.8c0,0.4,0.1,1.5,0.1,3.1l-4.7-2.4c-0.1,0.1-0.1,0.2-0.2,0.3l4.9,2.5c0.1,1.9,0.1,4.3,0.2,6.7l-7.4-3.5
	c0,0.1-0.1,0.2-0.1,0.4l7.5,3.5c0.1,2.5,0.1,4.9,0.2,6.8l-7.7-3.5c0.1,0.2,0.1,0.3,0.2,0.5l7.6,3.4c0,1.8,0.1,3.1,0.1,3.1
	c0,0.1,0.1,0.2,0.2,0.2s0.2-0.1,0.2-0.2c0-0.2,0-1.4-0.1-3.1l7-4.5C152.2,217.1,152.3,217,152.3,216.8L152.3,216.8z"/>
<path class="st35" d="M155.4,213.9c-0.1,0-0.2-0.1-0.2-0.2c0,0-0.2-0.6-1.4-1.2c-1.2-0.5-2.3,0.6-2.4,0.6c-0.1,0.1-0.2,0.1-0.3,0
	c-0.1,0-0.1-0.1-0.1-0.2s-0.2-0.3-0.9-0.7c-0.9-0.6-2.2,0.9-2.2,0.9c-0.1,0.1-0.1,0.1-0.2,0.1s-0.1-0.1-0.2-0.2c0,0-0.2-0.4-1.6-0.9
	c-1.5-0.5-2.3,0.6-2.3,0.7c0,0.1-0.1,0.1-0.2,0.1s-0.1,0-0.2-0.1c0,0-0.5-0.5-1.4-0.7c-0.8-0.2-1.3,0.6-1.3,0.6
	c-0.1,0.1-0.2,0.1-0.3,0.1c-0.1-0.1-0.1-0.2-0.1-0.3c0.2-0.4,0.9-1,1.8-0.9c0.7,0.1,1.2,0.4,1.4,0.6c0.3-0.4,1.2-1.1,2.6-0.7
	c1,0.3,1.5,0.7,1.7,0.9c0.5-0.4,1.6-1.4,2.6-0.7c0.4,0.3,0.7,0.5,0.9,0.7c0.4-0.3,1.5-1,2.6-0.5c0.9,0.4,1.3,0.9,1.5,1.2
	c0.6-0.4,2.2-1.4,3.4-0.6c0.1,0.1,0.1,0.2,0.1,0.3c-0.1,0.1-0.2,0.1-0.3,0.1c-1.2-0.8-3.1,0.7-3.1,0.7
	C155.5,213.9,155.5,213.9,155.4,213.9L155.4,213.9z M153.5,218.9c-0.1,0-0.3,0-0.4-0.1c-0.3-0.1-0.5-0.5-0.3-0.8
	c0.1-0.2,0.4-0.5,0.8-0.8c-0.5-0.2-1.3-0.4-2.3-0.5c-0.6,0-1,0.1-1.2,0.5c0.5,0.4,0.7,0.8,0.7,1.1c0,0.2-0.2,0.4-0.4,0.5
	s-0.5,0-0.7-0.3s-0.3-0.7-0.2-1.1c-0.4-0.3-1-0.6-1.8-0.8c-0.6-0.2-1-0.1-1.3,0.3c0,0,0,0.1-0.1,0.1c0.5,0.3,0.8,0.7,0.7,1
	c0,0.1-0.1,0.4-0.5,0.4c-0.3,0-0.5-0.1-0.7-0.3s-0.2-0.6-0.1-0.9c-0.3-0.2-0.7-0.4-1.2-0.6c-0.5-0.2-1.2,0-1.7,0.4
	c0.2,0.3,0.3,0.5,0.2,0.8c0,0.2-0.1,0.6-0.8,0.6c-0.4,0-0.5-0.1-0.6-0.3c-0.1-0.3,0-0.6,0.3-1l0.2-0.2c-0.2-0.3-0.6-0.5-1-0.6
	c-1.1-0.2-2.4,0.9-2.5,1s-0.2,0.1-0.3,0s-0.1-0.2,0-0.3s1.5-1.3,2.8-1.1c0.4,0.1,0.9,0.4,1.2,0.7c0.6-0.4,1.4-0.7,2.1-0.5
	c0.4,0.1,0.9,0.3,1.3,0.6c0,0,0-0.1,0.1-0.1c0.2-0.3,0.7-0.7,1.7-0.5c0.7,0.2,1.3,0.5,1.8,0.8c0.2-0.3,0.6-0.7,1.6-0.7
	c0.9,0.1,2,0.3,2.7,0.6c0.5-0.3,1.1-0.5,1.7-0.6c0.9-0.1,1.6,0.1,2,0.7c0.1,0.1,0.1,0.2,0,0.3s-0.2,0.1-0.3,0
	c-0.3-0.4-0.9-0.6-1.6-0.5c-0.5,0.1-1,0.3-1.4,0.5c0.1,0.1,0.2,0.2,0.2,0.3c0.1,0.2,0.1,0.5,0,0.7
	C154.4,218.7,153.9,218.9,153.5,218.9L153.5,218.9z M154,217.5c-0.4,0.3-0.7,0.6-0.8,0.7c0,0.1,0,0.2,0.1,0.2c0.3,0.1,0.8,0,1-0.4
	c0.1-0.1,0-0.2,0-0.3C154.2,217.7,154.1,217.6,154,217.5z M150,217.7c0,0.2,0.1,0.4,0.1,0.5c0.1,0.1,0.2,0.1,0.2,0.1h0.1v-0.2
	L150,217.7L150,217.7z M146.4,217.4c0,0.2,0,0.3,0.1,0.4c0.1,0.1,0.2,0.1,0.2,0.1h0.1C146.8,217.8,146.7,217.6,146.4,217.4
	L146.4,217.4z M142.7,217.2l-0.1,0.1c-0.3,0.3-0.3,0.5-0.3,0.5h0.2c0.4,0,0.4-0.2,0.4-0.2C142.8,217.6,142.8,217.4,142.7,217.2
	L142.7,217.2z M160.2,210c-0.1,0-0.2-0.1-0.2-0.2c0,0-0.2-0.5-1.5-1.1s-2.5,0.9-2.5,1s-0.1,0.1-0.2,0.1s-0.1,0-0.2-0.1
	c0,0-0.8-1-1.8-1.3c-0.8-0.2-2,0.7-2.4,1c-0.1,0.1-0.2,0.1-0.2,0l-1.5-0.6c-1.3-0.5-2.4,0.2-2.4,0.2c-0.1,0.1-0.2,0-0.3,0
	c-0.1-0.1,0-0.2,0-0.3c0.1,0,1.3-0.9,2.8-0.3l1.3,0.5c0.4-0.3,1.7-1.4,2.7-1.1c0.8,0.2,1.5,0.9,1.8,1.2c0.4-0.5,1.5-1.5,2.8-0.9
	c1.5,0.7,1.7,1.3,1.8,1.4C160.5,209.9,160.4,210,160.2,210L160.2,210z"/>
<path class="st39" d="M362.1,195.8c0,0-0.3-11-4.4-16.3c-4.2-5.3-4.8-8.3-0.6-11.9c4.2-3.6,3.7-9.3,3.9-14.3
	c0.2-5-0.8-16.1,8.3-22.5c9.1-6.3,20.6-3.6,25.5,1.7c4.9,5.3,0.2,14.8-0.6,24.6c-0.8,9.9,4.7,11.8-2.5,20.4
	c-7.2,8.6-16.3,16.6-19.8,23C368.5,207,361,206.9,362.1,195.8z"/>
<path class="st40" d="M365.7,205.3h-0.1c-0.2-0.1-0.4-0.3-0.3-0.5c0-0.1,3.8-14.5,6.6-25.8c2.9-11.6,4.3-16.3,6.8-23.8
	c1.4-4.3,0.8-9.3,0.3-12.9c-0.4-2.8-0.6-4.8,0.1-5.8c0.1-0.2,0.4-0.2,0.6-0.1c0.2,0.1,0.2,0.4,0.1,0.6c-0.5,0.7-0.2,2.7,0.1,5.1
	c0.5,3.7,1.1,8.8-0.4,13.3c-2.5,7.4-3.9,12.1-6.8,23.7c-2.8,11.3-6.6,25.7-6.6,25.8C366.1,205.2,365.9,205.3,365.7,205.3
	L365.7,205.3z"/>
<path class="st41" d="M343,258.5c0,0-6.2-16-15.1-21.6s-11.5-9.7-7.2-17.3c4.3-7.5,0.6-15.6-1.8-23.2c-2.4-7.5-9.7-23.3,0.3-37.5
	s28.4-16.3,38.5-10.9c10,5.4,8.2,21.6,12.2,36.6s13.2,14.9,7.1,31.4s-15.3,33.1-16.9,44.4C358.3,271.8,347.2,275.5,343,258.5z"/>
<path class="st40" d="M353.1,270.4c-0.2,0-0.4-0.2-0.4-0.4s-2.1-23.4-3.9-41.5c-1.9-18.6-2.3-26.3-2.6-38.6
	c-0.2-7.2-3.8-14.2-6.4-19.3c-2-3.9-3.4-6.7-2.9-8.4c0.1-0.2,0.3-0.4,0.6-0.3c0.2,0.1,0.4,0.3,0.3,0.6c-0.4,1.3,1.1,4.3,2.8,7.7
	c2.7,5.2,6.3,12.2,6.5,19.7c0.3,12.3,0.7,19.9,2.6,38.6c1.8,18.2,3.9,41.3,3.9,41.6C353.5,270.2,353.4,270.4,353.1,270.4z"/>
<path class="st42" d="M265.1,283.1c0,0-14.9-4.3-23.8-1s-27.3-13.3-34-15.7c-6.7-2.4-22.3-10.2-26.9-25.2
	c-4.7-15,33.4-23.2,46.4-17.9s17.9-1.3,26.5,12.1c8.5,13.4,15.4,29.1,22.6,36.5C283,279.3,279.5,289.4,265.1,283.1L265.1,283.1z"/>
<path class="st40" d="M278.8,282.6c-0.1,0-0.2,0-0.2-0.1c-0.2-0.1-17.9-11.3-31.9-20c-14.4-8.9-20.2-12.8-29.1-19.3
	c-5.3-3.8-12.2-5.1-17.3-6c-3.9-0.7-6.7-1.2-7.6-2.5c-0.1-0.2-0.1-0.5,0.1-0.6c0.2-0.1,0.5-0.1,0.6,0.1c0.7,1,3.7,1.6,7.1,2.2
	c5.2,0.9,12.2,2.2,17.7,6.1c9,6.5,14.7,10.4,29.1,19.3c14.1,8.7,31.8,19.9,31.9,20c0.2,0.1,0.3,0.4,0.1,0.6
	C279.1,282.5,279,282.6,278.8,282.6z"/>
<path class="st42" d="M370.7,271.3c3.7,2.5,31.6-14.5,33-23.7c1.5-9.2-8-13.5,0.1-18.6c8-5.1,11.2-4.5,13.5-10.4s-6.2-17.1,1.8-20.2
	c8-3.1,8.3-4.8,6.9-12s-0.7-20.3-17.5-20.4c-16.8-0.1-9.7,14.5-19.7,15.5s-13.2-5.3-17.8,4.4s-1,27.5-6.1,36.1
	C359.7,230.6,354.7,260.3,370.7,271.3L370.7,271.3z"/>
<path class="st40" d="M370.9,269.9c-0.2,0-0.4-0.1-0.4-0.4c0-0.2-0.9-5.6,2.2-19c0.7-3.2,1.2-5.8,1.6-8.1c1.3-7.2,1.9-10.5,8-15.7
	c5.5-4.6,5.7-6.3,6-9.4c0.2-1.3,0.3-2.8,0.9-4.8c0.6-2.1,0.8-3.5,0.9-4.8c0.3-2.9,0.5-4.7,5.3-9.3c2.3-2.2,3.4-3.1,4-3.6
	c0.8-0.6,0.8-0.6,1.7-2.2c0.4-0.7,1.1-1.8,2.1-3.5c4.9-7.9,9.3-12.9,9.3-12.9c0.2-0.2,0.4-0.2,0.6,0s0.2,0.4,0,0.6
	c0,0-4.3,5-9.2,12.8c-1,1.7-1.7,2.8-2.1,3.5c-1,1.6-1,1.7-1.9,2.4c-0.6,0.5-1.7,1.4-4,3.6c-4.6,4.4-4.7,6-5.1,8.8
	c-0.1,1.3-0.3,2.8-0.9,5c-0.6,1.9-0.7,3.4-0.9,4.7c-0.4,3.2-0.6,5.2-6.3,10c-5.9,5-6.4,7.9-7.7,15.2c-0.4,2.3-0.9,4.9-1.6,8.1
	c-3,13.2-2.2,18.6-2.1,18.7C371.4,269.6,371.2,269.8,370.9,269.9C371,269.9,371,269.9,370.9,269.9z"/>
<path class="st41" d="M325.9,279.7c2.9-5-7.5-58.5-15.5-64.9s-13.6,7.3-16.8-8.2c-3.2-15.5-2.1-20.5-7-26.8
	c-4.9-6.4-16.6,2.9-18-11.7c-1.4-14.6-2.9-15.9-9.6-16.7c-6.7-0.8-18.5-7.7-21.6,20.1s11.4,22.3,10.5,39.4
	c-0.9,17-7.1,19.5,0.8,31.3c8,11.9,24.7,13.5,31.6,25.8C287.1,280.3,313.1,301.5,325.9,279.7L325.9,279.7z"/>
<path class="st40" d="M324.3,279C324.3,279,324.2,279,324.3,279c-0.3,0-5.3-0.9-17-11.9c-2.8-2.6-5-4.5-7-6.2
	c-6.3-5.3-9.1-7.7-12.7-19.9c-3.2-11.2-4.9-12.3-7.5-14.2c-1.2-0.8-2.5-1.8-4.2-3.6c-1.8-1.9-3.1-2.8-4.2-3.6
	c-2.6-1.8-4.1-2.9-7.4-12.7c-2.3-6.9-1.8-9.1-1.3-10.9c0.4-1.7,0.8-3-2.4-8.9c-6.3-11.6-9.4-23.1-9.4-23.3c-0.1-0.2,0.1-0.5,0.3-0.5
	c0.2-0.1,0.5,0.1,0.5,0.3c0,0.1,3.1,11.5,9.4,23.1c3.3,6.2,3,7.6,2.5,9.5c-0.4,1.6-0.9,3.7,1.3,10.4c3.2,9.6,4.6,10.5,7.1,12.3
	c1.1,0.8,2.5,1.7,4.4,3.7c1.7,1.8,2.9,2.7,4.1,3.5c2.8,2,4.6,3.2,7.9,14.7c3.5,12,6.1,14.2,12.4,19.5c2,1.7,4.3,3.6,7.1,6.2
	c11.4,10.7,16.4,11.6,16.4,11.6c0.2,0,0.4,0.3,0.4,0.5C324.7,278.8,324.5,279,324.3,279L324.3,279z"/>
<path class="st43" d="M108.3,408.3l46.6-1.4l-46.6-9L108.3,408.3z M61.6,389.3l46.6-1.5l-46.6-8.9V389.3z"/>
<path class="st44" d="M44.6,382.3l17,7v-9.5l26,11.9v8.1l20.7,8.5v-10.4l26.6,10.4v10.9l16.8,6.8l57.4-7.1l359-44.3v-41.8
	L44.6,347.3V382.3z"/>
<path class="st45" d="M174,357.3L37.2,306.5c2.2-4.6,6.6-8,12-8.5l344.9-34.9c3.8-0.4,7.5-0.2,11.2,0.5l168.4,33.5
	c5.9,1.2,10.7,5,13.3,10.1c-44.3,5.2-373.8,44.1-389.9,46.7C180,356.8,174,357.3,174,357.3L174,357.3z"/>
<path class="st45" d="M174,357.3c0,0,5.9-0.5,23.2-3.4c16.1-2.7,345.6-41.5,389.9-46.7c1.4,2.8,2.1,5.9,2,9.2l-2.3,28.6l-428.6,57.6
	c0,0-25.9-15.5-44.6-21.4s-38.8-13.8-51.1-16.3C50.3,362.3,38.8,350,38.8,350l-3-36.5c-0.1-2.5,0.4-4.8,1.4-7L174,357.3z"/>
<path class="st40" d="M464.8,214.3c0,0,35.3,4.9,49,8.4c13.7,3.6,28.6,8.1,27.7,16.8c-0.9,8.7-17.5,61.5-21.3,67.6
	s-26.2-5.8-28.1-6.2c-3.5-0.8-48.6-19.5-48.6-19.5c-11.2-5.5-30.8-15.7-30.8-15.7l14.3-28.8C427,236.9,441.6,210.8,464.8,214.3
	L464.8,214.3z"/>
<path class="st46" d="M141.6,324c0,0-10.3-3.2-13.3-0.8c-3.1,2.4-4.9,3.1-6.9,1.8c-16.7-11.3-18-17.9-19.5-19.2
	c-1.5-1.3,0.5-2.5,0.5-2.5s-0.9-1.2,0.1-2s1.3-0.3,1.3-0.3s-0.2-2,0.4-2.1s1.4,0.3,1.4,0.3s-0.2-1.1,0.3-1.5
	c0.6-0.4,1.6,0.4,1.6,0.4s-0.8-4.2,3-3.3c0.6,0.1,0.4,2.4,1.6,4.4s3.9,3.8,5.6,4.8c3.7,2.1,9.4,5.7,15.8,5.3
	c6.6-0.4,15.6-0.9,18.1,2C154,314.2,159.9,323.6,141.6,324L141.6,324z M201.8,289.2c-3.8,3.3-8,4.7-12,15.9
	c-1.3,3.6-4.4,2.8-6.7,2.6c-2.3-0.2-10.7-4.5-15.4-3.8c-4.8,0.7-7.7-2.2-9.6-2.8c-1.9-0.5-3.4-1.6-3-3c0.4-1.3,2.2-1.5,2.2-1.5
	s-1.3-0.7-0.8-1.8c0.5-1.2,1-0.8,1-0.8s-1-1.7-0.6-2.1c0.5-0.4,1.3-0.3,1.3-0.3s-0.7-0.9-0.3-1.5s1.5-0.4,1.5-0.4s-1.2-1.4,0-1.5
	c1.2-0.2,7.6,2.1,11.4,2.3c4.1,0.3,11.1,1.9,15.1-2.8c5.3-6.2,11.2-15.3,14.6-13.7C203.9,275.8,217.3,275.7,201.8,289.2L201.8,289.2
	z M414.6,242.9c0,0-21.5-40.1-3.4-50.7c10.7-6.3,58,27.7,55.8,38.4c-1.6,7.6-35.6-10.3-35.6-10.3s24.7,27.2,12.7,29.8
	C432.2,252.8,414.6,242.9,414.6,242.9L414.6,242.9z"/>
<path class="st35" d="M344.2,252.2c0,0-70.1-42.6-90.3-34.6c-26.8,10.5-71.8,70.9-71.8,70.9l15.4,10.4c0,0,39-22.6,49.9-33
	c8.3-7.9,12.5-12.9,12.5-12.9s27,15.1,54.1,25.8c-18.2,3.4-35.1,7.7-41.8,8.2c-12.2,0.9-17,1.2-26.5,5.4s-105.8,14.8-111.4,16
	c-6.2,1.3-8.3,17.7,4.8,18.9c13.1,1.2,94.8-3.4,108.8-6.4s24.4-3.2,28-3.2s59.6-1.4,73-3.8C358.2,312.2,344.2,252.2,344.2,252.2z"/>
<path class="st47" d="M174.1,357.8c-2.7,0-119-44.1-132.3-49.1c-0.2-0.1-0.3-0.3-0.3-0.6c0.1-0.2,0.3-0.3,0.6-0.3
	c44.5,16.9,129.4,48.8,132,49c2-0.2,405.2-42.3,409.3-42.7c0.2,0,0.5,0.2,0.5,0.4s-0.2,0.5-0.4,0.5
	C579.3,315.5,176.1,357.5,174.1,357.8L174.1,357.8z"/>
<path class="st48" d="M344.2,252.2c1,0.4,27.6-3.1,38.2-4.4c15.2-1.8,30.7-14.6,50.4-7.7c23.8,8.2,26.8,34.2,26.8,34.2
	c-10.3,24.5-75,38.6-98.9,38.3c-4.8,0-10.2,0.7-16.1,2C342.5,291.8,334.7,267.4,344.2,252.2L344.2,252.2z"/>
<path class="st46" d="M452.7,257.1l42.3-0.6c0,0-38.4-14.8-33.6-22.2c4.8-7.3,17.8-0.9,31.3,3.9S531,252.5,525,266
	c-5.4,12.1-73.2,22.6-77,17.5S452.7,257.1,452.7,257.1z"/>
<path class="st46" d="M461,240.1c0,0-7.9,6-10.6,11.9c-1.4,3-30.1,4.8-33.7,1c-1.9-2,17.8-8.2,20.3-9.6c2.2-1.3,13.8-8.5,14.8-8.9
	S461.1,238.1,461,240.1L461,240.1z"/>
<path class="st35" d="M446.4,237.6c-2.2,1.4-4.8,2.9-6.7,4.1c1.6,1,4.5,2.4,8.1,2.1c5.6-0.3,7.8-1.7,7.8-1.7L446.4,237.6
	L446.4,237.6z M478.3,228.8c0,0-4.6,11.3-13.7,8.9c-9.1-2.4,4.9-16.9,7.2-17.7C474,219.2,478.1,226.4,478.3,228.8z"/>
<path class="st46" d="M455.1,207.9c0,0-5.8,6.7-7.6,8.8c-1.8,2-3.9,3.8-6.2,7.1c-2.2,3.4-4.7,10.3,1.1,15.1
	c5.7,4.8,15.2,4.8,18.8,2.3c3.7-2.5,4.5-4.2,4.5-4.2s1.8,1.5,4.5-0.2s6.1-4.2,4.1-6.1c-2-1.9-3.2-1-3.6-1.5s1.6-8-0.6-10.7
	C467.8,215.7,458.9,206,455.1,207.9L455.1,207.9z"/>
<path class="st35" d="M462.8,222.2c-0.1,0-0.2,0-0.3-0.1c0,0-1.9-2.1-3.4-3c-1.4-0.8-2.4-0.4-2.5-0.3c-0.2,0.1-0.5,0-0.6-0.2
	s0-0.5,0.2-0.6c0.1,0,1.5-0.6,3.3,0.4c1.6,0.9,3.5,3,3.6,3.1c0.2,0.2,0.1,0.5,0,0.6S462.9,222.2,462.8,222.2L462.8,222.2z"/>
<path class="st49" d="M458,230.5c-0.6,0.7-2.1,0.3-3.4-0.8s-1.9-2.6-1.3-3.3s2.1-0.3,3.4,0.8S458.6,229.8,458,230.5z M446.6,221.5
	c-0.6,0.7-1.7,0.7-2.5,0s-0.9-1.8-0.3-2.5s1.7-0.7,2.5,0S447.2,220.8,446.6,221.5z"/>
<path class="st35" d="M458.7,225.2c-0.1,0-0.2,0-0.2-0.1c-0.3-0.2-3.4-2.2-3.4-3.8c0-0.2,0.2-0.4,0.4-0.4s0.4,0.2,0.4,0.4
	c0,0.9,1.8,2.4,3,3.1c0.2,0.1,0.3,0.4,0.1,0.6C459,225.1,458.8,225.2,458.7,225.2z M451.4,219.2h-0.1c-0.3-0.1-3.4-1-3.2-2.7
	c0-0.2,0.2-0.4,0.5-0.4c0.2,0,0.4,0.2,0.4,0.5c-0.1,0.8,1.7,1.6,2.5,1.8c0.2,0.1,0.4,0.3,0.3,0.5
	C451.8,219.1,451.6,219.2,451.4,219.2L451.4,219.2z M473.2,229c0,0-4.7,3.1-6.8,2.2c-2.2-0.9,2.6-7.6,3.2-9s0.4-3.6,0.4-3.6
	S479.3,224.9,473.2,229L473.2,229z M449.6,227.8c0.8,1,0.9,2.4,1.9,2.8c1,0.5,1.6,0.9,1.4,1.4c-0.3,0.5-4.4-0.8-6-1.9
	c-1.6-1.1-2.1-2.4-2.1-2.4s-2-0.2-3.2-1.5c-0.6-0.7,0.4-3.6,1.2-3.2c0.7,0.4,0.2,0.8,0.7,1.2c0.6,0.5,2.3,0.6,2.8,1.3
	s0.4,1.1,0.4,1.1S448.8,226.8,449.6,227.8L449.6,227.8z"/>
<path class="st35" d="M448.5,227.2c-0.8,0-2.2-0.9-2.9-1.8c-0.6-0.7-0.8-1.3-0.8-1.9c0.1-0.9,0.4-1.7,1-2.1c0.7-0.6,1.7-0.8,3-0.6
	c0.6,0.1,1.4-0.3,2.1-0.9c1-0.9,1.7-2.4,1.7-3.3c-0.1-1.5-2.7-2.3-2.8-2.3c-0.2-0.1-0.4-0.3-0.3-0.5s0.3-0.4,0.5-0.3
	c0.1,0,3.3,0.9,3.4,3.1c0,1.2-0.8,2.9-2,4c-0.9,0.8-1.9,1.3-2.8,1.2c-1.1-0.1-1.8,0-2.3,0.4c-0.4,0.3-0.6,0.8-0.7,1.5
	c0,0.4,0.2,0.8,0.6,1.3c0.7,0.9,1.9,1.5,2.3,1.5c0.2,0,0.4,0.2,0.4,0.5C448.9,227.1,448.7,227.2,448.5,227.2L448.5,227.2z
	 M442.2,229.4c0,0,1,1,1.7,1.3s-0.2,1.2-1.2,1C441.7,231.7,441.4,230.4,442.2,229.4z M454.9,206.2c0,0-3.1,1.1-1.8,4
	c1.3,3,9.8,6.2,12.7,8.9c3,2.7,9.8,9.5,11.6,10.3c1.8,0.8,4.8-4.3,5.1-5.8c0.3-1.5,1.5-4.3,0.6-4.8s-1.5-1.1-1.5-1.1
	s1.9-5.3,0.9-6.4c-1-1.2-2.6,2.6-2.6,2.6s-1.1-6.8-6.2-8.9c-5.1-2.1-9.5,0-9.5,0S459.1,199.4,454.9,206.2L454.9,206.2z M431.4,220.7
	c-0.1,0-0.2,0-0.3-0.1L417.6,208c-0.2-0.2-0.2-0.4,0-0.6c0.2-0.2,0.4-0.2,0.6,0l13.5,12.6c0.2,0.2,0.2,0.4,0,0.6
	C431.6,220.7,431.5,220.7,431.4,220.7L431.4,220.7z"/>
<path class="st40" d="M314,279.1c-0.2,0-0.4-0.1-0.4-0.4c0-0.2,0.1-0.5,0.3-0.5c8.7-1.7,17-10.9,17.6-11.7c0.8-1.9,1.8-5.2,0.9-6.1
	c-0.5-0.5-1.7-0.2-2.6,0.2c-4,1.7-6.1,5-7.9,8c-1,1.7-2,3.2-3.2,4.2c-0.2,0.2-0.5,0.1-0.6,0c-0.2-0.2-0.1-0.5,0-0.6
	c1.1-0.9,2-2.4,3-4c1.8-2.9,4.1-6.6,8.3-8.4c1.7-0.7,2.9-0.7,3.6,0c1.6,1.7-0.5,6.6-0.7,7.2l-0.1,0.1
	C331.9,267.5,323.4,277.3,314,279.1C314.1,279.1,314,279.1,314,279.1L314,279.1z M259.9,253.4c-0.2,0-0.4-0.1-0.4-0.3
	c0,0-1.5-4.9-2.8-9.9c-2.7-10.3-1.8-11-1.3-11.4c0.2-0.1,0.6-0.3,1.2,0.1c2.6,1.7,3.4,8,3.7,11.8c0.3-1.3,0.8-2.9,1.3-4.5
	c2.3-7.7,3.2-7.8,3.7-7.9c0.2,0,0.6,0,0.9,0.6c1.3,2.8-1.4,13.3-2.4,16.6l8.2-4.3c0.2-0.1,0.5,0,0.6,0.2s0,0.5-0.2,0.6l-9.1,4.8
	c-0.2,0.1-0.3,0.1-0.5,0c-0.1-0.1-0.2-0.3-0.1-0.5c1.1-3.9,3.9-14.5,2.7-17c0,0,0-0.1-0.1-0.1c-1,0.6-3.3,8-4.9,14.6
	c-0.1,0.2-0.3,0.4-0.5,0.3c-0.2,0-0.4-0.2-0.4-0.4c0-3.3-0.7-12.2-3.4-14.1c-0.1-0.1-0.2-0.1-0.2-0.1c-0.8,1,1.7,11.3,4.5,20.3
	c0.1,0.2-0.1,0.5-0.3,0.6L259.9,253.4L259.9,253.4z M242.5,318h-0.2c-0.3-0.1-0.9-0.4-0.7-0.9c0.1-0.5,0.2-1,9.9-0.5
	c4.6,0.2,9.3,0.6,9.3,0.6c0.2,0,0.4,0.2,0.4,0.5c0,0.2-0.2,0.4-0.5,0.4c-7.4-0.5-15.6-0.9-17.9-0.6c0.1,0.1,0.1,0.2,0,0.4
	C242.9,317.9,242.7,318,242.5,318L242.5,318z"/>
<path class="st46" d="M459.6,274.3c0,0-1.1-9.2-6.9-18.3c-3.2,2.1-26.3,18-27.9,27.2c-1.5,8.7,9.2,9.2,19.4,6.8
	C451.6,285.4,457.2,280.2,459.6,274.3L459.6,274.3z M432.1,239.9c-12-3.9-22.5-0.6-32.3,2.9c3.6-0.2,12-0.7,19.4-1.7
	C425,240.4,429.5,240,432.1,239.9z"/>
<path class="st35" d="M412.7,239.2c-0.2,0-0.4-0.1-0.4-0.3c-0.1-0.2,0.1-0.5,0.3-0.6c0.1,0,9.1-2.9,13.7-6.8c0.2-0.2,0.5-0.1,0.6,0
	c0.2,0.2,0.1,0.5,0,0.6c-4.8,4.1-13.7,6.9-14,7C412.8,239.2,412.8,239.2,412.7,239.2z M512,263.3h-0.2l-17-6.5
	c-0.2-0.1-0.3-0.3-0.3-0.6c0.1-0.2,0.3-0.3,0.6-0.3l17,6.5c0.2,0.1,0.3,0.3,0.3,0.6C512.3,263.2,512.2,263.3,512,263.3L512,263.3z"
	/>
<path class="st41" d="M50,315.9c0,0,2.6-6.9,4.8-10.2c3.5-5.3,9.5-6,14.1-5.9s2,5.7-2.4,8.2c-4.3,2.4-10.2,3.5-11.6,4.7
	c-1.4,1.2-3.9,6.2-3.9,6.2L50,315.9L50,315.9z M50.4,319.5c0,0-4.7-5.8-7.7-8.2c-5-4-10.9-2.8-15.2-1.3s-0.1,6,4.8,7
	s10.8,0.1,12.5,0.9c1.7,0.7,5.7,4.7,5.7,4.7L50.4,319.5L50.4,319.5z M49,291.1c0,0,2.3-6.2,4.3-9.1c3.1-4.7,8.4-5.3,12.5-5.3
	c4.1,0.1,1.7,5.1-2.1,7.3s-9.1,3.1-10.3,4.2s-3.5,5.6-3.5,5.6S49,291.1,49,291.1z M49.3,294.3c0,0-4.1-5.2-6.9-7.3
	c-4.5-3.5-9.7-2.5-13.5-1.1s-0.1,5.4,4.3,6.3c4.3,0.9,9.6,0.1,11.1,0.8s5.1,4.2,5.1,4.2L49.3,294.3L49.3,294.3z"/>
<path class="st42" d="M44.7,270.7c0,0,2.3-6.2,4.3-9.1c3.1-4.7,8.4-5.3,12.5-5.3c4.1,0.1,1.7,5.1-2.1,7.3s-9.1,3.1-10.3,4.2
	s-3.5,5.6-3.5,5.6L44.7,270.7z M45,273.9c0,0-4.1-5.2-6.9-7.3c-4.5-3.5-9.7-2.5-13.5-1.1c-3.9,1.3-0.1,5.4,4.3,6.3
	c4.3,0.9,9.6,0.1,11.1,0.8c1.5,0.7,5.1,4.2,5.1,4.2L45,273.9L45,273.9z"/>
<path class="st41" d="M53.6,341.7c0,0,5.9-7.4,9.9-10.5c6.4-5,13.9-3.5,19.4-1.6s0.1,7.7-6.1,9c-6.2,1.2-13.7,0.2-15.9,1.1
	c-2.2,1-7.2,6-7.2,6v-4H53.6z"/>
<path class="st41" d="M36.7,245.1c0,0,8.4,27.4,10.7,50.5c1.7,17.5,4.5,68,4.5,68l3.1-0.7C55,362.9,53.3,264.7,36.7,245.1
	L36.7,245.1z"/>
<path class="st41" d="M51.3,342.2c0,0-5.9-7.4-9.9-10.5c-6.4-5-13.9-3.5-19.4-1.6s-0.1,7.7,6.1,9c6.2,1.2,13.7,0.2,15.9,1.1
	c2.2,1,7.2,6,7.2,6L51.3,342.2L51.3,342.2z"/>
<path class="st42" d="M39.3,254.4c0,0-4.5-4.3-6.4-7.2c-3.2-4.7-1.8-9.8-0.2-13.6s5.4,0.3,5.9,4.7c0.5,4.3,2.7,14.9,2.8,15.5
	L39.3,254.4z"/>
<path class="st41" d="M82.7,303.5c0,0-1.8-8.1-3.6-12c-3-6.4-9.5-8.1-14.5-8.8c-5.1-0.7-3.1,6,1.3,9.4s10.6,5.5,12,7.1
	c1.3,1.6,3.3,7.5,3.3,7.5S82.7,303.5,82.7,303.5z"/>
<path class="st41" d="M80.7,306.4c0,0,6.1-5.6,9.8-7.8c6.1-3.6,12.4-1.3,16.9,1s-0.9,6.7-6.4,7s-11.9-1.6-13.9-1c-2,0.5-7,4.3-7,4.3
	L80.7,306.4z M78,317.4c0,0-2-9.2-4.1-13.7c-3.4-7.3-10.8-9.2-16.5-10c-5.8-0.7-3.5,6.8,1.5,10.6s12.1,6.2,13.6,8s3.8,8.5,3.8,8.5
	L78,317.4z M76.4,321.8c0,0,6.9-6.4,11.2-8.9c7-4,14.1-1.5,19.3,1.2s-1,7.6-7.3,7.9s-13.5-1.8-15.8-1.2c-2.3,0.6-8,4.9-8,4.9
	L76.4,321.8L76.4,321.8z"/>
<path class="st42" d="M87.2,291.2c0,0-1.5-6.8-3.1-10.2c-2.6-5.4-8-6.9-12.3-7.4c-4.3-0.6-2.6,5.1,1.1,7.9c3.7,2.9,9,4.6,10.2,6
	c1.1,1.4,2.8,6.4,2.8,6.4L87.2,291.2L87.2,291.2z M86.3,294.5c0,0,5.1-4.8,8.3-6.6c5.2-3,10.5-1.1,14.4,0.9c3.8,2-0.8,5.7-5.4,5.9
	c-4.7,0.2-10.1-1.3-11.8-0.9c-1.7,0.5-5.9,3.6-5.9,3.6L86.3,294.5z"/>
<path class="st41" d="M93.4,280c0,0-10.7,22.7-15.6,42.3c-3.7,14.9-12.5,58.2-12.5,58.2l-2.6-1C62.7,379.5,76.6,294.8,93.4,280z"/>
<path class="st42" d="M89.8,287.1c0,0,4.6-2.6,6.6-4.8c3.4-3.7,2.8-8.3,1.9-11.7c-0.9-3.5-4.7-0.4-5.7,3.3c-1,3.7-3.7,12.6-3.9,13
	L89.8,287.1z"/>
<path class="st41" d="M30.3,328.4c0,0,1.2-5.5,2.5-8.3c2.1-4.4,6.5-5.6,10-6c3.5-0.5,2.1,4.1-0.9,6.4s-7.3,3.8-8.2,4.9
	s-2.3,5.2-2.3,5.2S30.3,328.4,30.3,328.4z"/>
<path class="st41" d="M31.7,330.4c0,0-4.2-3.9-6.8-5.4c-4.2-2.4-8.5-0.9-11.6,0.7s0.6,4.6,4.4,4.8c3.8,0.2,8.2-1.1,9.5-0.7
	c1.4,0.4,4.8,2.9,4.8,2.9L31.7,330.4z M33.2,338.9c0,0,1.4-6.3,2.8-9.4c2.4-5,7.4-6.4,11.4-6.9s2.4,4.7-1,7.3
	c-3.4,2.6-8.3,4.3-9.4,5.5c-1,1.2-2.6,5.9-2.6,5.9L33.2,338.9z M34.4,341.9c0,0-4.7-4.4-7.7-6.1c-4.8-2.8-9.7-1-13.3,0.8
	c-3.5,1.8,0.7,5.2,5,5.4c4.3,0.2,9.3-1.2,10.9-0.8c1.6,0.4,5.5,3.3,5.5,3.3L34.4,341.9L34.4,341.9z M36.3,350.2c0,0,1.4-6.3,2.8-9.4
	c2.4-5,7.4-6.4,11.4-6.9s2.4,4.7-1,7.3c-3.4,2.6-8.3,4.3-9.4,5.5c-1,1.2-2.6,5.9-2.6,5.9L36.3,350.2z M37.4,353.2
	c0,0-4.7-4.4-7.7-6.1c-4.8-2.8-9.7-1-13.3,0.8c-3.5,1.8,0.7,5.2,5,5.4c4.3,0.2,9.3-1.2,10.9-0.8c1.6,0.4,5.5,3.3,5.5,3.3L37.4,353.2
	L37.4,353.2z M27,318.4c0,0,1-4.7,2.1-7c1.8-3.7,5.5-4.7,8.5-5.1c2.9-0.4,1.8,3.5-0.8,5.5s-6.2,3.2-7,4.1s-1.9,4.4-1.9,4.4L27,318.4
	z M27.6,320.6c0,0-3.5-3.3-5.7-4.5c-3.6-2.1-7.2-0.8-9.9,0.6c-2.6,1.4,0.5,3.9,3.7,4.1s6.9-0.9,8.1-0.6s4.1,2.5,4.1,2.5
	S27.6,320.6,27.6,320.6z"/>
<path class="st41" d="M21.9,309.1c0,0,7.4,15.6,10.7,29.1c2.6,10.3,8.6,40.1,8.6,40.1l1.8-0.7C43.1,377.6,33.5,319.3,21.9,309.1z"/>
<path class="st41" d="M24.4,313.9c0,0-3.2-1.8-4.6-3.3c-2.3-2.5-1.9-5.7-1.3-8.1s3.2-0.3,3.9,2.3c0.7,2.5,2.5,8.6,2.7,8.9
	L24.4,313.9z"/>
<path class="st50" d="M88.1,357l-7.4,62.5H37.8L31.1,357H88.1z M11.7,79.9h198v65.7h-198L11.7,79.9z"/>
<path class="st36" d="M119.1,143.1L111,143V95l8.1,0.1V143.1z"/>
<path class="st35" d="M119.8,143.1h-0.7v-48h0.7V143.1z M111,143l-19.5-0.1V95H111V143z"/>
<path class="st36" d="M103.8,143h-4v-40.7h4V143z"/>
<path class="st49" d="M104.6,143h-0.8v-40.7h0.8V143z M99.8,143l-19.5-0.1v-40.7l19.5,0.1V143z"/>
<path class="st36" d="M94.9,142.9h-5.3V88.4h5.3V142.9z"/>
<path class="st34" d="M95.9,143l-1-0.1V88.4h1V143z M89.6,142.9l-25.5-0.1V88.3l25.5,0.1V142.9z"/>
<path class="st51" d="M81.5,143h-4.8V95.1h4.8V143z"/>
<path class="st35" d="M76.9,143l-23.2-0.1V95l23.2,0.1V143z"/>
<path class="st52" d="M70,115h-9.4v-9.6H70V115z"/>
<path class="st36" d="M190.7,143.1l-8.1-0.1V95l8.1,0.1V143.1z"/>
<path class="st35" d="M191.4,143.1h-0.7v-48h0.7V143.1z M182.6,143l-19.5-0.1V95h19.5V143z"/>
<path class="st40" d="M174.8,142.9h-5.2V88.4h5.2V142.9z"/>
<path class="st48" d="M175.8,143l-1-0.1V88.4h1V143z M169.6,142.9l-25.5-0.1V88.3l25.5,0.1V142.9z"/>
<path class="st40" d="M156.1,143H152v-40.7h4.1V143z"/>
<path class="st45" d="M156.8,143h-0.7v-40.7h0.7V143z M152,143l-19.5-0.1v-40.7l19.5,0.1V143z"/>
<path class="st34" d="M42,79.9v65.7h167.7V79.9H42z M205.5,141.4H46.3V84.2h159.2V141.4z"/>
<path class="st34" d="M123.7,81.9h4.3v62.5h-4.3V81.9z"/>
<circle class="st36" cx="292.5" cy="100.1" r="38.1"/>
<path class="st35" d="M302.1,81.8l-0.5-4.3l-4.1,2.4l1.4,0.7l-8.8,21.6l7,7l-1.3,1.1l4.5,1.6l-0.7-4.9l-1.3,1l-4.8-6.4l7-20.4
	L302.1,81.8z M292.5,69.2c-0.4,0-0.8-0.4-0.8-0.8v-3.3c0-0.4,0.4-0.8,0.8-0.8s0.8,0.4,0.8,0.8v3.3C293.3,68.8,292.9,69.2,292.5,69.2
	z M274.3,74.9c-0.2,0-0.5-0.1-0.6-0.3l-1.9-2.7c-0.2-0.4-0.2-0.8,0.2-1.1c0.4-0.2,0.8-0.2,1.1,0.2l1.9,2.7c0.2,0.4,0.2,0.8-0.2,1.1
	C274.6,74.9,274.5,74.9,274.3,74.9z M262.7,90.1h-0.3l-3.1-1.1c-0.4-0.1-0.6-0.6-0.5-1s0.6-0.6,1-0.5l3.1,1.1c0.4,0.1,0.6,0.6,0.5,1
	C263.3,89.9,263,90.1,262.7,90.1z M258.6,110c-0.3,0-0.7-0.2-0.8-0.6c-0.1-0.4,0.1-0.8,0.6-1l3.2-0.9c0.4-0.1,0.8,0.1,1,0.6
	c0.1,0.4-0.1,0.8-0.6,1l-3.2,0.9H258.6z M270,127.8c-0.2,0-0.4-0.1-0.5-0.2c-0.3-0.3-0.4-0.8-0.1-1.1l2.1-2.5
	c0.3-0.3,0.8-0.4,1.1-0.1c0.3,0.3,0.4,0.8,0.1,1.1l-2.1,2.5C270.4,127.7,270.2,127.8,270,127.8z M289.4,135.8
	c-0.5,0-0.8-0.4-0.8-0.9l0.3-3.3c0-0.4,0.4-0.8,0.8-0.7c0.4,0,0.7,0.4,0.7,0.8l-0.3,3.3C290.2,135.5,289.8,135.8,289.4,135.8
	L289.4,135.8z M310,131.3c-0.3,0-0.5-0.1-0.7-0.4l-1.7-2.9c-0.2-0.4-0.1-0.9,0.3-1.1s0.9-0.1,1.1,0.3l1.7,2.9
	c0.2,0.4,0.1,0.9-0.3,1.1C310.3,131.3,310.2,131.3,310,131.3L310,131.3z M324.3,115.7c-0.1,0-0.2,0-0.3-0.1l-3-1.4
	c-0.4-0.2-0.6-0.6-0.4-1s0.6-0.6,1-0.4l3,1.4c0.4,0.2,0.6,0.6,0.4,1S324.6,115.7,324.3,115.7z M323.8,95.4c-0.4,0-0.7-0.3-0.8-0.6
	c-0.1-0.4,0.2-0.8,0.6-0.9l3.3-0.6c0.4-0.1,0.8,0.2,0.9,0.6s-0.2,0.8-0.6,0.9l-3.3,0.6H323.8z M314.9,78.5c-0.2,0-0.4-0.1-0.6-0.2
	c-0.3-0.3-0.3-0.8,0-1.1l2.3-2.3c0.3-0.3,0.8-0.3,1.1,0c0.3,0.3,0.3,0.8,0,1.1l-2.3,2.3C315.3,78.4,315.1,78.5,314.9,78.5z"/>
</svg>
