<?xml version="1.0" encoding="utf-8"?>
<!-- Generator: Adobe Illustrator 28.3.0, SVG Export Plug-In . SVG Version: 6.00 Build 0)  -->
<svg version="1.1" id="Layer_1" xmlns="http://www.w3.org/2000/svg" xmlns:xlink="http://www.w3.org/1999/xlink" x="0px" y="0px"
	 viewBox="0 0 755.2 503.1" style="enable-background:new 0 0 755.2 503.1;" xml:space="preserve">
<style type="text/css">
	.st0{fill:#FFD3B5;}
	.st1{fill:#F2F4F7;}
	.st2{fill:#E2E6ED;}
	.st3{fill:#FFC97D;}
	.st4{fill:#9C6F43;}
	.st5{fill:#2E2E47;}
	.st6{fill:#1CA567;}
	.st7{fill:#4BBC86;}
	.st8{fill:#CC8B70;}
	.st9{fill:#82664B;}
	.st10{fill:#235EB5;}
	.st11{fill:#FFFFFF;}
	.st12{fill:#FFA982;}
	.st13{fill:#F2836D;}
	.st14{fill:#3B82F6;}
	.st15{fill:#A424FF;}
	.st16{fill:#50D193;}
	.st17{fill:#6F0CC6;}
	.st18{fill:#9FFCC9;}
	.st19{fill:#7A0ADD;}
	.st20{fill:#2368CC;}
	.st21{fill:#EAE6E4;}
	.st22{opacity:3.000000e-02;fill:#2E2E47;enable-background:new    ;}
	.st23{fill:#EF9A6A;}
	.st24{fill:#F2B368;}
	.st25{fill:#D2D5FC;}
	.st26{fill:#FFEA8F;}
	.st27{fill:#82A7AF;}
	.st28{fill:#F2276A;}
	.st29{fill:#C96B59;}
	.st30{fill:#6071EF;}
	.st31{fill:#B665FC;}
</style>
<path class="st0" d="M377.9,218.9h7.6v159.4h-7.6V218.9z M411.8,224.1l38.5,163.1h14.6l-39.3-166.3L411.8,224.1z M395.7,234.4
	l38.5,163.1h14.7l-39.4-166.3L395.7,234.4z"/>
<path class="st1" d="M408.7,224.2h-32.4l-8.6,5.1l-15.1,1.9v7h50.2l23.7-14v-6.9L408.7,224.2z"/>
<path class="st2" d="M402.8,231.2h-50.2l23.7-13.9h50.2L402.8,231.2z"/>
<path class="st0" d="M406.3,255.2l15.9-8.6c0,0,13,3.8,14.5,10.5s-30.4,3.9-30.4,3.9V255.2L406.3,255.2z M417.3,294.6l15.9-8.6
	c0,0,13,3.8,14.5,10.5s-30.4,3.9-30.4,3.9V294.6z M425.1,334l15.9-8.6c0,0,13,3.8,14.5,10.5s-30.4,3.9-30.4,3.9V334z M436,373.5
	l15.9-8.6c0,0,13,3.8,14.5,10.5s-30.4,3.9-30.4,3.9V373.5z M352.6,238.2h7.6v159.4h-7.6V238.2z"/>
<path class="st0" d="M355.2,350.9l25.2-12.8l2.3,4.6l-25.2,12.8L355.2,350.9z"/>
<path class="st3" d="M362.4,188.9h40.3v40.3h-40.3V188.9z M360.2,182.8h42.5v6.1h-42.5V182.8z"/>
<path class="st4" d="M417.3,185.6l-14.6,3.3v-6.1l14.6-3.3V185.6z"/>
<path class="st4" d="M415.3,225.9l-12.6,3.3v-40.3l12.6-3.3V225.9z"/>
<path class="st5" d="M376.7,190.2c0,1.8,1.5,3.3,3.3,3.3h5.1c1.8,0,3.3-1.5,3.3-3.3H376.7L376.7,190.2z"/>
<path class="st3" d="M374.8,179.8l-14.6,3h42.5l14.6-3.3L374.8,179.8z"/>
<path class="st6" d="M381.5,168.9c0,0-9.7-41.4-6-54.2s6.6-8.8,7.1-3.7s-0.9,18.1-0.5,26.1c0.3,6.3,2,20.7,2,20.7s4-31.8,4.2-36
	s1.8-5.1,5.2-2c3.4,3.1-1.8,40.2-1.8,40.2s12.2-38.1,13.3-43.3c1.1-5.1,0-11.6,4.7-10.7s0.2,28.3-2.5,36.3
	c-2.6,7.9-13.9,24.9-15.3,26.2C390.6,169.8,381.5,168.9,381.5,168.9L381.5,168.9z"/>
<path class="st7" d="M385.7,169.4c0,0-5.1-0.5-8.2-9.8s-3.5-25.2-0.7-25.9s4.3,2.1,4.1,5.9c-0.2,3.8-1.7,7.5,0.4,16.7
	C382.8,162.1,388.5,168.8,385.7,169.4L385.7,169.4z"/>
<path class="st7" d="M384.7,164c0,0-2.4-19.1-1.6-26.8s3.8-7.8,6.2-6.6c2.3,1.2-0.2,37.8-3,38.5C385.3,169.3,384.7,164,384.7,164
	L384.7,164z"/>
<path class="st7" d="M386.7,166.1c0,0,3.2-4.5,5.2-11.5s-0.8-19.6,1.9-20.6s3.8,1.6,4.2,5.5c0.4,3.9-0.3,17.7-2.9,22.4
	s-7.7,7.6-8.9,6.7S386.7,166.1,386.7,166.1L386.7,166.1z"/>
<path class="st8" d="M377.1,166.9H396l-3.6,16.1h-11.1L377.1,166.9z"/>
<path class="st5" d="M296.8,166.9c0,0,33,30,38,38.6s2.6,14.9-3.1,20.2s-20,2.7-26-1.5C299.6,220.1,297.2,173.2,296.8,166.9z"/>
<path class="st9" d="M294.9,434.5c-0.6,0.6-1.7,1.1-3.8,1.6c-2.2,0.5-7.3-0.8-11-1.4c-3.3-0.5-15.4-4.7-18.6-5.8l1.2-16.6l13.4,1.5
	c0,0-0.5,5.3-0.5,6.5s19.8,8.6,20.9,12.7c0.1,0.3,0.1,0.7,0.2,1C296.1,433.9,295.4,434.1,294.9,434.5L294.9,434.5z"/>
<path class="st5" d="M280,434.7c3.8,0.6,8.9,1.8,11,1.4c2.2-0.5,3.2-1,3.8-1.6c0.5-0.4,1.2-0.6,1.8-0.5c0.3,3.4-3.1,4.9-4.3,5.1
	c-1.2,0.2-14.2,0.9-30.1-6.6c-0.6-0.3-1-1-1-1.6l0.1-2.1C264.7,430,276.8,434.2,280,434.7L280,434.7z"/>
<path class="st9" d="M194.5,434.5c0.6,0.6,1.7,1.1,3.8,1.6c2.2,0.5,7.3-0.8,11-1.4c3.3-0.5,15.4-4.7,18.6-5.8l2.5-14.9l-13.4-1.7
	c0,0-3.2,6.8-3.2,8s-19.8,8.6-20.9,12.7c-0.1,0.3-0.1,0.7-0.2,1C193.3,433.9,194,434.1,194.5,434.5L194.5,434.5z"/>
<path class="st5" d="M209.3,434.7c-3.8,0.6-8.9,1.8-11,1.4c-2.2-0.5-3.2-1-3.8-1.6c-0.5-0.4-1.2-0.6-1.8-0.5
	c-0.3,3.4,3.1,4.9,4.3,5.1s14.2,0.9,30.1-6.6c0.6-0.3,1-1,1-1.6l-0.1-2.1C224.7,430,212.6,434.2,209.3,434.7L209.3,434.7z"/>
<path class="st10" d="M246,233.3l67.2-2.2c0,0,0,12.4-4.3,38.3c-1.9,11.7-7.8,43.1-13.1,68.6c-0.9,4.2-4.1,7.3-4.9,11.5
	c-8.1,38.5-12.9,70.1-12.9,70.1s-3.8,1.6-10.1,1.6c-7,0-9.5-2-9.5-2l17.9-145.3c-3.2,10.7-10.4,34.7-18,60.4
	c-0.9,3.1-4.9,10.1-5.8,13.2c-11.5,38.4-20,73-20,73s-5.7,1.6-12,0.5c-8.6-1.4-9-3.3-9-3.3l16-74.3l4.7-22.7L246,233.3L246,233.3z"
	/>
<path class="st5" d="M270.4,114.5c0,0,2.8,1.1,3.3,3.9c0.4,2.8,0,7.7-1.9,7.7s-6.1-7.4-5.5-9.1C267,115.3,269.3,113.9,270.4,114.5z
	 M276.2,145.3c14.8,4.6,19.1,14.1,25.8,32.4c1,2.7,10,11.7,12.6,37c0.2,2.3,0.5,7,0.1,10.4c-0.3,2.5,0.3,6,0,7
	c-1.5,5.6-68.7,1.2-68.7,1.2s-3.5,1.4-1.4-21.2c2.7-28.9-5.2-45.6-1.2-52.9C247.5,151.9,259.2,140,276.2,145.3L276.2,145.3z"/>
<path class="st5" d="M257.6,152.3c0,0-7.2,2.2-11.9,2c-4.8-0.2,1-11.7,6.2-13.2s12.5-2.9,16.8-0.9s4.6,3.5,5.6,5.5s-1.2,6.5-3.9,7.5
	C267.6,154.3,257.6,152.3,257.6,152.3L257.6,152.3z"/>
<path class="st5" d="M263.2,151.1c0,0-4.4-3.9-6.2-4.6c-1.7-0.7-5.2-0.6-5.1-2.2c0.1-1.5,13.5-3.9,15.8-3.1c2.3,0.8,2.4,1.5,2.7,3.8
	c0.3,2.3-0.2,5.5-1.3,6.1C267.9,151.8,265.2,151.9,263.2,151.1z"/>
<path class="st11" d="M259.8,145.3c0,0,1.1,4.2,3.8,6.2c2.7,2,5.5,1.4,6-0.7c0.4-2.1-1.5-6.4-1.5-6.4L259.8,145.3z"/>
<path class="st12" d="M258.3,136c0,0,0.4,7.5,1.7,10.2c0.4,0.8,3.9,3.5,7,2.1s0.1-7.6,0.1-7.6L258.3,136L258.3,136z"/>
<path class="st5" d="M267.2,140.7l-1-0.5l-6.7-0.5c0,0,2.6,2.9,6,3.5c1,0.2,1.9,0.2,2.7,0.1C267.7,141.9,267.2,140.7,267.2,140.7z
	 M250.3,120.9c0,0-2.4,2.4-1.5,5.8s5.9,9.1,9.1,9.1c3.3-0.1,1-13.8-1-15C255,119.6,251.4,119.9,250.3,120.9L250.3,120.9z"/>
<path class="st12" d="M263,114.4c4.1-0.5,8,2,9.3,6l1.3,4.1c0.6,1.9,1.6,3.7,2.2,6.7s0.2,8.5-5.1,10.1c-5.4,1.7-11.9-1.1-13.7-3.9
	c-1.8-2.8-1.9-4.2-1.9-4.2s-0.8,0.9-2.2-1.1s-2.6-5.4-0.7-6.1c1.9-0.7,1.3,0.5,1.8,0.3s0.5-7.4,5.9-11.1
	C260.6,114.9,261.7,114.6,263,114.4z"/>
<path class="st5" d="M268.3,131.8c-0.2,0-0.5,0-0.8-0.1c-0.1,0-0.1-0.1-0.1-0.2s0.1-0.1,0.2-0.1c0.8,0.2,1.5,0,2-0.4
	c0.4-0.4,0.5-0.9,0.3-1.6c-0.1-0.5-0.4-1-0.6-1.6c-0.7-1.6-1.5-3.4-0.2-5.4c0.8-1.3,4.1,0.5,4.2,0.6c0.1,0,0.1,0.1,0.1,0.2
	s-0.1,0.1-0.2,0.1c-0.9-0.5-3.2-1.6-3.8-0.7c-1.2,1.9-0.5,3.5,0.2,5.1c0.2,0.6,0.5,1.1,0.6,1.6c0.2,0.7,0.1,1.4-0.4,1.9
	C269.5,131.6,269,131.8,268.3,131.8L268.3,131.8z M260.1,124.8H260c-0.1-0.1-0.1-0.2,0-0.2c0.1-0.1,2.1-2,5.1-1.6
	c0.1,0,0.1,0.1,0.1,0.2s-0.1,0.1-0.2,0.1c-2.8-0.5-4.8,1.5-4.8,1.5H260.1z M253.5,124.2c0,0,1,4.8,1.9,5.3s2.3-0.1,2.4-0.7
	c0.1-0.5-1.1-7-1.3-7.7C256.3,120.6,253.8,124.1,253.5,124.2z"/>
<path class="st13" d="M264.4,131.2c0,0-4,0.6-4.9-0.7s3.6-2,5.7-1.4C267.2,129.5,265.4,131.1,264.4,131.2L264.4,131.2z M274.4,129.8
	c-0.1,0-0.2,0.1-0.3,0.1c-0.6,0.1-2.6,0.3-2.8-1c-0.3-1.5,2.7-2.1,3.9-1.5C276.3,128,276.1,129.2,274.4,129.8L274.4,129.8z"/>
<path class="st5" d="M261.9,127.3c-0.1,0-0.2-0.1-0.1-0.2c0,0,0.1-0.8,1.4-1.2c0.8-0.3,1.6-0.2,1.6-0.2c0.1,0,0.1,0.1,0.1,0.2
	s-0.1,0.1-0.2,0.1c0,0-0.7-0.1-1.5,0.2C262.1,126.6,262,127.2,261.9,127.3L261.9,127.3L261.9,127.3z"/>
<path class="st5" d="M264,126.2c0.3,0,0.6,0.1,0.8,0.4c0.2,0.5,0.4,1.2-0.4,1.6c-1.3,0.6-1.4-1.4-1.1-1.7
	C263.4,126.4,263.7,126.3,264,126.2z M269.8,125.5c-0.1,0-0.2-0.1-0.1-0.2c0,0,0.3-0.8,1.6-1c0.9-0.1,1.6,0.1,1.6,0.1
	c0.1,0,0.1,0.1,0.1,0.2s-0.1,0.1-0.2,0.1c0,0-0.7-0.2-1.5-0.1c-1.1,0.2-1.4,0.7-1.4,0.8C269.9,125.5,269.9,125.5,269.8,125.5z"/>
<path class="st5" d="M272.1,124.9c0.3,0,0.6,0.2,0.7,0.6c0.1,0.5,0.2,1.3-0.7,1.5c-1.3,0.3-1.1-1.6-0.8-1.9
	C271.4,124.9,271.8,124.9,272.1,124.9z"/>
<path class="st14" d="M248.3,119c-0.5,0.9-1.8,2.3-1.4,4.5c0.2,0.8,1.2,2.8,1.8,2.8c1.2,0,8-7.8,14.4-8.5s10.4-0.2,10.8-0.3
	s-0.7-4.6-1.3-5c-0.5-0.4-2.4-0.9-2.6-1c-0.6-0.3-1.9-2.7-5.3-3.7c-8.6-2.6-12.5,1.7-14.6,4.2c-0.9,1.1-1.3,3.6-1.3,4.8
	C249,117.5,248.7,118.3,248.3,119z"/>
<path class="st5" d="M261.5,118.4c0,0-2.9,4.5-5.7,6.9s-6.2,2.6-6.6,1.2c-0.4-1.4,2.6-3.5,2.6-3.5s0-1.8,2.4-3.2
	C256.6,118.2,257.7,116.8,261.5,118.4z"/>
<path class="st6" d="M305.9,66.5c0,0-5.2-1.1-7-6.1c-1.8-5.1,5.8-36.9,23.4-41.6s0.6,36.1-3.8,43S308,66.9,308,66.9s1.4,11,2.2,19.5
	c4.3,45.2,8.1,94.7,8.1,94.7h-1.6C316.7,181.1,306.7,78.2,305.9,66.5L305.9,66.5z"/>
<path class="st11" d="M307,66.1c-0.2,0-0.3-0.2-0.3-0.3c0-0.1,1.1-8.3,3.2-16c0-0.2,0.2-0.3,0.4-0.2c0.2,0,0.3,0.2,0.2,0.4
	c-2.1,7.6-3.2,15.8-3.2,15.9S307.1,66.1,307,66.1L307,66.1z M312.3,43.5c-0.2,0-0.3-0.2-0.3-0.4c0-0.1,1-5.2,4.8-10.5
	c3.7-5.3,9.5-13.2,9.5-13.3c0.1-0.1,0.3-0.2,0.4-0.1s0.2,0.3,0.1,0.4s-5.8,8-9.5,13.3c-3.7,5.2-4.7,10.3-4.7,10.3
	C312.6,43.4,312.5,43.5,312.3,43.5z"/>
<path class="st4" d="M296.5,177.7h41.1c0,0,4.5,22.2-7.6,34.6h-23.8C306.3,212.3,293,204,296.5,177.7L296.5,177.7z"/>
<path class="st7" d="M314.4,177.7c0,0-4.3-43.2-7.6-58.4c-5.2-23.9-9.3-35.5-9.3-35.5s3.9-11.7-9.3-23.9
	c-13.2-12.2-28.1-11.9-26-2.2c2.2,9.7,13,22.2,21.6,25.5c8.7,3.2,11.7,2.2,11.7,2.2s5.2,14.4,9.5,36.7c1.1,5.4,7.2,48.9,7.4,55.7
	L314.4,177.7L314.4,177.7z"/>
<path class="st6" d="M317.8,177.7c0,0,2.1-52.6,1-69s6.1-41.1,10.6-50.1s21.4-35.4,32.7-40.2c11.3-4.8,13.4-7.1,15.4-3.7
	s-3.7,28.4-5.4,31c-1.7,2.5-14.5-5.7-16-3.9c-1.5,1.7,13.8,5.6,12.8,9.5c-1.1,3.9-11,20.3-16,21.7S332,67,330,69
	c-1.9,2-8,17.6-8,25.8s-1.7,82.9-1.7,82.9L317.8,177.7L317.8,177.7z"/>
<path class="st11" d="M362.7,58.7c-0.1,0-0.1,0-0.2-0.1s-13.1-11.5-22.7-11.5c-0.2,0-0.3-0.1-0.3-0.3s0.1-0.3,0.3-0.3
	c4.1,0,9.3,2,15.3,5.8c4.5,2.9,7.8,5.8,7.8,5.8c0.1,0.1,0.1,0.3,0,0.4L362.7,58.7L362.7,58.7z M372.9,35.9h-0.1
	c-0.1,0-12.7-4.8-19.9-4.8h-0.1c-0.2,0-0.3-0.1-0.3-0.3c0-0.2,0.1-0.3,0.3-0.3h0.1c7.4,0,20,4.8,20.2,4.9c0.2,0.1,0.2,0.2,0.2,0.4
	C373.2,35.9,373.1,35.9,372.9,35.9L372.9,35.9z M355.4,26.3c-0.1,0-0.2-0.1-0.3-0.2c-0.1-0.2,0-0.3,0.2-0.4
	c3.4-1.4,7.7-1.6,10.7-1.6c3.3,0.1,5.8,0.5,5.8,0.5c0.2,0,0.3,0.2,0.2,0.3c0,0.2-0.2,0.3-0.3,0.2c-0.1,0-9.9-1.6-16.2,1
	C355.5,26.3,355.5,26.3,355.4,26.3L355.4,26.3z M276.8,63h-0.2c-5-3.3-9.7-8.9-10-9.3c-0.1-0.1-0.1-0.3,0.1-0.4
	c0.1-0.1,0.3-0.1,0.4,0.1c0.3,0.4,5,6,9.8,9.1c0.1,0.1,0.2,0.3,0.1,0.4C277,62.9,276.9,63,276.8,63L276.8,63z M296.8,85.1
	c-0.1,0-0.2-0.1-0.3-0.2c0,0-1.6-3.5-3.6-6.4s-10.1-11.9-10.2-12s-0.1-0.3,0-0.4s0.3-0.1,0.4,0c0.3,0.4,8.2,9.1,10.2,12.1
	s3.7,6.4,3.7,6.5c0.1,0.1,0,0.3-0.1,0.4H296.8z"/>
<path class="st6" d="M323.5,177.7c0,0-0.2-46.7,6.9-61.1c0,0-4-3.6-2.9-8.8c1.1-5.3,23.7-28.9,41.3-24c17.5,4.9-17.8,31.4-25.1,35.2
	c-7.3,3.7-11.7-0.9-11.7-0.9s-3.1,5.2-3.8,13.7s-2.9,38.5-3.1,41.4c-0.1,2.9,0,4.6,0,4.6h-1.6L323.5,177.7z"/>
<path class="st11" d="M331.7,116.9c-0.1,0-0.1,0-0.2-0.1s-0.2-0.3-0.1-0.4s5.2-6.6,10.9-12.2c0.1-0.1,0.3-0.1,0.4,0s0.1,0.3,0,0.4
	c-5.7,5.5-10.8,12-10.8,12.1C331.9,116.9,331.8,116.9,331.7,116.9L331.7,116.9z M347.8,100.1c-0.1,0-0.1,0-0.2-0.1s-0.1-0.3,0-0.4
	c0,0,3.5-4,9.5-6.7c5.9-2.7,14.9-6.6,15-6.7c0.2-0.1,0.3,0,0.4,0.2s0,0.3-0.2,0.4c-0.1,0-9.1,4-15,6.7c-5.8,2.6-9.2,6.5-9.3,6.5
	C348,100,347.9,100.1,347.8,100.1L347.8,100.1z"/>
<path class="st7" d="M309.7,177.7c0,0,0.7-31.9-8-54.5S262.6,78.9,253,78.1c-9.6-0.8,3.7,12.7,5.3,13.9c1.6,1.2,7.7-3.4,8.1-1.9
	s-4.1,1.8-2.2,5.6c1.9,3.8,8,9.8,10.6,8.8c2.5-1,6.2-4.6,8.9-2.8c2.7,1.8,12.6,10.8,17.1,26.2s5.9,49.9,5.9,49.9L309.7,177.7
	L309.7,177.7z"/>
<path class="st11" d="M268.2,97.9h-0.1c-0.2-0.1-0.2-0.2-0.2-0.4c1-2.4,7.3-5.3,7.6-5.5c0.2-0.1,0.3,0,0.4,0.1
	c0.1,0.2,0,0.3-0.1,0.4c-0.1,0-6.4,2.9-7.3,5.1C268.4,97.8,268.3,97.9,268.2,97.9z"/>
<path class="st5" d="M265.2,155.3c-1.3-0.3-2.1-0.8-2.8-1.3c-0.8-0.5-1.6-1-2.8-1.2c-2.4-0.3-12.6,1.7-12.7,1.7
	c-0.1,0-0.2,0-0.2-0.1s0-0.2,0.1-0.2c0.4-0.1,10.4-2,12.8-1.7c1.3,0.2,2.1,0.7,2.9,1.2c0.7,0.5,1.5,1,2.7,1.2c0.1,0,0.1,0.1,0.1,0.2
	C265.4,155.2,265.3,155.3,265.2,155.3L265.2,155.3z"/>
<path class="st12" d="M320.4,210.3c0,0,4.6-1.2,5.8-1.3c1.2,0,5.8-0.3,7.9-0.9c1.3-0.4,2.2-0.9,2.9-1.4c0.9-0.6,1.4-1.5,1.5-2.6
	c0.2-1.7,0.4-4.2,0.4-4.4c0.2-2.4,0-2.3-0.7-3.3s-6.3,3.2-6.7,2.2c-0.3-1,2.9-3.3,2.2-5.3c-0.7-2-2.2,0.7-3,1.5
	c-0.9,0.9-6.6,4.7-8,6.2s-6.5,2.7-6.3,4.5C316.6,207.5,319.3,210.9,320.4,210.3L320.4,210.3z"/>
<path class="st5" d="M321.3,197.3c-7.7,0.4-45.5,11.4-45.5,11.4l-19.6-40.1c-2.1-5-8.1-7.2-12.8-4.5c-0.6,0.3-1.1,0.7-1.7,1.2
	c-1.1,0.9-2.5,2.6-2.7,3.6c-0.3,1.9,0.7,11.9,3.4,25.3c0.4,2.1,0,5.1,0.5,7.2c0.3,1.4,1.6,1.8,2,3.1c3.1,11.4,13.7,27.4,19.1,30.3
	c19.1,10,55.9-5.7,64-18.7C331.3,210.8,327.6,197,321.3,197.3L321.3,197.3z"/>
<path class="st11" d="M274.5,222.3c-0.1,0-0.2,0-0.3-0.1c-0.5-0.6,0.1-4.2,1-9.1c0.5-2.3,1-5,0.8-5.4c-0.5,0.1-2.1,2.8-3.4,4.8
	c-2.1,3.4-4.2,6.9-5.5,7.2c-0.2,0-0.3,0-0.5-0.1c-0.3-0.2-0.5-0.5-0.6-0.9c-0.3-1.9,2.7-5.6,5.2-8.7c1.5-1.8,2.8-3.5,2.9-4.2
	c0.2-1.2-1.1-3.4-2.5-5.7c-0.7-1.2-1.5-2.5-2.1-3.7l-13.6-27.9c0-0.1,0-0.2,0.1-0.2s0.2,0,0.2,0.1l13.6,27.9
	c0.6,1.2,1.3,2.4,2.1,3.6c1.4,2.3,2.8,4.5,2.5,5.9c-0.1,0.7-1.4,2.3-3,4.3c-2.4,3-5.4,6.7-5.1,8.4c0,0.3,0.2,0.5,0.4,0.7
	c0.1,0,0.2,0.1,0.3,0c1.1-0.3,3.4-4,5.3-7.1c2.2-3.6,3.2-5.1,3.7-4.9c0.4,0.1,0.3,1-0.7,5.7c-0.7,3.5-1.6,8.2-1.1,8.8
	c1.5,0,3.2-7.3,4-11.2c0.7-3,0.8-3.3,1-3.4c0.5-0.1,19.6-5.4,19.8-5.5c0.1,0,0.2,0,0.2,0.1s0,0.2-0.1,0.2
	c-0.2,0.1-18.8,5.2-19.8,5.5c-0.1,0.2-0.5,1.7-0.8,3.2C277.5,216.7,276.1,222.3,274.5,222.3L274.5,222.3z M276.4,273.9
	C276.3,273.9,276.3,273.9,276.4,273.9c-0.1,0-0.2-0.1-0.1-0.2c0.8-2.4,7.4-23.5,9.5-24.2c0.3-0.1,0.8-0.3,1.5-0.6
	c6.9-2.6,14-5.1,15.3-3.4c0.2,0.2,0.2,0.4,0.1,0.7c-0.8,2.2-12.7,5.1-13.2,5.2c-0.1,0-0.2,0-0.2-0.1s0-0.2,0.1-0.2
	c3.4-0.8,12.4-3.3,13-5c0.1-0.1,0-0.3-0.1-0.4c-1.3-1.7-11.3,2.1-15,3.5c-0.7,0.3-1.2,0.5-1.5,0.6c-1.6,0.6-7.3,17.5-9.3,24
	C276.5,273.9,276.4,273.9,276.4,273.9L276.4,273.9z M259.8,248.6c-0.2-0.1-0.5-0.2-0.5-0.4s0.1-0.6,10.2-0.3
	c4.9,0.2,9.9,0.4,9.9,0.4c0.1,0,0.1,0.1,0.1,0.2s-0.1,0.1-0.2,0.1c-7.1-0.4-18.3-0.8-19.7-0.3c0,0,0.1,0,0.1,0.1
	C259.8,248.4,259.8,248.5,259.8,248.6C259.9,248.6,259.9,248.6,259.8,248.6z M278.6,351.8h-0.1c-0.1-0.1-0.1-0.2,0-0.2
	c7.2-6.8,13.6-10.8,13.7-10.8h0.2v0.2c-0.1,0-6.4,4.1-13.6,10.8C278.7,351.7,278.7,351.8,278.6,351.8z M231.8,351.8
	c0,0-0.1,0-0.1-0.1v-0.2l23.8-16.7h0.2v0.2L231.8,351.8C231.8,351.7,231.8,351.8,231.8,351.8L231.8,351.8z M265.4,133.2
	c0,0,4.1-0.1,6.5-0.9c0,0,0.2,1.9-0.5,3.1C270.7,136.5,266.7,135.7,265.4,133.2L265.4,133.2z"/>
<path class="st5" d="M259.6,119.9c0,0,8.8,0.3,11.6-0.5c2.8-0.8,4.1-1.8,3.6-3.9c-0.5-2-3.6-2.4-5.5-1.7s-3,1.3-3,1.3
	s-2.7-1.3-4.2-0.5C260.6,115.5,259.6,119.9,259.6,119.9z"/>
<path class="st11" d="M262.4,233.8C262.3,233.8,262.3,233.8,262.4,233.8c-4.8-3.6-6.7-6.9-9.1-11.1c-0.7-1.2-1.4-2.4-2.2-3.7
	c-3.6-5.8-5.9-13-5.9-13c0-0.1,0-0.2,0.1-0.2s0.2,0,0.2,0.1s2.3,7.2,5.9,13c0.8,1.3,1.5,2.5,2.2,3.7c2.4,4.1,4.3,7.4,8.9,10.9
	c0.1,0.1,0.1,0.1,0,0.2L262.4,233.8z"/>
<path class="st12" d="M324.4,209.3c0.6-0.9,7.7,1,7.8,0.6c0.2-0.5-5.3-1.5-5-2.3c0.2-0.7,2.7-0.7,6.5,0.5c2.3,0.7,3,1.5,2.8,2.3
	c-0.2,0.7-0.5,1-0.9,1.4c-0.5,0.5-0.3,1.2-0.9,1.7c-0.5,0.4-1.2,0.4-1.6,0.8c-0.4,0.4-0.2,0.8-0.7,1.2c-0.2,0-1.3,0.3-1.4,0.4
	c-0.5,0.3-0.5,0.9-1.1,1.2c-0.3,0.2-0.5,0.2-0.9,0.1c-1.3-0.8-6.2-2.2-6.1-2.9c0.1-0.8,4.9-0.1,4.9-0.1s-3.8-2-4-2.8
	s1.4-1.1,1.4-1.1S323.8,210.2,324.4,209.3L324.4,209.3z"/>
<path class="st14" d="M433.7,251.1c2.1-5,7.3-8.4,12.7-8.1c7.4,0.3,17,1.5,20.2,5.3c5.5,6.5-12.3,151.6-14.4,155.6
	s-101.6,15.3-104.5,13.7c-2.9-1.6-15.4-88.9-2.5-92s59.9-4.1,62.3-7.9C409.5,314.8,425.4,271.2,433.7,251.1L433.7,251.1z"/>
<path class="st14" d="M362.6,355.7l78.8-25.4l212.5,1.5l-20,82.2l-66.2,16.8l-209.1-16L362.6,355.7z"/>
<path class="st14" d="M438,331.3c-6.1-0.4-9.8-6.1-7.6-11.8c8.5-22.4,27.2-70.8,29.6-71.4c2.6-0.7,66.6,4.3,89.3,6.1
	c4.2,0.3,6.8,4.2,5.6,8.2l-20.6,66.9c-1.4,4.5-6,7.7-10.7,7.4L438,331.3L438,331.3z"/>
<path class="st14" d="M533.7,336.4c-3.4-0.3-5.3-3.5-4.2-6.6c7.2-19,20.7-71.2,31.5-76.4c2.5-1.2,69.3,0.2,90.5,0.5
	c3.4,0,5.6,3,4.7,6.2L634,340.4c-0.7,2.7-3.4,4.6-6.2,4.3L533.7,336.4z"/>
<path class="st14" d="M649.6,250.3c1.3-5.3,6.8-8.2,12.7-6.5c7.2,2.1,15.9,5.3,18.9,9.6c5.5,7.7-2.6,170.3-4.7,173.8
	c-1.4,2.3-56.4,11.2-87.3,12.8c-15.4,0.8-17.7-4.2-18.6-4.8c-3-1.9-14.5-96.1-1.4-98.1s56.7-3,59.1-6.2
	C630.3,328.4,644.1,272.5,649.6,250.3L649.6,250.3z"/>
<path class="st10" d="M569.1,431.3c-0.4,0-0.8-0.3-0.9-0.8c-0.1-0.5-5.6-50.3-6.1-66.3c-0.4-15.7,2.8-24.1,3.1-24.8
	c1.3-4,6.3-4.2,17.3-4.6c5.8-0.2,13-0.5,22.1-1.4c3.6-0.4,6.7-0.6,9.5-0.8c6.1-0.5,10.1-0.8,12.3-1.7c2.6-1.1,2.9-2.6,3.2-4.5
	c0.1-0.6,0.2-1.3,0.5-1.9c1.5-4,20.5-76.1,20.7-76.8c0.1-0.5,0.6-0.7,1.1-0.6c0.5,0.1,0.7,0.6,0.6,1.1c-0.8,3-19.3,73-20.7,77
	c-0.2,0.5-0.3,1-0.4,1.6c-0.4,1.9-0.8,4.3-4.3,5.8c-2.5,1-6.6,1.3-12.9,1.9c-2.8,0.2-5.9,0.5-9.5,0.8c-9.2,0.9-16.4,1.2-22.2,1.4
	c-9.9,0.4-14.9,0.6-15.8,3.4v0.1c0,0.1-3.4,8.5-3,24.2c0.4,15.9,6,65.7,6,66.2C570,430.8,569.7,431.3,569.1,431.3
	C569.2,431.3,569.2,431.3,569.1,431.3L569.1,431.3z"/>
<path class="st10" d="M367,415c-0.2,0-0.3-0.1-0.5-0.2c-4.4-3.2-4.4-7.6-4.3-12.8c0-1.6,0-3.3-0.1-5c-1.6-26.3,1.8-37.1,2.9-40.6
	c1.9-6.1,13.9-12,35.6-17.5c14.8-3.8,29.3-6.2,31.5-6.5c0.9-0.9,4.8-4.2,9.4-2.8c3.7,1.1,83.1,6.6,124.5,9.3c0.5,0,0.8,0.4,0.8,0.9
	s-0.4,0.8-0.9,0.8c-4.9-0.3-120-8-124.9-9.4c-4.2-1.3-7.9,2.5-7.9,2.6L433,334h-0.3c-0.2,0-15.7,2.4-31.6,6.5
	c-26.3,6.7-33.2,12.6-34.4,16.4c-4.4,14-3.2,33.6-2.8,40c0.1,1.8,0.1,3.5,0.1,5.1c-0.1,5.1-0.1,8.8,3.6,11.4
	c0.4,0.3,0.5,0.8,0.2,1.2C367.6,414.9,367.3,415,367,415L367,415z"/>
<path class="st10" d="M560.4,373.7c-0.4,0-37.9-2.5-56.1-3.9c-18.2-1.4-129-13.1-130.1-13.2c-0.5-0.1-0.8-0.5-0.8-1
	c0.1-0.5,0.5-0.8,1-0.8c1.1,0.1,111.9,11.8,130.1,13.2c18.2,1.4,55.7,3.9,56,3.9c0.5,0,0.8,0.4,0.8,0.9
	C561.2,373.3,560.9,373.7,560.4,373.7L560.4,373.7z M529.2,334.4c-0.4,0-0.8-0.3-0.9-0.8c-0.4-4.2,2.6-12.4,6.3-22.7
	c1.7-4.8,3.5-9.8,5.2-14.9c5.2-16,14.5-37,14.6-37.2c0.2-0.4,0.7-0.6,1.1-0.4c0.4,0.2,0.6,0.7,0.4,1.1c-0.1,0.2-9.3,21-14.5,37
	c-1.7,5.2-3.5,10.2-5.2,15c-3.5,9.7-6.5,18.1-6.2,22C530.1,333.9,529.7,334.3,529.2,334.4L529.2,334.4z M434.2,332.7
	c-0.4,0-3.9-0.5-5.3-9.3c-0.6-3.7,3.9-17,13.3-39.4c7.1-16.8,14.7-33.1,15.5-34.3c1.7-2.4,7.7-2.2,8.9-2.1c0.5,0,0.8,0.4,0.8,0.9
	s-0.4,0.8-0.9,0.8c-2.6-0.1-6.6,0.2-7.4,1.4c-0.7,1-8.2,17.1-15.4,34c-8.9,21.1-13.7,35.1-13.2,38.4c1.2,7.4,3.7,7.9,3.8,7.9
	L434.2,332.7L434.2,332.7z"/>
<path class="st15" d="M409.6,314.3l-25.8,28.6c0,0-37.5-8.4-43.6-7.7c-6.1,0.7-7.8,16-1,20.4s42.4,15.7,54.6,9.1
	s24.6-34.8,25.3-42.1C419.8,315.4,411,312.2,409.6,314.3z"/>
<path class="st6" d="M675.2,368.6c-0.3,0-0.5-0.1-0.8-0.2c-0.9-0.4-1.4-1.6-0.9-2.5c1.5-3.1,7.8-4.5,9.7-4.8c1-0.2,2,0.5,2.2,1.5
	s-0.5,2-1.5,2.2c-3.2,0.6-6.6,1.9-7,2.7C676.6,368.2,675.9,368.6,675.2,368.6L675.2,368.6z M675.3,356.6c-0.3,0-0.5-0.1-0.8-0.2
	c-1.1-0.5-4.6-0.5-6.6-0.4c-1,0.1-2-0.7-2-1.7c-0.1-1,0.7-2,1.7-2c1-0.1,6-0.4,8.5,0.7c0.9,0.4,1.4,1.6,0.9,2.5
	C676.7,356.2,676,356.6,675.3,356.6L675.3,356.6z"/>
<path class="st6" d="M672.9,396.8h-0.2c-1-0.1-1.8-1.1-1.7-2.1c0-0.1,1.7-14,2.1-20c0.1-2.1,0.2-7.6,0.3-13.9
	c0.2-14.5,0.4-25.8,1.1-28.6c1.1-4.1,2.2-19.7,2.2-19.9c0.1-1,1-1.8,2-1.7c1,0.1,1.8,1,1.8,2c0,0.7-1.2,16.1-2.3,20.6
	c-0.7,2.5-0.9,17.7-1,27.7c-0.1,6.4-0.1,11.8-0.3,14.1c-0.4,6.1-2,19.6-2.1,20.2C674.6,396.1,673.8,396.8,672.9,396.8L672.9,396.8z"
	/>
<path class="st9" d="M654.8,394l5.1,43.2h29.7l4.6-43.2H654.8z"/>
<path class="st6" d="M677.9,320.7c0,0-5.3-1-6.2-8.7s1.9-28.2,10.7-26.2C691.3,287.9,689.8,320.9,677.9,320.7L677.9,320.7z"/>
<path class="st16" d="M677.1,317.2c0,0-4.9-5.4-4.7-6c0.2-0.7,1.5,0.5,2.3,0s-0.7-5.4,0-6.8s2,0.4,2.3-0.7s-2.3-3.9-0.7-7.9
	c1.6-3.9,5.2-8.8,5.5-8.4s-1.6,7.6,0,7.8c1.6,0.2,2.6,0.9,2.8,3.3c0.2,2.3-1.1,5.2-1.5,6.5s0.2,1.7,0,4
	C683.1,311.3,681.8,316.6,677.1,317.2L677.1,317.2z"/>
<path class="st6" d="M670.4,336.9c0,0-4.1,3.3-11.1-0.9c-6.9-4.2-22.5-18.9-15.3-24.1C651.3,306.7,678,328.3,670.4,336.9
	L670.4,336.9z"/>
<path class="st16" d="M667,335.3c0,0-7.6,0.2-8-0.3s1.3-0.8,1.5-1.7s-4.9-2.8-5.7-4.2c-0.7-1.4,1.6-1.2,0.8-2.2s-4.7-0.7-7-4.4
	c-2.3-3.6-4.1-9.3-3.6-9.2c0.6,0,5.4,5.8,6.5,4.8c1.2-1,2.4-1.3,4.5,0c2,1.3,3.7,4.1,4.6,5.2c0.9,1.1,1.6,1,3.4,2.5
	C665.8,327.3,669.5,331.5,667,335.3L667,335.3z"/>
<path class="st6" d="M670.9,383.9c0,0-5.2,4.1-13.9-1.1s-28.2-23.8-19.2-30.3S680.4,373.2,670.9,383.9L670.9,383.9z"/>
<path class="st16" d="M666.6,382c0,0-9.5,0.3-10-0.4s1.7-1,1.8-2.1c0.1-1.2-6.2-3.6-7.1-5.3s2-1.5,1.1-2.7c-1-1.2-6-0.9-8.8-5.5
	c-2.9-4.6-5.2-11.7-4.5-11.6s6.7,7.3,8.2,6.1c1.4-1.3,3.1-1.7,5.6,0c2.6,1.7,4.7,5.1,5.7,6.5c1.1,1.4,2,1.2,4.2,3.1
	C665.1,371.9,669.7,377.2,666.6,382z"/>
<path class="st6" d="M676.7,332.3c-0.7,0-1.3-0.3-1.6-0.9c-0.5-0.9-0.2-2.1,0.7-2.6s8.4-4.8,13.2-5.2c1-0.1,2,0.7,2,1.7
	c0.1,1-0.7,2-1.7,2c-3.3,0.3-9.5,3.5-11.6,4.7C677.4,332.3,677.1,332.3,676.7,332.3L676.7,332.3z"/>
<path class="st6" d="M684.7,325.7c0,0-0.5-4.2,7.2-6.7s29.5-5.2,29.9,1.9C722.1,328.1,687.8,334.7,684.7,325.7L684.7,325.7z"/>
<path class="st16" d="M685.9,325.8c0,0,6.9-6.6,6.9-5.3c0,1.3-1.6,3-0.5,2.8s7.9-5.6,7.9-4c0,1.5-1.3,2,0.4,1.5s8.2-3.1,8.1-2.6
	c-0.1,0.4-3.3,2-0.5,1.8s8.3-1.5,8.6-0.9c0.2,0.6-2.4,2.2-0.8,2c1.6-0.2,4.2-0.6,4.4,0s-10.4,1.5-9.9,1.8s4,1,3.7,1.6
	c-0.2,0.6-10.8-0.5-10.6-0.1s2.9,2.7,1.2,2.8c-1.6,0.1-6.9-1.2-7.2-1s0.9,2.2-1.8,2.4C693.4,328.7,685.9,325.8,685.9,325.8
	L685.9,325.8z"/>
<path class="st6" d="M680.3,363.8c0,0-0.6-6.3,9.7-9.9s39.8-7.7,40.3,2.8C730.8,367.3,684.5,377.1,680.3,363.8z"/>
<path class="st16" d="M682,363.9c0,0,9.3-9.7,9.3-7.8c0,1.9,3,2.9,4.5,2.5c0.6-0.1,0.4,0.3,6.4-0.9c1.6-0.3,6.5-5.1,8.2-5.5
	c2.7-0.5,2.1,3.4,4.5,2.9c4.9-0.9,8.7-1.5,8.8-1.2c0.3,0.9-3.3,3.2-1,2.9c2.2-0.4,5.7-0.9,6,0s-14.1,2.2-13.3,2.6
	c0.7,0.5,5.4,1.4,5,2.3c-0.3,0.9-14.5-0.7-14.2-0.1s3.9,4,1.7,4.1c-2.2,0.2-9.3-1.8-9.7-1.4c-0.3,0.4,1.3,3.2-2.4,3.5
	S682,363.9,682,363.9z"/>
<path class="st6" d="M671.5,353.9c0,0-1.7-5.3-10-5.6s-30.1,3.7-26.9,12.5C637.8,369.4,673.2,365.8,671.5,353.9z"/>
<path class="st16" d="M670.4,354.3c0,0-9.8-5.6-9.1-4.1c0.6,1.6,3,3.1,1.8,3.2c-1.1,0.1-10.2-4-9.4-2.2s2.3,2,0.4,1.9
	c-1.9-0.1-9.2-0.9-8.9-0.4s4.1,1.3,1.4,2.1c-2.7,0.7-8.5,1.1-8.4,1.9s3.4,1.8,1.7,2.1c-1.6,0.3-4.2,0.7-4.1,1.5
	c0.1,0.8,10.5-1.8,10.1-1.2s-3.2,2.5-2.7,3.2s9.8-4.3,9.8-3.7s-1.3,4.2,0.3,3.8c1.6-0.4,5.8-3.8,6.2-3.6s0.2,3,2.9,2.3
	C664.9,360.4,670.4,354.3,670.4,354.3L670.4,354.3z"/>
<path class="st6" d="M685.7,385.2h-0.3c-2.9-0.5-8.2-1-10.2-0.3c-1,0.4-2.1-0.2-2.4-1.1c-0.4-1,0.2-2.1,1.1-2.4
	c3.6-1.3,11.3,0,12.1,0.1c1,0.2,1.7,1.2,1.5,2.2C687.4,384.5,686.6,385.2,685.7,385.2L685.7,385.2z"/>
<path class="st6" d="M680.2,382.4c0,0,3.2-7.6,15.6-7c12.4,0.6,44.1,9.6,38.1,22.1C728,410,676.1,399.8,680.2,382.4L680.2,382.4z"/>
<path class="st16" d="M681.8,383.2c0,0,15.3-7,14.1-4.8s-4.8,4.2-3.1,4.4c1.7,0.3,15.7-4.6,14.3-1.9c-1.4,2.6-3.6,2.6-0.8,2.8
	c2.8,0.1,13.7-0.1,13.2,0.6s-6.2,1.4-2.3,2.9s12.4,2.7,12.2,3.9c-0.2,1.2-5.2,2.3-2.8,2.9s6.2,1.6,5.9,2.8
	c-0.2,1.2-15.2-4.1-14.8-3.2s4.4,4.2,3.5,5.1s-13.9-7.6-14-6.8c-0.1,0.9,1.4,6.4-0.9,5.6c-2.3-0.8-8.1-6.5-8.7-6.2
	c-0.5,0.3-0.8,4.4-4.6,3C689.1,392.9,681.8,383.2,681.8,383.2L681.8,383.2z"/>
<path class="st6" d="M675.6,343.1c-0.5,0-0.9-0.2-1.3-0.5l-5.6-5.3c-0.8-0.7-0.8-1.9-0.1-2.7c0.7-0.8,1.9-0.8,2.7-0.1l5.6,5.3
	c0.8,0.7,0.8,1.9,0.1,2.7C676.6,342.9,676.1,343.1,675.6,343.1z M678.5,346.8c0,0,3.8-6.8,11.7-7.7c7.9-0.9,21-1.9,25.5,1
	C720.3,343,680.1,344.7,678.5,346.8z"/>
<path class="st6" d="M675.4,352.5c-0.2,0-0.4,0-0.6-0.1c-1-0.4-1.5-1.4-1.1-2.4c1.9-5.4,10.1-8.7,11-9c1-0.4,2.1,0.1,2.4,1.1
	c0.4,1-0.1,2.1-1.1,2.4c-2.1,0.8-7.7,3.6-8.8,6.8C676.9,352,676.2,352.5,675.4,352.5L675.4,352.5z M673.6,390.5
	c-1,0-1.8-0.7-1.9-1.7c-0.1-0.6-1.4-2.8-2.8-4.6c-0.6-0.8-0.5-2,0.4-2.6c0.8-0.6,2-0.5,2.6,0.4c1,1.3,3.4,4.6,3.5,6.6
	C675.5,389.6,674.7,390.6,673.6,390.5C673.7,390.5,673.6,390.5,673.6,390.5L673.6,390.5z"/>
<path class="st11" d="M202,193.9h7v214h-7V193.9z"/>
<path class="st2" d="M52.3,193.9h152.6v5H52.3V193.9z"/>
<path class="st17" d="M162.1,205.5c0,0-18.3,8.8-20.9,14.4c-2.6,5.6-1.8,113.1-1.8,113.1l65.2,0.8c0,0,0.4-30.6,0.2-59.5
	c-0.1-25,3.5-48.5,2.3-52.2c-2.6-7.8-16.9-14.2-22.1-15.6C179.9,205.1,166.3,203.3,162.1,205.5L162.1,205.5z"/>
<path class="st5" d="M172.8,226c-0.6,0-1.2-0.2-1.8-0.7c-2.5-2-4.5-5.7-6.1-11.1c-1.2-4-1.6-7.4-1.6-7.5c0-0.2,0.1-0.3,0.3-0.3
	s0.3,0.1,0.3,0.3c0,0.1,1.8,13.6,7.5,18.2c0.7,0.6,1.4,0.7,2.1,0.5c1.9-0.6,4.2-3.9,6.5-9.6c1.7-4.3,2.9-8.5,2.9-8.5
	c0-0.2,0.2-0.3,0.4-0.2c0.2,0,0.3,0.2,0.2,0.4c-0.2,0.7-4.7,16.8-9.7,18.5L172.8,226L172.8,226z"/>
<path class="st5" d="M182.5,209.5c-0.1,0-0.1,0-0.2-0.1l-9.8-7.1l-8.5,6.6c-0.1,0.1-0.3,0.1-0.4-0.1c-0.1-0.1-0.1-0.3,0.1-0.4
	l8.9-6.9l10.2,7.4c0.1,0.1,0.2,0.3,0.1,0.4C182.7,209.4,182.6,209.5,182.5,209.5L182.5,209.5z"/>
<path class="st5" d="M172.6,202.2c-0.2,0-0.3-0.1-0.3-0.3v-8c0-0.1-0.2-2.4-2.6-2.4c-0.7,0-1.2,0.2-1.6,0.6
	c-0.6,0.7-0.4,1.7-0.4,1.7c0,0.2-0.1,0.3-0.2,0.4c-0.2,0-0.3-0.1-0.4-0.2c0-0.1-0.3-1.3,0.5-2.2c0.4-0.5,1.1-0.8,2-0.8
	c3,0,3.2,2.9,3.2,2.9v8C172.9,202.1,172.7,202.2,172.6,202.2z"/>
<path class="st11" d="M138.4,205.5c0,0-18.3,8.8-20.9,14.4c-2.6,5.6-1.8,107.5-1.8,107.5l69.5,0.9c0,0,0.9-98.4-1.8-106.2
	c-2.6-7.8-16.9-14.2-22.1-15.6C156.2,205.1,142.6,203.3,138.4,205.5L138.4,205.5z"/>
<path class="st5" d="M149.1,226c-0.6,0-1.2-0.2-1.8-0.7c-2.5-2-4.5-5.7-6.1-11.1c-1.2-4-1.6-7.4-1.6-7.5c0-0.2,0.1-0.3,0.3-0.3
	s0.3,0.1,0.3,0.3c0,0.1,1.8,13.6,7.5,18.2c0.7,0.6,1.4,0.7,2.1,0.5c1.9-0.6,4.2-3.9,6.5-9.6c1.7-4.3,2.9-8.5,2.9-8.5
	c0-0.2,0.2-0.3,0.4-0.2c0.2,0,0.3,0.2,0.2,0.4c-0.2,0.7-4.7,16.8-9.7,18.5L149.1,226L149.1,226z"/>
<path class="st5" d="M158.9,209.5c-0.1,0-0.1,0-0.2-0.1l-9.8-7.1l-8.5,6.6c-0.1,0.1-0.3,0.1-0.4-0.1c-0.1-0.1-0.1-0.3,0.1-0.4
	l8.9-6.9l10.2,7.4c0.1,0.1,0.2,0.3,0.1,0.4C159.1,209.4,159,209.5,158.9,209.5L158.9,209.5z"/>
<path class="st5" d="M148.9,202.2c-0.2,0-0.3-0.1-0.3-0.3v-8c0-0.1-0.2-2.4-2.6-2.4c-0.7,0-1.2,0.2-1.6,0.6
	c-0.6,0.7-0.4,1.7-0.4,1.7c0,0.2-0.1,0.3-0.2,0.4c-0.2,0-0.3-0.1-0.4-0.2c0-0.1-0.3-1.3,0.5-2.2c0.4-0.5,1.1-0.8,2-0.8
	c3,0,3.2,2.9,3.2,2.9v8C149.2,202.1,149.1,202.2,148.9,202.2z"/>
<path class="st18" d="M120.7,205.5c0,0-18.3,8.8-20.9,14.4c-2.6,5.6-1.8,121.3-1.8,121.3l69.5,0.9c0,0,0.9-112.1-1.8-119.9
	c-2.6-7.8-16.9-14.2-22.1-15.6C138.5,205.1,124.9,203.3,120.7,205.5z"/>
<path class="st5" d="M131.4,226c-0.6,0-1.2-0.2-1.8-0.7c-2.5-2-4.5-5.7-6.1-11.1c-1.2-4-1.6-7.4-1.6-7.5c0-0.2,0.1-0.3,0.3-0.3
	c0.2,0,0.3,0.1,0.3,0.3c0,0.1,1.8,13.6,7.5,18.2c0.7,0.6,1.4,0.7,2.1,0.5c1.9-0.6,4.2-3.9,6.5-9.6c1.7-4.3,2.9-8.5,2.9-8.5
	c0-0.2,0.2-0.3,0.4-0.2c0.2,0,0.3,0.2,0.2,0.4c-0.2,0.7-4.7,16.8-9.7,18.5L131.4,226L131.4,226z"/>
<path class="st5" d="M141.1,209.5c-0.1,0-0.1,0-0.2-0.1l-9.8-7.1l-8.5,6.6c-0.1,0.1-0.3,0.1-0.4-0.1c-0.1-0.1-0.1-0.3,0.1-0.4
	l8.9-6.9l10.2,7.4c0.1,0.1,0.2,0.3,0.1,0.4C141.3,209.4,141.2,209.5,141.1,209.5L141.1,209.5z"/>
<path class="st5" d="M131.2,202.2c-0.2,0-0.3-0.1-0.3-0.3v-8c0-0.1-0.2-2.4-2.6-2.4c-0.7,0-1.2,0.2-1.6,0.6
	c-0.5,0.7-0.4,1.7-0.4,1.7c0,0.2-0.1,0.3-0.2,0.4c-0.2,0-0.3-0.1-0.4-0.2c0-0.1-0.3-1.3,0.5-2.2c0.4-0.5,1.1-0.8,2-0.8
	c3,0,3.2,2.9,3.2,2.9v8C131.5,202.1,131.3,202.2,131.2,202.2L131.2,202.2z"/>
<path class="st15" d="M101.9,205c0,0-18.3,8.8-20.9,14.4C78.3,225,79.2,355,79.2,355H100l48.7,0.9c0,0,0.9-126.5-1.8-134.3
	c-2.6-7.8-16.9-14.2-22.1-15.6C119.6,204.6,106,202.8,101.9,205L101.9,205z"/>
<path class="st19" d="M111.4,226c-0.6,0-1.2-0.2-1.8-0.7c-2.5-2-4.5-5.7-6.1-11.1c-1.2-4-1.6-7.4-1.6-7.5c0-0.2,0.1-0.3,0.3-0.3
	c0.2,0,0.3,0.1,0.3,0.3c0,0.1,1.8,13.6,7.5,18.2c0.7,0.6,1.4,0.7,2.1,0.5c1.9-0.6,4.2-3.9,6.5-9.6c1.7-4.3,2.9-8.5,2.9-8.5
	c0-0.2,0.2-0.3,0.4-0.2c0.2,0,0.3,0.2,0.2,0.4c-0.2,0.7-4.7,16.8-9.7,18.5L111.4,226L111.4,226z"/>
<path class="st5" d="M121.2,209.5c-0.1,0-0.1,0-0.2-0.1l-9.8-7.1l-8.5,6.6c-0.1,0.1-0.3,0.1-0.4-0.1c-0.1-0.1-0.1-0.3,0.1-0.4
	l8.9-6.9l10.2,7.4c0.1,0.1,0.2,0.3,0.1,0.4C121.4,209.4,121.3,209.5,121.2,209.5L121.2,209.5z"/>
<path class="st5" d="M111.2,202.2c-0.2,0-0.3-0.1-0.3-0.3v-8c0-0.1-0.2-2.4-2.6-2.4c-0.7,0-1.2,0.2-1.6,0.6
	c-0.6,0.7-0.4,1.7-0.4,1.7c0,0.2-0.1,0.3-0.2,0.4c-0.2,0-0.3-0.1-0.4-0.2c0-0.1-0.3-1.3,0.5-2.2c0.4-0.5,1.1-0.8,2-0.8
	c3,0,3.2,2.9,3.2,2.9v8C111.5,202.1,111.4,202.2,111.2,202.2z M78.1,205c0,0-18.3,8.8-20.9,14.4C54.5,225,55.4,336,55.4,336
	l70.2-2.6c0,0-1.7-11.7-1.8-30.7c0-3.2-1.3-11.4-1.3-14.8c-0.1-8.6,2.8-16,2.6-24.5c-0.3-20.7-0.9-38.7-2-41.8
	c-2.6-7.8-16.9-14.2-22.1-15.6C95.8,204.6,82.3,202.8,78.1,205L78.1,205z"/>
<path class="st11" d="M87.6,226c-0.6,0-1.2-0.2-1.8-0.7c-2.5-2-4.5-5.7-6.1-11.1c-1.2-4-1.6-7.4-1.6-7.5c0-0.2,0.1-0.3,0.3-0.3
	c0.2,0,0.3,0.1,0.3,0.3c0,0.1,1.8,13.6,7.5,18.2c0.7,0.6,1.4,0.7,2.1,0.5c1.9-0.6,4.2-3.9,6.5-9.6c1.7-4.3,2.9-8.5,2.9-8.5
	c0-0.2,0.2-0.3,0.4-0.2c0.2,0,0.3,0.2,0.2,0.4c-0.2,0.7-4.7,16.8-9.7,18.5L87.6,226L87.6,226z"/>
<path class="st5" d="M97.4,209.5c-0.1,0-0.1,0-0.2-0.1l-9.8-7.1l-8.5,6.6c-0.1,0.1-0.3,0.1-0.4-0.1c-0.1-0.1-0.1-0.3,0.1-0.4
	l8.9-6.9l10.2,7.4c0.1,0.1,0.2,0.3,0.1,0.4C97.6,209.4,97.5,209.5,97.4,209.5L97.4,209.5z"/>
<path class="st5" d="M87.4,202.2c-0.2,0-0.3-0.1-0.3-0.3v-8c0-0.1-0.2-2.4-2.6-2.4c-0.7,0-1.2,0.2-1.6,0.6c-0.6,0.7-0.4,1.7-0.4,1.7
	c0,0.2-0.1,0.3-0.2,0.4c-0.2,0-0.3-0.1-0.4-0.2c0-0.1-0.3-1.3,0.5-2.2c0.4-0.5,1.1-0.8,2-0.8c3,0,3.2,2.9,3.2,2.9v8
	C87.7,202.1,87.6,202.2,87.4,202.2z"/>
<path class="st14" d="M65.7,206.7c0,0,20.1,0.4,21.5,1.1c1.4,0.7,4.1,7.1,4.1,7.1s18.7,10.6,20.2,12.3c1.5,1.8,4.8,12,4.8,12
	s8.3,25.8,9.2,42.2c0.1,2.2-8.1,46-8.1,46s-8.1-0.4-12.2-2.9l0.8-12.7c0,0-0.7-9.5,0.3-15.1s0.3-27.8,0.3-29.7
	c0-1.9-1.8-7.1-2.9-6.2s-0.5,9.4-0.3,11.7c0.2,2.3-2.7,23-2.8,23.8c-0.1,0.8-3.6,32-3.7,33.5s-0.2,2.8-0.9,2.9s-17.4-2.8-20.8-2.2
	c-3.4,0.6-5.5,2.8-10.4,2.9c-4.9,0.2-8.1-1.9-12.7-1.5s-8.5,0.8-8.7,0.8c-0.3,0,0-65.9,0-65.9s-3.2,27.3-3.5,32.2
	c-0.3,4.9-4.2,25.3-4.7,27.1c-0.5,1.8-1.4,3-1.4,3l-13.3-7.8c0,0,5-27.5,5.1-28.6c0.2-1,4.9-37.9,6-40.9s2.2-23.1,6-26.5
	s22.2-11.3,23-11.8C61.5,213,65.7,206.7,65.7,206.7L65.7,206.7z"/>
<path class="st20" d="M67.2,208.7l18.6,1.7c0,0,0.4,6.7-1.5,9.1c-1.9,2.4-7.7,5.8-7.8,9.1l-0.1,3.2c0,0-2.2-6.6-4.5-8.6
	C69.7,221.2,64.8,221.8,67.2,208.7z"/>
<path class="st10" d="M93.6,224.2h-0.2c-2.8-0.7-9.5-2.3-12.9-0.8c-0.2,0.1-0.3,0-0.4-0.2s0-0.3,0.2-0.4c3.5-1.6,10.4,0,13.3,0.8
	c0.2,0,0.3,0,0.3-0.1c0.1-0.1,0.1-0.2,0.1-0.3l-2.8-8.3c-0.1-0.2,0-0.3,0.2-0.4c0.2-0.1,0.3,0,0.4,0.2l2.8,8.3
	c0.1,0.3,0,0.7-0.2,0.9C94.1,224.1,93.8,224.2,93.6,224.2z M55.2,223.4c-0.1,0-0.2-0.1-0.3-0.1c-0.1-0.1-0.1-0.2,0-0.3l5.4-9.5
	c0.1-0.1,0.3-0.2,0.4-0.1c0.1,0.1,0.2,0.3,0.1,0.4l-5.2,9c2.5-0.3,12.2-1.2,15.5-0.4c0.2,0,0.3,0.2,0.2,0.4c0,0.2-0.2,0.3-0.4,0.2
	C67.5,221.9,55.3,223.3,55.2,223.4L55.2,223.4z M72.3,328.5c-0.2,0-0.3-0.1-0.3-0.3c0-0.3-2.1-32,0.6-42.3
	c2.6-10.1,3.5-30.6,3.4-36.8c-0.1-5.3,0-16.1,0-16.2c0-0.2,0.1-0.3,0.3-0.3c0.2,0,0.3,0.1,0.3,0.3c0,0.1-0.1,10.9,0,16.2
	c0.1,4.5-0.6,26.1-3.4,36.9c-2.6,10.2-0.6,41.8-0.5,42.1C72.6,328.4,72.4,328.5,72.3,328.5L72.3,328.5z M103.7,261.1
	c-0.1,0-0.3-0.1-0.3-0.3c-0.1-0.6-2.6-15.5-1.2-22.1c0.2-0.8,0.3-1.6,0.5-2.3c1-5.3,1.7-8.8,4.3-9.8c2.9-1.1,4.7,0.2,4.8,0.3
	c0.1,0.1,0.2,0.3,0.1,0.4c-0.1,0.1-0.3,0.2-0.4,0.1c-0.1,0-1.7-1.2-4.2-0.2c-2.3,0.9-3,4.3-4,9.4c-0.1,0.7-0.3,1.5-0.5,2.3
	c-1.3,6.5,1.2,21.7,1.2,21.9C104,260.9,103.9,261.1,103.7,261.1z M43.4,267.8c-0.2,0-0.3-0.2-0.3-0.3c0-0.3,1.7-26.9,0.3-33.7
	c-1.3-6.6-6.2-7.4-6.4-7.4s-0.3-0.2-0.3-0.3c0-0.2,0.2-0.3,0.3-0.3s5.5,0.8,6.9,7.9c1.3,6.9-0.3,32.8-0.3,33.9
	C43.7,267.7,43.5,267.8,43.4,267.8L43.4,267.8z M86.5,266.1c-0.1,0-0.2-0.1-0.3-0.1l-3.9-6.4c0-0.1-0.1-0.2,0-0.2l2.7-11
	c0-0.2,0.2-0.2,0.3-0.2l13,2c0.2,0,0.3,0.2,0.3,0.3L96.7,263c0,0.1-0.1,0.2-0.2,0.2L86.5,266.1C86.6,266,86.5,266.1,86.5,266.1z
	 M82.9,259.3l3.8,6.1l9.5-2.7l1.8-12.1l-12.5-1.9C85.5,248.7,82.9,259.3,82.9,259.3z"/>
<path class="st5" d="M85.8,210.7c-0.1,0-0.1,0-0.2-0.1l-10.1-8.3l-8.2,6.6c-0.1,0.1-0.3,0.1-0.4,0s-0.1-0.3,0-0.4l8.5-6.9l10.4,8.6
	C85.9,210.3,85.9,210.5,85.8,210.7C86,210.7,85.9,210.7,85.8,210.7L85.8,210.7z"/>
<path class="st5" d="M75.6,202.2c-0.2,0-0.3-0.1-0.3-0.3v-8c0-0.1-0.2-2.4-2.6-2.4c-0.7,0-1.2,0.2-1.6,0.6c-0.6,0.7-0.4,1.7-0.4,1.7
	c0,0.2-0.1,0.3-0.2,0.4c-0.2,0-0.3-0.1-0.4-0.2c0-0.1-0.3-1.3,0.5-2.2c0.4-0.5,1.1-0.8,2-0.8c3,0,3.2,2.9,3.2,2.9v8
	C75.9,202.1,75.7,202.2,75.6,202.2z"/>
<path class="st2" d="M48.8,193.9h7v214h-7V193.9z"/>
<path class="st15" d="M141.7,223.9l2.1-7.2c0,0,6.2,1,10.8,18.6s9,73.7,9,73.7l-10.9,2.6L141.8,269v-45.1H141.7z"/>
<path class="st19" d="M148.7,296.7c-0.1,0-0.2-0.1-0.3-0.2c0,0-1.7-3.3-3.5-7.6c-1.6-4-3.7-9.9-4.1-14.8c-0.1-1.3-0.2-2.5-0.3-3.8
	c-0.6-8.1-1.3-16.4-1.3-21.9c0-4-0.4-7.4-0.7-10.7c-0.2-2-0.4-3.8-0.5-5.8c-0.4-5.4,2.7-11.8,2.9-12c0.1-0.1,0.3-0.2,0.4-0.1
	c0.1,0.1,0.2,0.3,0.1,0.4c0,0.1-3.1,6.5-2.8,11.7c0.1,2,0.3,3.8,0.5,5.8c0.3,3.3,0.7,6.8,0.7,10.8c0,5.4,0.7,13.8,1.3,21.9
	c0.1,1.3,0.2,2.6,0.3,3.8c0.7,9.3,7.4,22.1,7.5,22.2s0,0.3-0.1,0.4C148.8,296.7,148.7,296.7,148.7,296.7L148.7,296.7z"/>
<path class="st17" d="M200.7,214.4c0,0,10.4,7.4,12.9,15.4c3.8,11.9,12.6,66.7,12.6,66.7s-2.1,2-5.9,2.5c-5.1,0.6-8.1,0-8.1,0
	s-8.3-35.2-10.3-48.9C199.9,236.2,200.7,214.4,200.7,214.4L200.7,214.4z"/>
<path class="st5" d="M204.9,266.6c-0.1,0-0.3-0.1-0.3-0.2c0-0.2-3.2-16.5-4.4-27.6c-1.2-11.2,0-18.8,0-18.9c0-0.2,0.2-0.3,0.3-0.2
	c0.2,0,0.3,0.2,0.2,0.3c0,0.1-1.3,7.7,0,18.7c1.2,11.1,4.4,27.4,4.4,27.6C205.2,266.4,205.1,266.6,204.9,266.6
	C205,266.6,204.9,266.6,204.9,266.6L204.9,266.6z"/>
<path class="st2" d="M30.5,404.7h195.3v6.3H30.5V404.7z"/>
<circle class="st5" cx="39.4" cy="424.8" r="9.1"/>
<path class="st2" d="M39.4,424.8c-1.6,0-2.9-1.3-2.9-2.9V411h5.9v10.8C42.4,423.4,41,424.8,39.4,424.8z"/>
<circle class="st5" cx="61.4" cy="424.8" r="9.1"/>
<path class="st2" d="M61.4,424.8c-1.6,0-2.9-1.3-2.9-2.9V411h5.9v10.8C64.4,423.4,63,424.8,61.4,424.8z"/>
<circle class="st5" cx="191.8" cy="424.7" r="9.1"/>
<path class="st21" d="M192.3,424.8h-1.1c-1.3,0-2.4-1.1-2.4-2.4V411h5.9v11.3C194.7,423.7,193.6,424.8,192.3,424.8z"/>
<circle class="st5" cx="213.8" cy="424.7" r="9.1"/>
<path class="st21" d="M214.3,424.8h-1.1c-1.3,0-2.4-1.1-2.4-2.4V411h5.9v11.3C216.7,423.7,215.6,424.8,214.3,424.8z"/>
<ellipse class="st22" cx="358.6" cy="457.2" rx="226.1" ry="28.8"/>
<path class="st23" d="M93.4,406.1l9.9-17.1l36.4-13.4l-16.8,23.9L93.4,406.1z"/>
<path class="st24" d="M140.7,449.6l-37.4,13.8V389l37.4-13.8V449.6z"/>
<path class="st23" d="M140.7,375.2h63.7v74.4h-63.7V375.2z"/>
<path class="st24" d="M204.4,449.6L167,463.4V389l37.4-13.8V449.6z"/>
<path class="st3" d="M167,389l17.5,20.2l34.2-16.1l-14.3-17.9L167,389z M103.3,389H167v74.4h-63.7V389z"/>
<path class="st24" d="M103.3,389l-4.9,21h57.8l10.8-21H103.3z"/>
<path class="st11" d="M119.8,410c0,0-0.6,2.8,0,4.9l0.6,2.1h6.7c0,0-1.3-5.4-0.5-6.9h-6.8L119.8,410z M197.8,402.9
	c0,0,2.3,3.1,2.4,5.5l0.1,2.4l7.2-4c0,0,0.4-3-1.8-7.7L197.8,402.9L197.8,402.9z"/>
<path class="st4" d="M655.8,427.4H555l-9.3,8.8l87.1-1.1L655.8,427.4z"/>
<path class="st5" d="M625.4,413.6l-5.4-2.8l-2.4,4.7c-4.9,2-9.6,6.3-12.6,12.3c-3,5.9-3.8,12.2-2.5,17.4l-2.4,4.7l5.4,2.8
	c7.9,4,18.8-1.4,24.3-12.2C635.3,429.7,633.3,417.6,625.4,413.6L625.4,413.6z"/>
<ellipse transform="matrix(0.4544 -0.8908 0.8908 0.4544 -50.4271 778.0465)" class="st11" cx="609.9" cy="430.2" rx="20.9" ry="15.1"/>
<path class="st5" d="M600,449.7c-7.9-4-9.9-16.1-4.4-26.8c5.5-10.8,16.4-16.2,24.3-12.2c7.9,4,9.9,16.1,4.4,26.8
	C618.9,448.3,608,453.8,600,449.7z M619,412.6c-6.9-3.5-16.6,1.5-21.6,11.3s-3.4,20.6,3.5,24.1s16.6-1.5,21.6-11.3
	S625.9,416.1,619,412.6z"/>
<path class="st5" d="M609.5,431.2c0,0-0.8-0.8,0.7-2.7c1.5-1.8,9.2-10.4,9.2-10.4l-7.8,11.6C611.7,429.7,610.6,431.4,609.5,431.2
	L609.5,431.2z"/>
<path class="st5" d="M610.4,429.3l-4.7-6.2c0,0,1.4,7.2,3.1,8.1c1,0.5,1.5-0.1,1.8-0.6C610.7,430.2,610.6,429.7,610.4,429.3
	L610.4,429.3z"/>
<path class="st15" d="M537.3,443.8c0,0-3.3-18.1-3.3-21.3l0.1-3.1c0,0-3.1-4.5-1.8-6.3s7.1,3.3,7.1,3.3s29.8-1.2,35.1-0.3
	c5.3,0.9,6,1,6,1s0.8-4.4,4.7-3.1s2.6,6.4,2.6,6.4s5.2,22.2,1.4,29.4c-3.8,7.1-46.9,3.9-49.2,1.4
	C537.8,448.9,537.3,443.8,537.3,443.8L537.3,443.8z"/>
<path class="st11" d="M541.5,427.2c1,0,1.6-0.8,1.5-1.8s-1.1-1.7-2-1.7c-1,0-1.6,0.8-1.5,1.8S540.5,427.2,541.5,427.2z M547,438
	c0.1,1,1.1,1.7,2,1.7c1,0,1.6-0.8,1.5-1.8s-1.1-1.7-2-1.7S546.8,437,547,438z M553.2,421.8c0.1,1,1.1,1.7,2,1.7c1,0,1.6-0.8,1.5-1.8
	s-1.1-1.7-2-1.7C553.7,420,553.1,420.8,553.2,421.8z M558.4,428.8c0.1,1,1.1,1.7,2,1.7s1.6-0.8,1.5-1.8s-1.1-1.7-2-1.7
	S558.3,427.8,558.4,428.8z M575.3,424c1,0,1.6-0.8,1.5-1.8s-1.1-1.7-2-1.7c-1,0-1.6,0.8-1.5,1.8C573.4,423.2,574.3,424,575.3,424z
	 M585.7,437.5c-1,0-1.6,0.8-1.5,1.8s1.1,1.7,2,1.7c1,0,1.6-0.8,1.5-1.8C587.6,438.3,586.7,437.5,585.7,437.5z M588.9,425.1
	c-0.3-0.2-0.6-0.2-0.9-0.2c-1,0-1.6,0.8-1.5,1.8s1.1,1.7,2,1.7c0.4,0,0.7-0.1,0.9-0.3C589.2,427,589,426,588.9,425.1z"/>
<path class="st4" d="M532.3,436.3l100.8-1.3l0.7,53.7L532.9,490L532.3,436.3z"/>
<path class="st3" d="M532.2,436.3l100.8-1.3l0.1,7.2l-100.8,1.3L532.2,436.3z"/>
<path class="st3" d="M532.3,445.6l100.8-1.3l0.1,7.2l-100.8,1.3L532.3,445.6z"/>
<path class="st3" d="M532.4,454.9l100.8-1.3l0.1,7.2l-100.8,1.3L532.4,454.9z"/>
<path class="st3" d="M532.6,464.1l100.8-1.3l0.1,7.2l-100.8,1.3L532.6,464.1z"/>
<path class="st3" d="M532.7,473.4l100.8-1.3l0.1,7.2l-100.8,1.3L532.7,473.4z"/>
<path class="st3" d="M532.8,482.7l100.8-1.3l0.1,7.2l-100.8,1.3L532.8,482.7z"/>
<path class="st5" d="M656.5,481l-23,7.7l-0.7-53.6l23-7.7L656.5,481z"/>
<path class="st4" d="M655.9,434.6l-23,7.7l-0.1-7.2l23-7.7L655.9,434.6z M656,443.9l-23,7.7l-0.1-7.3l23-7.7L656,443.9z
	 M656.1,453.2l-22.9,7.7l-0.1-7.3l22.9-7.7L656.1,453.2z M656.2,462.5l-22.9,7.7l-0.1-7.3l22.9-7.7L656.2,462.5z M656.3,471.8
	l-22.9,7.6l-0.1-7.2l22.9-7.7L656.3,471.8z M656.5,481l-23,7.7l-0.1-7.2l23-7.7L656.5,481z"/>
<path class="st5" d="M532.7,467.8v5.6l0.1,7.2v1.8c8.5-4.8,38.3-21.4,43.4-24.5c5.9-3.7,7.5-14.1,7.5-14.1s-29.4,13.9-33.6,16.4
	C547.7,461.6,539.4,465.1,532.7,467.8z"/>
<path class="st25" d="M553.7,433.1c-0.2-0.2-8.5-0.8-13.5-1.5c-5.1-0.6-11.8,1.1-12.9,5.3c-1.1,4.1,1.7,13.2,1.8,17.8
	c0.1,4.6-1.1,18.6-0.1,20.7c1,2.2,14.5-6.1,24.8-8.7c10.3-2.7,20.1-10.2,26.4-16.7c6.3-6.5,3.6-14,1.1-15.7
	C578.7,432.6,553.7,433.1,553.7,433.1L553.7,433.1z"/>
<path class="st14" d="M581.2,446.2l-2.7-6.8c-0.4-1.1-1.6-1.8-2.8-1.6l-9.3,1.7L564,433c-5.6,0-10.3,0.1-10.3,0.1
	c-0.2-0.2-5.2-0.6-9.7-1.1l1.8,4.2c0.5,1.1,1.6,1.7,2.7,1.5l11.2-1.8l2.8,7.4c0.4,1.2,1.6,1.8,2.8,1.6l9.3-1.7l2.5,6.3
	c0.3,0.9,1.1,1.4,2,1.6l1.1-1.1c1.2-1.2,2.1-2.5,2.7-3.8L581.2,446.2L581.2,446.2z M570,456.4l-2.7-6.8c-0.4-1.1-1.6-1.8-2.8-1.6
	l-9.3,1.7l-2.8-7.3c-0.4-1.1-1.6-1.8-2.8-1.6l-11.3,1.8l-3.1-7.2c-0.5-1.1-1.7-1.7-2.9-1.5l-3.9,0.9c-0.5,0.6-0.9,1.3-1.1,2
	c-0.2,1-0.3,2.2-0.2,3.5l4.3-1l3.1,7.1c0.5,1.1,1.6,1.7,2.7,1.5l11.2-1.8l2.8,7.4c0.4,1.2,1.6,1.8,2.8,1.6l9.3-1.7l2.5,6.3
	c0.2,0.5,0.5,0.9,0.9,1.1c2.2-1.4,4.2-2.8,6.2-4.3L570,456.4z M556,459.9c-0.4-1.1-1.6-1.8-2.8-1.6l-9.3,1.7l-2.8-7.3
	c-0.4-1.1-1.6-1.8-2.8-1.6l-9.4,1.5c0.1,0.8,0.2,1.5,0.2,2.1v3l8-1.3l2.8,7.4c0.4,1.2,1.6,1.8,2.8,1.6l9.3-1.7l1.2,3.1
	c0.2,0,0.3-0.1,0.5-0.1c1.5-0.4,2.9-0.9,4.4-1.4L556,459.9L556,459.9z M530.5,475.7c2.7-0.5,8.2-3.3,14.1-5.8
	c-0.5-1-1.6-1.5-2.7-1.3l-9.3,1.7l-2.8-7.3c-0.2-0.5-0.5-0.9-1-1.2c-0.2,4.7-0.5,10.1-0.2,12.6C529.1,475,529.7,475.6,530.5,475.7
	L530.5,475.7z"/>
<path class="st24" d="M317,450.3l-45.9,16.9V376l45.9-16.9V450.3z"/>
<path class="st3" d="M184.9,376h86.2v91.2h-86.2L184.9,376z"/>
<path class="st26" d="M317,359.1h-86.3L184.9,376h86.2L317,359.1z"/>
<path class="st11" d="M280.9,359.1h-13.4L221.7,376H235L280.9,359.1z"/>
<path class="st26" d="M221.7,376h12.7v20.2h-12.7V376z"/>
<path class="st25" d="M473.5,442.3c0,0,4.1-3.9,7.7-2.1s4.1,4.7,5.5,6.3c1.9,2.2,11.4,6.7,8.8,7.8c-2.6,1.2-19.4-0.1-20.6-1.1
	C473.6,452.2,472.1,443.4,473.5,442.3L473.5,442.3z"/>
<path class="st27" d="M430.8,405c-8.7,1-19,9.2-20.5,28.5s16.2,24.6,30.2,24.8s28.9-1,34.6-4.1c2.7-1.5,4.7-12.2,1.5-16.6
	c-3.6-4.9-9.1-4.7-9.1-4.7s0.8-13.3-6.9-18.2C450.7,408.4,438.6,404.2,430.8,405L430.8,405z"/>
<path class="st27" d="M399.5,397.7c-1.7,0.7-9.1,13.2-9.1,13.2s-19.7,4.9-20.7,24.7c-0.3,5.8,0.8,9.2,3.6,12.7
	c6.5,8.3,22.3,6.4,32,6.5c13.9,0.1,33,0.9,38.7-2.1c5.7-3.1-2.5-11.8-2.5-11.8s-1.9-32.8-12.5-37.9
	C418.6,397.8,406.8,394.8,399.5,397.7L399.5,397.7z"/>
<path class="st5" d="M431.5,457.7c-7-1.3-12.7-3.5-17-6.7c-5.6-4.3-8.8-10.2-9.4-17.7c-0.4-5.7,2.2-10.2,7.5-13
	c4-2.1,8.1-2.6,8.2-2.6c0.2,0,0.3,0.1,0.3,0.3c0,0.2-0.1,0.3-0.3,0.3c0,0-4.1,0.4-8,2.5c-5.2,2.7-7.6,6.9-7.2,12.4
	c0.6,7.3,3.6,13.1,9.1,17.3c4.2,3.2,9.8,5.4,16.6,6.6c0.2,0,0.3,0.2,0.2,0.3C431.8,457.6,431.6,457.7,431.5,457.7L431.5,457.7z
	 M467.4,433.2c-0.1,0-6.7-0.4-14.6-3.1c-4.8-1.6-8.3-4.1-8.5-5.4c0-0.3,0-0.5,0.2-0.6c0.4-0.3,1.3-0.2,2.7,0.3
	c5.1,1.9,11.7,5.3,11.8,5.3c0.1,0.1,0.2,0.3,0.1,0.4s-0.3,0.2-0.4,0.1c-0.1,0-6.6-3.4-11.7-5.3c-1.6-0.6-2.1-0.5-2.1-0.4v0.2
	c0.4,1,3.3,3.2,8.1,4.8c7.8,2.7,14.4,3,14.4,3c0.2,0,0.3,0.1,0.3,0.3C467.7,433.1,467.6,433.2,467.4,433.2L467.4,433.2z M456,433.2
	c-0.2,0-12.8-3.7-17-4.4c-3.2-0.5-13-1-13.1-1c-0.2,0-0.3-0.1-0.3-0.3c0-0.2,0.2-0.3,0.3-0.3c0.4,0,10,0.5,13.2,1
	c4.3,0.7,16.9,4.3,17,4.4c0.2,0,0.3,0.2,0.2,0.4C456.3,433.2,456.2,433.2,456,433.2L456,433.2z"/>
<path class="st5" d="M415.6,419.6h-0.1c-0.1-0.1-14.7-6.4-21.4-6.6c-0.2,0-0.3-0.1-0.3-0.3c0-0.2,0.2-0.3,0.3-0.3
	c6.8,0.2,21,6.4,21.6,6.7c0.2,0.1,0.2,0.2,0.2,0.4C415.8,419.5,415.7,419.6,415.6,419.6L415.6,419.6z M405.7,436.1
	c-0.1,0-7.9-1.2-12.8-1.7c-0.2,0-0.3-0.2-0.3-0.3c0-0.2,0.2-0.3,0.3-0.3c4.9,0.5,12.7,1.7,12.8,1.7c0.2,0,0.3,0.2,0.3,0.3
	C406,436,405.9,436.1,405.7,436.1z"/>
<path class="st28" d="M415.4,280.4c0,0-0.8,5-0.7,7.7c0.1,2.7,0.2,5.3-1,6.6c-1.2,1.3-3.3,3.3-2.4,6.6c0.9,3.4,6.4,2.9,9.6,2.5
	s5.7-0.5,6.3-1.8c0.6-1.3-1.8-22.4-4.7-22.4C419.5,279.5,416.4,278.8,415.4,280.4L415.4,280.4z"/>
<path class="st15" d="M430.7,305.3c0,0,7,0.7,14.8,9.6c11.1,12.6,12.9,43.4,14.7,52.6c1.5,8,13.7,59.2,10.1,63.6
	c-2.2,2.7-37.8-4.8-42.5-8.9c-2.4-2-6.6-14.1-6.6-14.1s-18.4-2.1-21.8-2.2c-0.9,0-2.9,11.3-3.7,11.3c-6.4-0.1-11.3,0.1-13.1-0.2
	c-9.5-1.6,8.8-40.4,12.9-58.1C399,343.4,402.1,301.6,430.7,305.3L430.7,305.3z"/>
<path class="st11" d="M420.4,309.2c0.8-1.4,2.1-2.4,3.8-2.8c1.4-0.3,3.4-0.6,5.9-0.3c4.9,0.5,4.4-0.3,4.3,2.1s-13.3,99.9-13.3,99.9
	l-21.8-2.2c0,0,6.6-31.1,8.1-43.8C408.7,350.8,415.5,318.2,420.4,309.2L420.4,309.2z"/>
<path class="st8" d="M431.5,304c-1.1-2.8,1.3-9.6,1.3-9.6s-4.8-0.3-7.6,2.7c-1.4,1.5-1.3,5.6-1.8,7.5c0,0.1-1.3,2.3-2.3,3.6
	c0,2,0.4,6,4.6,5.4c3.9-0.5,6.6-4.7,7.7-7C432.7,305.9,432,305.1,431.5,304L431.5,304z"/>
<path class="st5" d="M423.7,303.8c3.3-1,6.5-4.3,6.5-4.3h-5.9C424,300.9,423.9,302.5,423.7,303.8z"/>
<path class="st8" d="M435.7,292.3c0,0,1.3,0.1,2.4-1c0.9-0.9,0.8-3.6-0.1-4.4s-2-0.7-2.3-0.8c-0.3-0.1,0.4-4.8-1.2-7.5
	c-1.6-2.8-4.5-5.3-9-4.8c-4.6,0.5-6.8,3-8.2,5c-1.4,2-1.4,6-1.5,7.9s-0.4,6-0.3,7.1c0.5,5.4,3,8.4,7.4,8.2S434.3,299.4,435.7,292.3
	L435.7,292.3z"/>
<path class="st5" d="M421.2,291.7c-0.9,0-1.4-0.2-1.7-0.5c-0.4-0.5-0.1-1.3,0.2-2.3c0.4-1.1,1.3-3.9,0.6-4.9
	c-0.2-0.2-0.4-0.3-0.8-0.3c-1.3,0-2.8,0.1-3,0.3c-0.1,0.1-0.3,0.1-0.4,0s-0.1-0.3,0-0.4c0.5-0.5,2.7-0.4,3.4-0.4
	c0.6,0,1,0.2,1.3,0.6c0.8,1.1,0.2,3.3-0.6,5.4c-0.3,0.8-0.5,1.5-0.3,1.7s0.7,0.3,1.6,0.3c0.2,0,0.3,0.1,0.3,0.3
	c0,0.2-0.1,0.3-0.3,0.3C421.5,291.7,421.3,291.7,421.2,291.7L421.2,291.7z M427.9,284h-0.1c0,0-1.6-0.7-3.6-0.7
	c-0.2,0-0.3-0.1-0.3-0.3c0-0.2,0.1-0.3,0.3-0.3c2.1-0.1,3.8,0.7,3.8,0.7c0.2,0.1,0.2,0.2,0.1,0.4C428.1,283.9,428,284,427.9,284
	L427.9,284z"/>
<path class="st11" d="M417.8,293.4c0,0,0.4,2,3,2.2c2.6,0.3,4.2-2.3,4.2-2.3L417.8,293.4L417.8,293.4z"/>
<path class="st5" d="M427.1,287.1c-0.1,0-0.2-0.1-0.3-0.2c0,0-0.3-0.5-1.2-0.5c-1.1,0-1.2,0.3-1.2,0.3c0,0.2-0.2,0.3-0.4,0.2
	c-0.2,0-0.3-0.2-0.2-0.3c0.1-0.2,0.3-0.8,1.8-0.8c1,0,1.4,0.4,1.6,0.7l1.3-0.4c0.2,0,0.3,0,0.4,0.2c0,0.2,0,0.3-0.2,0.4L427.1,287.1
	L427.1,287.1z M419.8,287.3c-0.1,0-0.2-0.1-0.3-0.2c0,0-0.3-0.5-1.2-0.5c-1.1,0-1.2,0.3-1.2,0.3c0,0.1-0.1,0.2-0.2,0.2
	s-0.2,0-0.3-0.1l-0.5-0.7c-0.1-0.1-0.1-0.3,0.1-0.4c0.1-0.1,0.3-0.1,0.4,0.1l0.3,0.4c0.3-0.2,0.7-0.3,1.5-0.3c1.4,0,1.8,0.9,1.8,0.9
	c0.1,0.2,0,0.3-0.2,0.4L419.8,287.3L419.8,287.3z"/>
<path class="st29" d="M425.7,288.7c0,0,3.1-0.8,3.9,0.2c0.9,1-2.5,1.9-4.2,1.6C423.7,290.3,424.9,288.9,425.7,288.7L425.7,288.7z
	 M415.6,289.9c0,0,2.4-0.8,3.1,0.2s-2,1.9-3.3,1.6S415,290,415.6,289.9L415.6,289.9z"/>
<path class="st5" d="M424.7,286.5c0.8-0.1,1.5,0.6,1.3,1.4c-0.1,0.2-0.2,0.4-0.5,0.5c-1,0.2-1.3-1.8-0.9-1.8
	C424.6,286.5,424.7,286.5,424.7,286.5z M417.6,286.7c0.8-0.1,1.5,0.6,1.3,1.4c-0.1,0.2-0.2,0.4-0.5,0.5c-1,0.2-1.3-1.8-0.9-1.8
	C417.5,286.7,417.6,286.7,417.6,286.7z"/>
<path class="st28" d="M415.2,281.9c0.4,0.4,10.4-0.1,12.8,0.6s3.1,6.3,3.1,7.4c0.1,1.2-3.4,5.3-3.3,9.1s2,4.8,3.2,4.8
	s2.6-0.7,2.9-0.6s1.7,1.2,5.6,0s6.4-5.1,6.5-6.7c0.2-1.5-3-5.7-3.4-7s-0.5-9.8-1.6-13.4s-3.1-6.8-7.1-6.2c0,0-1.4-1.2-3.8-1.2
	c-2.3,0-7.4-0.4-12.4,5C414.9,276.9,414.9,281.4,415.2,281.9L415.2,281.9z"/>
<path class="st24" d="M566,350l-25.6,9.5v-50.9l25.6-9.5V350z"/>
<path class="st3" d="M492.3,308.6h48.1v50.9h-48.1L492.3,308.6z"/>
<path class="st26" d="M566,299.1h-48.1l-25.6,9.5h48.1L566,299.1z"/>
<path class="st11" d="M545.9,299.1h-7.5l-25.6,9.5h7.5L545.9,299.1z"/>
<path class="st26" d="M512.8,308.6h7.1v11.3h-7.1V308.6z"/>
<path class="st5" d="M389.8,376.7c7.5,1.7,31.2,5.3,41.8-5.4c8.6-8.8,14.1-32.8,14.1-32.8s-26.5,27.9-34.4,28.3
	c-5.1,0.3-13-0.2-18-0.5C392.3,369.5,391.1,373,389.8,376.7z M283.6,359.8c0.6,0.1,9.4,1.7,9.1,2.4c-0.3,0.7-22.1,12.9-24.6,13.6
	s-65.6-3.8-65.1-4.5S283.6,359.8,283.6,359.8z"/>
<path class="st5" d="M229.5,347.3c-1.3-0.1-2.5,0.1-3.5,0.4c-0.9,0.3-1.7,0.8-2.3,1.3l-22,13.2l65.9,11.5l19.6-13.4
	c0.3-0.2,0.1-0.6-0.2-0.6h-0.2l0.5-6.2l1-0.7c0.4-0.3,0.2-0.9-0.4-0.9L229.5,347.3L229.5,347.3z"/>
<path class="st21" d="M266.7,364.7l-60.9-3.1c-4.1-0.2-7.5,2-7.6,4.8c-0.1,2.9,3.2,5.3,7.2,5.4l60.7,1.9c0.9,0,1.6-0.5,1.6-1.2
	l0.5-6.6C268.2,365.3,267.5,364.7,266.7,364.7L266.7,364.7z"/>
<path class="st5" d="M200.4,366.5c0.1-2,2.4-3.5,5.3-3.4l60.7,2.9l1.7,0.1l0.1-1.4l-62.5-3.2c-4.1-0.2-7.5,2-7.6,4.8
	c-0.1,2.9,3.2,5.3,7.2,5.4l62.2,2l0.1-1.3l-62.2-2.2C202.6,370.2,200.3,368.5,200.4,366.5L200.4,366.5z"/>
<path class="st21" d="M268.1,366.1l19.1-12.5l-0.5,6.2l-19,12.7L268.1,366.1z"/>
<path class="st14" d="M207.7,362.7l51.9,1.3c2.1,0,4-0.4,5.4-1.3l17.3-9.6c1-0.6,1.6-1.3,1.6-2.2v-0.1c0.1-2.3-3-4.2-6.8-4.3
	l-40.6-1.3l-29,17.2C207.3,362.5,207.4,362.7,207.7,362.7z"/>
<path class="st21" d="M210.7,356.9l-0.1,4.6l48.8,1.6c1.4,0,2.7-0.4,3.2-1.2c0.2-0.3,0.4-0.7,0.5-1c0.5-1.4-1.3-2.8-3.7-2.8
	L210.7,356.9z"/>
<path class="st14" d="M208.6,356.9l50.8,1.1l-22.9-12.8l-28.1,11.4C208.1,356.6,208.3,356.9,208.6,356.9L208.6,356.9z"/>
<path class="st30" d="M266.8,361.6l3.1-1.7c0.2-1.1,0.2-3.3-1.9-4.5l-3.1,1C264.9,356.4,267.9,358.2,266.8,361.6z M273.9,357.7
	c0.1-1.2-0.2-2.9-2-3.9l-3.1,1c0,0,2.6,1.6,2.1,4.6L273.9,357.7z"/>
<path class="st5" d="M259.2,354.6l-31.9-1.3c-0.1,0-0.3-0.1-0.3-0.2s0-0.3,0.2-0.3l12.2-5.9h0.1l30.4,1c0.1,0,0.2,0.1,0.3,0.2
	c0,0.1,0,0.3-0.1,0.3l-10.7,6.2L259.2,354.6L259.2,354.6z M228.5,352.8l30.6,1.2l9.7-5.6l-29.2-0.9L228.5,352.8z"/>
<path class="st31" d="M209.8,352.5l59.4,1.9c0.7,0,1.4-0.1,2-0.4l18.4-11.2l-3.4-0.2l0.2-5.5l2.2-1.3l-59.4-2.4l-21.2,11
	L209.8,352.5L209.8,352.5z"/>
<path class="st21" d="M286.4,337l-18.9,10.5l1.9,5.4l16.9-10.4L286.4,337z M220.7,342.7l12-7.4l43.2,1.4l-11.6,7.2L220.7,342.7z"/>
<path class="st5" d="M241.6,323.6c-0.7,0-1.4,0.1-2,0.4c-0.5,0.3-0.9,0.6-1.3,1l-21.7,18l39.2,8.9l23.3-19.3
	c0.2-0.2,0.1-0.5-0.2-0.5h-0.2l0.2-5.2l0.7-0.6c0.3-0.3,0.1-0.7-0.3-0.8L241.6,323.6L241.6,323.6z"/>
<path class="st21" d="M255,344.6l-36.2-2c-2.1-0.1-3.9,1.4-4,3.5c-0.1,2,1.6,3.8,3.7,3.9l36.2,2c0.6,0,1.1-0.4,1.1-0.9l0.2-5.4
	C256,345.1,255.6,344.7,255,344.6z"/>
<path class="st5" d="M215.9,346.2c0-1.4,1.3-2.5,2.8-2.4l36.1,2l1.2,0.1v-1.1l-37.3-2.1c-2.1-0.1-3.9,1.4-4,3.5
	c-0.1,2,1.6,3.8,3.7,3.9l37.3,2.1v-1.1l-37.3-2.1C217.1,348.8,215.9,347.6,215.9,346.2L215.9,346.2z"/>
<path class="st21" d="M256,345.8l22.8-18.7l-0.1,5.2L255.8,351L256,345.8z"/>
<path class="st23" d="M280.9,413.1l9.9-17.1l36.3-13.4l-16.7,23.9L280.9,413.1z"/>
<path class="st24" d="M328.2,456.6l-37.4,13.8V396l37.4-13.8V456.6z"/>
<path class="st23" d="M328.2,382.2h63.7v74.4h-63.7V382.2z"/>
<path class="st24" d="M391.9,456.6l-37.4,13.8V396l37.4-13.8V456.6z"/>
<path class="st3" d="M354.5,396l17.5,20.2l34.2-16.1l-14.3-17.9L354.5,396z M290.8,396h63.7v74.4h-63.7V396z"/>
<path class="st24" d="M290.8,396l-4.9,21h57.8l10.8-21H290.8z"/>
<path class="st11" d="M544,238.9l-70.7-6.6v-91.8l70.7,6.6V238.9z"/>
<path class="st25" d="M533.8,227.7l-50.4-4.7v-71.4l50.4,4.7V227.7L533.8,227.7z"/>
<path class="st14" d="M511,174.7l-25-18.3l1.9,63.4L511,204l-21.4-15.9L511,174.7z"/>
<ellipse transform="matrix(0.1602 -0.9871 0.9871 0.1602 247.9623 669.4447)" class="st11" cx="517.4" cy="189" rx="6.4" ry="6.4"/>
<path class="st15" d="M437.1,316.8l-24.2,33.5c0,0-37.5-8.4-43.6-7.7c-6.1,0.7-7.8,16-1,20.4s42.4,15.7,54.6,9.1
	s24.6-34.8,25.3-42.1C448.9,322.8,438.5,314.7,437.1,316.8L437.1,316.8z"/>
<path class="st8" d="M367.6,351.6c0,0-8.9-1.8-12-2.9s-5.2-3.1-4-3.7c1.1-0.6,17.1-2.1,18.8,0C372,347.1,370.8,351.4,367.6,351.6z"
	/>
<path class="st11" d="M321.8,330.5c0,0-5.5-0.1-8.3,3.6s-2.4,12,0.7,12.8s21.3-0.4,31.6-0.2s29.4,1.1,34.3,0.6
	c4.9-0.6,3.4-10.9,3.4-13.2s-5.9-3.5-11.1-3.6S324.7,330.2,321.8,330.5L321.8,330.5z"/>
<path class="st5" d="M383.5,334.1c0-2.3-5.9-3.5-11.1-3.6c-2.4,0-13-0.1-23.9-0.2c-11.2,0.6-20.8,1.2-20.8,1.2s24.3,2.1,31,2.4
	c6.8,0.4,12.4,0.4,17.3,0.8c2.5,0.2,5.3,0.1,7.5,0V334.1L383.5,334.1z"/>
<path class="st14" d="M323.6,315c0,0-5.5-0.1-8.3,3.6s-2.4,12,0.7,12.8s21.3-0.4,31.6-0.2s29.4,1.1,34.3,0.6
	c4.9-0.6,3.4-10.9,3.4-13.2s-5.9-3.5-11.1-3.6S326.5,314.7,323.6,315L323.6,315z"/>
<path class="st5" d="M319.8,316.9c0,0,0.4-12.4,4.5-14.9c4.2-2.5,17.4,1.1,23.3,1c5.9-0.2,19.9-2.5,28.5,0.2s3.4,12.4,2.7,13.8
	c-0.8,1.3-19-0.2-29.5,0C338.9,317.1,319.5,320.6,319.8,316.9z"/>
<path class="st11" d="M332.4,313.4c-1,0-1.8-0.1-2.5-0.2c-0.2,0-0.3-0.2-0.2-0.4c0-0.2,0.2-0.3,0.4-0.2c2.2,0.5,6.7,0,11-0.6
	c2.7-0.3,5.3-0.7,7.3-0.7c6.7-0.1,20.4-0.3,24.3,0c2.9,0.2,3.6-0.3,3.6-0.4c0,0-0.2-0.4-1.3-0.8c-1.7-0.6-6.8-0.7-11.7-0.9
	c-2.6-0.1-5.3-0.2-7.4-0.3c-3-0.2-6.2,0.1-9.5,0.5c-3.4,0.4-7.3,0.8-11.6,0.7c-8.4-0.2-12.8-1-13.5-1.3c-0.2-0.1-0.2-0.2-0.1-0.4
	s0.2-0.2,0.4-0.1c0.6,0.3,4.8,1,13.3,1.2c4.2,0.1,8.1-0.3,11.5-0.7c3.4-0.4,6.6-0.7,9.6-0.5c2.1,0.2,4.8,0.2,7.4,0.3
	c5,0.2,10.1,0.3,11.9,0.9c1.2,0.4,1.8,0.9,1.7,1.4c-0.2,1.1-3.1,1-4.3,0.9c-3.8-0.3-17.5-0.1-24.2,0c-1.9,0-4.5,0.4-7.2,0.7
	C338,313,334.8,313.4,332.4,313.4L332.4,313.4z"/>
<path class="st5" d="M417.8,366.5h-0.2c-1.8-0.5-4.3-10.7-4.7-12.7c0-0.2,0.1-0.3,0.2-0.4c0.2,0,0.3,0.1,0.4,0.2
	c1.1,4.9,3.2,12,4.3,12.3h0.1c0.9-0.9-2.2-8-3.7-11.4c-1.6-3.6-1.8-4-1.5-4.3c0.1-0.1,0.2-0.1,0.3-0.1c0.8,0.2,5.9,8.5,8.9,13.4
	c0.1,0.1,0,0.3-0.1,0.4s-0.3,0-0.4-0.1c-2.4-4-6.2-10.1-7.8-12.3c0.3,0.7,0.8,1.8,1.2,2.8c3.2,7.2,4.6,11.1,3.6,12.1
	C418.1,366.4,418,366.5,417.8,366.5L417.8,366.5z M412.1,350.4C412,350.4,412,350.4,412.1,350.4l-28.4-5.8c-0.2,0-0.3-0.2-0.2-0.4
	c0-0.2,0.2-0.3,0.4-0.2l28.4,5.8c0.2,0,0.3,0.2,0.2,0.4C412.3,350.3,412.2,350.4,412.1,350.4z"/>
<path class="st5" d="M397.7,347.2c-0.2,0-0.3-0.2-0.3-0.4c0-0.1,1.5-7.8,2.5-11.2c0.1-0.5,0.3-1.1,0.5-1.8
	c1.2-4.8,3.4-13.6,7.6-17.9c0.1-0.1,0.3-0.1,0.4,0s0.1,0.3,0,0.4c-4,4.1-6.3,13.2-7.4,17.6c-0.2,0.7-0.3,1.3-0.5,1.8
	c-0.9,3.4-2.5,11.1-2.5,11.2C398,347.1,397.9,347.2,397.7,347.2L397.7,347.2z M417.8,343.8c-0.1,0-0.1,0-0.2-0.1s-0.2-0.3-0.1-0.4
	l19.3-26.7c0.1-0.1,0.3-0.2,0.4-0.1s0.2,0.3,0.1,0.4L418,343.7C418,343.8,417.9,343.8,417.8,343.8L417.8,343.8z"/>
</svg>
