<?xml version="1.0" encoding="utf-8"?>
<!-- Generator: Adobe Illustrator 28.3.0, SVG Export Plug-In . SVG Version: 6.00 Build 0)  -->
<svg version="1.1" id="_1" xmlns="http://www.w3.org/2000/svg" xmlns:xlink="http://www.w3.org/1999/xlink" x="0px" y="0px"
	 viewBox="0 0 2878.9 1870.9" style="enable-background:new 0 0 2878.9 1870.9;" xml:space="preserve">
<style type="text/css">
	.st0{fill:#B1B5FC;}
	.st1{fill:#EAE6E4;}
	.st2{fill:#31D395;}
	.st3{fill:#FFC97D;}
	.st4{fill:#EF9E67;}
	.st5{clip-path:url(#SVGID_00000084524455276085861170000013238065186981786791_);}
	.st6{fill:#FFFFFF;}
	.st7{fill:#2E2E47;}
	.st8{fill:#D1834E;}
	.st9{fill:#82664B;}
	.st10{fill:#82A7AF;}
	.st11{fill:#544335;}
	.st12{fill:#EFEEED;}
	.st13{opacity:0.12;fill:#2E2E47;enable-background:new    ;}
	.st14{fill:#CC8B70;}
	.st15{fill:#3B82F6;}
	.st16{fill:#235EB5;}
	.st17{fill:#48E5A5;}
	.st18{fill:#6FE2B3;}
	.st19{fill:#19AF72;}
	.st20{fill:#4ED198;}
	.st21{fill:#27C987;}
	.st22{fill:#4AD398;}
	.st23{fill:#108958;}
	.st24{fill:#42A57A;}
	.st25{fill:#9C6F43;}
	.st26{fill:#C96B59;}
	.st27{fill:#F21C69;}
	.st28{fill:#FFEA8F;}
	.st29{fill:#F2B368;}
</style>
<path class="st0" d="M1663.3,298.8h533.5v702.6h-533.5V298.8z"/>
<path class="st1" d="M2196.8,298.8v702.6h-533.5V298.8H2196.8z M2231.6,264h-603.1v772.2h603.1V264z"/>
<path class="st1" d="M1910.8,298.8h38.5v702.6h-38.5V298.8z"/>
<path class="st1" d="M1663.3,630.8h533.5v38.5h-533.5V630.8z"/>
<path class="st2" d="M2337.5,856.4c0,0,106.5-27.5,148.8,61.7c42.2,89.2-8,383.1-8,383.1s50.3-10.3,78.4,52
	c28.2,62.3-12.1,258.9-12.1,258.9s66.4-19.3,72.4,51s-12.1,75.5-12.1,75.5h-267.4L2337.5,856.4L2337.5,856.4z"/>
<path class="st3" d="M693,182.1h803.9V1740H678.3V182.1H693z"/>
<path class="st4" d="M1092.3,1144.5L825.4,166.1H678.3V1740h414V1144.5z"/>
<g>
	<defs>
		<rect id="SVGID_1_" x="678.3" y="182.1" width="415.6" height="1520.1"/>
	</defs>
	<clipPath id="SVGID_00000096745333908330675700000009017782110256670888_">
		<use xlink:href="#SVGID_1_"  style="overflow:visible;"/>
	</clipPath>
	<g style="clip-path:url(#SVGID_00000096745333908330675700000009017782110256670888_);">
		<path class="st6" d="M824.9,1000.7c-1.9,4.7-8.1,6.6-14,4.2s-9-8.1-7.1-12.8s8.1-6.6,14-4.2C823.6,990.3,826.8,996,824.9,1000.7z"
			/>
		<path class="st7" d="M802.6,1035.1c4-2.6,14-8.9,17-9.9c0.7-0.2,1.1-1,0.9-1.7c-0.2-0.7-1-1.1-1.7-0.9c-2.8,0.9-10,5.3-14.4,8.1
			c1.2-3,2.2-5.8,3.2-8.5v-0.1c4.6-12.8,6.7-21.7,6.8-21.9c0.2-0.7-0.3-1.5-1-1.7s-1.5,0.3-1.7,1c0,0.1-1.6,6.7-5,16.6
			c-1.9-7.6-5.5-11.1-5.7-11.3c-0.6-0.5-1.4-0.5-1.9,0.1c-0.5,0.5-0.5,1.4,0.1,1.9c0,0,4.7,4.6,5.7,14.6
			c-3.2,9.1-7.7,20.1-13.4,31.4c-0.2,0.4-0.2,0.9,0.1,1.3c0.1,0.2,0.3,0.4,0.5,0.5c0.7,0.3,1.5,0.1,1.8-0.6
			C797.2,1047.6,800.1,1041.2,802.6,1035.1L802.6,1035.1z"/>
		<path class="st6" d="M766.5,592c0.6,5-4,9.7-10.3,10.4c-6.2,0.7-11.7-2.8-12.3-7.8s4-9.7,10.3-10.4
			C760.4,583.5,765.9,587,766.5,592z"/>
		<path class="st7" d="M764.7,653.8c-0.2-7.3-0.7-14.4-1.4-20.9c2.3-4.2,8.1-14.5,10.2-16.8c0.5-0.5,0.5-1.4,0-1.9s-1.4-0.5-1.9,0
			c-2,2.1-6.3,9.4-8.8,14c-0.4-3.2-0.8-6.2-1.3-9v-0.1c-2.1-13.5-4.4-22.3-4.5-22.5c-0.2-0.7-0.9-1.2-1.7-1c-0.7,0.2-1.2,0.9-1,1.7
			c0,0.1,1.7,6.7,3.5,17c-5.3-5.8-10.1-7.1-10.4-7.2c-0.7-0.2-1.5,0.2-1.7,1c-0.2,0.7,0.2,1.5,1,1.7c0.1,0,6.2,1.7,12,10.1
			c1.5,9.5,2.8,21.3,3.2,34c0,0.5,0.3,0.9,0.7,1.1c0.2,0.1,0.5,0.2,0.7,0.2C764.1,655.2,764.7,654.6,764.7,653.8L764.7,653.8z"/>
		<path class="st6" d="M711.8,313.5c0.6,5-4,9.7-10.3,10.4c-6.2,0.7-11.7-2.8-12.3-7.8s4-9.7,10.3-10.4
			C705.7,305,711.2,308.5,711.8,313.5z"/>
		<path class="st7" d="M704.1,341.4c1.5,9.5,2.8,21.3,3.2,34c0,0.5,0.3,0.9,0.7,1.1c0.2,0.1,0.5,0.2,0.7,0.2c0.8,0,1.4-0.6,1.3-1.4
			c-0.2-7.3-0.7-14.4-1.4-20.9c2.3-4.2,8.1-14.5,10.2-16.8c0.5-0.5,0.5-1.4,0-1.9s-1.4-0.5-1.9,0c-2,2.1-6.3,9.4-8.8,14
			c-0.4-3.2-0.8-6.2-1.3-9v-0.1c-2.1-13.5-4.4-22.3-4.5-22.5c-0.2-0.7-0.9-1.2-1.7-1c-0.7,0.2-1.2,0.9-1,1.7c0,0.1,1.7,6.7,3.5,17
			c-5.3-5.8-10.1-7.1-10.4-7.2c-0.7-0.2-1.5,0.2-1.7,1c-0.2,0.7,0.2,1.5,1,1.7C692.2,331.3,698.4,333.1,704.1,341.4L704.1,341.4z"/>
		<path class="st6" d="M764.2,1301.5c-3.4,3.7-9.9,3.3-14.6-0.9s-5.6-10.7-2.1-14.4c3.4-3.7,9.9-3.3,14.6,0.9
			C766.7,1291.3,767.6,1297.8,764.2,1301.5z"/>
		<path class="st7" d="M731.2,1325.9c4.7-1,16.3-3.5,19.4-3.3c0.8,0,1.4-0.5,1.4-1.3s-0.5-1.4-1.3-1.4c-2.9-0.2-11.2,1.5-16.3,2.5
			c2.1-2.4,4.1-4.7,6-6.9l0.1-0.1c8.8-10.4,13.9-18,14-18.1c0.4-0.6,0.3-1.5-0.4-1.9c-0.6-0.4-1.5-0.3-1.9,0.4
			c-0.1,0.1-3.9,5.7-10.5,13.8c0.9-7.8-1.3-12.3-1.4-12.5c-0.3-0.7-1.2-0.9-1.8-0.6c-0.7,0.3-1,1.2-0.6,1.8c0,0.1,2.8,5.9,0.2,15.7
			c-6.2,7.4-14.2,16.1-23.6,24.7c-0.4,0.3-0.5,0.8-0.4,1.3c0,0.2,0.2,0.5,0.3,0.7c0.5,0.6,1.4,0.6,1.9,0.1
			C721.8,1335.7,726.7,1330.7,731.2,1325.9L731.2,1325.9z"/>
		<path class="st6" d="M874.3,1514c1.3,4.9-2.5,10.2-8.6,11.8c-6,1.6-12-1-13.3-5.9s2.5-10.2,8.6-11.8
			C867,1506.5,873,1509.1,874.3,1514z"/>
		<path class="st7" d="M877.3,1554.9c1.6-4.5,5.7-15.6,7.6-18.1c0.4-0.6,0.3-1.5-0.3-1.9s-1.5-0.3-1.9,0.3
			c-1.7,2.4-4.8,10.3-6.6,15.2c-0.9-3.1-1.8-6-2.6-8.7v-0.1c-4.1-13-7.8-21.4-7.8-21.5c-0.3-0.7-1.1-1-1.8-0.7s-1,1.1-0.7,1.8
			c0.1,0.1,2.7,6.3,6.1,16.3c-6.1-4.9-11.1-5.5-11.3-5.5c-0.8-0.1-1.4,0.5-1.5,1.2c-0.1,0.8,0.5,1.4,1.2,1.5c0.1,0,6.4,0.7,13.4,8.2
			c2.9,9.2,6.1,20.7,8.3,33.1c0.1,0.5,0.4,0.9,0.9,1c0.2,0.1,0.5,0.1,0.7,0.1c0.7-0.1,1.2-0.8,1.1-1.6
			C880.6,1568.1,879,1561.2,877.3,1554.9L877.3,1554.9z"/>
	</g>
</g>
<path class="st3" d="M1092.3,197.3H1433V1740h-340.7V197.3z"/>
<path class="st7" d="M1092.3,288h220v1452h-220"/>
<path class="st8" d="M711,1663h601.3v77H711V1663z"/>
<path class="st8" d="M1522.7,1740h-49V197.3H711V1740h-49V148.3h860.7V1740z"/>
<path class="st9" d="M1335,197.3l-58.9,12V1740h197.6V197.3H1335z"/>
<circle class="st3" cx="1283.4" cy="973.7" r="31.8"/>
<path class="st3" d="M1323.3,959.4h-22.1c-6,0-10.9,4.9-10.9,10.9v7c0,6,4.9,10.9,10.9,10.9h22.1c6,0,10.9-4.9,10.9-10.9v-7
	C1334.2,964.3,1329.3,959.4,1323.3,959.4z"/>
<path class="st7" d="M1312.3,988.6c-0.2,0-0.4,0-0.6-0.1c-0.9-0.4-1.3-1.3-0.9-2.2c5.8-14,0.1-26.1,0-26.2c-0.4-0.8-0.1-1.9,0.8-2.3
	c0.8-0.4,1.8-0.1,2.3,0.8c0.3,0.5,6.5,13.5,0,29C1313.6,988.2,1312.9,988.6,1312.3,988.6L1312.3,988.6z"/>
<path class="st10" d="M1386.4,509.1c0,8.1-2.6,14.6-5.8,14.6c-3.2,0-5.8-6.5-5.8-14.6s2.6-14.6,5.8-14.6
	C1383.8,494.5,1386.4,501.1,1386.4,509.1z"/>
<path class="st11" d="M1276.1,316.4l197.6-119.1H1335l-58.9,12V316.4z"/>
<path class="st12" d="M721.1,370.9c0,0,8.6,2.2,11.1,13.6s-11.1,18.1-11.1,18.1s1.9,7.4-3.5,12s-8.4,6-8.4,6s-11.1,22.5-30,20.8
	c-18.9-1.8-63.6-54.1-22.8-69.3C697.2,356.8,721.1,370.9,721.1,370.9L721.1,370.9z"/>
<ellipse class="st13" cx="707.8" cy="1777.8" rx="447.1" ry="29.5"/>
<path class="st14" d="M818.2,1760.1c-0.8-2.2,3.5-7.6,8.8-13.1c15.8-5.2,31-10.2,35.7-18.6c9.8-17.4-14.6-85.8,13.7-86.2
	c20-3.2,39.4,11.4,40.8,50.4c0.5,13.6-0.2,48.9,0.5,52c0,0-24.9,8-55.3,14.7C832.1,1766,820.1,1765.4,818.2,1760.1L818.2,1760.1z"/>
<path class="st7" d="M827,1747c-5.2,5.5-9.6,10.9-8.8,13.1c1.9,5.2,13.9,5.9,44.2-0.8c30.4-6.7,55.3-14.7,55.3-14.7
	c0.2,1.1,0.5,1.6,0.5,1.6s15.8,23.7,1.4,31.5c-44.6,24.2-169.8,19-169.3,4.1C750.6,1773,804.8,1754.3,827,1747L827,1747z"/>
<path class="st14" d="M453.2,1753.6c-0.8-2.2,3.5-7.6,8.8-13.1c15.8-5.2,31-10.2,35.7-18.6c9.8-17.4-14.6-85.8,13.7-86.2
	c20-3.2,39.4,11.4,40.8,50.4c0.5,13.6-0.2,48.9,0.5,52c0,0-24.9,8-55.3,14.7C467,1759.5,455,1758.9,453.2,1753.6L453.2,1753.6z"/>
<path class="st7" d="M462,1740.5c-5.2,5.5-9.6,10.9-8.8,13.1c1.9,5.2,13.9,5.9,44.2-0.8c30.4-6.7,55.3-14.7,55.3-14.7
	c0.2,1.1,0.5,1.6,0.5,1.6s15.8,23.7,1.4,31.5c-44.6,24.2-169.8,19-169.3,4.1C385.6,1766.5,439.8,1747.8,462,1740.5L462,1740.5z"/>
<path class="st15" d="M438.5,954.1c5.3-36.7,59.1-171.4,59.1-171.4c6.2-12.7,9.9-22.6,12.4-33.9c68.7,44.6,190.3,22.8,222,16
	c0.7,11.5,1.1,18,1.1,18s96.6,477.8,114,548.4c17.4,70.7,96.9,375.4,96.9,375.4s-29.4,17.3-112.4,16.5
	c-63.9-0.7-103.6-18.5-103.6-18.5s-23.3-92-39.9-178.3c-27.2-141.7-86.7-415.5-86.7-415.5l55,584c0,0-58.7,23.1-97.7,20.5
	c-54.6-3.6-107.4-8.6-107.4-8.6S402.1,1206.4,438.5,954.1L438.5,954.1z"/>
<path class="st16" d="M777.1,998.8c-5-24.3-9.8-47.9-14.3-70L449,955.9c0,0,63.5,37.7,189.3,45.3
	C705.3,1005.2,750,1002.4,777.1,998.8z"/>
<path class="st0" d="M434.8,951.3c0.5-58.1,69.1-259.5,76.4-301.3c6.5-36.7,18.1-66.8,34.8-98.7c14.9-28.5,41.7-51.9,66.5-63.5
	c74.9-35.1,139.8,42.1,134.1,87.5c-10.6,84.5,71.8,333.6,22.5,383.9C737.3,966,576.5,1000.7,434.8,951.3L434.8,951.3z"/>
<path class="st14" d="M638.8,527.2c-27.4,1.7-12.3-22.7-8.5-36.9c8.2-7.9,10.2-23.3,15.4-48.7c5.4-26.6,34.9-23.7,34.9-23.7
	l2.6,67.1C683.2,484.9,668.3,525.3,638.8,527.2z"/>
<path class="st17" d="M417.4,425.4c0,0-35.5-21.2-42.8-50.8c-7.3-29.6,2.9-46,17.1-49c14.3-2.9,7.2-82.6,29.8-101.7
	c22.6-19,22.5,20.1,24,45.5s-4.4,52-0.2,58.4c4.2,6.4,9.9,1.4,8.6,25.8C452.7,378,450.3,406.6,417.4,425.4L417.4,425.4z"/>
<path class="st18" d="M417.4,425.4c0,0-0.9-29.7-1.1-71.8C416,304,426,225.1,430.6,225.5c4.6,0.4-8,80.3-8.2,93.7
	C422.1,332.6,422.6,413.7,417.4,425.4L417.4,425.4z"/>
<path class="st2" d="M420.7,549.7c0,0-21.3,0.3-48.4-17.7s-58.5-73.4-62.9-92.8s-7.5-36.6-7.5-36.6s25.6,3.6,36.4,13.8
	c10.8,10.2,7.6,21.8,19.1,16.8s-19-63.2-26.4-90.8s12-69.1,12-69.1s30.2,34.5,44.1,47.1c14,12.6,18.3,89.5,29.4,91
	s10.7-22.3,28.1-33.1c17.4-10.8,19.8-12.5,19.8-12.5s9.2,59.5,5.4,95.6S467.6,518.8,420.7,549.7L420.7,549.7z"/>
<path class="st18" d="M420.7,549.7c0,0-32.1-116.1-37.7-135.1c-2.9-9.7-7.9-30.4-16.3-56.6c-8-25-19.7-56-15.4-51.8
	c8.9,8.5,61.4,191.8,66.4,206C422.9,526.4,420.7,549.7,420.7,549.7z"/>
<path class="st19" d="M472.7,501.4c0,0-18.6-8.1-32.2-25.6s-13.4-116.4,0.8-120s9.8,2.7,23.7,6.8c13.9,4.1,22.4-60,35.3-81.2
	c12.9-21.2,52-46.8,61.8-39s0.2,84.8-1.7,95.8c-1.9,11.1-34,42.8-25.4,50.7c8.6,7.9,24.2,5.5,25.7,23.8
	C562.2,431.2,516.5,493.9,472.7,501.4L472.7,501.4z"/>
<path class="st20" d="M472.1,497c0,0-8.3-18,0-46.5s32.1-112.8,39.8-134.1c7.7-21.3,47.3-76.3,46.8-70.9
	c-0.5,5.4-41.6,69.4-43.9,76.2c-2.3,6.8-32.6,115.1-35.7,132.5S474.6,491.9,472.1,497L472.1,497z"/>
<path class="st21" d="M452.1,633.2c0,0-18.7-15.8-29.9-38.5s10.3-116.7,26.7-113.9c16.4,2.8,10.2,6.9,24.6,16.9s37.6-47.3,56.3-61.9
	s67.3-21.8,76.5-10.1c9.1,11.7-18,80.8-22.5,90.5s-46.6,25.9-38.9,37.2c7.7,11.3,25.5,15.8,23.2,33.9
	C565.7,605.4,501.9,645.1,452.1,633.2L452.1,633.2z"/>
<path class="st22" d="M452.4,628.7c0,0-5.3-20.8,10-44.3C477.7,561,522,491,535.2,474.1c13.1-16.9,68.6-52,66.8-47
	c-1.7,5-60.8,47.9-64.8,53.3s-60.8,95.4-67.9,110.5C462.1,606.2,456.3,624.9,452.4,628.7L452.4,628.7z"/>
<path class="st19" d="M422.2,607.7c0,0-41.2,3.5-64.4-16.3c-23.2-19.8-24.5-39-14.6-49.8c9.9-10.7-42.3-71.4-35.1-100
	c7.3-28.6,30,3.2,46.1,23s26.7,44.9,33.9,47.6c7.2,2.7,8.8-4.6,22.1,15.9C423.3,548.6,438,573.3,422.2,607.7z"/>
<path class="st20" d="M422.2,607.7c0,0-18-23.6-42.7-57.6C350.4,510,312.4,440,316.4,437.7c4-2.4,40.3,69.9,48,80.9
	C372,529.6,419.7,595.2,422.2,607.7L422.2,607.7z"/>
<path class="st23" d="M426.7,645.2c0,0,17.6,0,34.5-14.2s23.9-48.7,19.9-56.7c-3.9-8-8.2-14.8-8.2-14.8s-21.4,8.7-26.9,15.4
	s2.1,9.8-10.2,11.4c-12.3,1.6-8.8-27.4-13.5-39.1c-4.7-11.7-38.8-20.3-38.8-20.3s-12.9,20.8-20.2,29.2c-7.3,8.5,20.1,36.3,10.8,40
	c-9.3,3.8-18.6-4.6-38.6-3.2c-20,1.4-22.8,1.5-22.8,1.5s16,23.2,34.1,34.6C364.9,640.5,372.2,648.3,426.7,645.2L426.7,645.2z"/>
<path class="st24" d="M426.7,645.2c0,0-18.6-49.5-21.4-57.7c-1.4-4.2-5.3-12.8-8.5-24.3c-3-11-5.2-25.1-7.4-22.4
	c-4.5,5.5,23.3,84.2,24.6,90.6C415.3,637.8,426.7,645.2,426.7,645.2L426.7,645.2z"/>
<path class="st25" d="M350.1,646l172.1-19.8l-18.8,127.5l-100.6,11.6L350.1,646z"/>
<path class="st7" d="M639,473c2-7.4,3.7-16.6,6-28l28.1-3.1C673.1,441.9,659.9,466.3,639,473z"/>
<path class="st14" d="M688.7,427c0,0,5.5,1.9,11.5-1.8c4.8-2.9,7.3-14.9,4.1-19.4s-8.2-5.4-9.2-5.9c-1.1-0.5,6.5-20.8,2.3-34.6
	c-4.1-13.8-14.4-28.1-35.1-30.7c-20.7-2.6-33.1,6.5-41.5,13.9c-8.4,7.3-12.5,25-14.8,33.4c-2.4,8.3-4.9,10.5-7.3,14.7
	c-5.7,9.8-8.5,17-7.7,29.5c0.9,12.6,11.1,26.8,30.9,30.4C641.9,460.1,675.5,456.9,688.7,427z"/>
<path class="st26" d="M609.3,412.4c0,0,2.9-1.5,6.1-0.3c3.2,1.2,19,6.6,22.1,7.3c3,0.7,5.1,0.2,5.7,1.9c0.6,1.7-6.1,6.9-7.9,8.4
	c-1.8,1.5-13.9,7.3-20.2,5.2s-9.5-6.3-8.2-9.2C608.1,422.9,609.3,412.4,609.3,412.4L609.3,412.4z"/>
<path class="st7" d="M629.9,414.1c-1.9,0-4-0.5-6.4-1.1c-2.3-0.6-4.7-1.4-5.3-3.4c-0.6-1.9,0.6-4.1,4-8c5.1-5.6,7.6-14.5,8.3-17.2
	l0.1-0.2c0-0.1,2.3-5.6,0.4-9.2c-0.9-1.6-2.4-2.6-4.7-3c-4.8-1.3-12.2-2.7-13.8-1.9c-0.5,0.3-1.2,0.1-1.5-0.5
	c-0.3-0.5-0.1-1.2,0.5-1.5c2.9-1.4,13.2,1.2,15.3,1.7c2.9,0.6,5,2,6.1,4.1c2.3,4.3,0,10.2-0.3,11c-0.9,3.6-3.5,12.3-8.8,18
	c-2.7,2.9-3.9,4.9-3.6,5.9c0.2,0.7,1.5,1.4,3.7,1.9c6.4,1.6,8.5,1.3,9.7-1.2c0.3-0.5,0.9-0.8,1.4-0.5s0.8,0.9,0.5,1.4
	C634.4,413.2,632.4,414.1,629.9,414.1L629.9,414.1z M663.1,381.7c-0.2,0-0.5-0.1-0.7-0.2c-0.1,0-6.4-4.9-15.2-6.6
	c-0.6-0.1-1-0.7-0.9-1.3s0.7-1,1.3-0.9c9.3,1.8,15.8,6.8,16.1,7c0.5,0.4,0.6,1.1,0.2,1.5C663.7,381.6,663.4,381.7,663.1,381.7
	L663.1,381.7z M656.4,394.8c-0.3,0-0.5-0.1-0.8-0.3c-0.1-0.1-6.9-6.6-11.9-3.7c-0.5,0.3-1.2,0.1-1.5-0.4s-0.1-1.2,0.4-1.5
	c6.5-3.7,14.2,3.7,14.5,4c0.4,0.4,0.4,1.1,0,1.5C656.9,394.7,656.7,394.8,656.4,394.8z"/>
<path class="st7" d="M623.8,388.1c-0.3,0-0.5-0.1-0.7-0.3c-2.3-2-8.9-6.7-11.7-3.9c-0.4,0.4-1.1,0.4-1.5,0s-0.4-1.1,0-1.5
	c4.8-4.8,14.3,3.5,14.7,3.8c0.4,0.4,0.5,1.1,0.1,1.5C624.4,388,624.1,388.1,623.8,388.1L623.8,388.1z"/>
<path class="st26" d="M646.2,401.2c0,0,14.2,1.8,16.1,7.5c1.9,5.6-13.9,3.5-20.6-0.4C635,404.3,642.6,400.5,646.2,401.2z M603,392.6
	c0,0,11.6,0.9,12.7,6.3c1.1,5.3-11.7,4.3-16.9,0.8C593.6,396.3,600.2,392.2,603,392.6L603,392.6z"/>
<path class="st6" d="M641.6,422.1c0,0-18.9-2.6-31.7-8.4c0,0-0.9,10.5,4.8,13.4C624.6,432.1,639.1,426.1,641.6,422.1z"/>
<path class="st27" d="M612.8,400.7c-6.2,0-10.6-2.8-12-6c-2-4.5-0.3-16.7,2.2-20.5c0.7-1,1.5-1.5,2.3-1.5c0.2,0,21.8,2.2,22.9,7.8
	c0.6,3-1.3,10-4.7,14.7c-2.1,3-4.6,4.8-7.2,5.2C615.1,400.6,613.9,400.7,612.8,400.7z M602.8,393.8c1.3,3,6.4,5.5,13.2,4.5
	c2.5-0.4,4.5-2.6,5.8-4.3c3.2-4.5,4.7-10.9,4.3-13.1c-0.5-2.6-15.8-5.9-20.8-6c0,0-0.4,0.2-1,1.5
	C602.2,380.9,601.4,390.6,602.8,393.8z M655.1,410c-7.8,0-13.5-3-15.3-6.4c-2.4-4.4-1.2-15.9,1.5-20.1c1.1-1.7,2.2-2,2.9-1.9
	c0.3,0,26,3,27.5,8.6c0.2,0.6,0.2,1.4,0.2,2.3c-0.4,5.8-5.2,16.6-13.5,17.5H655.1L655.1,410z M641.7,402.6c1.7,3.1,8.1,6,16.4,5.1
	c6.9-0.7,11.3-10.6,11.6-15.4c0.1-0.8,0-1.3-0.1-1.6c-0.2-0.7-2.8-2.5-11.4-4.5c-6.1-1.4-12.3-2.3-14.1-2.4c-0.2,0-0.5,0.2-1,0.9
	C640.9,388.2,639.7,399,641.7,402.6z"/>
<path class="st27" d="M640.1,392.1c-0.2,0-0.5-0.1-0.7-0.3c-3.9-3.3-12.9-3.9-13-3.9c-0.6,0-1.1-0.5-1-1.1c0-0.6,0.6-1.1,1.1-1
	c0.4,0,9.8,0.6,14.3,4.4c0.5,0.4,0.5,1.1,0.1,1.5C640.7,392,640.4,392.1,640.1,392.1L640.1,392.1z M695.1,401c-0.1,0-0.3,0-0.4-0.1
	l-24.4-9.5c-0.6-0.2-0.8-0.8-0.6-1.4s0.8-0.8,1.4-0.6l24.4,9.5c0.6,0.2,0.8,0.8,0.6,1.4C695.9,400.7,695.5,401,695.1,401z"/>
<path class="st7" d="M618.1,384.4c0,0,1.4,5.8-1.9,6.6c-3.3,0.8-5.4-6.6-3.4-8.1C614.9,381.4,618,383.3,618.1,384.4L618.1,384.4z
	 M650,390.7c0,0,1.4,5.8-1.9,6.6c-3.3,0.8-5.4-6.6-3.4-8.1C646.8,387.7,649.8,389.6,650,390.7L650,390.7z M840.7,876.1l8.8-20.8
	l-81.6-149.5H738c0,0,40.6,66.7,51.8,90.2c7.8,16.4,26.1,67.7,26.1,67.7L840.7,876.1L840.7,876.1z"/>
<path class="st7" d="M705.7,498.2c0,0-35,102.2-23.2,182.6c0.9,6.2-1.9,29.6-1.9,29.6l14.3,7.5c0,0,34.3,137.5,43.2,142.9
	c9.7,6,105.8-19.1,111.4-5.4c5.6,13.7,73.1,209.5,43.8,220.7s-141.4,42.6-159.9,17.9s-26-225.7-27.5-228.7s-36.6-132.8-40-169.6
	C654,568.2,691.1,489,691.1,489L705.7,498.2L705.7,498.2z"/>
<path class="st7" d="M767.4,751.4c-6.8,4.9-24.7,15.1-57.1,17.5c-43,3.3-160.6-2.2-160.6-2.2s75.6,50.6,149.8,57.9
	c40.5,3.9,64.4-5,77.7-14C774.3,791.3,770.9,771.3,767.4,751.4L767.4,751.4z"/>
<path class="st12" d="M611.7,350.1c0,0,2.1,14.3,10.8,16.7c8.7,2.4,16,1.4,16,1.4s4,11.5,14.1,13.2c10.2,1.7,20.6-0.7,20.6-0.7
	s-2.4,4.3,5.3,7.7l7.7,3.4c0,0-1,9.6,2.9,12.2s11.5-4.5,11.5-4.5s13.7-1.8,18.3-6.8s2.4-16,2.4-16s11.2-7.9,10.7-18.4
	c-0.4-10.6-11.1-19.4-11.1-19.4s1.5-14.5-6.6-20.5c-8-6-21.7-3.7-21.7-3.7s-7-6.6-10-7.2s-7.7,1.9-7.7,1.9s0.2-12.8-14.6-11
	s-16,14.1-16,14.1s-6.8-4.4-9.7-1c-2.8,3.5-3.8,6-3.8,6s-10.2-8.3-18.3-0.9S593.9,339.9,611.7,350.1L611.7,350.1z"/>
<path class="st14" d="M707.6,709.4l0.5,9.6c0,0-130.1-11.9-187.4-8.8c-15.7,0.8-11.8,17.5-14.8,21.9
	c-14.1,20.6,155.1,92.8,236.5,65.5c32.2-10.8,34.3-50.3,36.1-91.7C746.8,716.2,722.5,713.5,707.6,709.4L707.6,709.4z"/>
<path class="st0" d="M789.5,713c2.8-63.3-24.1-147.4-36.8-165.8c-21.1-30.5-53-39.6-53.5-11.6l-13,175.8
	C707.2,727.4,767.7,729.3,789.5,713z"/>
<path class="st14" d="M529.1,718.1c0,0-15.3-8.4-24-12.7c-9.7-4.8-40.2-20.6-41.5-13.5s20.9,15.7,21,20.1c0.1,4.4-63.2,10.8-62,13.5
	s33.5,0.9,33.5,4.3c-0.1,3.3-38.6,3.6-38.7,7.9c-0.1,4.3,39.1,3.5,39.3,4.6c0.2,1.1-33.8,7.8-33.2,10.8c0.6,3,41.6-2.4,42.7-0.2
	s-24.9,3.4-22.1,7.7c2.7,4.3,35.9-0.7,46.1-2.1c6.7-1,34.1-7.9,38.9-19.3C533.7,727.8,537.1,718.9,529.1,718.1z M400.5,699.5
	c-1.7-4.4-15.2-6.4-15.2-6.4l-12.9-1.5c0,0,21.3-1.3,22.7-7.7c0.9-4.1-23.7-3.5-23.7-3.5s-17.1-1.8-18.2,7.4
	c-1.1,9.1,7.1,12.2,7.1,12.2s-3.4,6.4-2.3,11.4c1.1,4.9,8.2,4.8,8.2,4.8s-2.8,5.3-1.6,8.2c1.2,2.9,8.2,4.8,8.2,4.8s-1.4,3,1.3,5.6
	c2.7,2.6,25.9,0.7,30-6.3s-8.6-8.3-8.6-8.3s5.8-1.6,6.4-7.1c0.5-5.4-7.6-6.4-7.6-6.4S402.2,703.9,400.5,699.5z"/>
<path class="st7" d="M737.9,725.4C737.9,725.4,737.8,725.4,737.9,725.4c-33.6-1.5-53.2-10.8-57.9-14.2c-3.6-2.6-0.3-22.2,5.7-54.1
	c0.9-4.9,1.8-9.7,2.6-14.2c4.6-26,9.7-106.5,9.8-107.3c0-0.6,0.5-1.1,1.2-1c0.6,0,1.1,0.6,1,1.2c-0.1,0.8-5.1,81.4-9.8,107.6
	c-0.8,4.5-1.7,9.3-2.6,14.2c-3.4,18.6-9.2,49.8-6.5,52c4.6,3.3,23.7,12.3,56.6,13.8c0.6,0,1.1,0.5,1,1.1
	C738.9,725,738.5,725.4,737.9,725.4z"/>
<path class="st6" d="M714.6,1140.5c-0.1,0-0.3,0-0.4-0.1c-45.7-20-215.1-48.1-216.8-48.4c-0.6-0.1-1-0.7-0.9-1.2
	c0.1-0.6,0.7-1,1.2-0.9c1.7,0.3,171.4,28.5,217.3,48.6c0.5,0.2,0.8,0.9,0.6,1.4C715.5,1140.2,715.1,1140.5,714.6,1140.5z
	 M701.7,1102.5c-3.7,0-8.5-0.7-14.1-2.2c-28.9-7.5-111.2-19.9-112-20.1c-0.6-0.1-1-0.6-0.9-1.2s0.6-1,1.2-0.9
	c0.8,0.1,83.2,12.6,112.3,20.1c11.9,3.1,18,2.3,19.5,0.7c0.4-0.4,0.5-0.8,0.3-1.4c-0.7-2.3-5.7-6.5-16.6-8.8c-0.6-0.1-1-0.7-0.8-1.3
	c0.1-0.6,0.7-1,1.3-0.8c9.7,2,17,6.1,18.3,10.2c0.4,1.3,0.1,2.6-0.8,3.6C707.9,1101.8,705.3,1102.5,701.7,1102.5L701.7,1102.5z
	 M825,978.6c-0.6,0-1.3-0.1-1.9-0.2c-10.8-2.3-32.5-20.1-64.5-52.9c-23.7-24.4-44.6-48.4-44.8-48.6c-0.4-0.5-0.3-1.1,0.1-1.5
	c0.5-0.4,1.1-0.3,1.5,0.1c0.8,1,83.3,95.6,108.1,100.9c2.1,0.5,4-0.1,5.8-1.6c17.1-14.5,13-108.2,12.9-109.1c0-0.6,0.4-1.1,1-1.1
	s1.1,0.4,1.1,1c0.2,3.9,4.2,95.7-13.7,110.9C829,977.9,827.1,978.6,825,978.6L825,978.6z"/>
<path class="st7" d="M2340.4,1742.9h-817.7c-1.6,0-2.9-1.3-2.9-2.9s1.3-2.9,2.9-2.9h811.9V45.4c0-1.6,1.3-2.9,2.9-2.9
	c1.6,0,2.9,1.3,2.9,2.9V1742.9z"/>
<path class="st28" d="M1637.7,1282.8l-241.5,89.1v480.3l241.5-89.1h601.5v-480.3H1637.7z"/>
<path class="st3" d="M1396.2,1371.9h601.5v480.3h-601.5V1371.9z"/>
<path class="st29" d="M2239.2,1763.1l-241.5,89.1v-480.3l241.5-89.1V1763.1z"/>
<path class="st7" d="M2021.9,1762v66.7l67.1-25.1v-62.2l-7.7,2.8l0.4,52.5l-5.9,2.3l-0.9-46.6l-10,3.2v47.5l-6.5,2.8v-47.4l-9.1,3.5
	l1.4,46.6l-7.6,3.2v-47.1l-11.2,4.2v47l-5,1.4v-58L2021.9,1762z M2115.4,1794.6l18.8-6.5v-43l8.9-3.1l-22-26.7l-18.3,40.9l11.5-4
	L2115.4,1794.6z M2160.4,1778.2l18.8-6.6v-43l8.9-3.1l-21.9-26.7l-18.3,40.9l11.5-4L2160.4,1778.2z"/>
<path class="st6" d="M1654.3,1372v117.4h99.6v-117.5l199.1-89.1h-115.6L1654.3,1372z"/>
<path class="st7" d="M1509.8,1398.4l427.6,30.2l22.6-56.7h-450.2V1398.4z"/>
<path class="st28" d="M1720.7,828.9L1479.2,918v480.4l241.5-89.1h411.1V828.9H1720.7z"/>
<path class="st3" d="M1479.2,918h411v480.3h-411V918z"/>
<path class="st29" d="M2131.8,1309.3l-241.6,89.1V918l241.6-89.1V1309.3z"/>
<path class="st7" d="M1914.5,1308.2v66.7l67.1-25.2v-62.1l-7.7,2.7l0.4,52.6l-5.9,2.3l-0.9-46.6l-10,3.2v47.5l-6.5,2.7v-47.3
	l-9.1,3.5l1.3,46.6l-7.5,3.2v-47.1l-11.2,4.1v47.1l-5,1.3v-58L1914.5,1308.2z M2007.9,1340.8l18.8-6.6v-43l8.9-3.1l-21.9-26.7
	l-18.3,41l11.5-4L2007.9,1340.8z M2053,1324.3l18.8-6.5v-43.1l8.9-3.1l-21.9-26.6l-18.4,40.9l11.5-4L2053,1324.3z"/>
<path class="st6" d="M1629.9,918.2v117.3h99.6V918l199.1-89.1H1813L1629.9,918.2z"/>
</svg>
