<?xml version="1.0" encoding="utf-8"?>
<!-- Generator: Adobe Illustrator 28.3.0, SVG Export Plug-In . SVG Version: 6.00 Build 0)  -->
<svg version="1.1" id="Layer_1" xmlns="http://www.w3.org/2000/svg" xmlns:xlink="http://www.w3.org/1999/xlink" x="0px" y="0px"
	 viewBox="0 0 626.6 831" style="enable-background:new 0 0 626.6 831;" xml:space="preserve">
<style type="text/css">
	.st0{opacity:0.1;fill:#2E2E47;enable-background:new    ;}
	.st1{fill:#636236;}
	.st2{fill:#1FCC8A;}
	.st3{fill:#CC8B70;}
	.st4{fill:#34E29B;}
	.st5{fill:#9C6F43;}
	.st6{fill:#2E2E47;}
	.st7{fill:#FFFFFF;}
	.st8{fill:#3B82F6;}
	.st9{fill:#EAE6E4;}
	.st10{fill:#5E1F9B;}
	.st11{fill:#235EB5;}
	.st12{fill:#FFD3B5;}
	.st13{fill:#E52859;}
	.st14{fill:#FFA982;}
	.st15{fill:#9D4BDD;}
	.st16{fill:#FA634B;}
	.st17{fill:#F2836D;}
	.st18{fill:#F2C2A0;}
	.st19{fill:#FFE2BD;}
	.st20{fill:#7F635D;}
	.st21{fill:#84CECA;}
	.st22{fill:#82A7AF;}
	.st23{fill:#AFACAA;}
</style>
<path class="st0" d="M543.5,718.4c0,1.7-31.4,3.1-70,3.1s-70-1.4-70-3.1c0-1.7,31.4-3.1,70-3.1S543.5,716.7,543.5,718.4z"/>
<path class="st1" d="M443.5,660.2c-0.4-30.6-12.7-77.7-12.8-78l4.5-1.3c0.1,0.3,12.6,48,13,79.3H443.5z"/>
<path class="st2" d="M460.2,661.4l-3.9-2.5c16.1-25.1,55.2-54.7,56.4-55.2l1.8,4.3C514.1,608.2,475.4,637.6,460.2,661.4z M514.5,608
	l-0.9-2.1L514.5,608z"/>
<path class="st2" d="M457.5,658.6l-4.7-0.3c0-0.7,5.1-79,3.4-96c-1.7-17.4,4.6-71.1,4.9-73.4l4.6,0.5c-0.1,0.6-6.5,55.5-4.9,72.4
	C462.6,579.2,457.6,655.6,457.5,658.6z"/>
<path class="st2" d="M474.5,558.1c-2.5-4.5-19.2,10.9-20.3,7.2c-1.1-3.6,8.1-5.6,13.6-11.1c5.6-5.6-2.8-18.4-5.8-18.9
	c-3.1-0.6-20.6,27.3-24.8,23.1c-4.2-4.2,15-20.9,16.7-26.7s-1.7-7-8.6-10c-7-3.1-10.9,29.2-17,25.9s9.7-22.5,9.2-28.9
	c-0.6-6.4-7.5-4.7-13.4-5.3c-5.8-0.6-6.4,32-11.1,30.1s5.6-27.3,1.7-31.2c-3.9-3.9-16.4-5.8-22.8-7.5s-8.6,11.7-9.5,17.3
	c-0.8,5.6,29.8,25.9,21.7,28.9c-8.1,3.1-23.4-19.5-28.1-20.4s-3.6,8.7-3.6,14.6s45.4,22.5,39.5,24.2c-5.8,1.7-34.5-15-39.4-11.4
	s-2.4,10.3,0,13.6s48.6,6.4,42.2,10.8c-6.4,4.4-35.1-3-39.8,0c-4.7,3-1.4,10,1.7,12.3c3.1,2.2,6.7-1.1,17.8-1.7
	c11.1-0.6,18.9,4.2,13.1,7.5s-22,1.7-24.8,2.5s-3.3,4.7,0,9.2s31.2,4.5,42.6-1.4s3.6-18.4,8.6-25.3c5-7,12.5,0,12.5,0
	c15.3,5.3,17.8,6.4,23.9,1.9S477,562.6,474.5,558.1L474.5,558.1z M412.7,559.9c-0.7,1.2-11.4-0.6-13.1-4.6s10.4,1.8,10.4,1.8
	S413.4,558.7,412.7,559.9z M423.6,557.8c-3.2,1.8-7.7-7.4-5.6-9.6c2.1-2.2,3.6,1.9,3.6,1.9S426.8,556,423.6,557.8L423.6,557.8z
	 M448.1,578.1c-5.7-0.3-12-4.7-8.2-5.6c0.9-0.2,1.8-0.1,2.6,0.1c1.3,0.4,3.8,0.9,6.3-0.3c3.5-1.6,3.9-3,5.6-0.9
	C456.3,573.7,454.5,578.4,448.1,578.1z M511.3,522.9c7-15.9,12.9-27.6,12.3-35s-30.8-3.7-29.8-10.6c1.1-6.9,27.5,6.5,31.3,2.7
	s2.5-17.2-1.5-26.3c-4-9.1-33.1,12.3-35.4,2.6c-2.3-9.7,30.5-8.9,33.3-13.6c2.8-4.7,1.3-7.4-5.5-17.4s-23.1,18.7-22,6.1
	c1.1-12.7,19.5-10.6,19.1-16.5s-6.1-25.8-8.4-27.8s-35.6,18.1-39.4,21c-3.8,2.8,6.4,33.5-1.2,31.7s-2.8-16.1-9.3-18.4
	c-6.4-2.3-21,19.3-18.6,23s4.8,23.6,0.8,19.2s-9.1-12.1-9.1-12.1s-4.9,0.4-8.5,7.6s-3.6,29,7.2,38.6c10.8,9.7,18.6,2.7,32.2,3.8
	c7.8,0.7,10.3,5.7,11,9.9c1,6.2,3.5,12,7.5,16.7l0.6,0.6C485.6,537.4,504.3,538.8,511.3,522.9L511.3,522.9z M455.2,453.8
	c-4.9-4.1-10.6-15.5-6.1-17.4c4.4-1.9,10.9,14.9,10.9,14.9S460.1,457.9,455.2,453.8z M501.8,504.9c-1,1.6-3.7,1.8-6.1,1.5
	c-2.3-0.2-4.3,1.5-4.3,3.8c-0.1,2.4-0.5,5.3-2,7.3c-3,4.2-9.5-16.1-11-24.4s20.8,4.7,20.8,4.7S503.9,501.7,501.8,504.9z"/>
<path class="st2" d="M509,608.9c0,0-24.9,4.4-33-14.4c-8.1-18.8,59.3-36.1,68.5-32.1s3.1,26.1,2.8,28.6c-0.3,2.6-19.2-2.5-13,5.1
	s10.8-4.3,14.7,3.1c3.9,7.5,4.6,36.9-3.4,39.8C524.6,647,509,608.9,509,608.9L509,608.9z"/>
<path class="st3" d="M410.2,655.9h86.6l-16.6,62.3h-50.6L410.2,655.9z"/>
<ellipse class="st0" cx="54" cy="713.6" rx="46.8" ry="6.6"/>
<path class="st2" d="M45.1,666.1c0,0,4-94.2,1.7-111.2s-6-33.8-1.9-51.8S67,457.4,67,457.4s11.9,34.8,15.8,60.2
	c3.9,25.4-10.8,63.1-12.6,80.8s-11.1,67.8-11.1,67.8L45.1,666.1L45.1,666.1z"/>
<path class="st4" d="M43.3,514.9c3.7-0.2,9.3-0.2,13.9,0.6c7.5,1.4,7.3,1.2,14.1,0.9c3.7-0.2,8.3,0.8,11.7,1.8c0-0.2,0-0.4-0.1-0.5
	c-0.5-3.6-1.3-7.3-2.1-11.1c-3.1,0.2-5.7,0.8-11.4,0c-7.1-1-4.5-1.4-16.7-3c-3.4-0.4-5.9-0.4-7.8-0.1
	C44,507.3,43.5,511.1,43.3,514.9z M67.8,546.9c-5.5,0-5.9-2.1-12.2-3.5c-4.1-0.9-8.1-0.6-10.4-0.3c0.6,3.9,1.2,7.9,1.7,11.8
	c0.1,0.6,0.2,1.3,0.2,2.1c2.6,0.5,6.2,1.3,9.3,2.2c5.9,1.7,4.7,0,10.1-0.2c2.9-0.1,7.8,1.7,11.8,3.3c1.1-4.9,2.2-9.9,3.1-14.9
	C76.7,547.2,70.8,546.9,67.8,546.9L67.8,546.9z M68.6,594.5c0,0-6.5-1.7-11.4-3.3c-2.7-0.9-6.7-1-9.8-0.9
	c-0.1,5.9-0.2,12.1-0.4,18.4c3.9-0.1,9.7-0.4,13.1-0.6c2.8-0.2,6.1,0.9,8.5,2c0.7-4.6,1.2-8.6,1.5-11.7c0.1-1.1,0.3-2.2,0.5-3.4
	L68.6,594.5z M65.5,630c-0.9-0.3-2.1-0.6-3.4-0.9c-3.4-0.9-9-1.4-10.8-2.1c-0.9-0.3-2.9-0.5-4.7-0.5c-0.2,6.2-0.4,12.1-0.6,17.3
	c2.5,0.2,6,0.5,9.6,0.4c3.2-0.1,5.5,0.8,7.2,1.9C63.6,641,64.5,635.5,65.5,630L65.5,630z"/>
<path class="st2" d="M23.5,666.1c0,0-11.1-42.2-9.3-73.5s5.7-84.8,5.7-84.8s18.5,6.7,28.5,93.6l-1.1,64.7H23.5z"/>
<path class="st4" d="M24.4,638.4c-3.6,0-5.4,1-6.3,2c0.5,2.8,1,5.5,1.5,8c2.5-0.3,6.1-0.8,9.5-1.1c4.4-0.4,13.4,0.5,18.6,1.1
	l0.2-10.5c-3,0.1-6.9,0.3-10,0.5C32,638.8,31.8,638.4,24.4,638.4z M43.2,608.8c-1.4-0.1-17.1,2.7-23.5,3.6c-2.1,0.3-3.8,1.3-5,2.5
	c0.3,3.5,0.7,6.9,1.1,10.3l7.2-2.7l25.1-0.9l0.2-13.5C46.2,608.4,43.9,608.8,43.2,608.8L43.2,608.8z M28.8,584.8
	c4.3-1.6,5-2.6,10-2.8c2.2-0.1,4.9,0.2,7.1,0.5c-0.3-2.1-0.6-4.2-1-6.2c-0.2-0.1-0.3-0.1-0.5-0.2c-2.8-1.2-4.1-1.8-9-3.8
	c-5-2-3.5,1.5-6.9,4.8s-5.5,0.2-8.8-0.7c-1.1-0.3-2.8,0.1-4.6,0.6c-0.2,2.8-0.4,5.6-0.5,8.3C19.3,585.5,26.2,585.7,28.8,584.8
	L28.8,584.8z M31.5,553.3c2.3-0.3,6.7,1.1,9.5,2.1c-1-4.3-1.9-8.2-2.9-11.7c-2.1,0.2-5.1,0.4-6.6,0.3c-2.5-0.2-7.5-1.7-9.5-1.4
	c-1,0.2-2.9,1.6-4.7,3c-0.2,3.4-0.5,6.9-0.7,10.5c2.2-0.2,4.6-0.3,5.6-0.4C23.9,555.4,28.1,553.9,31.5,553.3L31.5,553.3z"/>
<path class="st2" d="M84.9,666.1c0,0,13.6-34.2,15.6-59.6s4.7-68.7,4.7-68.7s-15.7,5.5-33.4,75.9l-6.2,52.5h19.3L84.9,666.1z"/>
<path class="st4" d="M87.2,643.7c2.9,0,4.3,0.8,4.9,1.6c-0.7,2.3-1.4,4.4-2.1,6.5c-2-0.3-4.8-0.6-7.6-0.9c-3.5-0.3-11,0.4-15.2,0.9
	l1-8.5c2.4,0.1,5.6,0.3,8,0.4C81,643.9,81.3,643.7,87.2,643.7z M75.3,619.6c1.2-0.1,13.5,2.2,18.7,2.9c1.7,0.2,2.9,1,3.7,2
	c-0.6,2.8-1.3,5.6-2,8.3l-5.6-2.2L69.8,630l1.3-11C72.8,619.4,74.7,619.7,75.3,619.6z M89.5,600.2c-3.3-1.3-3.8-2.1-7.8-2.3
	c-1.8-0.1-4,0.2-5.8,0.4c0.5-1.7,1-3.4,1.5-5c0.1-0.1,0.3-0.1,0.4-0.2c2.4-1,3.5-1.5,7.7-3.1s2.7,1.2,5.1,3.9s4.4,0.1,7.2-0.6
	c0.9-0.2,2.2,0,3.7,0.5c-0.2,2.3-0.3,4.5-0.5,6.7C97.1,600.8,91.6,601,89.5,600.2L89.5,600.2z M90.8,574.7c-1.8-0.3-5.6,0.9-7.9,1.7
	c1.2-3.5,2.5-6.6,3.6-9.5c1.7,0.2,4.1,0.3,5.3,0.2c2-0.1,6.3-1.4,7.8-1.1c0.8,0.1,2.2,1.3,3.5,2.4c-0.2,2.8-0.4,5.6-0.6,8.5
	c-1.7-0.1-3.7-0.3-4.5-0.3C96.7,576.4,93.5,575.1,90.8,574.7L90.8,574.7z"/>
<path class="st5" d="M18.3,662.8h70.9c0,0,7.7,32.7-13,50.8h-41C35.2,713.6,12.3,701.4,18.3,662.8z"/>
<path class="st6" d="M52.3,204.1c-0.3,0-0.7-0.1-1-0.3c-1.7-0.9-1.8-3-1.9-4.7c0-0.3,0-0.6-0.1-0.9c-0.2-1.8,0-8.3,0.1-8.6
	c0-0.3,0.3-0.5,0.6-0.5s0.5,0.3,0.5,0.6c0,0.1-0.2,6.7-0.1,8.5c0,0.3,0,0.6,0.1,0.9c0.1,1.5,0.2,3.1,1.4,3.8
	c0.8,0.4,1.3-0.1,2.2-1.3c0.3-0.4,0.6-0.8,1-1.1c0.6-0.5,1.2-5.4,1.5-9.6c0-0.3,0.3-0.5,0.6-0.5s0.5,0.3,0.5,0.6
	c-0.1,2.1-0.6,9.2-1.8,10.3c-0.3,0.2-0.6,0.6-0.8,1C54.2,203,53.4,204.1,52.3,204.1z"/>
<circle class="st7" cx="320.4" cy="500.7" r="2.4"/>
<path class="st7" d="M336.3,522.2c0,1.3-1.1,2.4-2.4,2.4s-2.4-1.1-2.4-2.4s1.1-2.4,2.4-2.4C335.2,519.9,336.3,520.9,336.3,522.2z
	 M333.9,510.7c0,1.3-1.1,2.4-2.4,2.4s-2.4-1.1-2.4-2.4c0-1.3,1.1-2.4,2.4-2.4C332.9,508.4,333.9,509.4,333.9,510.7L333.9,510.7z"/>
<circle class="st7" cx="354.3" cy="476.4" r="2.4"/>
<path class="st7" d="M343.1,563.9c0,1.3-1.1,2.4-2.4,2.4s-2.4-1.1-2.4-2.4s1.1-2.4,2.4-2.4C342.1,561.6,343.1,562.6,343.1,563.9z
	 M411,493.6c0,1.3-1.1,2.4-2.4,2.4s-2.4-1.1-2.4-2.4s1.1-2.4,2.4-2.4S411,492.3,411,493.6z M424.5,515.1c0,1.3-1.1,2.4-2.4,2.4
	s-2.4-1.1-2.4-2.4c0-1.3,1.1-2.4,2.4-2.4C423.5,512.8,424.5,513.8,424.5,515.1z M422.2,503.7c0,1.3-1.1,2.4-2.4,2.4
	s-2.4-1.1-2.4-2.4s1.1-2.4,2.4-2.4S422.2,502.4,422.2,503.7z"/>
<circle class="st7" cx="407.3" cy="519.9" r="2.4"/>
<circle class="st7" cx="436.4" cy="688.7" r="2.4"/>
<path class="st7" d="M438.8,644.4c0,1.3-1.1,2.4-2.4,2.4s-2.4-1.1-2.4-2.4c0-1.3,1.1-2.4,2.4-2.4
	C437.7,642.1,438.8,643.1,438.8,644.4z M436.4,633c0,1.3-1.1,2.4-2.4,2.4s-2.4-1.1-2.4-2.4c0-1.3,1.1-2.4,2.4-2.4
	S436.4,631.7,436.4,633z M423.9,649.2c0,1.3-1.1,2.4-2.4,2.4s-2.4-1.1-2.4-2.4s1.1-2.4,2.4-2.4C422.9,646.8,423.9,647.9,423.9,649.2
	z"/>
<circle class="st7" cx="429" cy="556.8" r="2.4"/>
<circle class="st7" cx="318.1" cy="602.2" r="2.4"/>
<circle class="st7" cx="329.2" cy="609.1" r="2.4"/>
<path class="st7" d="M315.7,676.3c0,1.3-1.1,2.4-2.4,2.4s-2.4-1.1-2.4-2.4c0-1.3,1.1-2.4,2.4-2.4S315.7,675,315.7,676.3z"/>
<circle class="st7" cx="324.5" cy="667.2" r="2.4"/>
<circle class="st7" cx="329.2" cy="686.4" r="2.4"/>
<circle class="st7" cx="407.3" cy="588.5" r="2.4"/>
<circle class="st7" cx="418.5" cy="579.4" r="2.4"/>
<path class="st7" d="M425.6,598.6c0,1.3-1.1,2.4-2.4,2.4s-2.4-1.1-2.4-2.4s1.1-2.4,2.4-2.4S425.6,597.2,425.6,598.6z M418.5,471.7
	c0,1.3-1.1,2.4-2.4,2.4s-2.4-1.1-2.4-2.4s1.1-2.4,2.4-2.4C417.4,469.4,418.5,470.4,418.5,471.7z"/>
<path class="st6" d="M58.4,206.7c-4.2,0-5.7-0.7-5.7-0.7c-0.3-0.1-0.4-0.5-0.2-0.7c0.1-0.3,0.5-0.4,0.7-0.2c0,0,1.5,0.7,5.8,0.6
	c4.4-0.1,8.5-1.8,8.6-1.8c0.3-0.1,0.6,0,0.7,0.3s0,0.6-0.3,0.7c-0.2,0.1-4.4,1.8-9,1.9C58.8,206.7,58.6,206.7,58.4,206.7z"/>
<ellipse class="st0" cx="284.9" cy="739.1" rx="237" ry="14.7"/>
<path class="st8" d="M231.5,200.7l94.9,46c0,0,77.1,10.4,77.6,17.3s-65.9,33.8-76.4,31.6c-10.5-2.2-63-24.9-79.5-41.2
	C231.7,238,231.5,200.7,231.5,200.7L231.5,200.7z"/>
<path class="st6" d="M280.4,714.4c0,0,28.2,10.2,29.2,14.8c1.2,5.7-10.1,7.7-23.3,8.1c-9.2,0.3-17.3-1.3-21.4-2.2
	c-1.8-0.4-3.4-1.4-4.7-2.8l-1.5-1.7l0.2,1.7c0.1,0.8-0.6,1.5-1.4,1.3l-9.2-1.6c0,0-3.5-7.8-3.2-15c0.1-1.6,2-5.5,4.6-6.6
	C255.9,707.8,267.1,709.3,280.4,714.4L280.4,714.4z"/>
<path class="st9" d="M270.8,710.6l0.4-15.2H248l1.4,17c0,0,9.7,5.2,16,3.1C271.7,713.3,270.8,710.6,270.8,710.6L270.8,710.6z"/>
<path class="st6" d="M260,717.1c0,0-3.7-7.6-1.8-8.6c1.9-0.9,13.1-2.3,13.4-1.5s3.1,8,3.3,8.4c0.2,0.4-9.6,2-10.9,1.6
	C262.6,716.8,260,717.1,260,717.1z M112,717.2c0,0-27.3,12.6-27.8,17.2c-0.7,5.8,10.7,6.8,23.9,6.1c9.2-0.5,17.1-2.7,21.1-4
	c1.8-0.6,3.3-1.7,4.4-3.2l1.3-1.8l-0.1,1.8c0,0.8,0.7,1.4,1.5,1.2l9.1-2.4c0,0,2.8-8,1.9-15.2c-0.2-1.6-2.4-5.3-5.1-6.2
	C135.8,708.5,124.7,711,112,717.2L112,717.2z"/>
<path class="st9" d="M121.2,712.6l3.2-15.1l23.1-2l-4.2,14.8c-0.4,1.5-1.4,2.8-2.8,3.5c-3.1,1.7-9,4.3-13.5,3.1
	C120.5,715.3,121.2,712.6,121.2,712.6z"/>
<path class="st6" d="M132.5,718.1c0,0,3.1-7.9,1.1-8.7s-13.2-1.1-13.5-0.3s-2.4,8.2-2.6,8.7c-0.1,0.5,9.7,1.2,11,0.7
	C129.9,718,132.5,718.1,132.5,718.1z"/>
<path class="st10" d="M223.8,373.4c-41.7,7.8-77.8,7.8-91,7.4c0.1,19.7-0.5,41.6-2.5,63.4c-5.8,63.5-24.8,255.7-24.8,255.7
	s6.9,4.4,26.3,6.4c21.3,2.2,30.7-1.6,30.7-1.6l51.2-274l28.6,272c0,0-0.2,2.7,19.5,3.1c15.4,0.3,21.2-2.6,21.2-2.6
	s17.6-212.9-11.3-341.1C262,365.2,247,369.1,223.8,373.4L223.8,373.4z"/>
<path class="st11" d="M272.1,364.9c-24.4,6.1-74.6,20.4-89,21.1c-18.5,0.9-40.3,4.3-40.3,4.3s33.1,17.9,74,17.6
	c23.3-0.2,42.4-5.8,61.1-11.6C276.2,385.4,274.2,374.9,272.1,364.9z M279.5,274.8c-5.8-15.4-34.9-55.2-34.9-55.2l6.5,37.4
	C257.9,262.7,268.4,269,279.5,274.8z"/>
<path class="st8" d="M222.8,398.9c32.9,0.4,43.6-15.5,53.6-12.9c3.5-15.9-6.2-135.8-41.4-181.6c-7.7-10-27.8-17.2-36.7-18.2
	c-11.1-1.2-22.1,4.9-28.2,14.7c-10.8,17.3-20.2,53.2-26.5,91.6c-5.8,35-12.8,70.5-12.1,93.4c0,1.5,1.1,2.8,2.6,3
	C168.9,394.4,193.3,398.5,222.8,398.9z"/>
<path class="st11" d="M256.3,248.2c-10.5,2.6-33.3,7.4-66.1,8.9c-15.9,0.8-29-0.3-39.2-2c-1.5,6.5-3,13.3-4.3,20.2
	c9.2,1.6,20.2,2.7,33.2,2.7c3.6,0,7.4-0.1,11.3-0.3c35.3-1.7,59.6-6.8,70.9-9.7C260.4,261.3,258.4,254.6,256.3,248.2L256.3,248.2z"
	/>
<path class="st7" d="M184.3,191.2c0,0,3.9,9.2,12.7,12s12.9,0,14.4-4.2s-3.9-11.5-3.9-11.5L184.3,191.2z"/>
<path class="st12" d="M180.8,164.7c0,0,3.5,8.3,4.1,13.4c0.4,3.5,0.1,7,0,8.9c-0.1,1.7,14.1,8.8,18.5,6c8.4-5.5-0.1-13.1-3-20.7
	C198.5,167.2,180.8,164.7,180.8,164.7L180.8,164.7z"/>
<path class="st6" d="M202.6,183.9c1.3,0,2.6,0,3.7-0.1c-1-2.6-2.8-5.4-4.3-8.2l-15.6,0.9C186.4,176.4,194,183.8,202.6,183.9
	L202.6,183.9z"/>
<path class="st7" d="M184.5,184.2l17.8,6.6l3.2-9.3l5.2,5.4l4.5,10.8l-12.1-3.6l-12.9,7.9l-8.4-11.5L184.5,184.2z"/>
<path class="st6" d="M213.5,431.2c-0.3,0-0.5-0.2-0.4-0.5c0.1-0.9,1.9-22,6.5-29.8c0.1-0.2,0.4-0.3,0.6-0.2c0.2,0.1,0.3,0.4,0.2,0.6
	c-4.5,7.6-6.4,29.2-6.4,29.4C213.9,431,213.7,431.2,213.5,431.2L213.5,431.2z M138.8,421.5c-0.2,0-0.3-0.1-0.4-0.2
	c-0.1-0.2,0-0.5,0.2-0.6c15.3-8.6,19-23.4,19.1-23.5c0.1-0.2,0.3-0.4,0.5-0.3s0.4,0.3,0.3,0.5c0,0.2-3.8,15.2-19.5,24.1H138.8
	L138.8,421.5z M112.4,695.9c-0.3,0-0.5-0.3-0.4-0.5c0.1-0.4,6.4-36.1,8.8-50c2.1-12.5,3.8-50,4.8-80.9c0.5-15.7,4.5-30,7.5-40.5
	c1.5-5.4,2.7-9.6,3-12.4c0.8-8.3,8.3-89.8,8.4-90.6c0-0.2,0.2-0.4,0.5-0.4c0.2,0,0.4,0.2,0.4,0.5c-0.1,0.8-7.6,82.3-8.4,90.6
	c-0.3,2.9-1.5,7.2-3,12.6c-3,10.4-7,24.7-7.5,40.3c-0.3,10.7-2.1,64.9-4.8,81c-2.3,13.9-8.7,49.6-8.8,50
	C112.8,695.8,112.6,695.9,112.4,695.9L112.4,695.9z"/>
<path class="st13" d="M407.6,236.3c0,0-2.4-10.7-18.3-15s-36.2,4.6-43.8,8.7c-7.6,4-43.3,78.5-44.6,92.4
	c-1.3,13.8,19,14.5,44.8,18.3c25.9,3.8,66-7.6,67.4-29.9C414.4,288.5,407.6,236.3,407.6,236.3L407.6,236.3z"/>
<path class="st14" d="M318.2,721c-0.3-1.5-2.4-3.9-6.1-4.4s-5.4,3-5.4,3l2.5-13.3l20.4,2.6c0,0-2.6,9.1-2.2,11.7
	c0,0.3,0.1,0.5,0.2,0.8c-2.4,1.1-7.1,3.1-9.1,2.7C315.7,723.6,318.5,722.6,318.2,721z"/>
<path class="st9" d="M280,729.3c6.9-2.5,26.7-9.7,26.7-9.7s1.7-3.5,5.4-3s5.8,2.9,6.1,4.4c0.3,1.5-2.5,2.6,0.3,3.1
	c2.1,0.4,6.7-1.6,9.1-2.7c0.9,2.7,3.7,6.9,2.8,11.1c-1,4.6-43.8,20.3-54.2,15.2C265.8,742.7,273.1,731.8,280,729.3L280,729.3z"/>
<path class="st13" d="M281.3,743.5c-4,0-7.1-0.8-9.3-2.6c-0.2-0.2-0.2-0.4-0.1-0.6c0.2-0.2,0.4-0.2,0.6-0.1
	c4.3,3.5,12.7,2.7,24.2,0.3s33.2-12.1,33.5-12.2c0.2-0.1,0.5,0,0.6,0.2s0,0.5-0.2,0.6s-22,9.9-33.7,12.3
	C290.8,742.7,285.5,743.5,281.3,743.5z"/>
<path class="st14" d="M439.3,721c0.3-1.5,2.4-3.9,6.1-4.4s5.4,3,5.4,3l-2.5-13.3l-20.4,2.6c0,0,2.6,9.1,2.2,11.7
	c0,0.3-0.1,0.5-0.2,0.8c2.4,1.1,7.1,3.1,9.1,2.7C441.8,723.6,439,722.6,439.3,721z"/>
<path class="st9" d="M477.5,729.3c-6.9-2.5-26.7-9.7-26.7-9.7s-1.7-3.5-5.4-3s-5.8,2.9-6.1,4.4c-0.3,1.5,2.5,2.6-0.3,3.1
	c-2.1,0.4-6.7-1.6-9.1-2.7c-0.9,2.7-3.7,6.9-2.8,11.1c1,4.6,43.8,20.3,54.2,15.2C491.7,742.7,484.4,731.8,477.5,729.3L477.5,729.3z"
	/>
<path class="st13" d="M476.2,743.5c-4.2,0-9.4-0.8-15.6-2.1c-11.6-2.4-33.4-12.2-33.7-12.3c-0.2-0.1-0.3-0.4-0.2-0.6
	c0.1-0.2,0.4-0.3,0.6-0.2s21.9,9.8,33.5,12.2c15.8,3.3,21.1,2.3,24.2-0.3c0.2-0.2,0.5-0.1,0.6,0.1c0.2,0.2,0.1,0.5-0.1,0.6
	C483.3,742.8,480.2,743.5,476.2,743.5z"/>
<path class="st9" d="M372.6,157c0,0-14.7-3.2-21,3.2c-10.5,10.7-11.8,45.2-2.3,52.1s30.1,1,32.8,0.1
	C384.9,211.6,372.6,157,372.6,157z"/>
<path class="st15" d="M401,230.6c0,0,16.2,12.1,25.7,26.9s33.7,55.5,33.7,55.5s32-58.7,45.8-58.2s24.6,4.1,27.9,10.3
	c3.4,6.2-28.7,92.9-54.8,112.1c-26.1,19.1-59.1-26.5-64.5-48.8C408.4,302.1,401,230.6,401,230.6L401,230.6z"/>
<path class="st6" d="M534.1,265.1c-3.4-6.2-14.1-9.8-27.9-10.3c-0.8,0-1.7,0.1-2.6,0.5c-2.3,1.7,1.8,7.3,9.3,10.9s16.5,3.4,19.2,2.4
	c1-0.3,1.7-1.1,2.2-2C534.3,265.9,534.3,265.4,534.1,265.1z M330.4,353.4c0,0-23.2,41-26.9,82.5c-1.1,12.7,1.4,272.7,1.4,272.7
	s8.4,7.9,29,4.8c2-0.3,35.9-246.7,38.3-246.9c2.5-0.2,48.7,246,51.5,246.9c18.9,6,30.5-2.9,30.5-2.9S424,351.7,419.6,355.4
	L330.4,353.4L330.4,353.4z"/>
<path class="st7" d="M367.9,470.5c-0.1,0-0.1,0-0.2-0.1c-0.2-0.1-0.2-0.3-0.1-0.5c2.6-4.2,8.3-8.8,17-13.7
	c6.5-3.6,12.3-6.1,12.3-6.1c0.2-0.1,0.4,0,0.5,0.2s0,0.4-0.2,0.5s-23,9.8-29,19.5C368.2,470.4,368.1,470.5,367.9,470.5L367.9,470.5z
	"/>
<path class="st7" d="M375.2,464.9c-0.2,0-0.3-0.1-0.4-0.3c-0.1-0.2,0.1-0.4,0.3-0.5c0.9-0.3,23.1-6.4,32.2-6.4c4.7,0,6.9-1.5,7-2.9
	c0-1-1.1-2-3.3-2.1c-0.2,0-0.4-0.2-0.4-0.4s0.2-0.4,0.4-0.4c2.8,0.1,4.1,1.6,4,2.9c0,1.8-2.5,3.6-7.7,3.6c-9,0-31.8,6.3-32,6.4
	C375.3,464.9,375.2,464.9,375.2,464.9L375.2,464.9z"/>
<path class="st15" d="M417.6,249.4c-2-5.9-13.8-18.5-23.6-23.3c-16-7.9-43.2,6.8-51.7,14.6c-4.5,4.2-20,28.5-36.1,84.8
	c-20.4,71.2-10.8,131.9-10.8,131.9s131.6-1.9,137.3-4.5c8.2-3.7-2.5-113.3-2.5-113.3S429,282.2,417.6,249.4L417.6,249.4z"/>
<path class="st16" d="M360.7,188l-0.8,2.4h1.6l0.4-2.2L360.7,188z"/>
<path class="st14" d="M389,232.6c3.7-2,4.9-4.4,5.1-6.5c-2.5-1.6-4.5-3.6-6.7-8.3c-4.5-9.5-19.2-15-19.2-15s6.1,11.1,5,16.3
	c-0.6,2.7-2.5,5.1-5.2,7.5C371.4,229.2,382,236.4,389,232.6L389,232.6z"/>
<path class="st6" d="M382.2,219.9c-5.7-0.8-8.9-6.1-8.9-6.1l12.4,1.3c0.6,0.9,1.2,1.8,1.7,2.8c0.4,0.8,0.8,1.6,1.2,2.3
	C387.2,220.3,385.1,220.3,382.2,219.9L382.2,219.9z"/>
<path class="st14" d="M364,200.4c0,0-2.5,0.5-4.9-1.5c-1.9-1.6-2.3-6.9-0.6-8.7c1.6-1.8,3.9-1.9,4.4-2c0.5-0.2-2.3-8.7,0.3-14.5
	c2.6-5.8,7.6-9,16.8-8.9c9.2,0.1,12,2.4,15.2,6.1c3.2,3.7,3.9,11.7,4.5,15.4c0.5,3.8,1.5,4.9,2.3,6.9c1.9,4.6,2.7,7.9,1.6,13.3
	s-6.4,11-15.3,11.4S367.9,214.2,364,200.4z"/>
<path class="st6" d="M390.2,198.8c-0.2,0-0.4-0.2-0.5-0.4c0-0.3,0.2-0.5,0.4-0.5c1.1-0.1,2-0.7,2.4-1.5c0.4-0.9,0.2-2.1-0.7-3.4
	c-2-2.9-3-8.9-3-10c0-1,0.5-1.7,1.5-2.2c2.4-1.2,6.9-0.8,7.8-0.1c0.2,0.1,0.3,0.4,0.1,0.6c-0.1,0.2-0.4,0.3-0.6,0.1
	c-0.6-0.4-4.8-0.9-6.8,0.2c-0.7,0.4-1,0.8-1,1.4c0,1,0.9,6.8,2.8,9.5c1.1,1.5,1.3,3.1,0.8,4.3C392.8,197.9,391.7,198.6,390.2,198.8
	L390.2,198.8z M373.9,184.9c-0.1,0-0.2,0-0.3-0.1c-0.2-0.2-0.2-0.5,0-0.6c0.1-0.1,5.7-6,11.1-2.8c0.2,0.1,0.3,0.4,0.2,0.6
	c-0.1,0.2-0.4,0.3-0.6,0.2c-4.8-2.8-9.9,2.6-9.9,2.7L373.9,184.9L373.9,184.9z M375.9,189.6h-0.2c-0.2-0.1-0.3-0.4-0.2-0.6
	c0-0.1,0.9-2,3.6-2.2c2.6-0.2,3.4,0.4,3.6,0.9c0.1,0.2-0.1,0.5-0.3,0.6c-0.2,0.1-0.5-0.1-0.6-0.3c0,0-0.3-0.5-2.6-0.3
	c-2.1,0.2-2.8,1.6-2.8,1.6C376.2,189.5,376.1,189.6,375.9,189.6z"/>
<path class="st6" d="M392.2,187.7c-0.1,0-0.2,0-0.3-0.1c-0.2-0.2-0.2-0.4-0.1-0.6c0.1-0.1,1.7-2,3.6-2.2c1.7-0.2,2.6,1,2.9,1.7
	c0.1,0.2,0,0.5-0.3,0.6c-0.2,0.1-0.5,0-0.6-0.3c0-0.1-0.5-1.3-1.9-1.1c-1.5,0.2-3,1.9-3,1.9C392.4,187.6,392.3,187.7,392.2,187.7
	L392.2,187.7z"/>
<path class="st17" d="M381.1,193.2c0,0-5.6,0.6-6.2,3s5.6,1.7,8.1,0.1C385.5,194.7,382.4,193,381.1,193.2z M400.7,190.3
	c0,0-5.6,0-6.5,2.3s5.4,2.3,8.1,0.9S402.1,190.2,400.7,190.3z"/>
<path class="st9" d="M389.3,170.6c0,0-11.2,17.4-26.5,17.6c0,0-6.8-11.9-6.2-18.7c0.6-6.8,6.9-11.9,15.3-12.5
	S389.3,170.6,389.3,170.6L389.3,170.6z"/>
<path class="st9" d="M389.3,170.6c0,0,7.7,2.9,8.5,4.7c0,0,2.9-9.8-6.5-17.4c-9.4-7.7-17.6-1.6-20.9,0.8
	C367.1,161.1,389.3,170.6,389.3,170.6z"/>
<circle class="st7" cx="362.1" cy="199.4" r="2.6"/>
<path class="st15" d="M359.5,230c0,0-48.2,17.5-78.9,37.8c-18.2,12-36.2,30.3-39.9,50.1c-7.3,39.2,33.1,108,54.1,108
	c8.7,0,19.1-7.2,17.5-20.4c-2.3-19.7-14.1-67.8-19.1-82.6c1.7-2.4,19.9-22.6,60.1-68.2C356.4,251.4,359.5,230,359.5,230L359.5,230z"
	/>
<path class="st6" d="M377,188.3c0,0,0.3,3.8,2.2,2.9c1.9-0.9,0.9-4.2,0-4C378.2,187.4,377.1,187.4,377,188.3z M393.4,186.3
	c0,0,0.3,3.8,2.2,2.9c1.9-0.9,0.9-4.2,0-4C394.6,185.4,393.6,185.5,393.4,186.3z"/>
<path class="st7" d="M383.6,200.4c0,0,10.8-0.2,13.6-1.5c0,0,1.2,4.3-3.7,5.5C388.5,205.5,384.9,203,383.6,200.4z"/>
<path class="st13" d="M403.5,179.9c-1-0.3-4.2,0.1-7.8,1.5c-3,1.2-4.9,3.3-5.6,3.8c-0.8,0.5-1.4,0.7-2.9,0.3s-5.8-1.6-8-2
	c-2.2-0.3-8-0.1-9.6,0.4c-0.9,0.3-1,0.6-0.9,0.8c0.2,0.4,0.3,0.7,0.3,1.1c0.3,2.7,3,7.4,5.8,9.4c3.1,2.2,7.5,1.3,9.3,0
	c1.8-1.2,3.6-4.6,3.8-5.5c0.3-0.9,0.6-1.3,1.7-0.7c1,0.6,0.9,2.6,3.9,4.5c2.9,1.7,5.1,0.6,7.3-1.7s3.4-7.6,3.5-8.8
	S404.5,180.3,403.5,179.9L403.5,179.9z M386.6,189.5c-1.4,4.6-4.9,6.5-8.9,5.5c-4.2-1-4.9-3.6-5.9-5.9c-1-2.3-1.2-4,1.1-4.3
	c2.3-0.3,10.9,0.7,12.5,1.6c0.6,0.3,1,0.8,1.2,1.3C386.8,188.3,386.8,188.9,386.6,189.5L386.6,189.5z M402.4,185.3
	c-0.4,2.4-0.4,5.2-4,7.1c-3.5,1.9-4.7,0.6-7.2-3.5c-0.3-0.5-0.5-1.1-0.4-1.8c0.1-0.5,0.3-1,0.8-1.5c1.2-1.2,6.5-4,8.7-4.3
	C402.5,181.1,402.8,182.9,402.4,185.3z"/>
<path class="st13" d="M369,184l-8.3,4l0.9,0.4l8.4-2L369,184z"/>
<path class="st14" d="M508.9,261.4c0,0,11.8-14.3,13.4-17.2c1.6-2.8,3.6-6.9,5.7-10.2c2.1-3.3,2.1-4.3,4.3-7.8
	c2.1-3.5,4.7,0.8,3.6,4.3c-1.2,3.4-2.4,4.6-2.5,7.2c-0.1,2.6,14.1,2.3,17,2c2.8-0.3,13.4-3.5,12.7-1s-8.1,4.8-8.1,4.8
	s8.5-1.4,9.6,0.4c1,1.8-0.4,2.8-0.4,2.8s1.2,0.2,1,1.7s-10.4,3.7-10.4,3.7s6.1-1.1,6.3,1s-18.9,5.1-20.3,5.2c-1.4,0.1-8.5,0.9-9,1.3
	s-6,8.5-9.3,8.4C513.8,267.5,508.9,261.4,508.9,261.4L508.9,261.4z"/>
<path class="st18" d="M582,176.7h30.6v76H582V176.7z"/>
<path class="st13" d="M569.4,140.6h-41.8l58.6,38.2H616l3-5.7L569.4,140.6z"/>
<path class="st19" d="M582,252.7H477V171l52.5-27.6L582,171V252.7z"/>
<path class="st13" d="M589.2,173.1l-61.6-32.5l-61.5,32.5l3,5.7l58.5-30.8l58.6,30.8L589.2,173.1z"/>
<path class="st20" d="M495.5,187.4h32.2v65.3h-32.2V187.4z"/>
<path class="st21" d="M541.6,187.4h27.1v35.7h-27.1V187.4z"/>
<path class="st19" d="M554.2,187.4h2v35.7h-2V187.4z"/>
<path class="st19" d="M568.8,204.2v2h-27.1v-2H568.8z"/>
<path class="st22" d="M588.5,187.4H606v35.7h-17.5V187.4z"/>
<path class="st18" d="M596.6,187.4h1.3v35.7h-1.3V187.4z"/>
<path class="st18" d="M605.9,204.2v2h-17.5v-2H605.9z"/>
<path class="st12" d="M495.5,187.4h3.7v65.3h-3.7V187.4z"/>
<path class="st6" d="M499.2,187.4h2.7v65.3h-2.7V187.4z"/>
<path class="st6" d="M499.2,187.4h28.4v2.1h-28.4L499.2,187.4z M477,177.9l54.2-28l-3.6-1.9L477,174.7L477,177.9z"/>
<path class="st7" d="M524.2,210.9h1.7v14.9h-1.7V210.9z"/>
<path class="st6" d="M586.2,178.8l26.4,3.9v-3.9H586.2z"/>
<path class="st19" d="M567.8,150.8l12.9,6.8v-28.7h-12.9V150.8z"/>
<path class="st18" d="M580.7,128.9h9.7v28.6h-9.7V128.9z"/>
<path class="st6" d="M619,173.4h-30L527.4,141c-0.2-0.1-0.2-0.3-0.1-0.4c0.1-0.2,0.3-0.2,0.4-0.1l61.5,32.4H619
	c0.2,0,0.3,0.1,0.3,0.3S619.2,173.4,619,173.4z"/>
<path class="st14" d="M305,414.3c0,0,6.3-3.6,9.9-6.7s4.8-6,8.4-5.4c3.7,0.5,13.6,0,12.5,1.6c-1.1,1.7-10.3,2.3-10.3,2.3
	s12.5,1.5,12.1,3.8s-1.8,2.2-1.8,2.2s2,1.9,1.3,2.8s-10.8,1.3-10.8,1.3s8.2,2.8,7.4,4.7c-0.7,1.8-9.6,0.1-9.6,0.1s-7.4,4.9-12.2,5
	c-4.8,0.1-9.3-1.9-10.2-4C300.9,419.8,303.3,414.5,305,414.3L305,414.3z"/>
<path class="st14" d="M308.2,412.3c0,0,3.6-7.2,4-10s-0.5-6.3,1.3-6.4s3.1,5.4,2.9,7s0.7,4.1-0.7,6.5
	C314.2,411.8,308.7,413.5,308.2,412.3L308.2,412.3z"/>
<path class="st13" d="M409.9,301.4c0.1-1.1,0.1-6.4-0.4-9.3c-0.6-2.9-17.1-42.6-17.1-42.6s11-15.8,11-18c-0.1-2.1-8.8-6.4-10.5-7.7
	s-6.9,20-6.9,20L369.7,225c-7.8-4.3-19.4,7.3-19.8,8.6c-0.4,1.2,23.4,16.4,23.4,16.4s-8.7,28-10.6,36.6s0.4,15.5,0.4,18.4
	s-0.4,8.3-0.4,11.4s8.1,2.7,14.5,2.9c6.4,0.2,2.9-9,2.9-12s3-6.8,3.8-9.8s0.7-34.8,0.7-34.8s4.8,33.4,6.5,37.1s5.7,7,6.3,7.3
	c0.6,0.2,0.8,4.8,1.9,6.1c1.1,1.3,10.3-3.8,11.5-5.2C411.9,306.5,409.8,302.5,409.9,301.4z"/>
<path class="st17" d="M381.6,201.9c-0.1,0-0.1,0-0.2-0.1c-0.2-0.1-0.2-0.3-0.1-0.5c1.5-2.1,4-3.4,4.1-3.5c0.2-0.1,0.4,0,0.4,0.2
	c0.1,0.2,0,0.4-0.1,0.4c0,0-2.5,1.2-3.8,3.2C381.8,201.8,381.7,201.9,381.6,201.9L381.6,201.9z M399.6,199c-0.1,0-0.2-0.1-0.3-0.2
	c-0.8-1.3-3.7-1.6-3.7-1.6c-0.2,0-0.3-0.2-0.3-0.4s0.2-0.3,0.4-0.3c0.1,0,3.2,0.3,4.2,1.9c0.1,0.2,0,0.4-0.1,0.5
	S399.7,199,399.6,199z"/>
<path class="st6" d="M314.7,299c-0.1,0-0.2-0.1-0.3-0.1c-0.2-0.2-0.2-0.5,0-0.6c21.2-19.4,38.1-37.1,38.3-37.2
	c0.2-0.2,0.5-0.2,0.6,0c0.2,0.2,0.2,0.5,0,0.6c-0.2,0.2-17.1,17.9-38.3,37.3C314.9,298.9,314.8,299,314.7,299L314.7,299z M254,337.8
	c-0.2,0-0.3-0.1-0.4-0.2c-0.1-0.2,0-0.5,0.2-0.6c0.1,0,8.6-4.7,19.7-8.1c4-1.2,7.3-1.8,9.5-2.2c1-0.2,1.9-0.4,2.4-0.5
	c-0.7-0.3-2.3-0.8-3-1c-2.7-0.9-8-1.1-13.1-1.3c-9.2-0.4-14.8-0.8-15.7-3c-0.3-0.8,0.1-1.7,1.1-2.7c6.8-6.6,37.3,4.1,38.6,4.5
	c0.2,0.1,0.4,0.3,0.3,0.6c-0.1,0.2-0.3,0.4-0.6,0.3c-0.3-0.1-31.3-10.9-37.7-4.7c-0.5,0.5-1.1,1.2-0.9,1.7c0.7,1.8,8.5,2.1,14.8,2.4
	c5.1,0.2,10.5,0.4,13.3,1.3c3.4,1.1,4,1.4,4,2c0,0.7-0.8,0.8-3.5,1.3c-2.2,0.4-5.4,1-9.4,2.2C262.6,333.1,254.2,337.7,254,337.8
	L254,337.8L254,337.8z M432.2,360.9c-0.2,0-0.4-0.2-0.5-0.4c0-0.2-1.9-21.3-4.4-58.8c-2.6-37.4-6.4-47.8-6.4-47.9
	c-0.1-0.2,0-0.5,0.3-0.6c0.2-0.1,0.5,0,0.6,0.3c0.2,0.4,3.9,10.5,6.5,48.1c2.6,37.5,4.4,58.6,4.4,58.8
	C432.7,360.7,432.5,360.9,432.2,360.9z M453.5,369.9c-0.2,0-0.5-0.1-0.8-0.3c-2.1-1.5-5.1-9.1-3.3-18.1c1.8-9.2,3.5-19,4.4-24.2
	c-2.8,6.6-8.7,20.8-9.5,26.2c0,0.2-0.3,0.4-0.5,0.4s-0.4-0.3-0.4-0.5c1.1-7.1,10.6-28.9,11-29.8c0.1-0.2,0.3-0.3,0.5-0.3
	c0.2,0.1,0.4,0.3,0.3,0.5c0,0.1-2.3,14.7-5,27.9c-1.8,9.2,1.4,16.1,2.9,17.2c0.2,0.1,0.3,0.2,0.4,0.1c0.2-0.1,0.5-0.9,0.3-2.9
	c-0.9-8.9,5.8-51.4,6-53.2c0-0.2,0.3-0.4,0.5-0.4s0.4,0.3,0.4,0.5c-0.1,0.4-6.9,44.2-6,53c0.2,2.1,0,3.3-0.7,3.8
	C453.9,369.9,453.7,369.9,453.5,369.9L453.5,369.9z M310.9,396.3c-0.3,0-0.5-0.2-0.5-0.5c-0.1-13.8-10-45.3-10.1-45.6
	c-0.1-0.2,0.1-0.5,0.3-0.6c0.2-0.1,0.5,0.1,0.6,0.3c0.1,0.3,10,31.9,10.1,45.9C311.3,396.1,311.1,396.3,310.9,396.3L310.9,396.3z"/>
<path class="st12" d="M210.7,139.3c0,0,1.8-1.5,3.1-0.2s2.1,9,0.5,9.4C212.6,148.9,209.1,141.5,210.7,139.3z"/>
<path class="st12" d="M168.3,147.9c1.4-0.7,2.9,0.6,3.6-1.4c0.2-0.5,0-1.1-0.3-2c0,0-4.3-9.5,0.9-17s23.7-11,30.4-5
	s7.4,14.9,9.5,19.4c0.9,2.1,6.3,15.1,6.6,18.3c0.7,7.1-5.9,15-17,18.1c-10.7,3-18.9-1.4-21.9-5.4c-1.5-1.9-2.7-7.7-4.1-13.3
	c-2,0.5-5.3,0.8-6.9-0.9C166.6,156.2,164.7,149.9,168.3,147.9L168.3,147.9z"/>
<path class="st14" d="M189.1,152.1c0,0,5.9-2.6,7.9-0.7c1.9,1.8-4.7,4.7-8.1,4.6C185.4,156,187.6,152.7,189.1,152.1L189.1,152.1z"/>
<path class="st23" d="M179.9,172.9c-1.3-1.7-2.3-6.1-3.5-10.9c0.3-2.7,0.6-5.1,0.4-6.3c-0.3-2.5-3.2-6.3-0.3-6.9
	c2.8-0.6,8.9,11.3,10.6,12.3c1.7,1,3.5,2.7,5.7,1s1.4-4.2,2.3-5.3c1-1.1,6.3-1.9,7.5-1.9c1.2-0.1,1.1-0.4,2.9-1.3
	c1.7-0.9,7.2,2.5,7.9,1s-1.4-7.3-0.2-8.9c0.1-0.2,0.3-0.3,0.4-0.4c3.2,4,5.6,8.8,6.7,15.7c1.8,11-2.6,15.1-13.7,18.2
	C196.1,182.3,182.9,176.9,179.9,172.9L179.9,172.9z"/>
<path class="st6" d="M186,142.8c-0.2,0-0.3-0.1-0.4-0.3c-0.1-0.2,0-0.5,0.2-0.7c0.2-0.1,3.7-1.9,6.3-1.9c0.3,0,0.5,0.2,0.5,0.5
	s-0.2,0.5-0.5,0.5c-2.4,0-5.8,1.8-5.9,1.8C186.2,142.8,186.1,142.8,186,142.8L186,142.8z M187.1,148c-0.1,0-0.3,0-0.3-0.1
	c-0.2-0.2-0.2-0.5,0-0.7c0.1-0.1,1.4-1.4,2.6-1.8c2.4-0.9,5-0.9,5.1-0.9c0.3,0,0.5,0.2,0.5,0.5s-0.2,0.5-0.5,0.5s-2.6,0-4.7,0.8
	c-0.8,0.3-1.9,1.2-2.2,1.6C187.3,148,187.2,148,187.1,148L187.1,148z"/>
<path class="st6" d="M191.4,145.4c0,0,1.6,0.1,1.4,2.4c-0.2,2.3-2,2.5-3.1,1.6c-1-0.9-1.4-2.2-1-2.8
	C189.1,146.1,189.8,145.1,191.4,145.4L191.4,145.4z M203.6,144c-0.1,0-0.3-0.1-0.4-0.2c-0.2-0.2-0.2-0.5,0-0.7
	c0.1-0.1,2.9-2.5,6.8-0.7c0.2,0.1,0.4,0.4,0.2,0.6c-0.1,0.2-0.4,0.4-0.6,0.2c-3.3-1.5-5.7,0.5-5.8,0.6
	C203.9,144,203.7,144,203.6,144L203.6,144z"/>
<path class="st6" d="M205.5,142.9c0,0-1.2,0.7-0.1,2.5c1,1.8,2.5,1.4,3,0.2c0.4-1.1,0.3-2.4-0.4-2.7
	C207.6,142.7,206.7,142.1,205.5,142.9z"/>
<path class="st6" d="M202.6,155.5c-0.5,0-1-0.1-1.7-0.2c-0.3-0.1-0.4-0.3-0.4-0.6c0.1-0.3,0.3-0.4,0.6-0.4c3.3,0.7,4-1,4.1-1.1
	c0.4-0.8,0.5-1.4,0.3-1.8c-0.3-0.6-1.4-0.9-2.2-1.1c-0.6-0.1-1-0.2-1.4-0.4c-1.5-0.9-2.1-3.4-2-5.6c0.2-5.1,0.2-5.4,2.2-5.8
	c0.2,0,0.4-0.1,0.6-0.1c2.3-0.5,6.6-0.9,6.8-0.9c0.3,0,0.5,0.2,0.5,0.4c0,0.3-0.2,0.5-0.4,0.5c0,0-4.5,0.3-6.6,0.8
	c-0.2,0.1-0.4,0.1-0.6,0.1c-0.9,0.2-1,0.2-1.1,0.6c-0.2,0.6-0.2,1.9-0.3,4.2c-0.1,2.2,0.6,4.2,1.5,4.7c0.2,0.1,0.7,0.2,1.1,0.3
	c1.1,0.2,2.4,0.5,2.9,1.6c0.3,0.7,0.2,1.6-0.3,2.6C206,153.9,205.2,155.5,202.6,155.5L202.6,155.5z"/>
<path class="st14" d="M208.4,147.2c0,0,4.5-2,5.8-0.2s-3.7,4.1-6.2,3.8C205.6,150.6,207.3,147.6,208.4,147.2z"/>
<path class="st23" d="M197.1,123.4c0,0,0.6,1.9-3.6,2.3c-4.2,0.4-10.1-0.4-13,1.6s-3,4.7-4.8,7c-1.7,2.3,0.2,11.2,0.4,12.2
	s2.4,2.9,0.9,3.8c-1.5,1-3.9-0.8-4.7-1.4c-0.8-0.6-2.1-1.2-3.1-0.9c-1,0.2-2-2.4-2.6-3.9s-1-12.5-1.5-13.6c-0.6-1.1-1.7-9.3,3.6-12
	s18.7-4.8,22-3C194.1,117.3,198.3,122.3,197.1,123.4L197.1,123.4z"/>
<path class="st23" d="M190.8,116.6c0,0,5.6-2.4,8.6-0.9s8,8.3,8.7,11.5c0.6,3.2,2.4,5.9,2.6,7.2c0.2,1.3,1.1,4.8,1.4,6.7
	c0.3,2-3.1-5.6-4-6.7c-0.9-1.1-5.4-8.4-7.2-10.2c-1.9-1.9-4.3-2-4.9-1.1C195.3,123.9,189.2,116.8,190.8,116.6L190.8,116.6z"/>
<path class="st7" d="M196.9,159.2c0,0,6,0.2,12.8-3.6c0,0,2.4,3.2-2.5,5.9S196.9,159.2,196.9,159.2L196.9,159.2z"/>
<path class="st11" d="M153.8,341.4c16.5-18.7,21.1-82.3,21.1-82.3l-30.5,29.2c-0.2,1.4-0.5,2.8-0.7,4.2
	c-3.7,22.3-7.9,44.9-10.2,64.3C138.7,354.7,145.9,350.4,153.8,341.4L153.8,341.4z"/>
<path class="st8" d="M171.7,198.6l-54.4,73.1c0,0-32.6-45-48-62.4c-11.8-13.3-36.6,10.3-34,18.9c4,13.4,37.3,116.6,84.7,114.8
	c42.2-1.6,60.2-105.7,61.9-116.5C183.5,215.8,171.7,198.6,171.7,198.6z"/>
<path class="st12" d="M68.8,202.1c0,0-1.2-3.4-4.3-6.2c-2.5-2.3-2.9-4.1-5.2-5.4c-4.6-2.6-12.4,0.1-14.7,0.1c-2.3,0-3.6-0.2-5.2,1
	s-1.3,1.4-3.5,2.3c-2.2,0.8-2.2,5.4-2,7.5s7,8.8,7.9,11.6s2.4,9.5,6.3,9.9c3.8,0.4,11.6-3.2,12.6-3.7
	C61.8,218.6,68.8,202.1,68.8,202.1L68.8,202.1z"/>
<path class="st7" d="M52.9,215.7c-0.3,0-0.7-0.1-0.9-0.4c-0.5-0.5-0.5-1.4,0-1.9c0.1-0.1,1.6-1.6,1.7-4.2c0-0.7,0.7-1.3,1.4-1.2
	c0.7,0,1.3,0.7,1.2,1.4c-0.2,3.7-2.4,5.9-2.5,6C53.5,215.6,53.2,215.7,52.9,215.7L52.9,215.7z M52.4,222.7c-1.4,0-2.5,1.1-2.5,2.5
	v25.9c0,1.4,1.1,2.5,2.5,2.5s2.5-1.1,2.5-2.5v-25.9C54.9,223.8,53.8,222.7,52.4,222.7z"/>
<path class="st6" d="M57.2,211.6h-9.7c-1.6,0-2.9,1.3-2.9,2.9v8.2c0,1.6,1.3,2.9,2.9,2.9h9.7c1.6,0,2.9-1.3,2.9-2.9v-8.2
	C60.2,213,58.8,211.6,57.2,211.6z M52.4,216.3c-1.1,0-1.9-0.9-1.9-1.9c0-1.1,0.9-1.9,1.9-1.9c1.1,0,1.9,0.9,1.9,1.9
	C54.3,215.5,53.4,216.3,52.4,216.3z"/>
<path class="st7" d="M52.1,215.7c-0.5,0-1-0.3-1.2-0.7c-0.5-1-4.6-9.5-2.6-13.6c0.5-1.1,1.5-1.9,2.7-2.2c1.1-0.3,2.2,0,3.1,0.8
	c2.2,1.9,2.6,6.6,2.2,10.1c-0.1,0.7-0.8,1.2-1.5,1.1c-0.7-0.1-1.2-0.8-1.1-1.5c0.4-3.2-0.2-6.7-1.3-7.8c-0.2-0.2-0.4-0.3-0.7-0.2
	c-0.5,0.1-0.7,0.3-0.9,0.7c-1,2.2,1.1,8.1,2.6,11.3c0.3,0.7,0.1,1.4-0.6,1.8C52.5,215.7,52.3,215.7,52.1,215.7L52.1,215.7z"/>
<path class="st12" d="M55.9,200c0,0,10.6-5.2,12.5-3.9s1.9,6.8-0.5,8c-5.2,2.6-11,2.6-15,1.5S52.6,200.1,55.9,200z"/>
<path class="st12" d="M62.9,198.3c0,0-0.6-11.4-5.5-12.7s-6.7,1.4-6.9,3.4s-1.2,11.5,0.2,13.6c1.4,2,4.3-0.3,5.1-2.5
	s1.2-4.4,1.2-4.4s-0.8,4.7,2,5.2C61.7,201.3,62.9,198.3,62.9,198.3z"/>
<path class="st6" d="M208.6,150.4c-1,0-2-0.3-2.9-0.8c-1.4-0.8-2.4-2.2-2.9-3.8c-0.8-3.3,1.1-6.7,4.2-7.6c1.5-0.4,3.1-0.2,4.4,0.6
	c1.4,0.8,2.4,2.2,2.9,3.8c0.8,3.3-1.1,6.7-4.2,7.6C209.6,150.4,209.1,150.4,208.6,150.4z M208.6,139.1c-0.4,0-0.8,0.1-1.2,0.2
	c-2.6,0.7-4.2,3.5-3.5,6.3c0.3,1.4,1.2,2.5,2.4,3.2c1.1,0.6,2.4,0.8,3.6,0.5c2.6-0.7,4.2-3.5,3.5-6.3c-0.3-1.4-1.2-2.5-2.4-3.2
	C210.2,139.3,209.4,139.1,208.6,139.1L208.6,139.1z M191.5,154.5c-1,0-2-0.3-2.9-0.8c-1.4-0.8-2.4-2.2-2.9-3.8
	c-0.8-3.3,1.1-6.7,4.2-7.6c1.5-0.4,3.1-0.2,4.4,0.6c1.4,0.8,2.4,2.2,2.9,3.8c0.8,3.3-1.1,6.7-4.2,7.6
	C192.5,154.4,192,154.5,191.5,154.5z M191.4,143.1c-0.4,0-0.8,0.1-1.2,0.2c-2.6,0.7-4.2,3.5-3.5,6.3c0.3,1.4,1.2,2.5,2.4,3.2
	c1.1,0.6,2.4,0.8,3.6,0.5c2.6-0.7,4.2-3.5,3.5-6.3c-0.3-1.4-1.2-2.5-2.4-3.2C193.1,143.3,192.3,143.1,191.4,143.1L191.4,143.1z"/>
<path class="st6" d="M196.7,147.4c-0.1,0-0.2,0-0.3-0.1c-0.3-0.2-0.3-0.5-0.2-0.7c0.1-0.1,2.1-3.4,7.1-2.1c0.3,0.1,0.5,0.4,0.4,0.7
	s-0.4,0.5-0.7,0.4c-4.2-1.1-5.9,1.6-6,1.6C197,147.3,196.9,147.4,196.7,147.4L196.7,147.4z M168.3,148.5c-0.3,0-0.5-0.2-0.5-0.5
	s0.2-0.6,0.5-0.6l18.1-1.7c0.3,0,0.6,0.2,0.6,0.5s-0.2,0.6-0.5,0.6L168.3,148.5L168.3,148.5z M132.3,336.4c-0.1,0-0.2,0-0.3-0.1
	c-0.5-0.2-1.3-0.6-1-13.2c0.7-29.9-14-50.8-14.2-51s-0.1-0.6,0.1-0.7c0.2-0.2,0.6-0.1,0.7,0.1c0.2,0.2,15,21.4,14.4,51.7
	c-0.2,7.7,0.1,10.6,0.3,11.7c1.1-3.2,2.7-18,0.6-26.1c-3.4-12.9-9.6-30.7-9.7-30.9c-0.1-0.3,0-0.5,0.3-0.7c0.2-0.1,0.5,0,0.7,0.2
	c0.4,0.6,9.8,15.1,12.1,23.1c0,0.1,0.1,0.2,0.1,0.3c-0.2-2.5-0.7-6.4-1.1-8.9c-0.1-0.3,0.1-0.6,0.4-0.6c0.3,0,0.6,0.1,0.6,0.4
	c0.3,1.5,0.7,4.3,0.9,6.8c0.5,5,0.2,5.1-0.3,5.2c-0.6,0.1-0.9-0.4-1.7-2.9c-1.6-5.4-6.5-13.9-9.5-18.9c2.1,6.1,5.8,17.6,8.2,26.6
	c2.3,8.6,0.5,26.5-1.2,27.8C132.6,336.3,132.4,336.4,132.3,336.4L132.3,336.4z M247.1,699.4c-0.2,0-0.4-0.2-0.4-0.4
	s-0.9-15.3-1.9-23.4c-0.3-2.5-0.6-7.2-0.9-13.3c-0.8-13.8-2.1-34.7-4.7-44.9c-2.1-8.1-1.5-10.2-0.8-12.9c0.6-2.1,1.3-4.8,0.8-11.5
	c-1.2-15.5-6.7-69-10.3-89.2c-3.5-20.1-9.2-77.2-9.3-77.8c0-0.2,0.2-0.5,0.4-0.5s0.5,0.2,0.5,0.4c0.1,0.6,5.7,57.7,9.2,77.7
	c3.6,20.2,9.1,73.7,10.3,89.3c0.5,6.8-0.2,9.5-0.8,11.7c-0.7,2.7-1.2,4.6,0.8,12.5c2.7,10.2,3.9,31.2,4.8,45.1
	c0.4,6,0.6,10.8,0.9,13.2c1,8.2,1.9,23.3,1.9,23.5C247.5,699.2,247.3,699.4,247.1,699.4L247.1,699.4z"/>
<path class="st14" d="M430.6,258.9c-0.2-1.6-1.7-2.3-1.7-2.3s1.2-2.6,0.5-3.9c-0.7-1.4-3.5-2.5-3.5-2.5s2-1.9,0.5-3.9
	c-1.6-2-4.9-3.4-4.9-3.4s1.1-3.3-2.6-6.3s-9,1.2-9,1.2s-7,7.4-4,8.8c3,1.4,9.2-3.4,9.2-3.4l-3,4c0,0-3,4.4-1.8,6.4s4.3,0.8,4.3,0.8
	s-1.9,2.5,0.3,4.3c2.2,1.8,4.4,0.8,4.4,0.8s-3,3.9,0.8,5.3C423.7,266.2,430.8,260.6,430.6,258.9L430.6,258.9z"/>
</svg>
