<svg version="1.1" id="Calque_1" xmlns="http://www.w3.org/2000/svg" x="0" y="0" viewBox="0 0 1172.3 878.7" style="enable-background:new 0 0 1172.3 878.7" xml:space="preserve"><style>.st2{fill:#d9d9da}.st3{fill:#efeff0}.st4{opacity:.2;fill:#62afbd;enable-background:new}.st5{fill:#9e9d98}.st6{fill:none}.st10{fill:#d6d5ca}.st11{fill:#0080ce}.st12{fill:#0086ff}.st13{fill:#4baff9}.st14{fill:#fffce8}.st15{fill:#ff1f4f}.st16{fill:#31a3f7}.st17{fill:#0586e5}.st18{fill:#1095f9}.st21{fill:#605e60}.st23{fill:#434c5b}.st24{fill:#002856}.st25{fill:#70696f}.st32{opacity:5.000000e-02;fill:#b9c4d6;enable-background:new}</style><g id="Section5"><g style="opacity:.5"><g style="opacity:.77"><path class="st2" d="M1283-2210.4H1162.3V-1913.1h132.6v-297.3zM862.8-2210.4v297.3h133.7v-297.3h-66.4zM1049.5-2210.4h-36.4v297.3h132.6v-297.3h-47.6z"/></g><path class="st3" d="M996.3-2210.3h-66.2l-66.9 66.9v119.3l133.1-133.1zM996.3-2108.6l-133.1 133.2v61.9h44.9l88.2-88.2zM1012.6-2210.3v36.8l36.9-36.8zM1145.7-2210.3h-47.6l-85.5 85.4v106.9l133.1-133.1zM1145.7-2073l-133.1 133.1v26.4h49.5l83.6-83.6zM1162-2210.3v42.9l42.9-42.9zM1295.1-2210.3H1283l-121 121v75.8l133.1-133.1zM1295.1-1988.9l-75.4 75.4h75.4zM1295.1-2086.1 1162-1953v39.5h25.3l107.8-107.8z"/></g><path class="st4" d="M1360.4-1775.6h-180.3c-2.8 0-5-2.2-5-5s2.2-5 5-5h180.3c2.8 0 5 2.2 5 5 0 2.7-2.2 5-5 5z"/><path class="st5" d="M1191.4-1853.4v53c0 12.2 8.2 22.1 18.2 22.1h112.1c10 0 18.2-9.9 18.2-22.1v-53c0-12.2-8.2-22.1-18.2-22.1h-112.1c-10 0-18.2 9.9-18.2 22.1z"/><path class="st6" d="M1234.4-1786.8h-26.8c-6.2 0-11.2-6.1-11.2-13.6v-22.7h34.1v22.7c0 5.1 1.5 9.8 3.9 13.6zM1230.5-1831.6h-34.1v-21.8c0-7.5 5-13.6 11.2-13.6h26.8c-2.4 3.7-3.9 8.4-3.9 13.6v21.8z"/><linearGradient id="SVGID_1_" gradientUnits="userSpaceOnUse" x1="1288.204" y1="-13658.015" x2="1235.816" y2="-13655.286" gradientTransform="matrix(1 0 0 -1 0 -15506)"><stop offset=".054" style="stop-color:#9e9d98"/><stop offset="1" style="stop-color:#7b7c7f"/></linearGradient><path d="M1306.3-1853.4v21.8h-75.8v-21.8c0-5.1 1.5-9.8 3.9-13.6h60.8c6.1 0 11.1 6.1 11.1 13.6z" style="fill:url(#SVGID_1_)"/><linearGradient id="SVGID_2_" gradientUnits="userSpaceOnUse" x1="1289.169" y1="-13702.035" x2="1236.8" y2="-13699.308" gradientTransform="matrix(1 0 0 -1 0 -15506)"><stop offset=".054" style="stop-color:#9e9d98"/><stop offset="1" style="stop-color:#7b7c7f"/></linearGradient><path d="M1306.3-1800.4c0 7.5-5 13.6-11.2 13.6h-60.8c-2.4-3.7-3.9-8.4-3.9-13.6v-22.7h75.8l.1 22.7z" style="fill:url(#SVGID_2_)"/><linearGradient id="SVGID_3_" gradientUnits="userSpaceOnUse" x1="1248.6" y1="-13679.1" x2="1339.8" y2="-13679.1" gradientTransform="matrix(1 0 0 -1 0 -15506)"><stop offset=".054" style="stop-color:#9e9d98"/><stop offset="1" style="stop-color:#cccbc4"/></linearGradient><path d="M1313.3-1800.4v-53c0-12.2-8.2-22.1-18.2-22.1h-46.5 73c10 0 18.2 9.9 18.2 22.1v53c0 12.2-8.2 22.1-18.2 22.1h-26.5c10.1-.1 18.2-9.9 18.2-22.1z" style="fill:url(#SVGID_3_)"/><path class="st10" d="M1207.6-1875.5h41.1c-5.8 0-11 3.4-14.3 8.5h-26.8c-6.2 0-11.2 6.1-11.2 13.6v21.8h34.1v8.5h-34.1v22.7c0 7.5 5 13.6 11.2 13.6h26.8c3.3 5.2 8.5 8.5 14.3 8.5h46.5-87.6c-10 0-18.2-9.9-18.2-22.1v-53c0-12.2 8.2-22.1 18.2-22.1z"/><path class="st10" d="M1234.4-1786.8h60.8c6.2 0 11.2-6.1 11.2-13.6v-22.7h-75.8v-8.5h75.8v-21.8c0-7.5-5-13.6-11.2-13.6h-60.8c3.3-5.2 8.5-8.5 14.3-8.5h46.5c10 0 18.2 9.9 18.2 22.1v53c0 12.2-8.1 22.1-18.1 22.1h-46.5c-5.9 0-11.1-3.4-14.4-8.5z"/><path class="st11" d="M1278.8-1847.8c2.4 0 4.5.8 6 2.2 1.5 1.4 2.5 3.2 2.5 5.3 0 4.2-3.8 7.5-8.5 7.5h-19.9l17-15h2.9z"/><path class="st12" d="M1221.8-1846.1v-1.7h54.1l-17 15.1h-37.1v-1.7h1.6v-11.7z"/><path class="st13" d="M1223.7-1846.1v11.7h-1.9v1.7h27.7c4.7 0 8.5-3.4 8.5-7.5 0-2.1-1-4-2.5-5.3-1.5-1.4-3.7-2.2-6-2.2h-27.7v1.7l1.9-.1z"/><path class="st14" d="M1223.4-1846.1v11.7h25.4c3.7 0 6.6-2.6 6.6-5.9 0-1.6-.7-3.1-1.9-4.1-1.2-1.1-2.9-1.7-4.7-1.7h-25.4z"/><path class="st15" d="M1246.7-1840.6h-3.7v4.2l1.8-1.6 1.9 1.6z"/><path class="st11" d="M1278.8-1862.5c2.4 0 4.5.8 6 2.2 1.5 1.4 2.5 3.2 2.5 5.3 0 4.2-3.8 7.5-8.5 7.5h-19.9l17-15h2.9z"/><path class="st12" d="M1221.8-1860.9v-1.6h54.1l-17 15h-37.1v-1.6h1.6v-11.8z"/><path class="st13" d="M1223.7-1860.9v11.7h-1.9v1.7h27.7c4.7 0 8.5-3.4 8.5-7.5 0-2.1-1-4-2.5-5.3-1.5-1.4-3.7-2.2-6-2.2h-27.7v1.7l1.9-.1z"/><path class="st14" d="M1223.4-1860.9v11.7h25.4c3.7 0 6.6-2.6 6.6-5.9 0-1.6-.7-3.1-1.9-4.1-1.2-1.1-2.9-1.7-4.7-1.7h-25.4z"/><path class="st15" d="M1238.1-1858.9h-3.7v4.2l1.8-1.6 1.9 1.6z"/><path class="st4" d="m617.7-1775.6 53.8 4.7 278.3-4.7-53.8-5.1z"/><path class="st5" d="m681.9-1805.6-10.4 34.9h4l11.7-34.9z"/><path class="st10" d="M695.5-1805.6h-8.3l-11.7 34.9h4.8z"/><path class="st5" d="m628.1-1810.2-10.4 34.8h4l11.7-34.8z"/><path class="st10" d="M641.7-1810.2h-8.3l-11.7 34.8h4.8z"/><path class="st5" d="m885.5-1815.3 10.4 34.9h-4l-11.7-34.9z"/><path class="st10" d="M871.9-1815.3h8.3l11.7 34.9h-4.8z"/><path class="st5" d="m939.3-1810.2 10.4 34.8h-4l-11.7-34.8z"/><path class="st10" d="M925.7-1810.2h8.3l11.7 34.8h-4.8z"/><path class="st16" d="M849-1978.1H635.5l29.1 130.3H885v-94.3c0-19.8-16.2-36-36-36z"/><path class="st12" d="M635.5-1978.1v130.3h29.1v-101.1c0-16.1-13-29.2-29.1-29.2zM954.8-1806.7v-94.3h-65.3c-14.8 0-26.8 12-26.8 26.8v76h83.5l8.6-8.5z"/><path class="st16" d="M954.8-1901v94.3c0 4.7-3.8 8.5-8.5 8.5H921v-69c0-18.7 15.1-33.8 33.8-33.8z"/><path class="st17" d="M705.5-1847.8h214.3c3.3 0 6 2.7 6 6v36.2H705.5v-42.2z"/><path class="st18" d="M705.5-1840.4h220.3v42.1H705.5z"/><path class="st18" d="M673.1-1901c18.7 0 33.8 15.1 33.8 33.8v69h-33.8V-1901z"/><path class="st12" d="M625.2-1798.2h48V-1901h-49.8c-5.6 0-10.1 4.5-10.1 10.1v80.9c0 6.5 5.3 11.8 11.9 11.8z"/><linearGradient id="SVGID_4_" gradientUnits="userSpaceOnUse" x1="258.325" y1="-2139.112" x2="272.889" y2="-2139.112" gradientTransform="rotate(17.235 370.682 458.69)"><stop offset="0" style="stop-color:#fddedc"/><stop offset=".974" style="stop-color:#fdbcb8"/></linearGradient><path d="M1048.1-2056.5c1-.8-.4-2.3-1.4-1.5-1.7 1.4-3.1 3.1-4.1 5l-1-.4c.3-2.9 1.4-5.6 3.4-8 .8-1-.9-2.1-1.7-1.1-2 2.4-3.2 5.3-3.6 8.3l-.9-.3c0-3.5 1.2-6.7 3.5-9.5.8-1-.9-2.1-1.7-1.1-2.3 2.8-3.6 6.2-3.8 9.8l-1.2-.5c.1-2.7 1.1-5.2 2.9-7.4.8-1-.9-2.1-1.7-1.1-2.2 2.7-3.3 6-3.2 9.5l-2.8 10.6 5.9 2.1 5.4-3 .6-1.6c.1-.1.2-.3.2-.5v-.2l1.7-4.8c.8-1.7 2-3.1 3.5-4.3z" style="fill:url(#SVGID_4_)"/><path class="st17" d="m1030.7-2044.4-36.1 30.1-32.5-42.8c-4.2-5.4-12.3-5.7-17-.7-4 4.4-3.9 11.2.3 15.4l44.3 52.2c1.6 1.8 4.4 1.8 5.9-.1l41-52-5.9-2.1z"/><linearGradient id="SVGID_5_" gradientUnits="userSpaceOnUse" x1="1743.951" y1="-2373.34" x2="1758.225" y2="-2373.34" gradientTransform="matrix(-1 0 0 1 2960.83 296.6)"><stop offset="0" style="stop-color:#fddedc"/><stop offset=".974" style="stop-color:#fdbcb8"/></linearGradient><path d="M1202.7-2083.5c-.5-1.2 1.4-1.9 1.9-.7.9 2.1 1.3 4.2 1.4 6.3l1.1.1c1.1-2.8 1.3-5.6.7-8.7-.3-1.3 1.8-1.5 2-.2.6 3.1.4 6.2-.6 9l.9.1c1.6-3.1 2-6.5 1.3-10-.3-1.3 1.8-1.5 2-.2.7 3.6.3 7.2-1.2 10.4l1.3.1c1.2-2.5 1.5-5.1.9-7.9-.3-1.3 1.8-1.5 2-.2.7 3.4.2 6.9-1.6 9.9l-2.4 10.7-6.2-.8-3.4-5.2.2-1.6v-.7l.7-5.1c.2-1.8-.2-3.6-1-5.3z" style="fill:url(#SVGID_5_)"/><path class="st21" d="m1212.6-2064.7 18.1 43.4s51.4-27.4 51.5-27.5c9.3-6 18.9.8 19.6 8.6.7 7.9-70.4 36.6-76 38.9-2.2.9-4.7-.5-5.2-2.8l-14.2-61.4 6.2.8z"/><path d="M1233.9-1952.8H989.8c-1.4 0-2.4-1.1-2.4-2.4v-135.7c0-1.4 1.1-2.4 2.4-2.4h244.1c1.4 0 2.4 1.1 2.4 2.4v135.7c0 1.3-1.1 2.4-2.4 2.4z" style="fill:#2d374c"/><path class="st23" d="M995.7-2086.1h232.2v125.3H995.7z"/><path class="st4" d="M985.1-1761.1c-28.3-.5-56.5-.3-84.8.7-1.6-1.9-4.2-3.2-7.1-2.8-18.6 2.6-37.5 1-56.1 4-2.6.4-2.6 4.8 0 5.2 13.9 2.3 28 1.9 42 2.7.2 3.4 2.5 6.5 7.2 6.5 33-.6 65.9-2.3 98.8-5 7.1-.6 7.3-11.1 0-11.3z"/><path class="st21" d="m961-1948.3-38.5-17-.1 2.6c-1 24.8 4.5 49.4 15.9 71.4l13.7 26.5-3 28 12.1 70.8c2.3 0 4.7-.1 7-.2l13.4-99.1-20.5-83z"/><path class="st24" d="m960.9-1764.1 7.1-.2 8.9 4.3 11.1 1 1.7 2.4-31.1 1.5z"/><path class="st25" d="m935.6-1944.4-28.9-30.5-4.1 8.8c-8.5 18.2-12.1 38.4-10.5 58.4l2.9 36.9-13.5 24.7-16.2 70c2.2.9 4.4 1.7 6.5 2.6l50.7-86.2 13.1-84.7z"/><path class="st24" d="m864.4-1774.5 6.5 2.5 6.6 7.5 9.9 5.1.6 2.9-29.3-10.6z"/><path class="st12" d="M946.6-2072.1c-6.6-.4-13.7 3-18.9 8.8-4.7 5.3-7.6 11.6-10.4 17.9-9.5 21.7-29.3 108.2-24.8 115.2h73c-5.7-48.9-3.9-75.3-1-100.5 1.1-10.2 1.6-22.8-3.8-32.1-3.6-6.2-8.7-9-14.1-9.3z"/><path class="st15" d="M971.5-2102.5c3.2-3.5 5.5-7.8 6.6-12.5.9-3.8.8-8.1-1.7-11s-6.7-3.6-10.4-2.8c-3.7.8-7 2.9-10.1 4.9-2.4 1.5-4.8 3.1-7.2 4.6-1.4.9-2.9 1.9-3.9 3.3-.9 1.4-1.1 3.5 0 4.8-5.1 2-7.4 9.2-4.2 13.8 1.6 2.4 4.5 4.1 5.1 7 .8 3.7-2.4 7.5-1.1 11l26.9-23.1z"/><linearGradient id="SVGID_6_" gradientUnits="userSpaceOnUse" x1="602.303" y1="-2319.729" x2="638.679" y2="-2319.729" gradientTransform="rotate(7.607 -975.37 344.486)"><stop offset="0" style="stop-color:#fddedc"/><stop offset=".974" style="stop-color:#fdbcb8"/></linearGradient><path d="M969-2113.6c2.3.7 3.5 3.2 3.7 5.6.2 2.4-.4 4.7-.4 7.1 0 2.4.9 5 3 6.1 1 .5 2.4.9 2.7 2 .3 1.5-1.8 2.2-2.9 3.2-1.8 1.5-1.6 4.3-1.2 6.7.4 2.3.5 5.2-1.4 6.6-2.4 1.8-5.8-.3-8.8-.5-2.8-.1-5.4 1.5-7.2 3.7-1.7 2.2-5.2 13.6-6.1 16.2-4.9.5-10.5-5.6-12.1-12.8l10.5-19.8c-1.6.5-3.5-.2-4.6-1.5s-1.3-3.3-.4-4.8 5.4-3.9 6.5 1.6c0 0 2.7-3.8 3.1-8.5 1-10.4 15.6-10.9 15.6-10.9z" style="fill:url(#SVGID_6_)"/><linearGradient id="SVGID_7_" gradientUnits="userSpaceOnUse" x1="3936.917" y1="240.484" x2="3955.108" y2="240.484" gradientTransform="scale(-1) rotate(87.524 541.542 -1488.235)"><stop offset="0" style="stop-color:#fddedc"/><stop offset=".974" style="stop-color:#fdbcb8"/></linearGradient><path d="m1027.7-1996.4-1.7 6.4 3.7 5.4 1.7.4c.1.1.3.1.5.2h.2l5.2 1.4c1.8.8 3.4 2 4.8 3.4 1 1 2.4-.6 1.5-1.6-1.7-1.7-3.5-3-5.6-3.9l.3-1.1c3.1 0 6 1 8.7 2.8 1.2.8 2.1-1.1 1-1.9-2.8-1.9-5.8-2.9-9.1-3l.3-.9c3.7-.3 7.2.6 10.3 2.7 1.2.8 2.1-1.1 1-1.9-3.2-2.2-6.9-3.2-10.6-3.1l.4-1.4c2.9-.1 5.6.7 8.1 2.3 1.2.8 2.1-1.1 1-1.9-3.1-2.1-6.6-2.9-10.3-2.5l-11.4-1.8z" style="fill:url(#SVGID_7_)"/><path d="m1027.7-1996.4-54.5-6.8-30-48.2c-3.9-6.1-12.4-7.2-17.8-2.4-4.7 4.2-5.2 11.4-1.2 16.2l39.6 49.9c1.5 2.1 62.7-1.5 62.7-1.5l1.2-7.2z" style="fill:#1c9af9"/><path class="st4" d="M1340.9-1764.3c-28.9-.5-43.7-6.5-72.7-3.5-.6-.8-1.4-1.2-2.3-1.1-17.4 1.7-34.7 3.2-52 5.7-2.9.4-3 7.2 0 7.3 14.2.4 28.4.2 42.6-.1.7 2 2 3.5 3.8 3.6 31.6.5 63.6-1.8 95.1-5.6 5.1-.7-9.2-6.2-14.5-6.3z"/><path class="st15" d="M1322.6-2061.7c-.9 5.5 5.1 9.8 5.8 15.3.5 4.6-3.1 8.9-7.5 10.4s-9.2.8-13.6-.5-8.7-3.2-13.3-4c-4-.7-8.2-.7-12.1-1.8-5.6-1.6-10.3-5.8-12.6-11.1-2.3-5.3-2.2-11.6.4-16.8-4-4.6-7.4-9.9-8.9-15.8-1.6-5.9-1.2-12.5 1.9-17.8s9.1-9 15.2-8.5c3-8.1 12-13.2 20.6-12.4s16.2 6.9 19.7 14.7c3.5 7.9 3.2 17.2-.1 25.1 3.5.2 6.8 2.3 8.5 5.3s1.9 6.9.4 10c-1.5 2.7-3.9 4.9-4.4 7.9z"/><path class="st17" d="m1265.4-1862.4 27.5-88.5 22-8.4 8 36.7-.9-.9-37.3 58.2 4.7 22.9-3.2 69.5h-6.4l-14.4-89.5z"/><path class="st24" d="M1286.2-1771.2h-6.3l-8 4.1-10.1 1.1-1.5 2.2 28.3.7z"/><path class="st12" d="m1324.6-1913.1-60.6 24 64.3 57.1-5.7 5.2-86.3-58.6 60.9-62.8 45.2-19 3 16.3c3 16-5.8 31.8-20.8 37.8z"/><path class="st24" d="m1329.3-1830.1-4.4 4.7-2.4 8.6-6 8.1.6 2.7 19.7-20.3z"/><linearGradient id="SVGID_8_" gradientUnits="userSpaceOnUse" x1="874.146" y1="-2321.47" x2="908.38" y2="-2321.47" gradientTransform="scale(-1 1) rotate(16.942 -1011.733 -9508.094)"><stop offset="0" style="stop-color:#fddedc"/><stop offset=".974" style="stop-color:#fdbcb8"/></linearGradient><path d="M1280.3-2107.5c-2.3.2-4 2.5-4.6 4.7-.6 2.3-.5 4.7-1 6.9-.5 2.3-1.8 4.7-4 5.3-1.1.3-2.5.4-2.9 1.4-.6 1.4 1.3 2.4 2.2 3.6 1.4 1.8.7 4.5-.1 6.7-.8 2.2-1.4 4.9.1 6.6 2 2.2 10.9-1.1 13.8-.7 0 0 6.1 18.8 6.6 21.5 4.7 1.4 6.4-.1 9.2-6.7l-4.3-22.3c1.5.8 3.4.5 4.7-.6 1.3-1 1.9-3 1.3-4.6s-4.5-4.8-6.6.3c0 0-1.9-4.1-1.4-8.8 1-10.1-13-13.3-13-13.3z" style="fill:url(#SVGID_8_)"/><path class="st25" d="M1280.2-2016c1 2.5 1.1 4.9 1.6 8.3 1.3 10.1 2.5 20.3 3.8 30.4.7 5.7 1.8 27.8 5.5 32.2 5.3 6.3 53.2-10.9 54.3-14.2 1-3-3.8-10.8-5.8-13.2-8.5-10.6-22.7-16.7-27.5-29.4-2.6-6.9 1.2-38.7 3-45.9 2.8-10.7-7.6-16.5-12.1-16.2-10.7.8-20.6 8.3-25.8 17.4-2.6 4.7-4.2 10.1-3.8 15.5.3 4.2 2.4 8.2 4.8 11.6.9 1.3 1.6 2.4 2 3.5z"/><linearGradient id="SVGID_9_" gradientUnits="userSpaceOnUse" x1="3931.829" y1="606.771" x2="3949.055" y2="606.771" gradientTransform="scale(-1 1) rotate(-89.679 66.094 1894.527)"><stop offset="0" style="stop-color:#fddedc"/><stop offset=".974" style="stop-color:#fdbcb8"/></linearGradient><path d="m1209.9-1995.7 1.9 6-3.2 5.3-1.6.5c-.1.1-.3.1-.5.2h-.2l-4.9 1.5c-1.6.9-3.1 2-4.4 3.5-.9 1-2.3-.5-1.5-1.4 1.5-1.7 3.2-3 5.1-3.9l-.4-1c-3 .2-5.7 1.2-8.1 3.1-1.1.8-2.1-1-1-1.8 2.5-1.9 5.4-3 8.4-3.3l-.3-.9c-3.5-.1-6.8.9-9.6 3.1-1.1.8-2.1-1-1-1.8 2.9-2.2 6.3-3.3 9.9-3.4l-.5-1.3c-2.8 0-5.3.9-7.5 2.6-1.1.8-2.1-1-1-1.8 2.8-2.1 6.2-3.1 9.6-2.8l10.8-2.4z" style="fill:url(#SVGID_9_)"/><path d="m1209.9-1995.7 51.2-9 26.1-47c3.4-6 11.4-7.4 16.7-3.1 4.6 3.8 5.4 10.5 1.9 15.3l-35.2 49c-1.3 2-59.3 1.5-59.3 1.5l-1.4-6.7z" style="fill:#726f72"/><circle class="st23" cx="1103.5" cy="-2089.4" r="1.6"/><path class="st32" d="m1093.7-1960.8 134.2-107.7v50.5l-75.6 57.2zM1191.4-1960.8l36.5-26.2v26.2z"/></g><path style="opacity:.11;fill:#2e31ff" d="m0 544.6 283.4 334.2 272.1-57.6 616.8-319.7L943.3 0l-593 434.6z"/></svg>